<svg width="70" height="68" viewBox="0 0 70 68" fill="none" xmlns="http://www.w3.org/2000/svg">
<rect width="70" height="67.1074" rx="15" fill="#303030"/>
<path d="M30.6165 34.9036C30.8374 35.8604 29.7877 36.5876 28.9712 36.0772V36.0772C27.4332 35.1161 25.4074 35.5838 24.4464 37.1218L22.7093 39.9017C21.8012 41.3547 22.8508 43.2501 24.5633 43.2501H28.1172C28.5702 43.2501 28.9375 43.6173 28.9375 44.0704V46.8047C28.9375 47.2578 28.5702 47.6251 28.1172 47.6251H24.5703C19.4206 47.6251 16.2782 41.9479 19.0053 37.5844L20.7408 34.8053C21.7011 33.2673 21.2332 31.242 19.6956 30.2812V30.2812C18.8697 29.7653 19.0827 28.5065 20.0291 28.288L27.5648 26.5482C28.1535 26.4123 28.7407 26.7793 28.8766 27.3678L30.6165 34.9036ZM37.354 22.3996L38.4363 24.1316C39.3974 25.6697 38.9297 27.6957 37.3916 28.6568V28.6568C36.5678 29.1714 36.7763 30.4309 37.7251 30.65L45.2608 32.3897C45.8536 32.5264 46.4376 32.1547 46.5726 31.5701L48.3123 24.0344C48.5309 23.088 47.4927 22.3446 46.667 22.8608V22.8608C45.1311 23.8205 43.1079 23.3531 42.1486 21.8168L41.065 20.0814C38.5001 15.9776 32.5058 15.9681 29.935 20.0814L28.707 22.0478C28.4671 22.432 28.584 22.9379 28.9682 23.178L31.2869 24.6269C31.671 24.867 32.1772 24.7501 32.4173 24.366L33.6451 22.4011C34.514 21.0106 36.5143 21.0561 37.354 22.3996ZM51.9943 37.5844L50.1134 34.5722C49.8734 34.1878 49.3672 34.0708 48.9829 34.311L46.6681 35.7574C46.284 35.9975 46.1671 36.5035 46.4071 36.8878L48.2914 39.9032C49.1976 41.3532 48.1508 43.2501 46.4364 43.2501H43.1549C41.3435 43.2501 39.875 41.7816 39.875 39.9702V39.9702C39.875 38.9986 38.6963 38.5084 38.0079 39.1968L32.5391 44.6643C32.112 45.0914 32.112 45.7839 32.5391 46.211L38.0079 51.679C38.6916 52.3629 39.875 51.8838 39.875 50.9056V50.9056C39.875 49.0938 41.3437 47.6251 43.1555 47.6251H46.4293C51.575 47.6251 54.7237 41.9514 51.9943 37.5844Z" fill="#78D6AF"/>
</svg>
