<svg width="70" height="68" viewBox="0 0 70 68" fill="none" xmlns="http://www.w3.org/2000/svg">
<rect width="70" height="67.1074" rx="15" fill="#303030"/>
<path d="M54.6818 27.68C43.6087 17.4381 26.3868 17.4419 15.3181 27.68C14.9018 28.065 14.8937 28.7169 15.2962 29.1163L17.4362 31.2394C17.8199 31.6206 18.4374 31.6288 18.8362 31.2631C27.9562 22.9081 42.0425 22.9063 51.1643 31.2631C51.5631 31.6288 52.1806 31.62 52.5643 31.2394L54.7043 29.1163C55.1062 28.7169 55.0981 28.065 54.6818 27.68ZM35 40C32.7906 40 31 41.7906 31 44C31 46.2094 32.7906 48 35 48C37.2093 48 39 46.2094 39 44C39 41.7906 37.2093 40 35 40ZM47.6668 34.7756C40.4631 28.405 29.5287 28.4119 22.3331 34.7756C21.9018 35.1569 21.8881 35.8188 22.2975 36.2225L24.45 38.3469C24.825 38.7169 25.4287 38.7419 25.8281 38.3969C31.075 33.8613 38.9368 33.8713 44.1712 38.3969C44.5706 38.7419 45.1743 38.7175 45.5493 38.3469L47.7018 36.2225C48.1118 35.8188 48.0975 35.1563 47.6668 34.7756Z" fill="#7FA0F3"/>
</svg>
