<svg width="70" height="68" viewBox="0 0 70 68" fill="none" xmlns="http://www.w3.org/2000/svg">
<rect width="70" height="67.1074" rx="15" fill="#303030"/>
<path d="M30.6241 36.5005H21.8724C20.2002 36.5005 19.3641 38.5165 20.5441 39.7042L23.1149 42.1266L15.3634 49.8859C14.8789 50.3704 14.8789 51.1674 15.3634 51.6519L17.3481 53.6366C17.8326 54.1211 18.6296 54.1211 19.1141 53.6366L26.8734 45.8773L29.3036 48.4559C30.4835 49.6359 32.4995 48.7998 32.4995 47.1276V38.3759C32.4995 37.3366 31.6634 36.5005 30.6241 36.5005ZM39.3759 31.4995H48.1276C49.7998 31.4995 50.6359 29.4757 49.456 28.2958L46.8773 25.8734L54.6367 18.1141C55.1211 17.6296 55.1211 16.8326 54.6367 16.3481L52.6519 14.3634C52.1674 13.8789 51.3704 13.8789 50.8859 14.3634L43.1266 22.1227L40.6964 19.5441C39.5165 18.3641 37.5005 19.2002 37.5005 20.8724V29.6241C37.5005 30.6634 38.3366 31.4995 39.3759 31.4995ZM46.8773 42.1266L49.456 39.6964C50.6359 38.5165 49.7998 36.5005 48.1276 36.5005H39.3759C38.3366 36.5005 37.5005 37.3366 37.5005 38.3759V47.1276C37.5005 48.7998 39.5243 49.6359 40.7042 48.4559L43.1266 45.8851L50.8859 53.6445C51.3704 54.1289 52.1674 54.1289 52.6519 53.6445L54.6367 51.6597C55.1211 51.1752 55.1211 50.3782 54.6367 49.8937L46.8773 42.1266ZM29.2958 19.5519L26.8734 22.1227L19.1141 14.3634C18.6296 13.8789 17.8326 13.8789 17.3481 14.3634L15.3634 16.3481C14.8789 16.8326 14.8789 17.6296 15.3634 18.1141L23.1227 25.8734L20.5441 28.3036C19.3641 29.4835 20.2002 31.4995 21.8724 31.4995H30.6241C31.6634 31.4995 32.4995 30.6634 32.4995 29.6241V20.8724C32.4995 19.208 30.4757 18.3719 29.2958 19.5519Z" fill="#F0BE70"/>
</svg>
