<svg width="70" height="68" viewBox="0 0 70 68" fill="none" xmlns="http://www.w3.org/2000/svg">
<rect width="70" height="67.1074" rx="15" fill="#303030"/>
<path d="M35 16C23.9531 16 15 23.2734 15 32.25C15 36.125 16.6719 39.6719 19.4531 42.4609C18.4766 46.3984 15.2109 49.9063 15.1719 49.9453C15 50.125 14.9531 50.3906 15.0547 50.625C15.1562 50.8594 15.375 51 15.625 51C20.8047 51 24.6875 48.5156 26.6094 46.9844C29.1641 47.9453 32 48.5 35 48.5C46.0469 48.5 55 41.2266 55 32.25C55 23.2734 46.0469 16 35 16ZM25 34.75C23.6172 34.75 22.5 33.6328 22.5 32.25C22.5 30.8672 23.6172 29.75 25 29.75C26.3828 29.75 27.5 30.8672 27.5 32.25C27.5 33.6328 26.3828 34.75 25 34.75ZM35 34.75C33.6172 34.75 32.5 33.6328 32.5 32.25C32.5 30.8672 33.6172 29.75 35 29.75C36.3828 29.75 37.5 30.8672 37.5 32.25C37.5 33.6328 36.3828 34.75 35 34.75ZM45 34.75C43.6172 34.75 42.5 33.6328 42.5 32.25C42.5 30.8672 43.6172 29.75 45 29.75C46.3828 29.75 47.5 30.8672 47.5 32.25C47.5 33.6328 46.3828 34.75 45 34.75Z" fill="#DADCDE"/>
</svg>
