<svg width="601" height="186" viewBox="0 0 601 186" fill="none" xmlns="http://www.w3.org/2000/svg">
<path d="M415.229 25.2271L390.033 36.7241" stroke="#77D6B0" stroke-width="3" stroke-linecap="round"/>
<path d="M443.2 22V10.9H444.67V20.71H450.385V22H443.2ZM455.26 13.9C455.76 13.9 456.18 13.98 456.52 14.14C456.86 14.3 457.135 14.49 457.345 14.71C457.555 14.92 457.715 15.12 457.825 15.31H457.915V14.05H459.34V22H457.915V20.74H457.825C457.715 20.93 457.555 21.135 457.345 21.355C457.135 21.575 456.86 21.765 456.52 21.925C456.18 22.075 455.76 22.15 455.26 22.15C454.66 22.15 454.135 22.035 453.685 21.805C453.235 21.565 452.86 21.25 452.56 20.86C452.26 20.46 452.035 20.015 451.885 19.525C451.735 19.035 451.66 18.535 451.66 18.025C451.66 17.515 451.735 17.015 451.885 16.525C452.035 16.035 452.26 15.595 452.56 15.205C452.86 14.805 453.235 14.49 453.685 14.26C454.135 14.02 454.66 13.9 455.26 13.9ZM455.5 15.115C454.97 15.115 454.525 15.26 454.165 15.55C453.805 15.83 453.535 16.19 453.355 16.63C453.185 17.07 453.1 17.535 453.1 18.025C453.1 18.505 453.185 18.97 453.355 19.42C453.535 19.86 453.805 20.225 454.165 20.515C454.525 20.795 454.97 20.935 455.5 20.935C456.03 20.935 456.47 20.795 456.82 20.515C457.18 20.225 457.445 19.86 457.615 19.42C457.795 18.97 457.885 18.505 457.885 18.025C457.885 17.535 457.795 17.07 457.615 16.63C457.445 16.19 457.18 15.83 456.82 15.55C456.47 15.26 456.03 15.115 455.5 15.115ZM465.199 22.15C464.549 22.15 463.979 22.035 463.489 21.805C462.999 21.565 462.589 21.25 462.259 20.86C461.939 20.46 461.694 20.015 461.524 19.525C461.364 19.035 461.284 18.535 461.284 18.025C461.284 17.515 461.364 17.02 461.524 16.54C461.684 16.05 461.924 15.605 462.244 15.205C462.574 14.805 462.984 14.49 463.474 14.26C463.964 14.02 464.539 13.9 465.199 13.9C465.839 13.9 466.369 13.995 466.789 14.185C467.209 14.375 467.544 14.615 467.794 14.905C468.054 15.185 468.244 15.47 468.364 15.76C468.494 16.04 468.579 16.275 468.619 16.465C468.659 16.655 468.679 16.75 468.679 16.75H467.299C467.299 16.75 467.274 16.67 467.224 16.51C467.174 16.34 467.079 16.15 466.939 15.94C466.799 15.73 466.589 15.545 466.309 15.385C466.029 15.215 465.659 15.13 465.199 15.13C464.649 15.13 464.184 15.27 463.804 15.55C463.434 15.82 463.154 16.175 462.964 16.615C462.784 17.055 462.694 17.525 462.694 18.025C462.694 18.525 462.784 18.995 462.964 19.435C463.154 19.875 463.434 20.235 463.804 20.515C464.184 20.785 464.649 20.92 465.199 20.92C465.659 20.92 466.029 20.84 466.309 20.68C466.589 20.51 466.799 20.32 466.939 20.11C467.079 19.9 467.174 19.715 467.224 19.555C467.274 19.385 467.299 19.3 467.299 19.3H468.679C468.679 19.3 468.659 19.395 468.619 19.585C468.579 19.775 468.494 20.015 468.364 20.305C468.244 20.585 468.054 20.87 467.794 21.16C467.544 21.44 467.209 21.675 466.789 21.865C466.369 22.055 465.839 22.15 465.199 22.15ZM470.783 22V10.6H472.208V17.23L475.373 14.05H477.233L473.573 17.665L477.308 22H475.493L472.208 18.175V22H470.783ZM486.175 22.15C485.325 22.15 484.61 21.955 484.03 21.565C483.45 21.165 483.01 20.65 482.71 20.02C482.41 19.39 482.26 18.725 482.26 18.025C482.26 17.315 482.41 16.65 482.71 16.03C483.01 15.4 483.45 14.89 484.03 14.5C484.61 14.1 485.325 13.9 486.175 13.9C487.025 13.9 487.74 14.1 488.32 14.5C488.9 14.89 489.34 15.4 489.64 16.03C489.94 16.65 490.09 17.315 490.09 18.025C490.09 18.725 489.94 19.39 489.64 20.02C489.34 20.65 488.9 21.165 488.32 21.565C487.74 21.955 487.025 22.15 486.175 22.15ZM486.175 20.905C486.715 20.905 487.165 20.77 487.525 20.5C487.895 20.22 488.17 19.86 488.35 19.42C488.54 18.98 488.635 18.515 488.635 18.025C488.635 17.525 488.54 17.06 488.35 16.63C488.17 16.19 487.895 15.835 487.525 15.565C487.165 15.285 486.715 15.145 486.175 15.145C485.645 15.145 485.195 15.285 484.825 15.565C484.455 15.835 484.175 16.19 483.985 16.63C483.805 17.06 483.715 17.525 483.715 18.025C483.715 18.515 483.805 18.98 483.985 19.42C484.175 19.86 484.455 20.22 484.825 20.5C485.195 20.77 485.645 20.905 486.175 20.905ZM492.964 22V15.22H491.659V14.05H492.964V13.075C492.964 12.655 493.039 12.245 493.189 11.845C493.339 11.435 493.589 11.1 493.939 10.84C494.289 10.58 494.764 10.45 495.364 10.45C495.654 10.45 495.884 10.475 496.054 10.525C496.234 10.565 496.324 10.585 496.324 10.585V11.71C496.324 11.71 496.244 11.695 496.084 11.665C495.934 11.625 495.759 11.605 495.559 11.605C495.099 11.605 494.789 11.745 494.629 12.025C494.469 12.305 494.389 12.655 494.389 13.075V14.05H496.234V15.22H494.389V22H492.964ZM504.653 22.15C503.833 22.15 503.213 21.94 502.793 21.52C502.383 21.1 502.178 20.51 502.178 19.75V15.22H500.753V14.05H502.178V12.055H503.603V14.05H505.538V15.22H503.603V19.75C503.603 20.15 503.713 20.445 503.933 20.635C504.153 20.815 504.473 20.905 504.893 20.905C505.113 20.905 505.323 20.89 505.523 20.86C505.723 20.83 505.823 20.815 505.823 20.815V22.03C505.823 22.03 505.708 22.05 505.478 22.09C505.248 22.13 504.973 22.15 504.653 22.15ZM508.624 12.535C508.354 12.535 508.129 12.445 507.949 12.265C507.779 12.085 507.694 11.87 507.694 11.62C507.694 11.36 507.779 11.14 507.949 10.96C508.129 10.78 508.354 10.69 508.624 10.69C508.884 10.69 509.104 10.78 509.284 10.96C509.464 11.14 509.554 11.36 509.554 11.62C509.554 11.87 509.464 12.085 509.284 12.265C509.104 12.445 508.884 12.535 508.624 12.535ZM507.919 22V14.05H509.344V22H507.919ZM511.649 22V14.05H513.074V15.205H513.134C513.214 15.055 513.339 14.88 513.509 14.68C513.679 14.47 513.909 14.29 514.199 14.14C514.499 13.98 514.874 13.9 515.324 13.9C515.914 13.9 516.409 14.045 516.809 14.335C517.219 14.615 517.524 14.995 517.724 15.475H517.739C517.959 15.035 518.269 14.665 518.669 14.365C519.079 14.055 519.609 13.9 520.259 13.9C521.119 13.9 521.779 14.195 522.239 14.785C522.709 15.365 522.944 16.115 522.944 17.035V22H521.519V17.11C521.519 16.52 521.379 16.045 521.099 15.685C520.819 15.315 520.414 15.13 519.884 15.13C519.424 15.13 519.054 15.255 518.774 15.505C518.504 15.755 518.309 16.065 518.189 16.435C518.069 16.805 518.009 17.175 518.009 17.545V22H516.584V17.11C516.584 16.52 516.444 16.045 516.164 15.685C515.894 15.315 515.489 15.13 514.949 15.13C514.489 15.13 514.119 15.255 513.839 15.505C513.569 15.755 513.374 16.07 513.254 16.45C513.134 16.82 513.074 17.185 513.074 17.545V22H511.649ZM528.652 22.15C528.002 22.15 527.437 22.035 526.957 21.805C526.487 21.565 526.097 21.245 525.787 20.845C525.487 20.445 525.262 20.005 525.112 19.525C524.962 19.035 524.887 18.535 524.887 18.025C524.887 17.525 524.957 17.03 525.097 16.54C525.247 16.05 525.472 15.605 525.772 15.205C526.082 14.805 526.467 14.49 526.927 14.26C527.397 14.02 527.952 13.9 528.592 13.9C529.272 13.9 529.872 14.055 530.392 14.365C530.912 14.675 531.322 15.135 531.622 15.745C531.922 16.355 532.072 17.12 532.072 18.04V18.46H526.327C526.357 18.91 526.462 19.325 526.642 19.705C526.832 20.075 527.097 20.375 527.437 20.605C527.777 20.825 528.182 20.935 528.652 20.935C529.062 20.935 529.392 20.87 529.642 20.74C529.902 20.6 530.107 20.44 530.257 20.26C530.407 20.08 530.507 19.925 530.557 19.795C530.617 19.655 530.647 19.585 530.647 19.585H531.982C531.982 19.585 531.957 19.675 531.907 19.855C531.857 20.025 531.767 20.235 531.637 20.485C531.507 20.735 531.317 20.99 531.067 21.25C530.817 21.5 530.497 21.715 530.107 21.895C529.717 22.065 529.232 22.15 528.652 22.15ZM526.342 17.35H530.677C530.657 16.83 530.547 16.41 530.347 16.09C530.147 15.76 529.892 15.515 529.582 15.355C529.272 15.195 528.942 15.115 528.592 15.115C527.962 15.115 527.447 15.32 527.047 15.73C526.647 16.13 526.412 16.67 526.342 17.35ZM540.849 22.15C540.029 22.15 539.409 21.94 538.989 21.52C538.579 21.1 538.374 20.51 538.374 19.75V15.22H536.949V14.05H538.374V12.055H539.799V14.05H541.734V15.22H539.799V19.75C539.799 20.15 539.909 20.445 540.129 20.635C540.349 20.815 540.669 20.905 541.089 20.905C541.309 20.905 541.519 20.89 541.719 20.86C541.919 20.83 542.019 20.815 542.019 20.815V22.03C542.019 22.03 541.904 22.05 541.674 22.09C541.444 22.13 541.169 22.15 540.849 22.15ZM547.362 22.15C546.512 22.15 545.797 21.955 545.217 21.565C544.637 21.165 544.197 20.65 543.897 20.02C543.597 19.39 543.447 18.725 543.447 18.025C543.447 17.315 543.597 16.65 543.897 16.03C544.197 15.4 544.637 14.89 545.217 14.5C545.797 14.1 546.512 13.9 547.362 13.9C548.212 13.9 548.927 14.1 549.507 14.5C550.087 14.89 550.527 15.4 550.827 16.03C551.127 16.65 551.277 17.315 551.277 18.025C551.277 18.725 551.127 19.39 550.827 20.02C550.527 20.65 550.087 21.165 549.507 21.565C548.927 21.955 548.212 22.15 547.362 22.15ZM547.362 20.905C547.902 20.905 548.352 20.77 548.712 20.5C549.082 20.22 549.357 19.86 549.537 19.42C549.727 18.98 549.822 18.515 549.822 18.025C549.822 17.525 549.727 17.06 549.537 16.63C549.357 16.19 549.082 15.835 548.712 15.565C548.352 15.285 547.902 15.145 547.362 15.145C546.832 15.145 546.382 15.285 546.012 15.565C545.642 15.835 545.362 16.19 545.172 16.63C544.992 17.06 544.902 17.525 544.902 18.025C544.902 18.515 544.992 18.98 545.172 19.42C545.362 19.86 545.642 20.22 546.012 20.5C546.382 20.77 546.832 20.905 547.362 20.905ZM445.96 42.15C445.35 42.15 444.845 42.065 444.445 41.895C444.055 41.725 443.745 41.515 443.515 41.265C443.285 41.005 443.115 40.75 443.005 40.5C442.895 40.24 442.825 40.025 442.795 39.855C442.765 39.685 442.75 39.6 442.75 39.6H444.19C444.19 39.6 444.205 39.67 444.235 39.81C444.275 39.94 444.35 40.095 444.46 40.275C444.58 40.445 444.76 40.6 445 40.74C445.25 40.87 445.58 40.935 445.99 40.935C446.46 40.935 446.825 40.825 447.085 40.605C447.345 40.375 447.475 40.095 447.475 39.765C447.475 39.475 447.37 39.245 447.16 39.075C446.96 38.905 446.67 38.775 446.29 38.685L445.21 38.43C444.81 38.33 444.435 38.195 444.085 38.025C443.735 37.855 443.45 37.625 443.23 37.335C443.02 37.035 442.915 36.665 442.915 36.225C442.915 35.545 443.17 34.99 443.68 34.56C444.19 34.12 444.855 33.9 445.675 33.9C446.225 33.9 446.68 33.98 447.04 34.14C447.4 34.29 447.685 34.48 447.895 34.71C448.115 34.94 448.275 35.17 448.375 35.4C448.485 35.63 448.555 35.825 448.585 35.985C448.615 36.135 448.63 36.21 448.63 36.21H447.25C447.25 36.21 447.235 36.155 447.205 36.045C447.175 35.925 447.105 35.795 446.995 35.655C446.895 35.505 446.74 35.375 446.53 35.265C446.32 35.145 446.04 35.085 445.69 35.085C445.21 35.085 444.86 35.195 444.64 35.415C444.42 35.635 444.31 35.875 444.31 36.135C444.31 36.385 444.41 36.59 444.61 36.75C444.82 36.9 445.09 37.015 445.42 37.095L446.515 37.35C447.195 37.51 447.755 37.775 448.195 38.145C448.645 38.505 448.87 39.025 448.87 39.705C448.87 40.145 448.755 40.555 448.525 40.935C448.295 41.305 447.965 41.6 447.535 41.82C447.105 42.04 446.58 42.15 445.96 42.15ZM454.286 42.15C453.436 42.15 452.721 41.955 452.141 41.565C451.561 41.165 451.121 40.65 450.821 40.02C450.521 39.39 450.371 38.725 450.371 38.025C450.371 37.315 450.521 36.65 450.821 36.03C451.121 35.4 451.561 34.89 452.141 34.5C452.721 34.1 453.436 33.9 454.286 33.9C455.136 33.9 455.851 34.1 456.431 34.5C457.011 34.89 457.451 35.4 457.751 36.03C458.051 36.65 458.201 37.315 458.201 38.025C458.201 38.725 458.051 39.39 457.751 40.02C457.451 40.65 457.011 41.165 456.431 41.565C455.851 41.955 455.136 42.15 454.286 42.15ZM454.286 40.905C454.826 40.905 455.276 40.77 455.636 40.5C456.006 40.22 456.281 39.86 456.461 39.42C456.651 38.98 456.746 38.515 456.746 38.025C456.746 37.525 456.651 37.06 456.461 36.63C456.281 36.19 456.006 35.835 455.636 35.565C455.276 35.285 454.826 35.145 454.286 35.145C453.756 35.145 453.306 35.285 452.936 35.565C452.566 35.835 452.286 36.19 452.096 36.63C451.916 37.06 451.826 37.525 451.826 38.025C451.826 38.515 451.916 38.98 452.096 39.42C452.286 39.86 452.566 40.22 452.936 40.5C453.306 40.77 453.756 40.905 454.286 40.905ZM460.145 42V34.05H461.57V35.04H461.63C461.8 34.74 462.05 34.475 462.38 34.245C462.71 34.015 463.175 33.9 463.775 33.9C463.945 33.9 464.1 33.91 464.24 33.93C464.38 33.94 464.45 33.945 464.45 33.945V35.31C464.45 35.31 464.37 35.305 464.21 35.295C464.06 35.275 463.9 35.265 463.73 35.265C463.04 35.265 462.505 35.465 462.125 35.865C461.755 36.255 461.57 36.895 461.57 37.785V42H460.145ZM469.394 42.15C468.574 42.15 467.954 41.94 467.534 41.52C467.124 41.1 466.919 40.51 466.919 39.75V35.22H465.494V34.05H466.919V32.055H468.344V34.05H470.279V35.22H468.344V39.75C468.344 40.15 468.454 40.445 468.674 40.635C468.894 40.815 469.214 40.905 469.634 40.905C469.854 40.905 470.064 40.89 470.264 40.86C470.464 40.83 470.564 40.815 470.564 40.815V42.03C470.564 42.03 470.449 42.05 470.219 42.09C469.989 42.13 469.714 42.15 469.394 42.15ZM479.267 42.15C478.447 42.15 477.827 41.94 477.407 41.52C476.997 41.1 476.792 40.51 476.792 39.75V35.22H475.367V34.05H476.792V32.055H478.217V34.05H480.152V35.22H478.217V39.75C478.217 40.15 478.327 40.445 478.547 40.635C478.767 40.815 479.087 40.905 479.507 40.905C479.727 40.905 479.937 40.89 480.137 40.86C480.337 40.83 480.437 40.815 480.437 40.815V42.03C480.437 42.03 480.322 42.05 480.092 42.09C479.862 42.13 479.587 42.15 479.267 42.15ZM482.308 42V34.05H483.733V35.04H483.793C483.963 34.74 484.213 34.475 484.543 34.245C484.873 34.015 485.338 33.9 485.938 33.9C486.108 33.9 486.263 33.91 486.403 33.93C486.543 33.94 486.613 33.945 486.613 33.945V35.31C486.613 35.31 486.533 35.305 486.373 35.295C486.223 35.275 486.063 35.265 485.893 35.265C485.203 35.265 484.668 35.465 484.288 35.865C483.918 36.255 483.733 36.895 483.733 37.785V42H482.308ZM491.031 33.9C491.531 33.9 491.951 33.98 492.291 34.14C492.631 34.3 492.906 34.49 493.116 34.71C493.326 34.92 493.486 35.12 493.596 35.31H493.686V34.05H495.111V42H493.686V40.74H493.596C493.486 40.93 493.326 41.135 493.116 41.355C492.906 41.575 492.631 41.765 492.291 41.925C491.951 42.075 491.531 42.15 491.031 42.15C490.431 42.15 489.906 42.035 489.456 41.805C489.006 41.565 488.631 41.25 488.331 40.86C488.031 40.46 487.806 40.015 487.656 39.525C487.506 39.035 487.431 38.535 487.431 38.025C487.431 37.515 487.506 37.015 487.656 36.525C487.806 36.035 488.031 35.595 488.331 35.205C488.631 34.805 489.006 34.49 489.456 34.26C489.906 34.02 490.431 33.9 491.031 33.9ZM491.271 35.115C490.741 35.115 490.296 35.26 489.936 35.55C489.576 35.83 489.306 36.19 489.126 36.63C488.956 37.07 488.871 37.535 488.871 38.025C488.871 38.505 488.956 38.97 489.126 39.42C489.306 39.86 489.576 40.225 489.936 40.515C490.296 40.795 490.741 40.935 491.271 40.935C491.801 40.935 492.241 40.795 492.591 40.515C492.951 40.225 493.216 39.86 493.386 39.42C493.566 38.97 493.656 38.505 493.656 38.025C493.656 37.535 493.566 37.07 493.386 36.63C493.216 36.19 492.951 35.83 492.591 35.55C492.241 35.26 491.801 35.115 491.271 35.115ZM500.115 42.15C499.505 42.15 499 42.065 498.6 41.895C498.21 41.725 497.9 41.515 497.67 41.265C497.44 41.005 497.27 40.75 497.16 40.5C497.05 40.24 496.98 40.025 496.95 39.855C496.92 39.685 496.905 39.6 496.905 39.6H498.345C498.345 39.6 498.36 39.67 498.39 39.81C498.43 39.94 498.505 40.095 498.615 40.275C498.735 40.445 498.915 40.6 499.155 40.74C499.405 40.87 499.735 40.935 500.145 40.935C500.615 40.935 500.98 40.825 501.24 40.605C501.5 40.375 501.63 40.095 501.63 39.765C501.63 39.475 501.525 39.245 501.315 39.075C501.115 38.905 500.825 38.775 500.445 38.685L499.365 38.43C498.965 38.33 498.59 38.195 498.24 38.025C497.89 37.855 497.605 37.625 497.385 37.335C497.175 37.035 497.07 36.665 497.07 36.225C497.07 35.545 497.325 34.99 497.835 34.56C498.345 34.12 499.01 33.9 499.83 33.9C500.38 33.9 500.835 33.98 501.195 34.14C501.555 34.29 501.84 34.48 502.05 34.71C502.27 34.94 502.43 35.17 502.53 35.4C502.64 35.63 502.71 35.825 502.74 35.985C502.77 36.135 502.785 36.21 502.785 36.21H501.405C501.405 36.21 501.39 36.155 501.36 36.045C501.33 35.925 501.26 35.795 501.15 35.655C501.05 35.505 500.895 35.375 500.685 35.265C500.475 35.145 500.195 35.085 499.845 35.085C499.365 35.085 499.015 35.195 498.795 35.415C498.575 35.635 498.465 35.875 498.465 36.135C498.465 36.385 498.565 36.59 498.765 36.75C498.975 36.9 499.245 37.015 499.575 37.095L500.67 37.35C501.35 37.51 501.91 37.775 502.35 38.145C502.8 38.505 503.025 39.025 503.025 39.705C503.025 40.145 502.91 40.555 502.68 40.935C502.45 41.305 502.12 41.6 501.69 41.82C501.26 42.04 500.735 42.15 500.115 42.15ZM504.972 42V30.6H506.397V35.205H506.487C506.557 35.085 506.672 34.92 506.832 34.71C507.002 34.5 507.242 34.315 507.552 34.155C507.862 33.985 508.252 33.9 508.722 33.9C509.302 33.9 509.797 34.035 510.207 34.305C510.617 34.565 510.927 34.92 511.137 35.37C511.357 35.82 511.467 36.325 511.467 36.885V42H510.042V36.975C510.042 36.445 509.892 36.005 509.592 35.655C509.302 35.305 508.877 35.13 508.317 35.13C507.867 35.13 507.502 35.245 507.222 35.475C506.942 35.695 506.732 35.99 506.592 36.36C506.462 36.72 506.397 37.105 506.397 37.515V42H504.972ZM514.663 35.85C514.383 35.85 514.148 35.755 513.958 35.565C513.778 35.365 513.688 35.135 513.688 34.875C513.688 34.605 513.778 34.375 513.958 34.185C514.148 33.995 514.383 33.9 514.663 33.9C514.943 33.9 515.173 33.995 515.353 34.185C515.543 34.375 515.638 34.605 515.638 34.875C515.638 35.145 515.543 35.375 515.353 35.565C515.173 35.755 514.943 35.85 514.663 35.85ZM514.663 42.15C514.383 42.15 514.148 42.055 513.958 41.865C513.778 41.665 513.688 41.435 513.688 41.175C513.688 40.905 513.778 40.675 513.958 40.485C514.148 40.295 514.383 40.2 514.663 40.2C514.943 40.2 515.173 40.295 515.353 40.485C515.543 40.675 515.638 40.905 515.638 41.175C515.638 41.445 515.543 41.675 515.353 41.865C515.173 42.055 514.943 42.15 514.663 42.15ZM525.142 42.15C524.492 42.15 523.872 42.025 523.282 41.775C522.702 41.525 522.227 41.145 521.857 40.635C521.497 40.115 521.317 39.46 521.317 38.67H522.712C522.712 39.18 522.827 39.6 523.057 39.93C523.297 40.26 523.602 40.505 523.972 40.665C524.352 40.825 524.742 40.905 525.142 40.905C525.572 40.905 525.967 40.825 526.327 40.665C526.687 40.495 526.977 40.25 527.197 39.93C527.417 39.61 527.527 39.225 527.527 38.775C527.527 38.185 527.332 37.72 526.942 37.38C526.552 37.03 526.032 36.855 525.382 36.855H523.882V35.7H525.382C525.922 35.7 526.382 35.54 526.762 35.22C527.152 34.9 527.347 34.465 527.347 33.915C527.347 33.515 527.242 33.175 527.032 32.895C526.832 32.605 526.562 32.38 526.222 32.22C525.892 32.06 525.532 31.98 525.142 31.98C524.772 31.98 524.412 32.065 524.062 32.235C523.722 32.395 523.442 32.64 523.222 32.97C523.002 33.3 522.892 33.72 522.892 34.23H521.527C521.527 33.45 521.702 32.805 522.052 32.295C522.412 31.775 522.867 31.39 523.417 31.14C523.977 30.88 524.562 30.75 525.172 30.75C525.792 30.75 526.372 30.875 526.912 31.125C527.462 31.365 527.907 31.715 528.247 32.175C528.587 32.625 528.757 33.165 528.757 33.795C528.757 34.395 528.607 34.905 528.307 35.325C528.007 35.735 527.627 36.03 527.167 36.21V36.285C527.697 36.465 528.132 36.77 528.472 37.2C528.812 37.63 528.982 38.17 528.982 38.82C528.982 39.51 528.802 40.105 528.442 40.605C528.082 41.105 527.612 41.49 527.032 41.76C526.452 42.02 525.822 42.15 525.142 42.15ZM532.884 42C532.914 41.04 533.039 40.13 533.259 39.27C533.479 38.4 533.754 37.59 534.084 36.84C534.414 36.09 534.759 35.415 535.119 34.815C535.479 34.205 535.819 33.68 536.139 33.24C536.469 32.8 536.739 32.455 536.949 32.205H530.994V30.9H538.629V31.995C538.629 31.995 538.529 32.11 538.329 32.34C538.129 32.56 537.869 32.88 537.549 33.3C537.239 33.72 536.904 34.23 536.544 34.83C536.194 35.42 535.854 36.09 535.524 36.84C535.204 37.58 534.934 38.385 534.714 39.255C534.494 40.115 534.364 41.03 534.324 42H532.884ZM541.553 35.34C541.133 35.34 540.748 35.25 540.398 35.07C540.048 34.88 539.763 34.61 539.543 34.26C539.333 33.91 539.228 33.5 539.228 33.03C539.228 32.56 539.333 32.155 539.543 31.815C539.753 31.475 540.033 31.215 540.383 31.035C540.743 30.845 541.133 30.75 541.553 30.75C541.983 30.75 542.373 30.845 542.723 31.035C543.073 31.215 543.353 31.475 543.563 31.815C543.773 32.155 543.878 32.56 543.878 33.03C543.878 33.5 543.773 33.91 543.563 34.26C543.353 34.61 543.068 34.88 542.708 35.07C542.358 35.25 541.973 35.34 541.553 35.34ZM541.088 42L546.923 30.9H548.303L542.468 42H541.088ZM541.553 34.275C541.873 34.275 542.148 34.165 542.378 33.945C542.618 33.725 542.738 33.425 542.738 33.045C542.738 32.655 542.618 32.355 542.378 32.145C542.148 31.925 541.873 31.815 541.553 31.815C541.243 31.815 540.968 31.925 540.728 32.145C540.488 32.355 540.368 32.655 540.368 33.045C540.368 33.425 540.488 33.725 540.728 33.945C540.968 34.165 541.243 34.275 541.553 34.275ZM547.838 42.15C547.418 42.15 547.033 42.06 546.683 41.88C546.333 41.69 546.048 41.425 545.828 41.085C545.618 40.735 545.513 40.325 545.513 39.855C545.513 39.375 545.618 38.965 545.828 38.625C546.048 38.285 546.333 38.025 546.683 37.845C547.033 37.655 547.418 37.56 547.838 37.56C548.258 37.56 548.643 37.655 548.993 37.845C549.343 38.025 549.623 38.285 549.833 38.625C550.053 38.965 550.163 39.375 550.163 39.855C550.163 40.325 550.058 40.735 549.848 41.085C549.638 41.425 549.358 41.69 549.008 41.88C548.658 42.06 548.268 42.15 547.838 42.15ZM547.838 41.1C548.158 41.1 548.433 40.99 548.663 40.77C548.903 40.55 549.023 40.245 549.023 39.855C549.023 39.465 548.903 39.165 548.663 38.955C548.433 38.735 548.158 38.625 547.838 38.625C547.528 38.625 547.253 38.735 547.013 38.955C546.773 39.165 546.653 39.465 546.653 39.855C546.653 40.245 546.773 40.55 547.013 40.77C547.253 40.99 547.528 41.1 547.838 41.1Z" fill="#303030"/>
<path d="M448.075 134.15C447.205 134.15 446.44 133.99 445.78 133.67C445.12 133.34 444.57 132.905 444.13 132.365C443.7 131.815 443.375 131.205 443.155 130.535C442.935 129.855 442.825 129.16 442.825 128.45C442.825 127.74 442.935 127.045 443.155 126.365C443.375 125.685 443.7 125.075 444.13 124.535C444.57 123.985 445.12 123.55 445.78 123.23C446.44 122.91 447.205 122.75 448.075 122.75C448.795 122.75 449.41 122.845 449.92 123.035C450.44 123.215 450.87 123.45 451.21 123.74C451.56 124.03 451.84 124.34 452.05 124.67C452.27 125 452.43 125.31 452.53 125.6C452.64 125.89 452.71 126.13 452.74 126.32C452.78 126.5 452.8 126.59 452.8 126.59H451.33C451.33 126.59 451.31 126.51 451.27 126.35C451.23 126.18 451.15 125.975 451.03 125.735C450.91 125.485 450.73 125.235 450.49 124.985C450.25 124.735 449.935 124.53 449.545 124.37C449.155 124.2 448.67 124.115 448.09 124.115C447.46 124.115 446.91 124.24 446.44 124.49C445.97 124.73 445.575 125.06 445.255 125.48C444.945 125.89 444.71 126.355 444.55 126.875C444.4 127.385 444.325 127.91 444.325 128.45C444.325 128.99 444.4 129.52 444.55 130.04C444.71 130.55 444.945 131.015 445.255 131.435C445.575 131.845 445.97 132.175 446.44 132.425C446.91 132.665 447.46 132.785 448.09 132.785C448.67 132.785 449.155 132.7 449.545 132.53C449.935 132.36 450.25 132.155 450.49 131.915C450.73 131.665 450.91 131.42 451.03 131.18C451.15 130.93 451.23 130.72 451.27 130.55C451.31 130.38 451.33 130.295 451.33 130.295H452.8C452.8 130.295 452.78 130.39 452.74 130.58C452.71 130.76 452.64 131 452.53 131.3C452.43 131.59 452.27 131.9 452.05 132.23C451.84 132.55 451.56 132.86 451.21 133.16C450.87 133.45 450.44 133.69 449.92 133.88C449.41 134.06 448.795 134.15 448.075 134.15ZM458.131 125.9C458.631 125.9 459.051 125.98 459.391 126.14C459.731 126.3 460.006 126.49 460.216 126.71C460.426 126.92 460.586 127.12 460.696 127.31H460.786V126.05H462.211V134H460.786V132.74H460.696C460.586 132.93 460.426 133.135 460.216 133.355C460.006 133.575 459.731 133.765 459.391 133.925C459.051 134.075 458.631 134.15 458.131 134.15C457.531 134.15 457.006 134.035 456.556 133.805C456.106 133.565 455.731 133.25 455.431 132.86C455.131 132.46 454.906 132.015 454.756 131.525C454.606 131.035 454.531 130.535 454.531 130.025C454.531 129.515 454.606 129.015 454.756 128.525C454.906 128.035 455.131 127.595 455.431 127.205C455.731 126.805 456.106 126.49 456.556 126.26C457.006 126.02 457.531 125.9 458.131 125.9ZM458.371 127.115C457.841 127.115 457.396 127.26 457.036 127.55C456.676 127.83 456.406 128.19 456.226 128.63C456.056 129.07 455.971 129.535 455.971 130.025C455.971 130.505 456.056 130.97 456.226 131.42C456.406 131.86 456.676 132.225 457.036 132.515C457.396 132.795 457.841 132.935 458.371 132.935C458.901 132.935 459.341 132.795 459.691 132.515C460.051 132.225 460.316 131.86 460.486 131.42C460.666 130.97 460.756 130.505 460.756 130.025C460.756 129.535 460.666 129.07 460.486 128.63C460.316 128.19 460.051 127.83 459.691 127.55C459.341 127.26 458.901 127.115 458.371 127.115ZM464.305 134V126.05H465.73V127.205H465.82C465.89 127.085 466.005 126.92 466.165 126.71C466.335 126.5 466.575 126.315 466.885 126.155C467.195 125.985 467.585 125.9 468.055 125.9C468.635 125.9 469.13 126.035 469.54 126.305C469.95 126.565 470.26 126.92 470.47 127.37C470.69 127.82 470.8 128.325 470.8 128.885V134H469.375V128.975C469.375 128.445 469.225 128.005 468.925 127.655C468.635 127.305 468.21 127.13 467.65 127.13C467.2 127.13 466.835 127.245 466.555 127.475C466.275 127.695 466.065 127.99 465.925 128.36C465.795 128.72 465.73 129.105 465.73 129.515V134H464.305ZM472.904 134V126.05H474.329V127.205H474.419C474.489 127.085 474.604 126.92 474.764 126.71C474.934 126.5 475.174 126.315 475.484 126.155C475.794 125.985 476.184 125.9 476.654 125.9C477.234 125.9 477.729 126.035 478.139 126.305C478.549 126.565 478.859 126.92 479.069 127.37C479.289 127.82 479.399 128.325 479.399 128.885V134H477.974V128.975C477.974 128.445 477.824 128.005 477.524 127.655C477.234 127.305 476.809 127.13 476.249 127.13C475.799 127.13 475.434 127.245 475.154 127.475C474.874 127.695 474.664 127.99 474.524 128.36C474.394 128.72 474.329 129.105 474.329 129.515V134H472.904ZM485.267 134.15C484.417 134.15 483.702 133.955 483.122 133.565C482.542 133.165 482.102 132.65 481.802 132.02C481.502 131.39 481.352 130.725 481.352 130.025C481.352 129.315 481.502 128.65 481.802 128.03C482.102 127.4 482.542 126.89 483.122 126.5C483.702 126.1 484.417 125.9 485.267 125.9C486.117 125.9 486.832 126.1 487.412 126.5C487.992 126.89 488.432 127.4 488.732 128.03C489.032 128.65 489.182 129.315 489.182 130.025C489.182 130.725 489.032 131.39 488.732 132.02C488.432 132.65 487.992 133.165 487.412 133.565C486.832 133.955 486.117 134.15 485.267 134.15ZM485.267 132.905C485.807 132.905 486.257 132.77 486.617 132.5C486.987 132.22 487.262 131.86 487.442 131.42C487.632 130.98 487.727 130.515 487.727 130.025C487.727 129.525 487.632 129.06 487.442 128.63C487.262 128.19 486.987 127.835 486.617 127.565C486.257 127.285 485.807 127.145 485.267 127.145C484.737 127.145 484.287 127.285 483.917 127.565C483.547 127.835 483.267 128.19 483.077 128.63C482.897 129.06 482.807 129.525 482.807 130.025C482.807 130.515 482.897 130.98 483.077 131.42C483.267 131.86 483.547 132.22 483.917 132.5C484.287 132.77 484.737 132.905 485.267 132.905ZM494.355 134.15C493.535 134.15 492.915 133.94 492.495 133.52C492.085 133.1 491.88 132.51 491.88 131.75V127.22H490.455V126.05H491.88V124.055H493.305V126.05H495.24V127.22H493.305V131.75C493.305 132.15 493.415 132.445 493.635 132.635C493.855 132.815 494.175 132.905 494.595 132.905C494.815 132.905 495.025 132.89 495.225 132.86C495.425 132.83 495.525 132.815 495.525 132.815V134.03C495.525 134.03 495.41 134.05 495.18 134.09C494.95 134.13 494.675 134.15 494.355 134.15ZM500.853 134V126.05H502.278V127.04H502.338C502.508 126.74 502.758 126.475 503.088 126.245C503.418 126.015 503.883 125.9 504.483 125.9C504.653 125.9 504.808 125.91 504.948 125.93C505.088 125.94 505.158 125.945 505.158 125.945V127.31C505.158 127.31 505.078 127.305 504.918 127.295C504.768 127.275 504.608 127.265 504.438 127.265C503.748 127.265 503.213 127.465 502.833 127.865C502.463 128.255 502.278 128.895 502.278 129.785V134H500.853ZM509.741 134.15C509.091 134.15 508.526 134.035 508.046 133.805C507.576 133.565 507.186 133.245 506.876 132.845C506.576 132.445 506.351 132.005 506.201 131.525C506.051 131.035 505.976 130.535 505.976 130.025C505.976 129.525 506.046 129.03 506.186 128.54C506.336 128.05 506.561 127.605 506.861 127.205C507.171 126.805 507.556 126.49 508.016 126.26C508.486 126.02 509.041 125.9 509.681 125.9C510.361 125.9 510.961 126.055 511.481 126.365C512.001 126.675 512.411 127.135 512.711 127.745C513.011 128.355 513.161 129.12 513.161 130.04V130.46H507.416C507.446 130.91 507.551 131.325 507.731 131.705C507.921 132.075 508.186 132.375 508.526 132.605C508.866 132.825 509.271 132.935 509.741 132.935C510.151 132.935 510.481 132.87 510.731 132.74C510.991 132.6 511.196 132.44 511.346 132.26C511.496 132.08 511.596 131.925 511.646 131.795C511.706 131.655 511.736 131.585 511.736 131.585H513.071C513.071 131.585 513.046 131.675 512.996 131.855C512.946 132.025 512.856 132.235 512.726 132.485C512.596 132.735 512.406 132.99 512.156 133.25C511.906 133.5 511.586 133.715 511.196 133.895C510.806 134.065 510.321 134.15 509.741 134.15ZM507.431 129.35H511.766C511.746 128.83 511.636 128.41 511.436 128.09C511.236 127.76 510.981 127.515 510.671 127.355C510.361 127.195 510.031 127.115 509.681 127.115C509.051 127.115 508.536 127.32 508.136 127.73C507.736 128.13 507.501 128.67 507.431 129.35ZM518.797 134.15C518.147 134.15 517.577 134.035 517.087 133.805C516.597 133.565 516.187 133.25 515.857 132.86C515.537 132.46 515.292 132.015 515.122 131.525C514.962 131.035 514.882 130.535 514.882 130.025C514.882 129.515 514.962 129.02 515.122 128.54C515.282 128.05 515.522 127.605 515.842 127.205C516.172 126.805 516.582 126.49 517.072 126.26C517.562 126.02 518.137 125.9 518.797 125.9C519.437 125.9 519.967 125.995 520.387 126.185C520.807 126.375 521.142 126.615 521.392 126.905C521.652 127.185 521.842 127.47 521.962 127.76C522.092 128.04 522.177 128.275 522.217 128.465C522.257 128.655 522.277 128.75 522.277 128.75H520.897C520.897 128.75 520.872 128.67 520.822 128.51C520.772 128.34 520.677 128.15 520.537 127.94C520.397 127.73 520.187 127.545 519.907 127.385C519.627 127.215 519.257 127.13 518.797 127.13C518.247 127.13 517.782 127.27 517.402 127.55C517.032 127.82 516.752 128.175 516.562 128.615C516.382 129.055 516.292 129.525 516.292 130.025C516.292 130.525 516.382 130.995 516.562 131.435C516.752 131.875 517.032 132.235 517.402 132.515C517.782 132.785 518.247 132.92 518.797 132.92C519.257 132.92 519.627 132.84 519.907 132.68C520.187 132.51 520.397 132.32 520.537 132.11C520.677 131.9 520.772 131.715 520.822 131.555C520.872 131.385 520.897 131.3 520.897 131.3H522.277C522.277 131.3 522.257 131.395 522.217 131.585C522.177 131.775 522.092 132.015 521.962 132.305C521.842 132.585 521.652 132.87 521.392 133.16C521.142 133.44 520.807 133.675 520.387 133.865C519.967 134.055 519.437 134.15 518.797 134.15ZM524.078 136.925C523.848 136.925 523.653 136.915 523.493 136.895C523.333 136.875 523.253 136.865 523.253 136.865V135.65C523.253 135.65 523.333 135.655 523.493 135.665C523.663 135.685 523.843 135.695 524.033 135.695C524.623 135.695 525.103 135.57 525.473 135.32C525.853 135.08 526.173 134.68 526.433 134.12L523.358 126.05H524.843L527.138 132.26L529.448 126.05H530.948L527.873 134.015C527.483 135.015 526.978 135.75 526.358 136.22C525.748 136.69 524.988 136.925 524.078 136.925ZM535.76 134.15C535.11 134.15 534.54 134.035 534.05 133.805C533.56 133.565 533.15 133.25 532.82 132.86C532.5 132.46 532.255 132.015 532.085 131.525C531.925 131.035 531.845 130.535 531.845 130.025C531.845 129.515 531.925 129.02 532.085 128.54C532.245 128.05 532.485 127.605 532.805 127.205C533.135 126.805 533.545 126.49 534.035 126.26C534.525 126.02 535.1 125.9 535.76 125.9C536.4 125.9 536.93 125.995 537.35 126.185C537.77 126.375 538.105 126.615 538.355 126.905C538.615 127.185 538.805 127.47 538.925 127.76C539.055 128.04 539.14 128.275 539.18 128.465C539.22 128.655 539.24 128.75 539.24 128.75H537.86C537.86 128.75 537.835 128.67 537.785 128.51C537.735 128.34 537.64 128.15 537.5 127.94C537.36 127.73 537.15 127.545 536.87 127.385C536.59 127.215 536.22 127.13 535.76 127.13C535.21 127.13 534.745 127.27 534.365 127.55C533.995 127.82 533.715 128.175 533.525 128.615C533.345 129.055 533.255 129.525 533.255 130.025C533.255 130.525 533.345 130.995 533.525 131.435C533.715 131.875 533.995 132.235 534.365 132.515C534.745 132.785 535.21 132.92 535.76 132.92C536.22 132.92 536.59 132.84 536.87 132.68C537.15 132.51 537.36 132.32 537.5 132.11C537.64 131.9 537.735 131.715 537.785 131.555C537.835 131.385 537.86 131.3 537.86 131.3H539.24C539.24 131.3 539.22 131.395 539.18 131.585C539.14 131.775 539.055 132.015 538.925 132.305C538.805 132.585 538.615 132.87 538.355 133.16C538.105 133.44 537.77 133.675 537.35 133.865C536.93 134.055 536.4 134.15 535.76 134.15ZM541.345 134L541.36 122.6H542.77V134H541.345ZM548.633 134.15C547.983 134.15 547.418 134.035 546.938 133.805C546.468 133.565 546.078 133.245 545.768 132.845C545.468 132.445 545.243 132.005 545.093 131.525C544.943 131.035 544.868 130.535 544.868 130.025C544.868 129.525 544.938 129.03 545.078 128.54C545.228 128.05 545.453 127.605 545.753 127.205C546.063 126.805 546.448 126.49 546.908 126.26C547.378 126.02 547.933 125.9 548.573 125.9C549.253 125.9 549.853 126.055 550.373 126.365C550.893 126.675 551.303 127.135 551.603 127.745C551.903 128.355 552.053 129.12 552.053 130.04V130.46H546.308C546.338 130.91 546.443 131.325 546.623 131.705C546.813 132.075 547.078 132.375 547.418 132.605C547.758 132.825 548.163 132.935 548.633 132.935C549.043 132.935 549.373 132.87 549.623 132.74C549.883 132.6 550.088 132.44 550.238 132.26C550.388 132.08 550.488 131.925 550.538 131.795C550.598 131.655 550.628 131.585 550.628 131.585H551.963C551.963 131.585 551.938 131.675 551.888 131.855C551.838 132.025 551.748 132.235 551.618 132.485C551.488 132.735 551.298 132.99 551.048 133.25C550.798 133.5 550.478 133.715 550.088 133.895C549.698 134.065 549.213 134.15 548.633 134.15ZM546.323 129.35H550.658C550.638 128.83 550.528 128.41 550.328 128.09C550.128 127.76 549.873 127.515 549.563 127.355C549.253 127.195 548.923 127.115 548.573 127.115C547.943 127.115 547.428 127.32 547.028 127.73C546.628 128.13 546.393 128.67 546.323 129.35ZM560.904 134.15C560.304 134.15 559.779 134.035 559.329 133.805C558.879 133.565 558.504 133.25 558.204 132.86C557.904 132.46 557.679 132.015 557.529 131.525C557.379 131.035 557.304 130.535 557.304 130.025C557.304 129.515 557.379 129.015 557.529 128.525C557.679 128.035 557.904 127.595 558.204 127.205C558.504 126.805 558.879 126.49 559.329 126.26C559.779 126.02 560.304 125.9 560.904 125.9C561.404 125.9 561.824 125.98 562.164 126.14C562.504 126.3 562.779 126.49 562.989 126.71C563.199 126.92 563.359 127.12 563.469 127.31H563.559V122.6H564.984V134H563.559V132.74H563.469C563.359 132.93 563.199 133.135 562.989 133.355C562.779 133.575 562.504 133.765 562.164 133.925C561.824 134.075 561.404 134.15 560.904 134.15ZM561.144 132.935C561.674 132.935 562.114 132.795 562.464 132.515C562.824 132.225 563.089 131.86 563.259 131.42C563.439 130.97 563.529 130.505 563.529 130.025C563.529 129.535 563.439 129.07 563.259 128.63C563.089 128.19 562.824 127.83 562.464 127.55C562.114 127.26 561.674 127.115 561.144 127.115C560.614 127.115 560.169 127.26 559.809 127.55C559.449 127.83 559.179 128.19 558.999 128.63C558.829 129.07 558.744 129.535 558.744 130.025C558.744 130.505 558.829 130.97 558.999 131.42C559.179 131.86 559.449 132.225 559.809 132.515C560.169 132.795 560.614 132.935 561.144 132.935ZM569.834 134.15C569.044 134.15 568.414 133.905 567.944 133.415C567.474 132.925 567.239 132.245 567.239 131.375V126.05H568.664V131.3C568.664 131.82 568.804 132.22 569.084 132.5C569.374 132.78 569.754 132.92 570.224 132.92C570.704 132.92 571.089 132.795 571.379 132.545C571.669 132.295 571.879 131.975 572.009 131.585C572.139 131.195 572.204 130.795 572.204 130.385V126.05H573.629V134H572.204V132.86H572.114C572.054 132.98 571.939 133.145 571.769 133.355C571.599 133.555 571.359 133.74 571.049 133.91C570.739 134.07 570.334 134.15 569.834 134.15ZM579.351 134.15C578.701 134.15 578.136 134.035 577.656 133.805C577.186 133.565 576.796 133.245 576.486 132.845C576.186 132.445 575.961 132.005 575.811 131.525C575.661 131.035 575.586 130.535 575.586 130.025C575.586 129.525 575.656 129.03 575.796 128.54C575.946 128.05 576.171 127.605 576.471 127.205C576.781 126.805 577.166 126.49 577.626 126.26C578.096 126.02 578.651 125.9 579.291 125.9C579.971 125.9 580.571 126.055 581.091 126.365C581.611 126.675 582.021 127.135 582.321 127.745C582.621 128.355 582.771 129.12 582.771 130.04V130.46H577.026C577.056 130.91 577.161 131.325 577.341 131.705C577.531 132.075 577.796 132.375 578.136 132.605C578.476 132.825 578.881 132.935 579.351 132.935C579.761 132.935 580.091 132.87 580.341 132.74C580.601 132.6 580.806 132.44 580.956 132.26C581.106 132.08 581.206 131.925 581.256 131.795C581.316 131.655 581.346 131.585 581.346 131.585H582.681C582.681 131.585 582.656 131.675 582.606 131.855C582.556 132.025 582.466 132.235 582.336 132.485C582.206 132.735 582.016 132.99 581.766 133.25C581.516 133.5 581.196 133.715 580.806 133.895C580.416 134.065 579.931 134.15 579.351 134.15ZM577.041 129.35H581.376C581.356 128.83 581.246 128.41 581.046 128.09C580.846 127.76 580.591 127.515 580.281 127.355C579.971 127.195 579.641 127.115 579.291 127.115C578.661 127.115 578.146 127.32 577.746 127.73C577.346 128.13 577.111 128.67 577.041 129.35ZM446.425 159.15C445.605 159.15 444.985 158.94 444.565 158.52C444.155 158.1 443.95 157.51 443.95 156.75V152.22H442.525V151.05H443.95V149.055H445.375V151.05H447.31V152.22H445.375V156.75C445.375 157.15 445.485 157.445 445.705 157.635C445.925 157.815 446.245 157.905 446.665 157.905C446.885 157.905 447.095 157.89 447.295 157.86C447.495 157.83 447.595 157.815 447.595 157.815V159.03C447.595 159.03 447.48 159.05 447.25 159.09C447.02 159.13 446.745 159.15 446.425 159.15ZM452.938 159.15C452.088 159.15 451.373 158.955 450.793 158.565C450.213 158.165 449.773 157.65 449.473 157.02C449.173 156.39 449.023 155.725 449.023 155.025C449.023 154.315 449.173 153.65 449.473 153.03C449.773 152.4 450.213 151.89 450.793 151.5C451.373 151.1 452.088 150.9 452.938 150.9C453.788 150.9 454.503 151.1 455.083 151.5C455.663 151.89 456.103 152.4 456.403 153.03C456.703 153.65 456.853 154.315 456.853 155.025C456.853 155.725 456.703 156.39 456.403 157.02C456.103 157.65 455.663 158.165 455.083 158.565C454.503 158.955 453.788 159.15 452.938 159.15ZM452.938 157.905C453.478 157.905 453.928 157.77 454.288 157.5C454.658 157.22 454.933 156.86 455.113 156.42C455.303 155.98 455.398 155.515 455.398 155.025C455.398 154.525 455.303 154.06 455.113 153.63C454.933 153.19 454.658 152.835 454.288 152.565C453.928 152.285 453.478 152.145 452.938 152.145C452.408 152.145 451.958 152.285 451.588 152.565C451.218 152.835 450.938 153.19 450.748 153.63C450.568 154.06 450.478 154.525 450.478 155.025C450.478 155.515 450.568 155.98 450.748 156.42C450.938 156.86 451.218 157.22 451.588 157.5C451.958 157.77 452.408 157.905 452.938 157.905ZM465.704 159.15C465.104 159.15 464.579 159.035 464.129 158.805C463.679 158.565 463.304 158.25 463.004 157.86C462.704 157.46 462.479 157.015 462.329 156.525C462.179 156.035 462.104 155.535 462.104 155.025C462.104 154.515 462.179 154.015 462.329 153.525C462.479 153.035 462.704 152.595 463.004 152.205C463.304 151.805 463.679 151.49 464.129 151.26C464.579 151.02 465.104 150.9 465.704 150.9C466.204 150.9 466.624 150.98 466.964 151.14C467.304 151.3 467.579 151.49 467.789 151.71C467.999 151.92 468.159 152.12 468.269 152.31H468.359V147.6H469.784V159H468.359V157.74H468.269C468.159 157.93 467.999 158.135 467.789 158.355C467.579 158.575 467.304 158.765 466.964 158.925C466.624 159.075 466.204 159.15 465.704 159.15ZM465.944 157.935C466.474 157.935 466.914 157.795 467.264 157.515C467.624 157.225 467.889 156.86 468.059 156.42C468.239 155.97 468.329 155.505 468.329 155.025C468.329 154.535 468.239 154.07 468.059 153.63C467.889 153.19 467.624 152.83 467.264 152.55C466.914 152.26 466.474 152.115 465.944 152.115C465.414 152.115 464.969 152.26 464.609 152.55C464.249 152.83 463.979 153.19 463.799 153.63C463.629 154.07 463.544 154.535 463.544 155.025C463.544 155.505 463.629 155.97 463.799 156.42C463.979 156.86 464.249 157.225 464.609 157.515C464.969 157.795 465.414 157.935 465.944 157.935ZM472.969 149.535C472.699 149.535 472.474 149.445 472.294 149.265C472.124 149.085 472.039 148.87 472.039 148.62C472.039 148.36 472.124 148.14 472.294 147.96C472.474 147.78 472.699 147.69 472.969 147.69C473.229 147.69 473.449 147.78 473.629 147.96C473.809 148.14 473.899 148.36 473.899 148.62C473.899 148.87 473.809 149.085 473.629 149.265C473.449 149.445 473.229 149.535 472.969 149.535ZM472.264 159V151.05H473.689V159H472.264ZM478.904 159.15C478.294 159.15 477.789 159.065 477.389 158.895C476.999 158.725 476.689 158.515 476.459 158.265C476.229 158.005 476.059 157.75 475.949 157.5C475.839 157.24 475.769 157.025 475.739 156.855C475.709 156.685 475.694 156.6 475.694 156.6H477.134C477.134 156.6 477.149 156.67 477.179 156.81C477.219 156.94 477.294 157.095 477.404 157.275C477.524 157.445 477.704 157.6 477.944 157.74C478.194 157.87 478.524 157.935 478.934 157.935C479.404 157.935 479.769 157.825 480.029 157.605C480.289 157.375 480.419 157.095 480.419 156.765C480.419 156.475 480.314 156.245 480.104 156.075C479.904 155.905 479.614 155.775 479.234 155.685L478.154 155.43C477.754 155.33 477.379 155.195 477.029 155.025C476.679 154.855 476.394 154.625 476.174 154.335C475.964 154.035 475.859 153.665 475.859 153.225C475.859 152.545 476.114 151.99 476.624 151.56C477.134 151.12 477.799 150.9 478.619 150.9C479.169 150.9 479.624 150.98 479.984 151.14C480.344 151.29 480.629 151.48 480.839 151.71C481.059 151.94 481.219 152.17 481.319 152.4C481.429 152.63 481.499 152.825 481.529 152.985C481.559 153.135 481.574 153.21 481.574 153.21H480.194C480.194 153.21 480.179 153.155 480.149 153.045C480.119 152.925 480.049 152.795 479.939 152.655C479.839 152.505 479.684 152.375 479.474 152.265C479.264 152.145 478.984 152.085 478.634 152.085C478.154 152.085 477.804 152.195 477.584 152.415C477.364 152.635 477.254 152.875 477.254 153.135C477.254 153.385 477.354 153.59 477.554 153.75C477.764 153.9 478.034 154.015 478.364 154.095L479.459 154.35C480.139 154.51 480.699 154.775 481.139 155.145C481.589 155.505 481.814 156.025 481.814 156.705C481.814 157.145 481.699 157.555 481.469 157.935C481.239 158.305 480.909 158.6 480.479 158.82C480.049 159.04 479.524 159.15 478.904 159.15ZM486.84 159.15C486.02 159.15 485.4 158.94 484.98 158.52C484.57 158.1 484.365 157.51 484.365 156.75V152.22H482.94V151.05H484.365V149.055H485.79V151.05H487.725V152.22H485.79V156.75C485.79 157.15 485.9 157.445 486.12 157.635C486.34 157.815 486.66 157.905 487.08 157.905C487.3 157.905 487.51 157.89 487.71 157.86C487.91 157.83 488.01 157.815 488.01 157.815V159.03C488.01 159.03 487.895 159.05 487.665 159.09C487.435 159.13 487.16 159.15 486.84 159.15ZM493.038 150.9C493.538 150.9 493.958 150.98 494.298 151.14C494.638 151.3 494.913 151.49 495.123 151.71C495.333 151.92 495.493 152.12 495.603 152.31H495.693V151.05H497.118V159H495.693V157.74H495.603C495.493 157.93 495.333 158.135 495.123 158.355C494.913 158.575 494.638 158.765 494.298 158.925C493.958 159.075 493.538 159.15 493.038 159.15C492.438 159.15 491.913 159.035 491.463 158.805C491.013 158.565 490.638 158.25 490.338 157.86C490.038 157.46 489.813 157.015 489.663 156.525C489.513 156.035 489.438 155.535 489.438 155.025C489.438 154.515 489.513 154.015 489.663 153.525C489.813 153.035 490.038 152.595 490.338 152.205C490.638 151.805 491.013 151.49 491.463 151.26C491.913 151.02 492.438 150.9 493.038 150.9ZM493.278 152.115C492.748 152.115 492.303 152.26 491.943 152.55C491.583 152.83 491.313 153.19 491.133 153.63C490.963 154.07 490.878 154.535 490.878 155.025C490.878 155.505 490.963 155.97 491.133 156.42C491.313 156.86 491.583 157.225 491.943 157.515C492.303 157.795 492.748 157.935 493.278 157.935C493.808 157.935 494.248 157.795 494.598 157.515C494.958 157.225 495.223 156.86 495.393 156.42C495.573 155.97 495.663 155.505 495.663 155.025C495.663 154.535 495.573 154.07 495.393 153.63C495.223 153.19 494.958 152.83 494.598 152.55C494.248 152.26 493.808 152.115 493.278 152.115ZM499.212 159V151.05H500.637V152.205H500.727C500.797 152.085 500.912 151.92 501.072 151.71C501.242 151.5 501.482 151.315 501.792 151.155C502.102 150.985 502.492 150.9 502.962 150.9C503.542 150.9 504.037 151.035 504.447 151.305C504.857 151.565 505.167 151.92 505.377 152.37C505.597 152.82 505.707 153.325 505.707 153.885V159H504.282V153.975C504.282 153.445 504.132 153.005 503.832 152.655C503.542 152.305 503.117 152.13 502.557 152.13C502.107 152.13 501.742 152.245 501.462 152.475C501.182 152.695 500.972 152.99 500.832 153.36C500.702 153.72 500.637 154.105 500.637 154.515V159H499.212ZM511.576 159.15C510.926 159.15 510.356 159.035 509.866 158.805C509.376 158.565 508.966 158.25 508.636 157.86C508.316 157.46 508.071 157.015 507.901 156.525C507.741 156.035 507.661 155.535 507.661 155.025C507.661 154.515 507.741 154.02 507.901 153.54C508.061 153.05 508.301 152.605 508.621 152.205C508.951 151.805 509.361 151.49 509.851 151.26C510.341 151.02 510.916 150.9 511.576 150.9C512.216 150.9 512.746 150.995 513.166 151.185C513.586 151.375 513.921 151.615 514.171 151.905C514.431 152.185 514.621 152.47 514.741 152.76C514.871 153.04 514.956 153.275 514.996 153.465C515.036 153.655 515.056 153.75 515.056 153.75H513.676C513.676 153.75 513.651 153.67 513.601 153.51C513.551 153.34 513.456 153.15 513.316 152.94C513.176 152.73 512.966 152.545 512.686 152.385C512.406 152.215 512.036 152.13 511.576 152.13C511.026 152.13 510.561 152.27 510.181 152.55C509.811 152.82 509.531 153.175 509.341 153.615C509.161 154.055 509.071 154.525 509.071 155.025C509.071 155.525 509.161 155.995 509.341 156.435C509.531 156.875 509.811 157.235 510.181 157.515C510.561 157.785 511.026 157.92 511.576 157.92C512.036 157.92 512.406 157.84 512.686 157.68C512.966 157.51 513.176 157.32 513.316 157.11C513.456 156.9 513.551 156.715 513.601 156.555C513.651 156.385 513.676 156.3 513.676 156.3H515.056C515.056 156.3 515.036 156.395 514.996 156.585C514.956 156.775 514.871 157.015 514.741 157.305C514.621 157.585 514.431 157.87 514.171 158.16C513.921 158.44 513.586 158.675 513.166 158.865C512.746 159.055 512.216 159.15 511.576 159.15ZM520.625 159.15C519.975 159.15 519.41 159.035 518.93 158.805C518.46 158.565 518.07 158.245 517.76 157.845C517.46 157.445 517.235 157.005 517.085 156.525C516.935 156.035 516.86 155.535 516.86 155.025C516.86 154.525 516.93 154.03 517.07 153.54C517.22 153.05 517.445 152.605 517.745 152.205C518.055 151.805 518.44 151.49 518.9 151.26C519.37 151.02 519.925 150.9 520.565 150.9C521.245 150.9 521.845 151.055 522.365 151.365C522.885 151.675 523.295 152.135 523.595 152.745C523.895 153.355 524.045 154.12 524.045 155.04V155.46H518.3C518.33 155.91 518.435 156.325 518.615 156.705C518.805 157.075 519.07 157.375 519.41 157.605C519.75 157.825 520.155 157.935 520.625 157.935C521.035 157.935 521.365 157.87 521.615 157.74C521.875 157.6 522.08 157.44 522.23 157.26C522.38 157.08 522.48 156.925 522.53 156.795C522.59 156.655 522.62 156.585 522.62 156.585H523.955C523.955 156.585 523.93 156.675 523.88 156.855C523.83 157.025 523.74 157.235 523.61 157.485C523.48 157.735 523.29 157.99 523.04 158.25C522.79 158.5 522.47 158.715 522.08 158.895C521.69 159.065 521.205 159.15 520.625 159.15ZM518.315 154.35H522.65C522.63 153.83 522.52 153.41 522.32 153.09C522.12 152.76 521.865 152.515 521.555 152.355C521.245 152.195 520.915 152.115 520.565 152.115C519.935 152.115 519.42 152.32 519.02 152.73C518.62 153.13 518.385 153.67 518.315 154.35ZM530.541 152.85C530.261 152.85 530.026 152.755 529.836 152.565C529.656 152.365 529.566 152.135 529.566 151.875C529.566 151.605 529.656 151.375 529.836 151.185C530.026 150.995 530.261 150.9 530.541 150.9C530.821 150.9 531.051 150.995 531.231 151.185C531.421 151.375 531.516 151.605 531.516 151.875C531.516 152.145 531.421 152.375 531.231 152.565C531.051 152.755 530.821 152.85 530.541 152.85ZM530.541 159.15C530.261 159.15 530.026 159.055 529.836 158.865C529.656 158.665 529.566 158.435 529.566 158.175C529.566 157.905 529.656 157.675 529.836 157.485C530.026 157.295 530.261 157.2 530.541 157.2C530.821 157.2 531.051 157.295 531.231 157.485C531.421 157.675 531.516 157.905 531.516 158.175C531.516 158.445 531.421 158.675 531.231 158.865C531.051 159.055 530.821 159.15 530.541 159.15ZM541.426 159.15C540.716 159.15 540.096 159.015 539.566 158.745C539.046 158.475 538.616 158.105 538.276 157.635C537.936 157.155 537.681 156.61 537.511 156C537.351 155.39 537.271 154.75 537.271 154.08C537.271 153.53 537.331 152.96 537.451 152.37C537.571 151.78 537.756 151.21 538.006 150.66C538.266 150.11 538.606 149.62 539.026 149.19C539.456 148.75 539.971 148.4 540.571 148.14C541.181 147.88 541.891 147.75 542.701 147.75C543.021 147.75 543.311 147.77 543.571 147.81C543.841 147.84 544.056 147.875 544.216 147.915C544.376 147.955 544.456 147.975 544.456 147.975V149.325C544.456 149.325 544.366 149.305 544.186 149.265C544.006 149.225 543.776 149.19 543.496 149.16C543.226 149.12 542.951 149.1 542.671 149.1C542.061 149.1 541.536 149.195 541.096 149.385C540.666 149.565 540.301 149.81 540.001 150.12C539.711 150.42 539.476 150.75 539.296 151.11C539.126 151.46 539.001 151.81 538.921 152.16C538.841 152.5 538.796 152.795 538.786 153.045C538.856 152.925 538.996 152.76 539.206 152.55C539.416 152.34 539.711 152.15 540.091 151.98C540.471 151.81 540.956 151.725 541.546 151.725C542.366 151.725 543.046 151.905 543.586 152.265C544.126 152.615 544.531 153.07 544.801 153.63C545.081 154.19 545.221 154.78 545.221 155.4C545.221 156.02 545.081 156.62 544.801 157.2C544.521 157.77 544.101 158.24 543.541 158.61C542.981 158.97 542.276 159.15 541.426 159.15ZM541.396 157.89C541.796 157.89 542.176 157.8 542.536 157.62C542.906 157.44 543.206 157.17 543.436 156.81C543.676 156.44 543.796 155.985 543.796 155.445C543.796 154.895 543.676 154.44 543.436 154.08C543.206 153.71 542.906 153.435 542.536 153.255C542.176 153.075 541.796 152.985 541.396 152.985C540.996 152.985 540.611 153.075 540.241 153.255C539.881 153.435 539.581 153.71 539.341 154.08C539.111 154.44 538.996 154.895 538.996 155.445C538.996 155.985 539.111 156.44 539.341 156.81C539.581 157.17 539.881 157.44 540.241 157.62C540.611 157.8 540.996 157.89 541.396 157.89ZM551.216 159.15C550.566 159.15 549.946 159.025 549.356 158.775C548.776 158.525 548.301 158.145 547.931 157.635C547.571 157.115 547.391 156.46 547.391 155.67H548.786C548.786 156.18 548.901 156.6 549.131 156.93C549.371 157.26 549.676 157.505 550.046 157.665C550.426 157.825 550.816 157.905 551.216 157.905C551.646 157.905 552.041 157.825 552.401 157.665C552.761 157.495 553.051 157.25 553.271 156.93C553.491 156.61 553.601 156.225 553.601 155.775C553.601 155.185 553.406 154.72 553.016 154.38C552.626 154.03 552.106 153.855 551.456 153.855H549.956V152.7H551.456C551.996 152.7 552.456 152.54 552.836 152.22C553.226 151.9 553.421 151.465 553.421 150.915C553.421 150.515 553.316 150.175 553.106 149.895C552.906 149.605 552.636 149.38 552.296 149.22C551.966 149.06 551.606 148.98 551.216 148.98C550.846 148.98 550.486 149.065 550.136 149.235C549.796 149.395 549.516 149.64 549.296 149.97C549.076 150.3 548.966 150.72 548.966 151.23H547.601C547.601 150.45 547.776 149.805 548.126 149.295C548.486 148.775 548.941 148.39 549.491 148.14C550.051 147.88 550.636 147.75 551.246 147.75C551.866 147.75 552.446 147.875 552.986 148.125C553.536 148.365 553.981 148.715 554.321 149.175C554.661 149.625 554.831 150.165 554.831 150.795C554.831 151.395 554.681 151.905 554.381 152.325C554.081 152.735 553.701 153.03 553.241 153.21V153.285C553.771 153.465 554.206 153.77 554.546 154.2C554.886 154.63 555.056 155.17 555.056 155.82C555.056 156.51 554.876 157.105 554.516 157.605C554.156 158.105 553.686 158.49 553.106 158.76C552.526 159.02 551.896 159.15 551.216 159.15ZM559.322 152.34C558.902 152.34 558.517 152.25 558.167 152.07C557.817 151.88 557.532 151.61 557.312 151.26C557.102 150.91 556.997 150.5 556.997 150.03C556.997 149.56 557.102 149.155 557.312 148.815C557.522 148.475 557.802 148.215 558.152 148.035C558.512 147.845 558.902 147.75 559.322 147.75C559.752 147.75 560.142 147.845 560.492 148.035C560.842 148.215 561.122 148.475 561.332 148.815C561.542 149.155 561.647 149.56 561.647 150.03C561.647 150.5 561.542 150.91 561.332 151.26C561.122 151.61 560.837 151.88 560.477 152.07C560.127 152.25 559.742 152.34 559.322 152.34ZM558.857 159L564.692 147.9H566.072L560.237 159H558.857ZM559.322 151.275C559.642 151.275 559.917 151.165 560.147 150.945C560.387 150.725 560.507 150.425 560.507 150.045C560.507 149.655 560.387 149.355 560.147 149.145C559.917 148.925 559.642 148.815 559.322 148.815C559.012 148.815 558.737 148.925 558.497 149.145C558.257 149.355 558.137 149.655 558.137 150.045C558.137 150.425 558.257 150.725 558.497 150.945C558.737 151.165 559.012 151.275 559.322 151.275ZM565.607 159.15C565.187 159.15 564.802 159.06 564.452 158.88C564.102 158.69 563.817 158.425 563.597 158.085C563.387 157.735 563.282 157.325 563.282 156.855C563.282 156.375 563.387 155.965 563.597 155.625C563.817 155.285 564.102 155.025 564.452 154.845C564.802 154.655 565.187 154.56 565.607 154.56C566.027 154.56 566.412 154.655 566.762 154.845C567.112 155.025 567.392 155.285 567.602 155.625C567.822 155.965 567.932 156.375 567.932 156.855C567.932 157.325 567.827 157.735 567.617 158.085C567.407 158.425 567.127 158.69 566.777 158.88C566.427 159.06 566.037 159.15 565.607 159.15ZM565.607 158.1C565.927 158.1 566.202 157.99 566.432 157.77C566.672 157.55 566.792 157.245 566.792 156.855C566.792 156.465 566.672 156.165 566.432 155.955C566.202 155.735 565.927 155.625 565.607 155.625C565.297 155.625 565.022 155.735 564.782 155.955C564.542 156.165 564.422 156.465 564.422 156.855C564.422 157.245 564.542 157.55 564.782 157.77C565.022 157.99 565.297 158.1 565.607 158.1Z" fill="#303030"/>
<path d="M302.66 82.2271L299.705 71.1271H301.22L303.515 80.0671L305.93 71.1271H307.37L309.785 80.0371L312.065 71.1271H313.58L310.625 82.2271H308.945L306.65 73.6921L304.34 82.2271H302.66ZM315.379 82.2271V70.8271H316.804V75.4321H316.894C316.964 75.3121 317.079 75.1471 317.239 74.9371C317.409 74.7271 317.649 74.5421 317.959 74.3821C318.269 74.2121 318.659 74.1271 319.129 74.1271C319.709 74.1271 320.204 74.2621 320.614 74.5321C321.024 74.7921 321.334 75.1471 321.544 75.5971C321.764 76.0471 321.874 76.5521 321.874 77.1121V82.2271H320.449V77.2021C320.449 76.6721 320.299 76.2321 319.999 75.8821C319.709 75.5321 319.284 75.3571 318.724 75.3571C318.274 75.3571 317.909 75.4721 317.629 75.7021C317.349 75.9221 317.139 76.2171 316.999 76.5871C316.869 76.9471 316.804 77.3321 316.804 77.7421V82.2271H315.379ZM323.82 85.1521C323.59 85.1521 323.395 85.1421 323.235 85.1221C323.075 85.1021 322.995 85.0921 322.995 85.0921V83.8771C322.995 83.8771 323.075 83.8821 323.235 83.8921C323.405 83.9121 323.585 83.9221 323.775 83.9221C324.365 83.9221 324.845 83.7971 325.215 83.5471C325.595 83.3071 325.915 82.9071 326.175 82.3471L323.1 74.2771H324.585L326.88 80.4871L329.19 74.2771H330.69L327.615 82.2421C327.225 83.2421 326.72 83.9771 326.1 84.4471C325.49 84.9171 324.73 85.1521 323.82 85.1521ZM339.172 82.3771C338.572 82.3771 338.047 82.2621 337.597 82.0321C337.147 81.7921 336.772 81.4771 336.472 81.0871C336.172 80.6871 335.947 80.2421 335.797 79.7521C335.647 79.2621 335.572 78.7621 335.572 78.2521C335.572 77.7421 335.647 77.2421 335.797 76.7521C335.947 76.2621 336.172 75.8221 336.472 75.4321C336.772 75.0321 337.147 74.7171 337.597 74.4871C338.047 74.2471 338.572 74.1271 339.172 74.1271C339.672 74.1271 340.092 74.2071 340.432 74.3671C340.772 74.5271 341.047 74.7171 341.257 74.9371C341.467 75.1471 341.627 75.3471 341.737 75.5371H341.827V70.8271H343.252V82.2271H341.827V80.9671H341.737C341.627 81.1571 341.467 81.3621 341.257 81.5821C341.047 81.8021 340.772 81.9921 340.432 82.1521C340.092 82.3021 339.672 82.3771 339.172 82.3771ZM339.412 81.1621C339.942 81.1621 340.382 81.0221 340.732 80.7421C341.092 80.4521 341.357 80.0871 341.527 79.6471C341.707 79.1971 341.797 78.7321 341.797 78.2521C341.797 77.7621 341.707 77.2971 341.527 76.8571C341.357 76.4171 341.092 76.0571 340.732 75.7771C340.382 75.4871 339.942 75.3421 339.412 75.3421C338.882 75.3421 338.437 75.4871 338.077 75.7771C337.717 76.0571 337.447 76.4171 337.267 76.8571C337.097 77.2971 337.012 77.7621 337.012 78.2521C337.012 78.7321 337.097 79.1971 337.267 79.6471C337.447 80.0871 337.717 80.4521 338.077 80.7421C338.437 81.0221 338.882 81.1621 339.412 81.1621ZM349.272 82.3771C348.422 82.3771 347.707 82.1821 347.127 81.7921C346.547 81.3921 346.107 80.8771 345.807 80.2471C345.507 79.6171 345.357 78.9521 345.357 78.2521C345.357 77.5421 345.507 76.8771 345.807 76.2571C346.107 75.6271 346.547 75.1171 347.127 74.7271C347.707 74.3271 348.422 74.1271 349.272 74.1271C350.122 74.1271 350.837 74.3271 351.417 74.7271C351.997 75.1171 352.437 75.6271 352.737 76.2571C353.037 76.8771 353.187 77.5421 353.187 78.2521C353.187 78.9521 353.037 79.6171 352.737 80.2471C352.437 80.8771 351.997 81.3921 351.417 81.7921C350.837 82.1821 350.122 82.3771 349.272 82.3771ZM349.272 81.1321C349.812 81.1321 350.262 80.9971 350.622 80.7271C350.992 80.4471 351.267 80.0871 351.447 79.6471C351.637 79.2071 351.732 78.7421 351.732 78.2521C351.732 77.7521 351.637 77.2871 351.447 76.8571C351.267 76.4171 350.992 76.0621 350.622 75.7921C350.262 75.5121 349.812 75.3721 349.272 75.3721C348.742 75.3721 348.292 75.5121 347.922 75.7921C347.552 76.0621 347.272 76.4171 347.082 76.8571C346.902 77.2871 346.812 77.7521 346.812 78.2521C346.812 78.7421 346.902 79.2071 347.082 79.6471C347.272 80.0871 347.552 80.4471 347.922 80.7271C348.292 80.9971 348.742 81.1321 349.272 81.1321ZM355.131 82.2271V74.2771H356.556V75.4321H356.646C356.716 75.3121 356.831 75.1471 356.991 74.9371C357.161 74.7271 357.401 74.5421 357.711 74.3821C358.021 74.2121 358.411 74.1271 358.881 74.1271C359.461 74.1271 359.956 74.2621 360.366 74.5321C360.776 74.7921 361.086 75.1471 361.296 75.5971C361.516 76.0471 361.626 76.5521 361.626 77.1121V82.2271H360.201V77.2021C360.201 76.6721 360.051 76.2321 359.751 75.8821C359.461 75.5321 359.036 75.3571 358.476 75.3571C358.026 75.3571 357.661 75.4721 357.381 75.7021C357.101 75.9221 356.891 76.2171 356.751 76.5871C356.621 76.9471 356.556 77.3321 356.556 77.7421V82.2271H355.131ZM363.43 74.6221L364.51 72.8821C364.27 72.8621 364.065 72.7621 363.895 72.5821C363.735 72.4021 363.655 72.1821 363.655 71.9221C363.655 71.6321 363.755 71.4021 363.955 71.2321C364.155 71.062 364.38 70.977 364.63 70.977C364.91 70.977 365.145 71.062 365.335 71.2321C365.535 71.4021 365.635 71.6421 365.635 71.952C365.635 72.2321 365.525 72.5521 365.305 72.9121C365.095 73.2721 364.755 73.7921 364.285 74.4721L364.18 74.6221H363.43ZM370.357 82.3771C369.537 82.3771 368.917 82.1671 368.497 81.7471C368.087 81.3271 367.882 80.7371 367.882 79.9771V75.4471H366.457V74.2771H367.882V72.2821H369.307V74.2771H371.242V75.4471H369.307V79.9771C369.307 80.3771 369.417 80.6721 369.637 80.8621C369.857 81.0421 370.177 81.1321 370.597 81.1321C370.817 81.1321 371.027 81.1171 371.227 81.0871C371.427 81.0571 371.527 81.0421 371.527 81.0421V82.2571C371.527 82.2571 371.412 82.2771 371.182 82.3171C370.952 82.3571 370.677 82.3771 370.357 82.3771ZM323.908 105.152C323.678 105.152 323.483 105.142 323.323 105.122C323.163 105.102 323.083 105.092 323.083 105.092V103.877C323.083 103.877 323.163 103.882 323.323 103.892C323.493 103.912 323.673 103.922 323.863 103.922C324.453 103.922 324.933 103.797 325.303 103.547C325.683 103.307 326.003 102.907 326.263 102.347L323.188 94.2771H324.673L326.968 100.487L329.278 94.2771H330.778L327.703 102.242C327.313 103.242 326.808 103.977 326.188 104.447C325.578 104.917 324.818 105.152 323.908 105.152ZM335.59 102.377C334.74 102.377 334.025 102.182 333.445 101.792C332.865 101.392 332.425 100.877 332.125 100.247C331.825 99.6171 331.675 98.9521 331.675 98.2521C331.675 97.5421 331.825 96.8771 332.125 96.2571C332.425 95.6271 332.865 95.1171 333.445 94.7271C334.025 94.3271 334.74 94.1271 335.59 94.1271C336.44 94.1271 337.155 94.3271 337.735 94.7271C338.315 95.1171 338.755 95.6271 339.055 96.2571C339.355 96.8771 339.505 97.5421 339.505 98.2521C339.505 98.9521 339.355 99.6171 339.055 100.247C338.755 100.877 338.315 101.392 337.735 101.792C337.155 102.182 336.44 102.377 335.59 102.377ZM335.59 101.132C336.13 101.132 336.58 100.997 336.94 100.727C337.31 100.447 337.585 100.087 337.765 99.6471C337.955 99.2071 338.05 98.7421 338.05 98.2521C338.05 97.7521 337.955 97.2871 337.765 96.8571C337.585 96.4171 337.31 96.0621 336.94 95.7921C336.58 95.5121 336.13 95.3721 335.59 95.3721C335.06 95.3721 334.61 95.5121 334.24 95.7921C333.87 96.0621 333.59 96.4171 333.4 96.8571C333.22 97.2871 333.13 97.7521 333.13 98.2521C333.13 98.7421 333.22 99.2071 333.4 99.6471C333.59 100.087 333.87 100.447 334.24 100.727C334.61 100.997 335.06 101.132 335.59 101.132ZM344.044 102.377C343.254 102.377 342.624 102.132 342.154 101.642C341.684 101.152 341.449 100.472 341.449 99.6021V94.2771H342.874V99.5271C342.874 100.047 343.014 100.447 343.294 100.727C343.584 101.007 343.964 101.147 344.434 101.147C344.914 101.147 345.299 101.022 345.589 100.772C345.879 100.522 346.089 100.202 346.219 99.8121C346.349 99.4221 346.414 99.0221 346.414 98.6121V94.2771H347.839V102.227H346.414V101.087H346.324C346.264 101.207 346.149 101.372 345.979 101.582C345.809 101.782 345.569 101.967 345.259 102.137C344.949 102.297 344.544 102.377 344.044 102.377ZM305.905 122.227V114.277H307.33V115.267H307.39C307.56 114.967 307.81 114.702 308.14 114.472C308.47 114.242 308.935 114.127 309.535 114.127C309.705 114.127 309.86 114.137 310 114.157C310.14 114.167 310.21 114.172 310.21 114.172V115.537C310.21 115.537 310.13 115.532 309.97 115.522C309.82 115.502 309.66 115.492 309.49 115.492C308.8 115.492 308.265 115.692 307.885 116.092C307.515 116.482 307.33 117.122 307.33 118.012V122.227H305.905ZM314.793 122.377C314.143 122.377 313.578 122.262 313.098 122.032C312.628 121.792 312.238 121.472 311.928 121.072C311.628 120.672 311.403 120.232 311.253 119.752C311.103 119.262 311.028 118.762 311.028 118.252C311.028 117.752 311.098 117.257 311.238 116.767C311.388 116.277 311.613 115.832 311.913 115.432C312.223 115.032 312.608 114.717 313.068 114.487C313.538 114.247 314.093 114.127 314.733 114.127C315.413 114.127 316.013 114.282 316.533 114.592C317.053 114.902 317.463 115.362 317.763 115.972C318.063 116.582 318.213 117.347 318.213 118.267V118.687H312.468C312.498 119.137 312.603 119.552 312.783 119.932C312.973 120.302 313.238 120.602 313.578 120.832C313.918 121.052 314.323 121.162 314.793 121.162C315.203 121.162 315.533 121.097 315.783 120.967C316.043 120.827 316.248 120.667 316.398 120.487C316.548 120.307 316.648 120.152 316.698 120.022C316.758 119.882 316.788 119.812 316.788 119.812H318.123C318.123 119.812 318.098 119.902 318.048 120.082C317.998 120.252 317.908 120.462 317.778 120.712C317.648 120.962 317.458 121.217 317.208 121.477C316.958 121.727 316.638 121.942 316.248 122.122C315.858 122.292 315.373 122.377 314.793 122.377ZM312.483 117.577H316.818C316.798 117.057 316.688 116.637 316.488 116.317C316.288 115.987 316.033 115.742 315.723 115.582C315.413 115.422 315.083 115.342 314.733 115.342C314.103 115.342 313.588 115.547 313.188 115.957C312.788 116.357 312.553 116.897 312.483 117.577ZM323.85 122.377C323.2 122.377 322.63 122.262 322.14 122.032C321.65 121.792 321.24 121.477 320.91 121.087C320.59 120.687 320.345 120.242 320.175 119.752C320.015 119.262 319.935 118.762 319.935 118.252C319.935 117.742 320.015 117.247 320.175 116.767C320.335 116.277 320.575 115.832 320.895 115.432C321.225 115.032 321.635 114.717 322.125 114.487C322.615 114.247 323.19 114.127 323.85 114.127C324.49 114.127 325.02 114.222 325.44 114.412C325.86 114.602 326.195 114.842 326.445 115.132C326.705 115.412 326.895 115.697 327.015 115.987C327.145 116.267 327.23 116.502 327.27 116.692C327.31 116.882 327.33 116.977 327.33 116.977H325.95C325.95 116.977 325.925 116.897 325.875 116.737C325.825 116.567 325.73 116.377 325.59 116.167C325.45 115.957 325.24 115.772 324.96 115.612C324.68 115.442 324.31 115.357 323.85 115.357C323.3 115.357 322.835 115.497 322.455 115.777C322.085 116.047 321.805 116.402 321.615 116.842C321.435 117.282 321.345 117.752 321.345 118.252C321.345 118.752 321.435 119.222 321.615 119.662C321.805 120.102 322.085 120.462 322.455 120.742C322.835 121.012 323.3 121.147 323.85 121.147C324.31 121.147 324.68 121.067 324.96 120.907C325.24 120.737 325.45 120.547 325.59 120.337C325.73 120.127 325.825 119.942 325.875 119.782C325.925 119.612 325.95 119.527 325.95 119.527H327.33C327.33 119.527 327.31 119.622 327.27 119.812C327.23 120.002 327.145 120.242 327.015 120.532C326.895 120.812 326.705 121.097 326.445 121.387C326.195 121.667 325.86 121.902 325.44 122.092C325.02 122.282 324.49 122.377 323.85 122.377ZM329.13 125.152C328.9 125.152 328.705 125.142 328.545 125.122C328.385 125.102 328.305 125.092 328.305 125.092V123.877C328.305 123.877 328.385 123.882 328.545 123.892C328.715 123.912 328.895 123.922 329.085 123.922C329.675 123.922 330.155 123.797 330.525 123.547C330.905 123.307 331.225 122.907 331.485 122.347L328.41 114.277H329.895L332.19 120.487L334.5 114.277H336L332.925 122.242C332.535 123.242 332.03 123.977 331.41 124.447C330.8 124.917 330.04 125.152 329.13 125.152ZM340.813 122.377C340.163 122.377 339.593 122.262 339.103 122.032C338.613 121.792 338.203 121.477 337.873 121.087C337.553 120.687 337.308 120.242 337.138 119.752C336.978 119.262 336.898 118.762 336.898 118.252C336.898 117.742 336.978 117.247 337.138 116.767C337.298 116.277 337.538 115.832 337.858 115.432C338.188 115.032 338.598 114.717 339.088 114.487C339.578 114.247 340.153 114.127 340.813 114.127C341.453 114.127 341.983 114.222 342.403 114.412C342.823 114.602 343.158 114.842 343.408 115.132C343.668 115.412 343.858 115.697 343.978 115.987C344.108 116.267 344.193 116.502 344.233 116.692C344.273 116.882 344.293 116.977 344.293 116.977H342.913C342.913 116.977 342.888 116.897 342.838 116.737C342.788 116.567 342.693 116.377 342.553 116.167C342.413 115.957 342.203 115.772 341.923 115.612C341.643 115.442 341.273 115.357 340.813 115.357C340.263 115.357 339.798 115.497 339.418 115.777C339.048 116.047 338.768 116.402 338.578 116.842C338.398 117.282 338.308 117.752 338.308 118.252C338.308 118.752 338.398 119.222 338.578 119.662C338.768 120.102 339.048 120.462 339.418 120.742C339.798 121.012 340.263 121.147 340.813 121.147C341.273 121.147 341.643 121.067 341.923 120.907C342.203 120.737 342.413 120.547 342.553 120.337C342.693 120.127 342.788 119.942 342.838 119.782C342.888 119.612 342.913 119.527 342.913 119.527H344.293C344.293 119.527 344.273 119.622 344.233 119.812C344.193 120.002 344.108 120.242 343.978 120.532C343.858 120.812 343.668 121.097 343.408 121.387C343.158 121.667 342.823 121.902 342.403 122.092C341.983 122.282 341.453 122.377 340.813 122.377ZM346.397 122.227L346.412 110.827H347.822V122.227H346.397ZM353.685 122.377C353.035 122.377 352.47 122.262 351.99 122.032C351.52 121.792 351.13 121.472 350.82 121.072C350.52 120.672 350.295 120.232 350.145 119.752C349.995 119.262 349.92 118.762 349.92 118.252C349.92 117.752 349.99 117.257 350.13 116.767C350.28 116.277 350.505 115.832 350.805 115.432C351.115 115.032 351.5 114.717 351.96 114.487C352.43 114.247 352.985 114.127 353.625 114.127C354.305 114.127 354.905 114.282 355.425 114.592C355.945 114.902 356.355 115.362 356.655 115.972C356.955 116.582 357.105 117.347 357.105 118.267V118.687H351.36C351.39 119.137 351.495 119.552 351.675 119.932C351.865 120.302 352.13 120.602 352.47 120.832C352.81 121.052 353.215 121.162 353.685 121.162C354.095 121.162 354.425 121.097 354.675 120.967C354.935 120.827 355.14 120.667 355.29 120.487C355.44 120.307 355.54 120.152 355.59 120.022C355.65 119.882 355.68 119.812 355.68 119.812H357.015C357.015 119.812 356.99 119.902 356.94 120.082C356.89 120.252 356.8 120.462 356.67 120.712C356.54 120.962 356.35 121.217 356.1 121.477C355.85 121.727 355.53 121.942 355.14 122.122C354.75 122.292 354.265 122.377 353.685 122.377ZM351.375 117.577H355.71C355.69 117.057 355.58 116.637 355.38 116.317C355.18 115.987 354.925 115.742 354.615 115.582C354.305 115.422 353.975 115.342 353.625 115.342C352.995 115.342 352.48 115.547 352.08 115.957C351.68 116.357 351.445 116.897 351.375 117.577ZM361.42 119.392V118.867C361.42 118.377 361.52 117.967 361.72 117.637C361.92 117.297 362.165 116.997 362.455 116.737C362.755 116.477 363.05 116.227 363.34 115.987C363.64 115.737 363.89 115.472 364.09 115.192C364.29 114.902 364.39 114.557 364.39 114.157C364.39 113.757 364.29 113.417 364.09 113.137C363.89 112.857 363.63 112.647 363.31 112.507C363 112.357 362.66 112.282 362.29 112.282C361.93 112.282 361.585 112.362 361.255 112.522C360.935 112.672 360.67 112.912 360.46 113.242C360.26 113.572 360.16 113.992 360.16 114.502H358.75C358.75 113.702 358.925 113.042 359.275 112.522C359.625 112.002 360.07 111.617 360.61 111.367C361.16 111.107 361.735 110.977 362.335 110.977C362.955 110.977 363.53 111.102 364.06 111.352C364.6 111.602 365.03 111.962 365.35 112.432C365.68 112.902 365.845 113.467 365.845 114.127C365.845 114.647 365.745 115.097 365.545 115.477C365.345 115.847 365.095 116.172 364.795 116.452C364.495 116.732 364.195 116.992 363.895 117.232C363.595 117.472 363.345 117.722 363.145 117.982C362.945 118.242 362.845 118.537 362.845 118.867V119.392H361.42ZM362.155 122.377C361.885 122.377 361.66 122.287 361.48 122.107C361.31 121.917 361.225 121.697 361.225 121.447C361.225 121.187 361.31 120.967 361.48 120.787C361.66 120.607 361.885 120.517 362.155 120.517C362.415 120.517 362.635 120.607 362.815 120.787C362.995 120.967 363.085 121.187 363.085 121.447C363.085 121.697 362.995 121.917 362.815 122.107C362.635 122.287 362.415 122.377 362.155 122.377Z" fill="#303030"/>
<path d="M430.227 139.227L402.227 124.227" stroke="#6ABD9C" stroke-width="3" stroke-linecap="round"/>
<path d="M126 23.6667L150 12" stroke="#77D6B0" stroke-width="3" stroke-linecap="round"/>
<path d="M162.559 16V12.055L158.674 4.9H160.279L163.294 10.555L166.294 4.9H167.899L164.014 12.055V16H162.559ZM171.446 16.15C170.796 16.15 170.231 16.035 169.751 15.805C169.281 15.565 168.891 15.245 168.581 14.845C168.281 14.445 168.056 14.005 167.906 13.525C167.756 13.035 167.681 12.535 167.681 12.025C167.681 11.525 167.751 11.03 167.891 10.54C168.041 10.05 168.266 9.605 168.566 9.205C168.876 8.805 169.261 8.49 169.721 8.26C170.191 8.02 170.746 7.9 171.386 7.9C172.066 7.9 172.666 8.055 173.186 8.365C173.706 8.675 174.116 9.135 174.416 9.745C174.716 10.355 174.866 11.12 174.866 12.04V12.46H169.121C169.151 12.91 169.256 13.325 169.436 13.705C169.626 14.075 169.891 14.375 170.231 14.605C170.571 14.825 170.976 14.935 171.446 14.935C171.856 14.935 172.186 14.87 172.436 14.74C172.696 14.6 172.901 14.44 173.051 14.26C173.201 14.08 173.301 13.925 173.351 13.795C173.411 13.655 173.441 13.585 173.441 13.585H174.776C174.776 13.585 174.751 13.675 174.701 13.855C174.651 14.025 174.561 14.235 174.431 14.485C174.301 14.735 174.111 14.99 173.861 15.25C173.611 15.5 173.291 15.715 172.901 15.895C172.511 16.065 172.026 16.15 171.446 16.15ZM169.136 11.35H173.471C173.451 10.83 173.341 10.41 173.141 10.09C172.941 9.76 172.686 9.515 172.376 9.355C172.066 9.195 171.736 9.115 171.386 9.115C170.756 9.115 170.241 9.32 169.841 9.73C169.441 10.13 169.206 10.67 169.136 11.35ZM179.72 16.15C179.11 16.15 178.605 16.065 178.205 15.895C177.815 15.725 177.505 15.515 177.275 15.265C177.045 15.005 176.875 14.75 176.765 14.5C176.655 14.24 176.585 14.025 176.555 13.855C176.525 13.685 176.51 13.6 176.51 13.6H177.95C177.95 13.6 177.965 13.67 177.995 13.81C178.035 13.94 178.11 14.095 178.22 14.275C178.34 14.445 178.52 14.6 178.76 14.74C179.01 14.87 179.34 14.935 179.75 14.935C180.22 14.935 180.585 14.825 180.845 14.605C181.105 14.375 181.235 14.095 181.235 13.765C181.235 13.475 181.13 13.245 180.92 13.075C180.72 12.905 180.43 12.775 180.05 12.685L178.97 12.43C178.57 12.33 178.195 12.195 177.845 12.025C177.495 11.855 177.21 11.625 176.99 11.335C176.78 11.035 176.675 10.665 176.675 10.225C176.675 9.545 176.93 8.99 177.44 8.56C177.95 8.12 178.615 7.9 179.435 7.9C179.985 7.9 180.44 7.98 180.8 8.14C181.16 8.29 181.445 8.48 181.655 8.71C181.875 8.94 182.035 9.17 182.135 9.4C182.245 9.63 182.315 9.825 182.345 9.985C182.375 10.135 182.39 10.21 182.39 10.21H181.01C181.01 10.21 180.995 10.155 180.965 10.045C180.935 9.925 180.865 9.795 180.755 9.655C180.655 9.505 180.5 9.375 180.29 9.265C180.08 9.145 179.8 9.085 179.45 9.085C178.97 9.085 178.62 9.195 178.4 9.415C178.18 9.635 178.07 9.875 178.07 10.135C178.07 10.385 178.17 10.59 178.37 10.75C178.58 10.9 178.85 11.015 179.18 11.095L180.275 11.35C180.955 11.51 181.515 11.775 181.955 12.145C182.405 12.505 182.63 13.025 182.63 13.705C182.63 14.145 182.515 14.555 182.285 14.935C182.055 15.305 181.725 15.6 181.295 15.82C180.865 16.04 180.34 16.15 179.72 16.15ZM185.522 9.85C185.242 9.85 185.007 9.755 184.817 9.565C184.637 9.365 184.547 9.135 184.547 8.875C184.547 8.605 184.637 8.375 184.817 8.185C185.007 7.995 185.242 7.9 185.522 7.9C185.802 7.9 186.032 7.995 186.212 8.185C186.402 8.375 186.497 8.605 186.497 8.875C186.497 9.145 186.402 9.375 186.212 9.565C186.032 9.755 185.802 9.85 185.522 9.85ZM185.522 16.15C185.242 16.15 185.007 16.055 184.817 15.865C184.637 15.665 184.547 15.435 184.547 15.175C184.547 14.905 184.637 14.675 184.817 14.485C185.007 14.295 185.242 14.2 185.522 14.2C185.802 14.2 186.032 14.295 186.212 14.485C186.402 14.675 186.497 14.905 186.497 15.175C186.497 15.445 186.402 15.675 186.212 15.865C186.032 16.055 185.802 16.15 185.522 16.15ZM197.381 16V13.42L191.951 13.405V12.07L197.051 4.9H198.851V12.145H200.786V13.42H198.851V16H197.381ZM193.466 12.145H197.381V6.625L193.466 12.145ZM206.696 4.75C207.406 4.75 208.021 4.885 208.541 5.155C209.071 5.425 209.506 5.8 209.846 6.28C210.186 6.75 210.436 7.29 210.596 7.9C210.766 8.5 210.851 9.14 210.851 9.82C210.851 10.37 210.791 10.94 210.671 11.53C210.551 12.12 210.361 12.69 210.101 13.24C209.851 13.79 209.511 14.285 209.081 14.725C208.661 15.155 208.146 15.5 207.536 15.76C206.936 16.02 206.231 16.15 205.421 16.15C205.111 16.15 204.821 16.13 204.551 16.09C204.281 16.05 204.066 16.015 203.906 15.985C203.746 15.945 203.666 15.925 203.666 15.925V14.575C203.666 14.575 203.756 14.595 203.936 14.635C204.116 14.665 204.341 14.7 204.611 14.74C204.891 14.78 205.171 14.8 205.451 14.8C206.061 14.8 206.581 14.71 207.011 14.53C207.451 14.34 207.816 14.095 208.106 13.795C208.406 13.485 208.641 13.155 208.811 12.805C208.991 12.445 209.121 12.095 209.201 11.755C209.281 11.405 209.326 11.105 209.336 10.855C209.266 10.975 209.126 11.14 208.916 11.35C208.706 11.56 208.411 11.75 208.031 11.92C207.651 12.09 207.166 12.175 206.576 12.175C205.766 12.175 205.086 12 204.536 11.65C203.996 11.29 203.586 10.83 203.306 10.27C203.036 9.7 202.901 9.11 202.901 8.5C202.901 7.87 203.041 7.27 203.321 6.7C203.601 6.13 204.021 5.665 204.581 5.305C205.151 4.935 205.856 4.75 206.696 4.75ZM206.726 6.01C206.326 6.01 205.941 6.1 205.571 6.28C205.211 6.46 204.911 6.73 204.671 7.09C204.441 7.45 204.326 7.905 204.326 8.455C204.326 9.005 204.441 9.465 204.671 9.835C204.911 10.195 205.211 10.465 205.571 10.645C205.941 10.825 206.326 10.915 206.726 10.915C207.126 10.915 207.506 10.825 207.866 10.645C208.236 10.465 208.536 10.195 208.766 9.835C209.006 9.465 209.126 9.005 209.126 8.455C209.126 7.905 209.006 7.45 208.766 7.09C208.536 6.73 208.236 6.46 207.866 6.28C207.506 6.1 207.126 6.01 206.726 6.01ZM215.196 9.34C214.776 9.34 214.391 9.25 214.041 9.07C213.691 8.88 213.406 8.61 213.186 8.26C212.976 7.91 212.871 7.5 212.871 7.03C212.871 6.56 212.976 6.155 213.186 5.815C213.396 5.475 213.676 5.215 214.026 5.035C214.386 4.845 214.776 4.75 215.196 4.75C215.626 4.75 216.016 4.845 216.366 5.035C216.716 5.215 216.996 5.475 217.206 5.815C217.416 6.155 217.521 6.56 217.521 7.03C217.521 7.5 217.416 7.91 217.206 8.26C216.996 8.61 216.711 8.88 216.351 9.07C216.001 9.25 215.616 9.34 215.196 9.34ZM214.731 16L220.566 4.9H221.946L216.111 16H214.731ZM215.196 8.275C215.516 8.275 215.791 8.165 216.021 7.945C216.261 7.725 216.381 7.425 216.381 7.045C216.381 6.655 216.261 6.355 216.021 6.145C215.791 5.925 215.516 5.815 215.196 5.815C214.886 5.815 214.611 5.925 214.371 6.145C214.131 6.355 214.011 6.655 214.011 7.045C214.011 7.425 214.131 7.725 214.371 7.945C214.611 8.165 214.886 8.275 215.196 8.275ZM221.481 16.15C221.061 16.15 220.676 16.06 220.326 15.88C219.976 15.69 219.691 15.425 219.471 15.085C219.261 14.735 219.156 14.325 219.156 13.855C219.156 13.375 219.261 12.965 219.471 12.625C219.691 12.285 219.976 12.025 220.326 11.845C220.676 11.655 221.061 11.56 221.481 11.56C221.901 11.56 222.286 11.655 222.636 11.845C222.986 12.025 223.266 12.285 223.476 12.625C223.696 12.965 223.806 13.375 223.806 13.855C223.806 14.325 223.701 14.735 223.491 15.085C223.281 15.425 223.001 15.69 222.651 15.88C222.301 16.06 221.911 16.15 221.481 16.15ZM221.481 15.1C221.801 15.1 222.076 14.99 222.306 14.77C222.546 14.55 222.666 14.245 222.666 13.855C222.666 13.465 222.546 13.165 222.306 12.955C222.076 12.735 221.801 12.625 221.481 12.625C221.171 12.625 220.896 12.735 220.656 12.955C220.416 13.165 220.296 13.465 220.296 13.855C220.296 14.245 220.416 14.55 220.656 14.77C220.896 14.99 221.171 15.1 221.481 15.1Z" fill="#303030"/>
<path d="M162 173L138 160" stroke="#68B798" stroke-width="3" stroke-linecap="round"/>
<path d="M171.319 183V171.9H172.639L178.429 180.345V171.9H179.899V183H178.579L172.789 174.57V183H171.319ZM185.92 183.15C185.07 183.15 184.355 182.955 183.775 182.565C183.195 182.165 182.755 181.65 182.455 181.02C182.155 180.39 182.005 179.725 182.005 179.025C182.005 178.315 182.155 177.65 182.455 177.03C182.755 176.4 183.195 175.89 183.775 175.5C184.355 175.1 185.07 174.9 185.92 174.9C186.77 174.9 187.485 175.1 188.065 175.5C188.645 175.89 189.085 176.4 189.385 177.03C189.685 177.65 189.835 178.315 189.835 179.025C189.835 179.725 189.685 180.39 189.385 181.02C189.085 181.65 188.645 182.165 188.065 182.565C187.485 182.955 186.77 183.15 185.92 183.15ZM185.92 181.905C186.46 181.905 186.91 181.77 187.27 181.5C187.64 181.22 187.915 180.86 188.095 180.42C188.285 179.98 188.38 179.515 188.38 179.025C188.38 178.525 188.285 178.06 188.095 177.63C187.915 177.19 187.64 176.835 187.27 176.565C186.91 176.285 186.46 176.145 185.92 176.145C185.39 176.145 184.94 176.285 184.57 176.565C184.2 176.835 183.92 177.19 183.73 177.63C183.55 178.06 183.46 178.525 183.46 179.025C183.46 179.515 183.55 179.98 183.73 180.42C183.92 180.86 184.2 181.22 184.57 181.5C184.94 181.77 185.39 181.905 185.92 181.905ZM192.874 176.85C192.594 176.85 192.359 176.755 192.169 176.565C191.989 176.365 191.899 176.135 191.899 175.875C191.899 175.605 191.989 175.375 192.169 175.185C192.359 174.995 192.594 174.9 192.874 174.9C193.154 174.9 193.384 174.995 193.564 175.185C193.754 175.375 193.849 175.605 193.849 175.875C193.849 176.145 193.754 176.375 193.564 176.565C193.384 176.755 193.154 176.85 192.874 176.85ZM192.874 183.15C192.594 183.15 192.359 183.055 192.169 182.865C191.989 182.665 191.899 182.435 191.899 182.175C191.899 181.905 191.989 181.675 192.169 181.485C192.359 181.295 192.594 181.2 192.874 181.2C193.154 181.2 193.384 181.295 193.564 181.485C193.754 181.675 193.849 181.905 193.849 182.175C193.849 182.445 193.754 182.675 193.564 182.865C193.384 183.055 193.154 183.15 192.874 183.15ZM203.353 183.15C202.723 183.15 202.183 183.07 201.733 182.91C201.293 182.74 200.928 182.525 200.638 182.265C200.358 182.005 200.133 181.73 199.963 181.44C199.803 181.15 199.683 180.875 199.603 180.615C199.533 180.355 199.488 180.145 199.468 179.985C199.448 179.815 199.438 179.73 199.438 179.73H200.818C200.818 179.73 200.828 179.805 200.848 179.955C200.868 180.095 200.918 180.275 200.998 180.495C201.088 180.705 201.223 180.92 201.403 181.14C201.583 181.35 201.828 181.53 202.138 181.68C202.458 181.82 202.863 181.89 203.353 181.89C203.933 181.89 204.413 181.765 204.793 181.515C205.173 181.265 205.458 180.945 205.648 180.555C205.838 180.165 205.933 179.755 205.933 179.325C205.933 178.885 205.838 178.465 205.648 178.065C205.458 177.655 205.173 177.325 204.793 177.075C204.423 176.815 203.963 176.685 203.413 176.685C202.983 176.685 202.623 176.755 202.333 176.895C202.043 177.035 201.813 177.195 201.643 177.375C201.483 177.555 201.368 177.715 201.298 177.855C201.228 177.995 201.193 178.065 201.193 178.065H199.753L200.623 171.9H206.593V173.205H201.718L201.268 176.385H201.313C201.433 176.255 201.583 176.12 201.763 175.98C201.953 175.83 202.198 175.705 202.498 175.605C202.798 175.495 203.173 175.44 203.623 175.44C204.443 175.44 205.128 175.63 205.678 176.01C206.228 176.38 206.643 176.86 206.923 177.45C207.213 178.03 207.358 178.645 207.358 179.295C207.358 179.775 207.273 180.245 207.103 180.705C206.943 181.165 206.698 181.58 206.368 181.95C206.038 182.31 205.623 182.6 205.123 182.82C204.623 183.04 204.033 183.15 203.353 183.15ZM212.505 171.9V183H211.065V174.39L208.98 174.405V173.565L209.355 173.445C209.885 173.275 210.31 173.09 210.63 172.89C210.96 172.69 211.265 172.415 211.545 172.065L211.68 171.9H212.505ZM217.377 176.34C216.957 176.34 216.572 176.25 216.222 176.07C215.872 175.88 215.587 175.61 215.367 175.26C215.157 174.91 215.052 174.5 215.052 174.03C215.052 173.56 215.157 173.155 215.367 172.815C215.577 172.475 215.857 172.215 216.207 172.035C216.567 171.845 216.957 171.75 217.377 171.75C217.807 171.75 218.197 171.845 218.547 172.035C218.897 172.215 219.177 172.475 219.387 172.815C219.597 173.155 219.702 173.56 219.702 174.03C219.702 174.5 219.597 174.91 219.387 175.26C219.177 175.61 218.892 175.88 218.532 176.07C218.182 176.25 217.797 176.34 217.377 176.34ZM216.912 183L222.747 171.9H224.127L218.292 183H216.912ZM217.377 175.275C217.697 175.275 217.972 175.165 218.202 174.945C218.442 174.725 218.562 174.425 218.562 174.045C218.562 173.655 218.442 173.355 218.202 173.145C217.972 172.925 217.697 172.815 217.377 172.815C217.067 172.815 216.792 172.925 216.552 173.145C216.312 173.355 216.192 173.655 216.192 174.045C216.192 174.425 216.312 174.725 216.552 174.945C216.792 175.165 217.067 175.275 217.377 175.275ZM223.662 183.15C223.242 183.15 222.857 183.06 222.507 182.88C222.157 182.69 221.872 182.425 221.652 182.085C221.442 181.735 221.337 181.325 221.337 180.855C221.337 180.375 221.442 179.965 221.652 179.625C221.872 179.285 222.157 179.025 222.507 178.845C222.857 178.655 223.242 178.56 223.662 178.56C224.082 178.56 224.467 178.655 224.817 178.845C225.167 179.025 225.447 179.285 225.657 179.625C225.877 179.965 225.987 180.375 225.987 180.855C225.987 181.325 225.882 181.735 225.672 182.085C225.462 182.425 225.182 182.69 224.832 182.88C224.482 183.06 224.092 183.15 223.662 183.15ZM223.662 182.1C223.982 182.1 224.257 181.99 224.487 181.77C224.727 181.55 224.847 181.245 224.847 180.855C224.847 180.465 224.727 180.165 224.487 179.955C224.257 179.735 223.982 179.625 223.662 179.625C223.352 179.625 223.077 179.735 222.837 179.955C222.597 180.165 222.477 180.465 222.477 180.855C222.477 181.245 222.597 181.55 222.837 181.77C223.077 181.99 223.352 182.1 223.662 182.1Z" fill="#303030"/>
<path d="M64.534 93V81.9H68.134C69.024 81.9 69.799 82.06 70.459 82.38C71.119 82.69 71.669 83.11 72.109 83.64C72.549 84.17 72.879 84.765 73.099 85.425C73.319 86.085 73.429 86.76 73.429 87.45C73.429 88.14 73.319 88.815 73.099 89.475C72.879 90.135 72.549 90.73 72.109 91.26C71.669 91.79 71.119 92.215 70.459 92.535C69.799 92.845 69.024 93 68.134 93H64.534ZM68.074 83.19H66.004V91.71H68.074C68.724 91.71 69.289 91.59 69.769 91.35C70.259 91.11 70.664 90.79 70.984 90.39C71.314 89.98 71.559 89.52 71.719 89.01C71.879 88.5 71.959 87.98 71.959 87.45C71.959 86.92 71.879 86.4 71.719 85.89C71.559 85.38 71.314 84.925 70.984 84.525C70.664 84.115 70.259 83.79 69.769 83.55C69.289 83.31 68.724 83.19 68.074 83.19ZM79.0621 93.15C78.2121 93.15 77.4971 92.955 76.9171 92.565C76.3371 92.165 75.8971 91.65 75.5971 91.02C75.2971 90.39 75.1471 89.725 75.1471 89.025C75.1471 88.315 75.2971 87.65 75.5971 87.03C75.8971 86.4 76.3371 85.89 76.9171 85.5C77.4971 85.1 78.2121 84.9 79.0621 84.9C79.9121 84.9 80.6271 85.1 81.2071 85.5C81.7871 85.89 82.2271 86.4 82.5271 87.03C82.8271 87.65 82.9771 88.315 82.9771 89.025C82.9771 89.725 82.8271 90.39 82.5271 91.02C82.2271 91.65 81.7871 92.165 81.2071 92.565C80.6271 92.955 79.9121 93.15 79.0621 93.15ZM79.0621 91.905C79.6021 91.905 80.0521 91.77 80.4121 91.5C80.7821 91.22 81.0571 90.86 81.2371 90.42C81.4271 89.98 81.5221 89.515 81.5221 89.025C81.5221 88.525 81.4271 88.06 81.2371 87.63C81.0571 87.19 80.7821 86.835 80.4121 86.565C80.0521 86.285 79.6021 86.145 79.0621 86.145C78.5321 86.145 78.0821 86.285 77.7121 86.565C77.3421 86.835 77.0621 87.19 76.8721 87.63C76.6921 88.06 76.6021 88.525 76.6021 89.025C76.6021 89.515 76.6921 89.98 76.8721 90.42C77.0621 90.86 77.3421 91.22 77.7121 91.5C78.0821 91.77 78.5321 91.905 79.0621 91.905ZM88.6781 95.925C88.4481 95.925 88.2531 95.915 88.0931 95.895C87.9331 95.875 87.8531 95.865 87.8531 95.865V94.65C87.8531 94.65 87.9331 94.655 88.0931 94.665C88.2631 94.685 88.4431 94.695 88.6331 94.695C89.2231 94.695 89.7031 94.57 90.0731 94.32C90.4531 94.08 90.7731 93.68 91.0331 93.12L87.9581 85.05H89.4431L91.7381 91.26L94.0481 85.05H95.5481L92.4731 93.015C92.0831 94.015 91.5781 94.75 90.9581 95.22C90.3481 95.69 89.5881 95.925 88.6781 95.925ZM100.361 93.15C99.5109 93.15 98.7959 92.955 98.2159 92.565C97.6359 92.165 97.1959 91.65 96.8959 91.02C96.5959 90.39 96.4459 89.725 96.4459 89.025C96.4459 88.315 96.5959 87.65 96.8959 87.03C97.1959 86.4 97.6359 85.89 98.2159 85.5C98.7959 85.1 99.5109 84.9 100.361 84.9C101.211 84.9 101.926 85.1 102.506 85.5C103.086 85.89 103.526 86.4 103.826 87.03C104.126 87.65 104.276 88.315 104.276 89.025C104.276 89.725 104.126 90.39 103.826 91.02C103.526 91.65 103.086 92.165 102.506 92.565C101.926 92.955 101.211 93.15 100.361 93.15ZM100.361 91.905C100.901 91.905 101.351 91.77 101.711 91.5C102.081 91.22 102.356 90.86 102.536 90.42C102.726 89.98 102.821 89.515 102.821 89.025C102.821 88.525 102.726 88.06 102.536 87.63C102.356 87.19 102.081 86.835 101.711 86.565C101.351 86.285 100.901 86.145 100.361 86.145C99.8309 86.145 99.3809 86.285 99.0109 86.565C98.6409 86.835 98.3609 87.19 98.1709 87.63C97.9909 88.06 97.9009 88.525 97.9009 89.025C97.9009 89.515 97.9909 89.98 98.1709 90.42C98.3609 90.86 98.6409 91.22 99.0109 91.5C99.3809 91.77 99.8309 91.905 100.361 91.905ZM108.815 93.15C108.025 93.15 107.395 92.905 106.925 92.415C106.455 91.925 106.22 91.245 106.22 90.375V85.05H107.645V90.3C107.645 90.82 107.785 91.22 108.065 91.5C108.355 91.78 108.735 91.92 109.205 91.92C109.685 91.92 110.07 91.795 110.36 91.545C110.65 91.295 110.86 90.975 110.99 90.585C111.12 90.195 111.185 89.795 111.185 89.385V85.05H112.61V93H111.185V91.86H111.095C111.035 91.98 110.92 92.145 110.75 92.355C110.58 92.555 110.34 92.74 110.03 92.91C109.72 93.07 109.315 93.15 108.815 93.15ZM58.6784 113V105.05H60.1034V106.04H60.1634C60.3334 105.74 60.5834 105.475 60.9134 105.245C61.2434 105.015 61.7084 104.9 62.3084 104.9C62.4784 104.9 62.6334 104.91 62.7734 104.93C62.9134 104.94 62.9834 104.945 62.9834 104.945V106.31C62.9834 106.31 62.9034 106.305 62.7434 106.295C62.5934 106.275 62.4334 106.265 62.2634 106.265C61.5734 106.265 61.0384 106.465 60.6584 106.865C60.2884 107.255 60.1034 107.895 60.1034 108.785V113H58.6784ZM67.5669 113.15C66.9169 113.15 66.3519 113.035 65.8719 112.805C65.4019 112.565 65.0119 112.245 64.7019 111.845C64.4019 111.445 64.1769 111.005 64.0269 110.525C63.8769 110.035 63.8019 109.535 63.8019 109.025C63.8019 108.525 63.8719 108.03 64.0119 107.54C64.1619 107.05 64.3869 106.605 64.6869 106.205C64.9969 105.805 65.3819 105.49 65.8419 105.26C66.3119 105.02 66.8669 104.9 67.5069 104.9C68.1869 104.9 68.7869 105.055 69.3069 105.365C69.8269 105.675 70.2369 106.135 70.5369 106.745C70.8369 107.355 70.9869 108.12 70.9869 109.04V109.46H65.2419C65.2719 109.91 65.3769 110.325 65.5569 110.705C65.7469 111.075 66.0119 111.375 66.3519 111.605C66.6919 111.825 67.0969 111.935 67.5669 111.935C67.9769 111.935 68.3069 111.87 68.5569 111.74C68.8169 111.6 69.0219 111.44 69.1719 111.26C69.3219 111.08 69.4219 110.925 69.4719 110.795C69.5319 110.655 69.5619 110.585 69.5619 110.585H70.8969C70.8969 110.585 70.8719 110.675 70.8219 110.855C70.7719 111.025 70.6819 111.235 70.5519 111.485C70.4219 111.735 70.2319 111.99 69.9819 112.25C69.7319 112.5 69.4119 112.715 69.0219 112.895C68.6319 113.065 68.1469 113.15 67.5669 113.15ZM65.2569 108.35H69.5919C69.5719 107.83 69.4619 107.41 69.2619 107.09C69.0619 106.76 68.8069 106.515 68.4969 106.355C68.1869 106.195 67.8569 106.115 67.5069 106.115C66.8769 106.115 66.3619 106.32 65.9619 106.73C65.5619 107.13 65.3269 107.67 65.2569 108.35ZM76.6231 113.15C75.9731 113.15 75.4031 113.035 74.9131 112.805C74.4231 112.565 74.0131 112.25 73.6831 111.86C73.3631 111.46 73.1181 111.015 72.9481 110.525C72.7881 110.035 72.7081 109.535 72.7081 109.025C72.7081 108.515 72.7881 108.02 72.9481 107.54C73.1081 107.05 73.3481 106.605 73.6681 106.205C73.9981 105.805 74.4081 105.49 74.8981 105.26C75.3881 105.02 75.9631 104.9 76.6231 104.9C77.2631 104.9 77.7931 104.995 78.2131 105.185C78.6331 105.375 78.9681 105.615 79.2181 105.905C79.4781 106.185 79.6681 106.47 79.7881 106.76C79.9181 107.04 80.0031 107.275 80.0431 107.465C80.0831 107.655 80.1031 107.75 80.1031 107.75H78.7231C78.7231 107.75 78.6981 107.67 78.6481 107.51C78.5981 107.34 78.5031 107.15 78.3631 106.94C78.2231 106.73 78.0131 106.545 77.7331 106.385C77.4531 106.215 77.0831 106.13 76.6231 106.13C76.0731 106.13 75.6081 106.27 75.2281 106.55C74.8581 106.82 74.5781 107.175 74.3881 107.615C74.2081 108.055 74.1181 108.525 74.1181 109.025C74.1181 109.525 74.2081 109.995 74.3881 110.435C74.5781 110.875 74.8581 111.235 75.2281 111.515C75.6081 111.785 76.0731 111.92 76.6231 111.92C77.0831 111.92 77.4531 111.84 77.7331 111.68C78.0131 111.51 78.2231 111.32 78.3631 111.11C78.5031 110.9 78.5981 110.715 78.6481 110.555C78.6981 110.385 78.7231 110.3 78.7231 110.3H80.1031C80.1031 110.3 80.0831 110.395 80.0431 110.585C80.0031 110.775 79.9181 111.015 79.7881 111.305C79.6681 111.585 79.4781 111.87 79.2181 112.16C78.9681 112.44 78.6331 112.675 78.2131 112.865C77.7931 113.055 77.2631 113.15 76.6231 113.15ZM81.9032 115.925C81.6732 115.925 81.4782 115.915 81.3182 115.895C81.1582 115.875 81.0782 115.865 81.0782 115.865V114.65C81.0782 114.65 81.1582 114.655 81.3182 114.665C81.4882 114.685 81.6682 114.695 81.8582 114.695C82.4482 114.695 82.9282 114.57 83.2982 114.32C83.6782 114.08 83.9982 113.68 84.2582 113.12L81.1832 105.05H82.6682L84.9632 111.26L87.2732 105.05H88.7732L85.6982 113.015C85.3082 114.015 84.8032 114.75 84.1832 115.22C83.5732 115.69 82.8132 115.925 81.9032 115.925ZM93.586 113.15C92.936 113.15 92.366 113.035 91.876 112.805C91.386 112.565 90.976 112.25 90.646 111.86C90.326 111.46 90.081 111.015 89.911 110.525C89.751 110.035 89.671 109.535 89.671 109.025C89.671 108.515 89.751 108.02 89.911 107.54C90.071 107.05 90.311 106.605 90.631 106.205C90.961 105.805 91.371 105.49 91.861 105.26C92.351 105.02 92.926 104.9 93.586 104.9C94.226 104.9 94.756 104.995 95.176 105.185C95.596 105.375 95.931 105.615 96.181 105.905C96.441 106.185 96.631 106.47 96.751 106.76C96.881 107.04 96.966 107.275 97.006 107.465C97.046 107.655 97.066 107.75 97.066 107.75H95.686C95.686 107.75 95.661 107.67 95.611 107.51C95.561 107.34 95.466 107.15 95.326 106.94C95.186 106.73 94.976 106.545 94.696 106.385C94.416 106.215 94.046 106.13 93.586 106.13C93.036 106.13 92.571 106.27 92.191 106.55C91.821 106.82 91.541 107.175 91.351 107.615C91.171 108.055 91.081 108.525 91.081 109.025C91.081 109.525 91.171 109.995 91.351 110.435C91.541 110.875 91.821 111.235 92.191 111.515C92.571 111.785 93.036 111.92 93.586 111.92C94.046 111.92 94.416 111.84 94.696 111.68C94.976 111.51 95.186 111.32 95.326 111.11C95.466 110.9 95.561 110.715 95.611 110.555C95.661 110.385 95.686 110.3 95.686 110.3H97.066C97.066 110.3 97.046 110.395 97.006 110.585C96.966 110.775 96.881 111.015 96.751 111.305C96.631 111.585 96.441 111.87 96.181 112.16C95.931 112.44 95.596 112.675 95.176 112.865C94.756 113.055 94.226 113.15 93.586 113.15ZM99.1702 113L99.1852 101.6H100.595V113H99.1702ZM106.458 113.15C105.808 113.15 105.243 113.035 104.763 112.805C104.293 112.565 103.903 112.245 103.593 111.845C103.293 111.445 103.068 111.005 102.918 110.525C102.768 110.035 102.693 109.535 102.693 109.025C102.693 108.525 102.763 108.03 102.903 107.54C103.053 107.05 103.278 106.605 103.578 106.205C103.888 105.805 104.273 105.49 104.733 105.26C105.203 105.02 105.758 104.9 106.398 104.9C107.078 104.9 107.678 105.055 108.198 105.365C108.718 105.675 109.128 106.135 109.428 106.745C109.728 107.355 109.878 108.12 109.878 109.04V109.46H104.133C104.163 109.91 104.268 110.325 104.448 110.705C104.638 111.075 104.903 111.375 105.243 111.605C105.583 111.825 105.988 111.935 106.458 111.935C106.868 111.935 107.198 111.87 107.448 111.74C107.708 111.6 107.913 111.44 108.063 111.26C108.213 111.08 108.313 110.925 108.363 110.795C108.423 110.655 108.453 110.585 108.453 110.585H109.788C109.788 110.585 109.763 110.675 109.713 110.855C109.663 111.025 109.573 111.235 109.443 111.485C109.313 111.735 109.123 111.99 108.873 112.25C108.623 112.5 108.303 112.715 107.913 112.895C107.523 113.065 107.038 113.15 106.458 113.15ZM104.148 108.35H108.483C108.463 107.83 108.353 107.41 108.153 107.09C107.953 106.76 107.698 106.515 107.388 106.355C107.078 106.195 106.748 106.115 106.398 106.115C105.768 106.115 105.253 106.32 104.853 106.73C104.453 107.13 104.218 107.67 104.148 108.35ZM114.193 110.165V109.64C114.193 109.15 114.293 108.74 114.493 108.41C114.693 108.07 114.938 107.77 115.228 107.51C115.528 107.25 115.823 107 116.113 106.76C116.413 106.51 116.663 106.245 116.863 105.965C117.063 105.675 117.163 105.33 117.163 104.93C117.163 104.53 117.063 104.19 116.863 103.91C116.663 103.63 116.403 103.42 116.083 103.28C115.773 103.13 115.433 103.055 115.063 103.055C114.703 103.055 114.358 103.135 114.028 103.295C113.708 103.445 113.443 103.685 113.233 104.015C113.033 104.345 112.933 104.765 112.933 105.275H111.523C111.523 104.475 111.698 103.815 112.048 103.295C112.398 102.775 112.843 102.39 113.383 102.14C113.933 101.88 114.508 101.75 115.108 101.75C115.728 101.75 116.303 101.875 116.833 102.125C117.373 102.375 117.803 102.735 118.123 103.205C118.453 103.675 118.618 104.24 118.618 104.9C118.618 105.42 118.518 105.87 118.318 106.25C118.118 106.62 117.868 106.945 117.568 107.225C117.268 107.505 116.968 107.765 116.668 108.005C116.368 108.245 116.118 108.495 115.918 108.755C115.718 109.015 115.618 109.31 115.618 109.64V110.165H114.193ZM114.928 113.15C114.658 113.15 114.433 113.06 114.253 112.88C114.083 112.69 113.998 112.47 113.998 112.22C113.998 111.96 114.083 111.74 114.253 111.56C114.433 111.38 114.658 111.29 114.928 111.29C115.188 111.29 115.408 111.38 115.588 111.56C115.768 111.74 115.858 111.96 115.858 112.22C115.858 112.47 115.768 112.69 115.588 112.88C115.408 113.06 115.188 113.15 114.928 113.15Z" fill="#303030"/>
<path fill-rule="evenodd" clip-rule="evenodd" d="M395.951 103C392.685 133.472 366.888 157.201 335.55 157.201C301.998 157.201 274.8 130.002 274.8 96.4504C274.8 62.8989 301.998 35.7001 335.55 35.7001C341.47 35.7001 347.193 36.5471 352.604 38.1264L361.764 9.74172C353.602 7.30741 344.954 6 336 6C286.295 6 246 46.2946 246 96.0005C246 145.706 286.295 186.001 336 186.001C383.351 186.001 422.161 149.435 425.733 103H395.951Z" fill="#6ABD9C"/>
<path fill-rule="evenodd" clip-rule="evenodd" d="M425.979 98.0004H396.281C396.294 97.4853 396.3 96.9686 396.3 96.4503C396.3 70.579 380.128 48.4848 357.342 39.7254L366.514 11.3043C401.202 23.8032 426.001 57.0057 426.001 96.0004C426.001 96.6688 425.994 97.3355 425.979 98.0004Z" fill="#77D6B0"/>
<path fill-rule="evenodd" clip-rule="evenodd" d="M150.257 97.5L179.954 97.5075C179.962 97.006 179.966 96.5035 179.966 96C179.966 46.2944 139.673 6 89.9656 6C52.9746 6 21.1934 28.3183 7.35742 60.2244L33.8125 72.1718C43.1813 50.7044 64.5972 35.7 89.5164 35.7C123.067 35.7 150.266 62.8987 150.266 96.45C150.266 96.8007 150.263 97.1507 150.257 97.5Z" fill="#77D6B0"/>
<path fill-rule="evenodd" clip-rule="evenodd" d="M90 186C137.352 186 176.158 149.434 179.73 103H149.951C146.686 133.471 120.889 157.2 89.5508 157.2C55.998 157.2 28.8008 130.001 28.8008 96.45C28.8008 89.5932 29.9355 83.0017 32.0293 76.8535L5.52344 64.8831C1.95117 74.5803 0 85.0623 0 96C0 145.706 40.2949 186 90 186ZM150.298 97H179.995C179.998 96.6671 180 96.3338 180 96C180 46.2944 139.705 6 90 6C53.002 6 21.2188 28.3244 7.38477 60.2374L33.8398 72.1846C43.207 50.7104 64.625 35.7 89.5508 35.7C123.102 35.7 150.301 62.8987 150.301 96.45C150.301 96.6335 150.3 96.8169 150.298 97Z" fill="#68B798"/>
<path fill-rule="evenodd" clip-rule="evenodd" d="M179.953 97.5H150.257C150.263 97.1507 150.266 96.8007 150.266 96.45C150.266 62.8987 123.067 35.7 89.5156 35.7C64.2004 35.7 42.5018 51.1842 33.3742 73.1983L7 61.0584C20.6413 28.7079 52.6515 6 89.9656 6C139.671 6 179.966 46.2944 179.966 96C179.966 96.501 179.961 97.001 179.953 97.5Z" fill="#77D6B0"/>
</svg>
