<svg width="593" height="207" viewBox="0 0 593 207" fill="none" xmlns="http://www.w3.org/2000/svg">
<path d="M145.675 18L149.59 6.9H151.435L155.365 18H153.805L152.875 15.345H148.165L147.235 18H145.675ZM148.615 14.025H152.425L150.52 8.58L148.615 14.025ZM158.706 18L155.676 10.05H157.161L159.486 16.26L161.766 10.05H163.266L160.221 18H158.706ZM168.376 21.15C167.716 21.15 167.166 21.06 166.726 20.88C166.286 20.71 165.931 20.49 165.661 20.22C165.401 19.96 165.206 19.7 165.076 19.44C164.946 19.18 164.861 18.96 164.821 18.78C164.781 18.61 164.761 18.525 164.761 18.525H166.186C166.186 18.525 166.211 18.595 166.261 18.735C166.311 18.875 166.406 19.035 166.546 19.215C166.696 19.395 166.916 19.555 167.206 19.695C167.496 19.835 167.886 19.905 168.376 19.905C168.956 19.905 169.411 19.79 169.741 19.56C170.071 19.34 170.306 19.05 170.446 18.69C170.596 18.33 170.671 17.95 170.671 17.55V16.635H170.596C170.496 16.805 170.336 17 170.116 17.22C169.906 17.43 169.626 17.615 169.276 17.775C168.926 17.925 168.496 18 167.986 18C167.386 18 166.861 17.885 166.411 17.655C165.961 17.425 165.586 17.115 165.286 16.725C164.996 16.335 164.776 15.9 164.626 15.42C164.476 14.94 164.401 14.45 164.401 13.95C164.401 13.45 164.476 12.96 164.626 12.48C164.776 12 164.996 11.565 165.286 11.175C165.586 10.785 165.961 10.475 166.411 10.245C166.861 10.015 167.386 9.9 167.986 9.9C168.496 9.9 168.926 9.98 169.276 10.14C169.626 10.29 169.906 10.47 170.116 10.68C170.336 10.89 170.496 11.085 170.596 11.265H170.671V10.05H172.096V17.535C172.096 18.645 171.771 19.525 171.121 20.175C170.481 20.825 169.566 21.15 168.376 21.15ZM168.256 16.785C168.786 16.785 169.226 16.65 169.576 16.38C169.936 16.1 170.201 15.745 170.371 15.315C170.551 14.885 170.641 14.43 170.641 13.95C170.641 13.47 170.551 13.015 170.371 12.585C170.201 12.145 169.936 11.79 169.576 11.52C169.226 11.25 168.786 11.115 168.256 11.115C167.726 11.115 167.281 11.25 166.921 11.52C166.561 11.79 166.291 12.145 166.111 12.585C165.941 13.015 165.856 13.47 165.856 13.95C165.856 14.43 165.941 14.885 166.111 15.315C166.291 15.745 166.561 16.1 166.921 16.38C167.281 16.65 167.726 16.785 168.256 16.785ZM175.285 18.15C175.005 18.15 174.77 18.055 174.58 17.865C174.4 17.665 174.31 17.435 174.31 17.175C174.31 16.905 174.4 16.675 174.58 16.485C174.77 16.295 175.005 16.2 175.285 16.2C175.565 16.2 175.795 16.295 175.975 16.485C176.165 16.675 176.26 16.905 176.26 17.175C176.26 17.445 176.165 17.675 175.975 17.865C175.795 18.055 175.565 18.15 175.285 18.15ZM185.809 18.15C185.169 18.15 184.619 18.07 184.159 17.91C183.709 17.74 183.334 17.525 183.034 17.265C182.734 16.995 182.494 16.715 182.314 16.425C182.134 16.135 181.999 15.86 181.909 15.6C181.819 15.33 181.759 15.115 181.729 14.955C181.709 14.785 181.699 14.7 181.699 14.7H183.199C183.199 14.7 183.214 14.77 183.244 14.91C183.274 15.05 183.334 15.225 183.424 15.435C183.524 15.645 183.669 15.86 183.859 16.08C184.049 16.29 184.304 16.465 184.624 16.605C184.944 16.745 185.349 16.815 185.839 16.815C186.579 16.815 187.164 16.64 187.594 16.29C188.024 15.93 188.239 15.465 188.239 14.895C188.239 14.405 188.074 14.025 187.744 13.755C187.424 13.485 186.964 13.275 186.364 13.125L184.894 12.765C184.374 12.635 183.889 12.455 183.439 12.225C182.999 11.985 182.644 11.675 182.374 11.295C182.114 10.905 181.984 10.42 181.984 9.84C181.984 9.19 182.144 8.635 182.464 8.175C182.784 7.715 183.219 7.365 183.769 7.125C184.319 6.875 184.944 6.75 185.644 6.75C186.324 6.75 186.889 6.855 187.339 7.065C187.789 7.275 188.149 7.535 188.419 7.845C188.689 8.145 188.889 8.45 189.019 8.76C189.149 9.06 189.234 9.315 189.274 9.525C189.314 9.735 189.334 9.84 189.334 9.84H187.894C187.894 9.84 187.874 9.75 187.834 9.57C187.794 9.39 187.699 9.185 187.549 8.955C187.399 8.715 187.169 8.505 186.859 8.325C186.549 8.145 186.129 8.055 185.599 8.055C184.879 8.055 184.334 8.225 183.964 8.565C183.604 8.905 183.424 9.295 183.424 9.735C183.424 10.135 183.569 10.46 183.859 10.71C184.149 10.95 184.549 11.135 185.059 11.265L186.649 11.655C187.219 11.795 187.734 12 188.194 12.27C188.654 12.53 189.019 12.87 189.289 13.29C189.559 13.7 189.694 14.205 189.694 14.805C189.694 15.405 189.544 15.96 189.244 16.47C188.954 16.98 188.519 17.39 187.939 17.7C187.369 18 186.659 18.15 185.809 18.15ZM194.055 18.15C193.265 18.15 192.635 17.905 192.165 17.415C191.695 16.925 191.46 16.245 191.46 15.375V10.05H192.885V15.3C192.885 15.82 193.025 16.22 193.305 16.5C193.595 16.78 193.975 16.92 194.445 16.92C194.925 16.92 195.31 16.795 195.6 16.545C195.89 16.295 196.1 15.975 196.23 15.585C196.36 15.195 196.425 14.795 196.425 14.385V10.05H197.85V18H196.425V16.86H196.335C196.275 16.98 196.16 17.145 195.99 17.355C195.82 17.555 195.58 17.74 195.27 17.91C194.96 18.07 194.555 18.15 194.055 18.15ZM203.721 18.15C203.071 18.15 202.501 18.035 202.011 17.805C201.521 17.565 201.111 17.25 200.781 16.86C200.461 16.46 200.216 16.015 200.046 15.525C199.886 15.035 199.806 14.535 199.806 14.025C199.806 13.515 199.886 13.02 200.046 12.54C200.206 12.05 200.446 11.605 200.766 11.205C201.096 10.805 201.506 10.49 201.996 10.26C202.486 10.02 203.061 9.9 203.721 9.9C204.361 9.9 204.891 9.995 205.311 10.185C205.731 10.375 206.066 10.615 206.316 10.905C206.576 11.185 206.766 11.47 206.886 11.76C207.016 12.04 207.101 12.275 207.141 12.465C207.181 12.655 207.201 12.75 207.201 12.75H205.821C205.821 12.75 205.796 12.67 205.746 12.51C205.696 12.34 205.601 12.15 205.461 11.94C205.321 11.73 205.111 11.545 204.831 11.385C204.551 11.215 204.181 11.13 203.721 11.13C203.171 11.13 202.706 11.27 202.326 11.55C201.956 11.82 201.676 12.175 201.486 12.615C201.306 13.055 201.216 13.525 201.216 14.025C201.216 14.525 201.306 14.995 201.486 15.435C201.676 15.875 201.956 16.235 202.326 16.515C202.706 16.785 203.171 16.92 203.721 16.92C204.181 16.92 204.551 16.84 204.831 16.68C205.111 16.51 205.321 16.32 205.461 16.11C205.601 15.9 205.696 15.715 205.746 15.555C205.796 15.385 205.821 15.3 205.821 15.3H207.201C207.201 15.3 207.181 15.395 207.141 15.585C207.101 15.775 207.016 16.015 206.886 16.305C206.766 16.585 206.576 16.87 206.316 17.16C206.066 17.44 205.731 17.675 205.311 17.865C204.891 18.055 204.361 18.15 203.721 18.15ZM212.92 18.15C212.27 18.15 211.7 18.035 211.21 17.805C210.72 17.565 210.31 17.25 209.98 16.86C209.66 16.46 209.415 16.015 209.245 15.525C209.085 15.035 209.005 14.535 209.005 14.025C209.005 13.515 209.085 13.02 209.245 12.54C209.405 12.05 209.645 11.605 209.965 11.205C210.295 10.805 210.705 10.49 211.195 10.26C211.685 10.02 212.26 9.9 212.92 9.9C213.56 9.9 214.09 9.995 214.51 10.185C214.93 10.375 215.265 10.615 215.515 10.905C215.775 11.185 215.965 11.47 216.085 11.76C216.215 12.04 216.3 12.275 216.34 12.465C216.38 12.655 216.4 12.75 216.4 12.75H215.02C215.02 12.75 214.995 12.67 214.945 12.51C214.895 12.34 214.8 12.15 214.66 11.94C214.52 11.73 214.31 11.545 214.03 11.385C213.75 11.215 213.38 11.13 212.92 11.13C212.37 11.13 211.905 11.27 211.525 11.55C211.155 11.82 210.875 12.175 210.685 12.615C210.505 13.055 210.415 13.525 210.415 14.025C210.415 14.525 210.505 14.995 210.685 15.435C210.875 15.875 211.155 16.235 211.525 16.515C211.905 16.785 212.37 16.92 212.92 16.92C213.38 16.92 213.75 16.84 214.03 16.68C214.31 16.51 214.52 16.32 214.66 16.11C214.8 15.9 214.895 15.715 214.945 15.555C214.995 15.385 215.02 15.3 215.02 15.3H216.4C216.4 15.3 216.38 15.395 216.34 15.585C216.3 15.775 216.215 16.015 216.085 16.305C215.965 16.585 215.775 16.87 215.515 17.16C215.265 17.44 214.93 17.675 214.51 17.865C214.09 18.055 213.56 18.15 212.92 18.15ZM221.97 18.15C221.32 18.15 220.755 18.035 220.275 17.805C219.805 17.565 219.415 17.245 219.105 16.845C218.805 16.445 218.58 16.005 218.43 15.525C218.28 15.035 218.205 14.535 218.205 14.025C218.205 13.525 218.275 13.03 218.415 12.54C218.565 12.05 218.79 11.605 219.09 11.205C219.4 10.805 219.785 10.49 220.245 10.26C220.715 10.02 221.27 9.9 221.91 9.9C222.59 9.9 223.19 10.055 223.71 10.365C224.23 10.675 224.64 11.135 224.94 11.745C225.24 12.355 225.39 13.12 225.39 14.04V14.46H219.645C219.675 14.91 219.78 15.325 219.96 15.705C220.15 16.075 220.415 16.375 220.755 16.605C221.095 16.825 221.5 16.935 221.97 16.935C222.38 16.935 222.71 16.87 222.96 16.74C223.22 16.6 223.425 16.44 223.575 16.26C223.725 16.08 223.825 15.925 223.875 15.795C223.935 15.655 223.965 15.585 223.965 15.585H225.3C225.3 15.585 225.275 15.675 225.225 15.855C225.175 16.025 225.085 16.235 224.955 16.485C224.825 16.735 224.635 16.99 224.385 17.25C224.135 17.5 223.815 17.715 223.425 17.895C223.035 18.065 222.55 18.15 221.97 18.15ZM219.66 13.35H223.995C223.975 12.83 223.865 12.41 223.665 12.09C223.465 11.76 223.21 11.515 222.9 11.355C222.59 11.195 222.26 11.115 221.91 11.115C221.28 11.115 220.765 11.32 220.365 11.73C219.965 12.13 219.73 12.67 219.66 13.35ZM230.244 18.15C229.634 18.15 229.129 18.065 228.729 17.895C228.339 17.725 228.029 17.515 227.799 17.265C227.569 17.005 227.399 16.75 227.289 16.5C227.179 16.24 227.109 16.025 227.079 15.855C227.049 15.685 227.034 15.6 227.034 15.6H228.474C228.474 15.6 228.489 15.67 228.519 15.81C228.559 15.94 228.634 16.095 228.744 16.275C228.864 16.445 229.044 16.6 229.284 16.74C229.534 16.87 229.864 16.935 230.274 16.935C230.744 16.935 231.109 16.825 231.369 16.605C231.629 16.375 231.759 16.095 231.759 15.765C231.759 15.475 231.654 15.245 231.444 15.075C231.244 14.905 230.954 14.775 230.574 14.685L229.494 14.43C229.094 14.33 228.719 14.195 228.369 14.025C228.019 13.855 227.734 13.625 227.514 13.335C227.304 13.035 227.199 12.665 227.199 12.225C227.199 11.545 227.454 10.99 227.964 10.56C228.474 10.12 229.139 9.9 229.959 9.9C230.509 9.9 230.964 9.98 231.324 10.14C231.684 10.29 231.969 10.48 232.179 10.71C232.399 10.94 232.559 11.17 232.659 11.4C232.769 11.63 232.839 11.825 232.869 11.985C232.899 12.135 232.914 12.21 232.914 12.21H231.534C231.534 12.21 231.519 12.155 231.489 12.045C231.459 11.925 231.389 11.795 231.279 11.655C231.179 11.505 231.024 11.375 230.814 11.265C230.604 11.145 230.324 11.085 229.974 11.085C229.494 11.085 229.144 11.195 228.924 11.415C228.704 11.635 228.594 11.875 228.594 12.135C228.594 12.385 228.694 12.59 228.894 12.75C229.104 12.9 229.374 13.015 229.704 13.095L230.799 13.35C231.479 13.51 232.039 13.775 232.479 14.145C232.929 14.505 233.154 15.025 233.154 15.705C233.154 16.145 233.039 16.555 232.809 16.935C232.579 17.305 232.249 17.6 231.819 17.82C231.389 18.04 230.864 18.15 230.244 18.15ZM237.861 18.15C237.251 18.15 236.746 18.065 236.346 17.895C235.956 17.725 235.646 17.515 235.416 17.265C235.186 17.005 235.016 16.75 234.906 16.5C234.796 16.24 234.726 16.025 234.696 15.855C234.666 15.685 234.651 15.6 234.651 15.6H236.091C236.091 15.6 236.106 15.67 236.136 15.81C236.176 15.94 236.251 16.095 236.361 16.275C236.481 16.445 236.661 16.6 236.901 16.74C237.151 16.87 237.481 16.935 237.891 16.935C238.361 16.935 238.726 16.825 238.986 16.605C239.246 16.375 239.376 16.095 239.376 15.765C239.376 15.475 239.271 15.245 239.061 15.075C238.861 14.905 238.571 14.775 238.191 14.685L237.111 14.43C236.711 14.33 236.336 14.195 235.986 14.025C235.636 13.855 235.351 13.625 235.131 13.335C234.921 13.035 234.816 12.665 234.816 12.225C234.816 11.545 235.071 10.99 235.581 10.56C236.091 10.12 236.756 9.9 237.576 9.9C238.126 9.9 238.581 9.98 238.941 10.14C239.301 10.29 239.586 10.48 239.796 10.71C240.016 10.94 240.176 11.17 240.276 11.4C240.386 11.63 240.456 11.825 240.486 11.985C240.516 12.135 240.531 12.21 240.531 12.21H239.151C239.151 12.21 239.136 12.155 239.106 12.045C239.076 11.925 239.006 11.795 238.896 11.655C238.796 11.505 238.641 11.375 238.431 11.265C238.221 11.145 237.941 11.085 237.591 11.085C237.111 11.085 236.761 11.195 236.541 11.415C236.321 11.635 236.211 11.875 236.211 12.135C236.211 12.385 236.311 12.59 236.511 12.75C236.721 12.9 236.991 13.015 237.321 13.095L238.416 13.35C239.096 13.51 239.656 13.775 240.096 14.145C240.546 14.505 240.771 15.025 240.771 15.705C240.771 16.145 240.656 16.555 240.426 16.935C240.196 17.305 239.866 17.6 239.436 17.82C239.006 18.04 238.481 18.15 237.861 18.15ZM243.499 18V11.22H242.194V10.05H243.499V9.075C243.499 8.655 243.574 8.245 243.724 7.845C243.874 7.435 244.124 7.1 244.474 6.84C244.824 6.58 245.299 6.45 245.899 6.45C246.189 6.45 246.419 6.475 246.589 6.525C246.769 6.565 246.859 6.585 246.859 6.585V7.71C246.859 7.71 246.779 7.695 246.619 7.665C246.469 7.625 246.294 7.605 246.094 7.605C245.634 7.605 245.324 7.745 245.164 8.025C245.004 8.305 244.924 8.655 244.924 9.075V10.05H246.769V11.22H244.924V18H243.499ZM250.95 18.15C250.16 18.15 249.53 17.905 249.06 17.415C248.59 16.925 248.355 16.245 248.355 15.375V10.05H249.78V15.3C249.78 15.82 249.92 16.22 250.2 16.5C250.49 16.78 250.87 16.92 251.34 16.92C251.82 16.92 252.205 16.795 252.495 16.545C252.785 16.295 252.995 15.975 253.125 15.585C253.255 15.195 253.32 14.795 253.32 14.385V10.05H254.745V18H253.32V16.86H253.23C253.17 16.98 253.055 17.145 252.885 17.355C252.715 17.555 252.475 17.74 252.165 17.91C251.855 18.07 251.45 18.15 250.95 18.15ZM257.001 18L257.016 6.6H258.426V18H257.001ZM149.815 43.15C149.165 43.15 148.595 43.035 148.105 42.805C147.615 42.565 147.205 42.25 146.875 41.86C146.555 41.46 146.31 41.015 146.14 40.525C145.98 40.035 145.9 39.535 145.9 39.025C145.9 38.515 145.98 38.02 146.14 37.54C146.3 37.05 146.54 36.605 146.86 36.205C147.19 35.805 147.6 35.49 148.09 35.26C148.58 35.02 149.155 34.9 149.815 34.9C150.455 34.9 150.985 34.995 151.405 35.185C151.825 35.375 152.16 35.615 152.41 35.905C152.67 36.185 152.86 36.47 152.98 36.76C153.11 37.04 153.195 37.275 153.235 37.465C153.275 37.655 153.295 37.75 153.295 37.75H151.915C151.915 37.75 151.89 37.67 151.84 37.51C151.79 37.34 151.695 37.15 151.555 36.94C151.415 36.73 151.205 36.545 150.925 36.385C150.645 36.215 150.275 36.13 149.815 36.13C149.265 36.13 148.8 36.27 148.42 36.55C148.05 36.82 147.77 37.175 147.58 37.615C147.4 38.055 147.31 38.525 147.31 39.025C147.31 39.525 147.4 39.995 147.58 40.435C147.77 40.875 148.05 41.235 148.42 41.515C148.8 41.785 149.265 41.92 149.815 41.92C150.275 41.92 150.645 41.84 150.925 41.68C151.205 41.51 151.415 41.32 151.555 41.11C151.695 40.9 151.79 40.715 151.84 40.555C151.89 40.385 151.915 40.3 151.915 40.3H153.295C153.295 40.3 153.275 40.395 153.235 40.585C153.195 40.775 153.11 41.015 152.98 41.305C152.86 41.585 152.67 41.87 152.41 42.16C152.16 42.44 151.825 42.675 151.405 42.865C150.985 43.055 150.455 43.15 149.815 43.15ZM158.699 34.9C159.199 34.9 159.619 34.98 159.959 35.14C160.299 35.3 160.574 35.49 160.784 35.71C160.994 35.92 161.154 36.12 161.264 36.31H161.354V35.05H162.779V43H161.354V41.74H161.264C161.154 41.93 160.994 42.135 160.784 42.355C160.574 42.575 160.299 42.765 159.959 42.925C159.619 43.075 159.199 43.15 158.699 43.15C158.099 43.15 157.574 43.035 157.124 42.805C156.674 42.565 156.299 42.25 155.999 41.86C155.699 41.46 155.474 41.015 155.324 40.525C155.174 40.035 155.099 39.535 155.099 39.025C155.099 38.515 155.174 38.015 155.324 37.525C155.474 37.035 155.699 36.595 155.999 36.205C156.299 35.805 156.674 35.49 157.124 35.26C157.574 35.02 158.099 34.9 158.699 34.9ZM158.939 36.115C158.409 36.115 157.964 36.26 157.604 36.55C157.244 36.83 156.974 37.19 156.794 37.63C156.624 38.07 156.539 38.535 156.539 39.025C156.539 39.505 156.624 39.97 156.794 40.42C156.974 40.86 157.244 41.225 157.604 41.515C157.964 41.795 158.409 41.935 158.939 41.935C159.469 41.935 159.909 41.795 160.259 41.515C160.619 41.225 160.884 40.86 161.054 40.42C161.234 39.97 161.324 39.505 161.324 39.025C161.324 38.535 161.234 38.07 161.054 37.63C160.884 37.19 160.619 36.83 160.259 36.55C159.909 36.26 159.469 36.115 158.939 36.115ZM167.955 43.15C167.135 43.15 166.515 42.94 166.095 42.52C165.685 42.1 165.48 41.51 165.48 40.75V36.22H164.055V35.05H165.48V33.055H166.905V35.05H168.84V36.22H166.905V40.75C166.905 41.15 167.015 41.445 167.235 41.635C167.455 41.815 167.775 41.905 168.195 41.905C168.415 41.905 168.625 41.89 168.825 41.86C169.025 41.83 169.125 41.815 169.125 41.815V43.03C169.125 43.03 169.01 43.05 168.78 43.09C168.55 43.13 168.275 43.15 167.955 43.15ZM174.318 43.15C173.668 43.15 173.103 43.035 172.623 42.805C172.153 42.565 171.763 42.245 171.453 41.845C171.153 41.445 170.928 41.005 170.778 40.525C170.628 40.035 170.553 39.535 170.553 39.025C170.553 38.525 170.623 38.03 170.763 37.54C170.913 37.05 171.138 36.605 171.438 36.205C171.748 35.805 172.133 35.49 172.593 35.26C173.063 35.02 173.618 34.9 174.258 34.9C174.938 34.9 175.538 35.055 176.058 35.365C176.578 35.675 176.988 36.135 177.288 36.745C177.588 37.355 177.738 38.12 177.738 39.04V39.46H171.993C172.023 39.91 172.128 40.325 172.308 40.705C172.498 41.075 172.763 41.375 173.103 41.605C173.443 41.825 173.848 41.935 174.318 41.935C174.728 41.935 175.058 41.87 175.308 41.74C175.568 41.6 175.773 41.44 175.923 41.26C176.073 41.08 176.173 40.925 176.223 40.795C176.283 40.655 176.313 40.585 176.313 40.585H177.648C177.648 40.585 177.623 40.675 177.573 40.855C177.523 41.025 177.433 41.235 177.303 41.485C177.173 41.735 176.983 41.99 176.733 42.25C176.483 42.5 176.163 42.715 175.773 42.895C175.383 43.065 174.898 43.15 174.318 43.15ZM172.008 38.35H176.343C176.323 37.83 176.213 37.41 176.013 37.09C175.813 36.76 175.558 36.515 175.248 36.355C174.938 36.195 174.608 36.115 174.258 36.115C173.628 36.115 173.113 36.32 172.713 36.73C172.313 37.13 172.078 37.67 172.008 38.35ZM183.435 46.15C182.775 46.15 182.225 46.06 181.785 45.88C181.345 45.71 180.99 45.49 180.72 45.22C180.46 44.96 180.265 44.7 180.135 44.44C180.005 44.18 179.92 43.96 179.88 43.78C179.84 43.61 179.82 43.525 179.82 43.525H181.245C181.245 43.525 181.27 43.595 181.32 43.735C181.37 43.875 181.465 44.035 181.605 44.215C181.755 44.395 181.975 44.555 182.265 44.695C182.555 44.835 182.945 44.905 183.435 44.905C184.015 44.905 184.47 44.79 184.8 44.56C185.13 44.34 185.365 44.05 185.505 43.69C185.655 43.33 185.73 42.95 185.73 42.55V41.635H185.655C185.555 41.805 185.395 42 185.175 42.22C184.965 42.43 184.685 42.615 184.335 42.775C183.985 42.925 183.555 43 183.045 43C182.445 43 181.92 42.885 181.47 42.655C181.02 42.425 180.645 42.115 180.345 41.725C180.055 41.335 179.835 40.9 179.685 40.42C179.535 39.94 179.46 39.45 179.46 38.95C179.46 38.45 179.535 37.96 179.685 37.48C179.835 37 180.055 36.565 180.345 36.175C180.645 35.785 181.02 35.475 181.47 35.245C181.92 35.015 182.445 34.9 183.045 34.9C183.555 34.9 183.985 34.98 184.335 35.14C184.685 35.29 184.965 35.47 185.175 35.68C185.395 35.89 185.555 36.085 185.655 36.265H185.73V35.05H187.155V42.535C187.155 43.645 186.83 44.525 186.18 45.175C185.54 45.825 184.625 46.15 183.435 46.15ZM183.315 41.785C183.845 41.785 184.285 41.65 184.635 41.38C184.995 41.1 185.26 40.745 185.43 40.315C185.61 39.885 185.7 39.43 185.7 38.95C185.7 38.47 185.61 38.015 185.43 37.585C185.26 37.145 184.995 36.79 184.635 36.52C184.285 36.25 183.845 36.115 183.315 36.115C182.785 36.115 182.34 36.25 181.98 36.52C181.62 36.79 181.35 37.145 181.17 37.585C181 38.015 180.915 38.47 180.915 38.95C180.915 39.43 181 39.885 181.17 40.315C181.35 40.745 181.62 41.1 181.98 41.38C182.34 41.65 182.785 41.785 183.315 41.785ZM192.72 43.15C191.87 43.15 191.155 42.955 190.575 42.565C189.995 42.165 189.555 41.65 189.255 41.02C188.955 40.39 188.805 39.725 188.805 39.025C188.805 38.315 188.955 37.65 189.255 37.03C189.555 36.4 189.995 35.89 190.575 35.5C191.155 35.1 191.87 34.9 192.72 34.9C193.57 34.9 194.285 35.1 194.865 35.5C195.445 35.89 195.885 36.4 196.185 37.03C196.485 37.65 196.635 38.315 196.635 39.025C196.635 39.725 196.485 40.39 196.185 41.02C195.885 41.65 195.445 42.165 194.865 42.565C194.285 42.955 193.57 43.15 192.72 43.15ZM192.72 41.905C193.26 41.905 193.71 41.77 194.07 41.5C194.44 41.22 194.715 40.86 194.895 40.42C195.085 39.98 195.18 39.515 195.18 39.025C195.18 38.525 195.085 38.06 194.895 37.63C194.715 37.19 194.44 36.835 194.07 36.565C193.71 36.285 193.26 36.145 192.72 36.145C192.19 36.145 191.74 36.285 191.37 36.565C191 36.835 190.72 37.19 190.53 37.63C190.35 38.06 190.26 38.525 190.26 39.025C190.26 39.515 190.35 39.98 190.53 40.42C190.72 40.86 191 41.22 191.37 41.5C191.74 41.77 192.19 41.905 192.72 41.905ZM198.579 43V35.05H200.004V36.04H200.064C200.234 35.74 200.484 35.475 200.814 35.245C201.144 35.015 201.609 34.9 202.209 34.9C202.379 34.9 202.534 34.91 202.674 34.93C202.814 34.94 202.884 34.945 202.884 34.945V36.31C202.884 36.31 202.804 36.305 202.644 36.295C202.494 36.275 202.334 36.265 202.164 36.265C201.474 36.265 200.939 36.465 200.559 36.865C200.189 37.255 200.004 37.895 200.004 38.785V43H198.579ZM205.676 33.535C205.406 33.535 205.181 33.445 205.001 33.265C204.831 33.085 204.746 32.87 204.746 32.62C204.746 32.36 204.831 32.14 205.001 31.96C205.181 31.78 205.406 31.69 205.676 31.69C205.936 31.69 206.156 31.78 206.336 31.96C206.516 32.14 206.606 32.36 206.606 32.62C206.606 32.87 206.516 33.085 206.336 33.265C206.156 33.445 205.936 33.535 205.676 33.535ZM204.971 43V35.05H206.396V43H204.971ZM208.296 43V41.995L212.946 36.22H208.536V35.05H214.701V36.055L210.036 41.83H214.701V43H208.296ZM219.534 34.9C220.034 34.9 220.454 34.98 220.794 35.14C221.134 35.3 221.409 35.49 221.619 35.71C221.829 35.92 221.989 36.12 222.099 36.31H222.189V35.05H223.614V43H222.189V41.74H222.099C221.989 41.93 221.829 42.135 221.619 42.355C221.409 42.575 221.134 42.765 220.794 42.925C220.454 43.075 220.034 43.15 219.534 43.15C218.934 43.15 218.409 43.035 217.959 42.805C217.509 42.565 217.134 42.25 216.834 41.86C216.534 41.46 216.309 41.015 216.159 40.525C216.009 40.035 215.934 39.535 215.934 39.025C215.934 38.515 216.009 38.015 216.159 37.525C216.309 37.035 216.534 36.595 216.834 36.205C217.134 35.805 217.509 35.49 217.959 35.26C218.409 35.02 218.934 34.9 219.534 34.9ZM219.774 36.115C219.244 36.115 218.799 36.26 218.439 36.55C218.079 36.83 217.809 37.19 217.629 37.63C217.459 38.07 217.374 38.535 217.374 39.025C217.374 39.505 217.459 39.97 217.629 40.42C217.809 40.86 218.079 41.225 218.439 41.515C218.799 41.795 219.244 41.935 219.774 41.935C220.304 41.935 220.744 41.795 221.094 41.515C221.454 41.225 221.719 40.86 221.889 40.42C222.069 39.97 222.159 39.505 222.159 39.025C222.159 38.535 222.069 38.07 221.889 37.63C221.719 37.19 221.454 36.83 221.094 36.55C220.744 36.26 220.304 36.115 219.774 36.115ZM228.79 43.15C227.97 43.15 227.35 42.94 226.93 42.52C226.52 42.1 226.315 41.51 226.315 40.75V36.22H224.89V35.05H226.315V33.055H227.74V35.05H229.675V36.22H227.74V40.75C227.74 41.15 227.85 41.445 228.07 41.635C228.29 41.815 228.61 41.905 229.03 41.905C229.25 41.905 229.46 41.89 229.66 41.86C229.86 41.83 229.96 41.815 229.96 41.815V43.03C229.96 43.03 229.845 43.05 229.615 43.09C229.385 43.13 229.11 43.15 228.79 43.15ZM232.761 33.535C232.491 33.535 232.266 33.445 232.086 33.265C231.916 33.085 231.831 32.87 231.831 32.62C231.831 32.36 231.916 32.14 232.086 31.96C232.266 31.78 232.491 31.69 232.761 31.69C233.021 31.69 233.241 31.78 233.421 31.96C233.601 32.14 233.691 32.36 233.691 32.62C233.691 32.87 233.601 33.085 233.421 33.265C233.241 33.445 233.021 33.535 232.761 33.535ZM232.056 43V35.05H233.481V43H232.056ZM239.551 43.15C238.701 43.15 237.986 42.955 237.406 42.565C236.826 42.165 236.386 41.65 236.086 41.02C235.786 40.39 235.636 39.725 235.636 39.025C235.636 38.315 235.786 37.65 236.086 37.03C236.386 36.4 236.826 35.89 237.406 35.5C237.986 35.1 238.701 34.9 239.551 34.9C240.401 34.9 241.116 35.1 241.696 35.5C242.276 35.89 242.716 36.4 243.016 37.03C243.316 37.65 243.466 38.315 243.466 39.025C243.466 39.725 243.316 40.39 243.016 41.02C242.716 41.65 242.276 42.165 241.696 42.565C241.116 42.955 240.401 43.15 239.551 43.15ZM239.551 41.905C240.091 41.905 240.541 41.77 240.901 41.5C241.271 41.22 241.546 40.86 241.726 40.42C241.916 39.98 242.011 39.515 242.011 39.025C242.011 38.525 241.916 38.06 241.726 37.63C241.546 37.19 241.271 36.835 240.901 36.565C240.541 36.285 240.091 36.145 239.551 36.145C239.021 36.145 238.571 36.285 238.201 36.565C237.831 36.835 237.551 37.19 237.361 37.63C237.181 38.06 237.091 38.525 237.091 39.025C237.091 39.515 237.181 39.98 237.361 40.42C237.551 40.86 237.831 41.22 238.201 41.5C238.571 41.77 239.021 41.905 239.551 41.905ZM245.41 43V35.05H246.835V36.205H246.925C246.995 36.085 247.11 35.92 247.27 35.71C247.44 35.5 247.68 35.315 247.99 35.155C248.3 34.985 248.69 34.9 249.16 34.9C249.74 34.9 250.235 35.035 250.645 35.305C251.055 35.565 251.365 35.92 251.575 36.37C251.795 36.82 251.905 37.325 251.905 37.885V43H250.48V37.975C250.48 37.445 250.33 37.005 250.03 36.655C249.74 36.305 249.315 36.13 248.755 36.13C248.305 36.13 247.94 36.245 247.66 36.475C247.38 36.695 247.17 36.99 247.03 37.36C246.9 37.72 246.835 38.105 246.835 38.515V43H245.41ZM255.104 36.85C254.824 36.85 254.589 36.755 254.399 36.565C254.219 36.365 254.129 36.135 254.129 35.875C254.129 35.605 254.219 35.375 254.399 35.185C254.589 34.995 254.824 34.9 255.104 34.9C255.384 34.9 255.614 34.995 255.794 35.185C255.984 35.375 256.079 35.605 256.079 35.875C256.079 36.145 255.984 36.375 255.794 36.565C255.614 36.755 255.384 36.85 255.104 36.85ZM255.104 43.15C254.824 43.15 254.589 43.055 254.399 42.865C254.219 42.665 254.129 42.435 254.129 42.175C254.129 41.905 254.219 41.675 254.399 41.485C254.589 41.295 254.824 41.2 255.104 41.2C255.384 41.2 255.614 41.295 255.794 41.485C255.984 41.675 256.079 41.905 256.079 42.175C256.079 42.445 255.984 42.675 255.794 42.865C255.614 43.055 255.384 43.15 255.104 43.15ZM261.923 43V41.965L264.353 39.715C265.033 39.085 265.628 38.535 266.138 38.065C266.658 37.585 267.063 37.12 267.353 36.67C267.643 36.22 267.788 35.725 267.788 35.185C267.788 34.735 267.678 34.355 267.458 34.045C267.248 33.735 266.973 33.5 266.633 33.34C266.303 33.17 265.958 33.085 265.598 33.085C265.128 33.085 264.743 33.165 264.443 33.325C264.143 33.485 263.913 33.685 263.753 33.925C263.593 34.155 263.478 34.39 263.408 34.63C263.338 34.86 263.298 35.055 263.288 35.215C263.278 35.375 263.273 35.455 263.273 35.455H261.863C261.863 35.455 261.868 35.365 261.878 35.185C261.888 35.005 261.923 34.775 261.983 34.495C262.053 34.215 262.163 33.92 262.313 33.61C262.463 33.29 262.673 32.99 262.943 32.71C263.223 32.43 263.578 32.2 264.008 32.02C264.448 31.84 264.983 31.75 265.613 31.75C266.253 31.75 266.848 31.885 267.398 32.155C267.958 32.415 268.408 32.8 268.748 33.31C269.088 33.81 269.258 34.425 269.258 35.155C269.258 35.825 269.088 36.435 268.748 36.985C268.418 37.525 267.978 38.055 267.428 38.575C266.878 39.095 266.278 39.655 265.628 40.255L264.098 41.665H269.498V43H261.923ZM275.354 43.15C274.724 43.15 274.184 43.07 273.734 42.91C273.294 42.74 272.929 42.525 272.639 42.265C272.359 42.005 272.134 41.73 271.964 41.44C271.804 41.15 271.684 40.875 271.604 40.615C271.534 40.355 271.489 40.145 271.469 39.985C271.449 39.815 271.439 39.73 271.439 39.73H272.819C272.819 39.73 272.829 39.805 272.849 39.955C272.869 40.095 272.919 40.275 272.999 40.495C273.089 40.705 273.224 40.92 273.404 41.14C273.584 41.35 273.829 41.53 274.139 41.68C274.459 41.82 274.864 41.89 275.354 41.89C275.934 41.89 276.414 41.765 276.794 41.515C277.174 41.265 277.459 40.945 277.649 40.555C277.839 40.165 277.934 39.755 277.934 39.325C277.934 38.885 277.839 38.465 277.649 38.065C277.459 37.655 277.174 37.325 276.794 37.075C276.424 36.815 275.964 36.685 275.414 36.685C274.984 36.685 274.624 36.755 274.334 36.895C274.044 37.035 273.814 37.195 273.644 37.375C273.484 37.555 273.369 37.715 273.299 37.855C273.229 37.995 273.194 38.065 273.194 38.065H271.754L272.624 31.9H278.594V33.205H273.719L273.269 36.385H273.314C273.434 36.255 273.584 36.12 273.764 35.98C273.954 35.83 274.199 35.705 274.499 35.605C274.799 35.495 275.174 35.44 275.624 35.44C276.444 35.44 277.129 35.63 277.679 36.01C278.229 36.38 278.644 36.86 278.924 37.45C279.214 38.03 279.359 38.645 279.359 39.295C279.359 39.775 279.274 40.245 279.104 40.705C278.944 41.165 278.699 41.58 278.369 41.95C278.039 42.31 277.624 42.6 277.124 42.82C276.624 43.04 276.034 43.15 275.354 43.15ZM283.606 36.34C283.186 36.34 282.801 36.25 282.451 36.07C282.101 35.88 281.816 35.61 281.596 35.26C281.386 34.91 281.281 34.5 281.281 34.03C281.281 33.56 281.386 33.155 281.596 32.815C281.806 32.475 282.086 32.215 282.436 32.035C282.796 31.845 283.186 31.75 283.606 31.75C284.036 31.75 284.426 31.845 284.776 32.035C285.126 32.215 285.406 32.475 285.616 32.815C285.826 33.155 285.931 33.56 285.931 34.03C285.931 34.5 285.826 34.91 285.616 35.26C285.406 35.61 285.121 35.88 284.761 36.07C284.411 36.25 284.026 36.34 283.606 36.34ZM283.141 43L288.976 31.9H290.356L284.521 43H283.141ZM283.606 35.275C283.926 35.275 284.201 35.165 284.431 34.945C284.671 34.725 284.791 34.425 284.791 34.045C284.791 33.655 284.671 33.355 284.431 33.145C284.201 32.925 283.926 32.815 283.606 32.815C283.296 32.815 283.021 32.925 282.781 33.145C282.541 33.355 282.421 33.655 282.421 34.045C282.421 34.425 282.541 34.725 282.781 34.945C283.021 35.165 283.296 35.275 283.606 35.275ZM289.891 43.15C289.471 43.15 289.086 43.06 288.736 42.88C288.386 42.69 288.101 42.425 287.881 42.085C287.671 41.735 287.566 41.325 287.566 40.855C287.566 40.375 287.671 39.965 287.881 39.625C288.101 39.285 288.386 39.025 288.736 38.845C289.086 38.655 289.471 38.56 289.891 38.56C290.311 38.56 290.696 38.655 291.046 38.845C291.396 39.025 291.676 39.285 291.886 39.625C292.106 39.965 292.216 40.375 292.216 40.855C292.216 41.325 292.111 41.735 291.901 42.085C291.691 42.425 291.411 42.69 291.061 42.88C290.711 43.06 290.321 43.15 289.891 43.15ZM289.891 42.1C290.211 42.1 290.486 41.99 290.716 41.77C290.956 41.55 291.076 41.245 291.076 40.855C291.076 40.465 290.956 40.165 290.716 39.955C290.486 39.735 290.211 39.625 289.891 39.625C289.581 39.625 289.306 39.735 289.066 39.955C288.826 40.165 288.706 40.465 288.706 40.855C288.706 41.245 288.826 41.55 289.066 41.77C289.306 41.99 289.581 42.1 289.891 42.1Z" fill="#303030"/>
<path d="M110 39H130.243" stroke="#77D6B0" stroke-width="3" stroke-linecap="round"/>
<path d="M42.2889 115V103.9H44.2239L47.4939 110.5L50.7489 103.9H52.6839V115H51.2439V106.06L48.1839 112.15H46.7889L43.7289 106.03V115H42.2889ZM58.542 115.15C57.892 115.15 57.327 115.035 56.847 114.805C56.377 114.565 55.987 114.245 55.677 113.845C55.377 113.445 55.152 113.005 55.002 112.525C54.852 112.035 54.777 111.535 54.777 111.025C54.777 110.525 54.847 110.03 54.987 109.54C55.137 109.05 55.362 108.605 55.662 108.205C55.972 107.805 56.357 107.49 56.817 107.26C57.287 107.02 57.842 106.9 58.482 106.9C59.162 106.9 59.762 107.055 60.282 107.365C60.802 107.675 61.212 108.135 61.512 108.745C61.812 109.355 61.962 110.12 61.962 111.04V111.46H56.217C56.247 111.91 56.352 112.325 56.532 112.705C56.722 113.075 56.987 113.375 57.327 113.605C57.667 113.825 58.072 113.935 58.542 113.935C58.952 113.935 59.282 113.87 59.532 113.74C59.792 113.6 59.997 113.44 60.147 113.26C60.297 113.08 60.397 112.925 60.447 112.795C60.507 112.655 60.537 112.585 60.537 112.585H61.872C61.872 112.585 61.847 112.675 61.797 112.855C61.747 113.025 61.657 113.235 61.527 113.485C61.397 113.735 61.207 113.99 60.957 114.25C60.707 114.5 60.387 114.715 59.997 114.895C59.607 115.065 59.122 115.15 58.542 115.15ZM56.232 110.35H60.567C60.547 109.83 60.437 109.41 60.237 109.09C60.037 108.76 59.782 108.515 59.472 108.355C59.162 108.195 58.832 108.115 58.482 108.115C57.852 108.115 57.337 108.32 56.937 108.73C56.537 109.13 56.302 109.67 56.232 110.35ZM67.5982 115.15C66.9482 115.15 66.3782 115.035 65.8882 114.805C65.3982 114.565 64.9882 114.25 64.6582 113.86C64.3382 113.46 64.0932 113.015 63.9232 112.525C63.7632 112.035 63.6832 111.535 63.6832 111.025C63.6832 110.515 63.7632 110.02 63.9232 109.54C64.0832 109.05 64.3232 108.605 64.6432 108.205C64.9732 107.805 65.3832 107.49 65.8732 107.26C66.3632 107.02 66.9382 106.9 67.5982 106.9C68.2382 106.9 68.7682 106.995 69.1882 107.185C69.6082 107.375 69.9432 107.615 70.1932 107.905C70.4532 108.185 70.6432 108.47 70.7632 108.76C70.8932 109.04 70.9782 109.275 71.0182 109.465C71.0582 109.655 71.0782 109.75 71.0782 109.75H69.6982C69.6982 109.75 69.6732 109.67 69.6232 109.51C69.5732 109.34 69.4782 109.15 69.3382 108.94C69.1982 108.73 68.9882 108.545 68.7082 108.385C68.4282 108.215 68.0582 108.13 67.5982 108.13C67.0482 108.13 66.5832 108.27 66.2032 108.55C65.8332 108.82 65.5532 109.175 65.3632 109.615C65.1832 110.055 65.0932 110.525 65.0932 111.025C65.0932 111.525 65.1832 111.995 65.3632 112.435C65.5532 112.875 65.8332 113.235 66.2032 113.515C66.5832 113.785 67.0482 113.92 67.5982 113.92C68.0582 113.92 68.4282 113.84 68.7082 113.68C68.9882 113.51 69.1982 113.32 69.3382 113.11C69.4782 112.9 69.5732 112.715 69.6232 112.555C69.6732 112.385 69.6982 112.3 69.6982 112.3H71.0782C71.0782 112.3 71.0582 112.395 71.0182 112.585C70.9782 112.775 70.8932 113.015 70.7632 113.305C70.6432 113.585 70.4532 113.87 70.1932 114.16C69.9432 114.44 69.6082 114.675 69.1882 114.865C68.7682 115.055 68.2382 115.15 67.5982 115.15ZM73.1824 115V103.6H74.6074V108.205H74.6974C74.7674 108.085 74.8824 107.92 75.0424 107.71C75.2124 107.5 75.4524 107.315 75.7624 107.155C76.0724 106.985 76.4624 106.9 76.9324 106.9C77.5124 106.9 78.0074 107.035 78.4174 107.305C78.8274 107.565 79.1374 107.92 79.3474 108.37C79.5674 108.82 79.6774 109.325 79.6774 109.885V115H78.2524V109.975C78.2524 109.445 78.1024 109.005 77.8024 108.655C77.5124 108.305 77.0874 108.13 76.5274 108.13C76.0774 108.13 75.7124 108.245 75.4324 108.475C75.1524 108.695 74.9424 108.99 74.8024 109.36C74.6724 109.72 74.6074 110.105 74.6074 110.515V115H73.1824ZM85.2275 106.9C85.7275 106.9 86.1475 106.98 86.4875 107.14C86.8275 107.3 87.1025 107.49 87.3125 107.71C87.5225 107.92 87.6825 108.12 87.7925 108.31H87.8825V107.05H89.3075V115H87.8825V113.74H87.7925C87.6825 113.93 87.5225 114.135 87.3125 114.355C87.1025 114.575 86.8275 114.765 86.4875 114.925C86.1475 115.075 85.7275 115.15 85.2275 115.15C84.6275 115.15 84.1025 115.035 83.6525 114.805C83.2025 114.565 82.8275 114.25 82.5275 113.86C82.2275 113.46 82.0025 113.015 81.8525 112.525C81.7025 112.035 81.6275 111.535 81.6275 111.025C81.6275 110.515 81.7025 110.015 81.8525 109.525C82.0025 109.035 82.2275 108.595 82.5275 108.205C82.8275 107.805 83.2025 107.49 83.6525 107.26C84.1025 107.02 84.6275 106.9 85.2275 106.9ZM85.4675 108.115C84.9375 108.115 84.4925 108.26 84.1325 108.55C83.7725 108.83 83.5025 109.19 83.3225 109.63C83.1525 110.07 83.0675 110.535 83.0675 111.025C83.0675 111.505 83.1525 111.97 83.3225 112.42C83.5025 112.86 83.7725 113.225 84.1325 113.515C84.4925 113.795 84.9375 113.935 85.4675 113.935C85.9975 113.935 86.4375 113.795 86.7875 113.515C87.1475 113.225 87.4125 112.86 87.5825 112.42C87.7625 111.97 87.8525 111.505 87.8525 111.025C87.8525 110.535 87.7625 110.07 87.5825 109.63C87.4125 109.19 87.1475 108.83 86.7875 108.55C86.4375 108.26 85.9975 108.115 85.4675 108.115ZM91.4016 115V107.05H92.8266V108.205H92.9166C92.9866 108.085 93.1016 107.92 93.2616 107.71C93.4316 107.5 93.6716 107.315 93.9816 107.155C94.2916 106.985 94.6816 106.9 95.1516 106.9C95.7316 106.9 96.2266 107.035 96.6366 107.305C97.0466 107.565 97.3566 107.92 97.5666 108.37C97.7866 108.82 97.8966 109.325 97.8966 109.885V115H96.4716V109.975C96.4716 109.445 96.3216 109.005 96.0216 108.655C95.7316 108.305 95.3066 108.13 94.7466 108.13C94.2966 108.13 93.9316 108.245 93.6516 108.475C93.3716 108.695 93.1616 108.99 93.0216 109.36C92.8916 109.72 92.8266 110.105 92.8266 110.515V115H91.4016ZM100.93 105.535C100.66 105.535 100.435 105.445 100.255 105.265C100.085 105.085 100 104.87 100 104.62C100 104.36 100.085 104.14 100.255 103.96C100.435 103.78 100.66 103.69 100.93 103.69C101.19 103.69 101.41 103.78 101.59 103.96C101.77 104.14 101.86 104.36 101.86 104.62C101.86 104.87 101.77 105.085 101.59 105.265C101.41 105.445 101.19 105.535 100.93 105.535ZM100.225 115V107.05H101.65V115H100.225ZM106.865 115.15C106.255 115.15 105.75 115.065 105.35 114.895C104.96 114.725 104.65 114.515 104.42 114.265C104.19 114.005 104.02 113.75 103.91 113.5C103.8 113.24 103.73 113.025 103.7 112.855C103.67 112.685 103.655 112.6 103.655 112.6H105.095C105.095 112.6 105.11 112.67 105.14 112.81C105.18 112.94 105.255 113.095 105.365 113.275C105.485 113.445 105.665 113.6 105.905 113.74C106.155 113.87 106.485 113.935 106.895 113.935C107.365 113.935 107.73 113.825 107.99 113.605C108.25 113.375 108.38 113.095 108.38 112.765C108.38 112.475 108.275 112.245 108.065 112.075C107.865 111.905 107.575 111.775 107.195 111.685L106.115 111.43C105.715 111.33 105.34 111.195 104.99 111.025C104.64 110.855 104.355 110.625 104.135 110.335C103.925 110.035 103.82 109.665 103.82 109.225C103.82 108.545 104.075 107.99 104.585 107.56C105.095 107.12 105.76 106.9 106.58 106.9C107.13 106.9 107.585 106.98 107.945 107.14C108.305 107.29 108.59 107.48 108.8 107.71C109.02 107.94 109.18 108.17 109.28 108.4C109.39 108.63 109.46 108.825 109.49 108.985C109.52 109.135 109.535 109.21 109.535 109.21H108.155C108.155 109.21 108.14 109.155 108.11 109.045C108.08 108.925 108.01 108.795 107.9 108.655C107.8 108.505 107.645 108.375 107.435 108.265C107.225 108.145 106.945 108.085 106.595 108.085C106.115 108.085 105.765 108.195 105.545 108.415C105.325 108.635 105.215 108.875 105.215 109.135C105.215 109.385 105.315 109.59 105.515 109.75C105.725 109.9 105.995 110.015 106.325 110.095L107.42 110.35C108.1 110.51 108.66 110.775 109.1 111.145C109.55 111.505 109.775 112.025 109.775 112.705C109.775 113.145 109.66 113.555 109.43 113.935C109.2 114.305 108.87 114.6 108.44 114.82C108.01 115.04 107.485 115.15 106.865 115.15ZM111.572 115V107.05H112.997V108.205H113.057C113.137 108.055 113.262 107.88 113.432 107.68C113.602 107.47 113.832 107.29 114.122 107.14C114.422 106.98 114.797 106.9 115.247 106.9C115.837 106.9 116.332 107.045 116.732 107.335C117.142 107.615 117.447 107.995 117.647 108.475H117.662C117.882 108.035 118.192 107.665 118.592 107.365C119.002 107.055 119.532 106.9 120.182 106.9C121.042 106.9 121.702 107.195 122.162 107.785C122.632 108.365 122.867 109.115 122.867 110.035V115H121.442V110.11C121.442 109.52 121.302 109.045 121.022 108.685C120.742 108.315 120.337 108.13 119.807 108.13C119.347 108.13 118.977 108.255 118.697 108.505C118.427 108.755 118.232 109.065 118.112 109.435C117.992 109.805 117.932 110.175 117.932 110.545V115H116.507V110.11C116.507 109.52 116.367 109.045 116.087 108.685C115.817 108.315 115.412 108.13 114.872 108.13C114.412 108.13 114.042 108.255 113.762 108.505C113.492 108.755 113.297 109.07 113.177 109.45C113.057 109.82 112.997 110.185 112.997 110.545V115H111.572ZM63.0347 130.535C62.7647 130.535 62.5397 130.445 62.3597 130.265C62.1897 130.085 62.1047 129.87 62.1047 129.62C62.1047 129.36 62.1897 129.14 62.3597 128.96C62.5397 128.78 62.7647 128.69 63.0347 128.69C63.2947 128.69 63.5147 128.78 63.6947 128.96C63.8747 129.14 63.9647 129.36 63.9647 129.62C63.9647 129.87 63.8747 130.085 63.6947 130.265C63.5147 130.445 63.2947 130.535 63.0347 130.535ZM62.3297 140V132.05H63.7547V140H62.3297ZM66.0598 140V132.05H67.4848V133.205H67.5748C67.6448 133.085 67.7598 132.92 67.9198 132.71C68.0898 132.5 68.3298 132.315 68.6398 132.155C68.9498 131.985 69.3398 131.9 69.8098 131.9C70.3898 131.9 70.8848 132.035 71.2948 132.305C71.7048 132.565 72.0148 132.92 72.2248 133.37C72.4448 133.82 72.5548 134.325 72.5548 134.885V140H71.1298V134.975C71.1298 134.445 70.9798 134.005 70.6798 133.655C70.3898 133.305 69.9648 133.13 69.4048 133.13C68.9548 133.13 68.5898 133.245 68.3098 133.475C68.0298 133.695 67.8198 133.99 67.6798 134.36C67.5498 134.72 67.4848 135.105 67.4848 135.515V140H66.0598ZM77.5684 140.15C76.9584 140.15 76.4534 140.065 76.0534 139.895C75.6634 139.725 75.3534 139.515 75.1234 139.265C74.8934 139.005 74.7234 138.75 74.6134 138.5C74.5034 138.24 74.4334 138.025 74.4034 137.855C74.3734 137.685 74.3584 137.6 74.3584 137.6H75.7984C75.7984 137.6 75.8134 137.67 75.8434 137.81C75.8834 137.94 75.9584 138.095 76.0684 138.275C76.1884 138.445 76.3684 138.6 76.6084 138.74C76.8584 138.87 77.1884 138.935 77.5984 138.935C78.0684 138.935 78.4334 138.825 78.6934 138.605C78.9534 138.375 79.0834 138.095 79.0834 137.765C79.0834 137.475 78.9784 137.245 78.7684 137.075C78.5684 136.905 78.2784 136.775 77.8984 136.685L76.8184 136.43C76.4184 136.33 76.0434 136.195 75.6934 136.025C75.3434 135.855 75.0584 135.625 74.8384 135.335C74.6284 135.035 74.5234 134.665 74.5234 134.225C74.5234 133.545 74.7784 132.99 75.2884 132.56C75.7984 132.12 76.4634 131.9 77.2834 131.9C77.8334 131.9 78.2884 131.98 78.6484 132.14C79.0084 132.29 79.2934 132.48 79.5034 132.71C79.7234 132.94 79.8834 133.17 79.9834 133.4C80.0934 133.63 80.1634 133.825 80.1934 133.985C80.2234 134.135 80.2384 134.21 80.2384 134.21H78.8584C78.8584 134.21 78.8434 134.155 78.8134 134.045C78.7834 133.925 78.7134 133.795 78.6034 133.655C78.5034 133.505 78.3484 133.375 78.1384 133.265C77.9284 133.145 77.6484 133.085 77.2984 133.085C76.8184 133.085 76.4684 133.195 76.2484 133.415C76.0284 133.635 75.9184 133.875 75.9184 134.135C75.9184 134.385 76.0184 134.59 76.2184 134.75C76.4284 134.9 76.6984 135.015 77.0284 135.095L78.1234 135.35C78.8034 135.51 79.3634 135.775 79.8034 136.145C80.2534 136.505 80.4784 137.025 80.4784 137.705C80.4784 138.145 80.3634 138.555 80.1334 138.935C79.9034 139.305 79.5734 139.6 79.1434 139.82C78.7134 140.04 78.1884 140.15 77.5684 140.15ZM83.2056 130.535C82.9356 130.535 82.7106 130.445 82.5306 130.265C82.3606 130.085 82.2756 129.87 82.2756 129.62C82.2756 129.36 82.3606 129.14 82.5306 128.96C82.7106 128.78 82.9356 128.69 83.2056 128.69C83.4656 128.69 83.6856 128.78 83.8656 128.96C84.0456 129.14 84.1356 129.36 84.1356 129.62C84.1356 129.87 84.0456 130.085 83.8656 130.265C83.6856 130.445 83.4656 130.535 83.2056 130.535ZM82.5006 140V132.05H83.9256V140H82.5006ZM89.6807 140.15C89.0807 140.15 88.5557 140.035 88.1057 139.805C87.6557 139.565 87.2807 139.25 86.9807 138.86C86.6807 138.46 86.4557 138.015 86.3057 137.525C86.1557 137.035 86.0807 136.535 86.0807 136.025C86.0807 135.515 86.1557 135.015 86.3057 134.525C86.4557 134.035 86.6807 133.595 86.9807 133.205C87.2807 132.805 87.6557 132.49 88.1057 132.26C88.5557 132.02 89.0807 131.9 89.6807 131.9C90.1807 131.9 90.6007 131.98 90.9407 132.14C91.2807 132.3 91.5557 132.49 91.7657 132.71C91.9757 132.92 92.1357 133.12 92.2457 133.31H92.3357V128.6H93.7607V140H92.3357V138.74H92.2457C92.1357 138.93 91.9757 139.135 91.7657 139.355C91.5557 139.575 91.2807 139.765 90.9407 139.925C90.6007 140.075 90.1807 140.15 89.6807 140.15ZM89.9207 138.935C90.4507 138.935 90.8907 138.795 91.2407 138.515C91.6007 138.225 91.8657 137.86 92.0357 137.42C92.2157 136.97 92.3057 136.505 92.3057 136.025C92.3057 135.535 92.2157 135.07 92.0357 134.63C91.8657 134.19 91.6007 133.83 91.2407 133.55C90.8907 133.26 90.4507 133.115 89.9207 133.115C89.3907 133.115 88.9457 133.26 88.5857 133.55C88.2257 133.83 87.9557 134.19 87.7757 134.63C87.6057 135.07 87.5207 135.535 87.5207 136.025C87.5207 136.505 87.6057 136.97 87.7757 137.42C87.9557 137.86 88.2257 138.225 88.5857 138.515C88.9457 138.795 89.3907 138.935 89.9207 138.935ZM99.6308 140.15C98.9808 140.15 98.4158 140.035 97.9358 139.805C97.4658 139.565 97.0758 139.245 96.7658 138.845C96.4658 138.445 96.2408 138.005 96.0908 137.525C95.9408 137.035 95.8658 136.535 95.8658 136.025C95.8658 135.525 95.9358 135.03 96.0758 134.54C96.2258 134.05 96.4508 133.605 96.7508 133.205C97.0608 132.805 97.4458 132.49 97.9058 132.26C98.3758 132.02 98.9308 131.9 99.5708 131.9C100.251 131.9 100.851 132.055 101.371 132.365C101.891 132.675 102.301 133.135 102.601 133.745C102.901 134.355 103.051 135.12 103.051 136.04V136.46H97.3058C97.3358 136.91 97.4408 137.325 97.6208 137.705C97.8108 138.075 98.0758 138.375 98.4158 138.605C98.7558 138.825 99.1608 138.935 99.6308 138.935C100.041 138.935 100.371 138.87 100.621 138.74C100.881 138.6 101.086 138.44 101.236 138.26C101.386 138.08 101.486 137.925 101.536 137.795C101.596 137.655 101.626 137.585 101.626 137.585H102.961C102.961 137.585 102.936 137.675 102.886 137.855C102.836 138.025 102.746 138.235 102.616 138.485C102.486 138.735 102.296 138.99 102.046 139.25C101.796 139.5 101.476 139.715 101.086 139.895C100.696 140.065 100.211 140.15 99.6308 140.15ZM97.3208 135.35H101.656C101.636 134.83 101.526 134.41 101.326 134.09C101.126 133.76 100.871 133.515 100.561 133.355C100.251 133.195 99.9208 133.115 99.5708 133.115C98.9408 133.115 98.4258 133.32 98.0258 133.73C97.6258 134.13 97.3908 134.67 97.3208 135.35Z" fill="black"/>
<path fill-rule="evenodd" clip-rule="evenodd" d="M137.295 122.01C134.207 149.812 110.631 171.433 82.0055 171.433C51.2809 171.433 26.3737 146.526 26.3737 115.801C26.3737 85.6736 50.3218 61.1397 80.2202 60.1971V33C35.718 34.1648 0 70.6056 0 115.389C0 160.907 36.8996 197.806 82.4176 197.806C125.707 197.806 161.201 164.432 164.573 122.01H137.295ZM137.625 117.01H164.82C164.83 116.471 164.835 115.93 164.835 115.389C164.835 70.8088 129.441 34.4957 85.2202 33.018V60.2604C114.449 61.9256 137.637 86.1553 137.637 115.801C137.637 116.205 137.633 116.608 137.625 117.01Z" fill="#77D6B0"/>
<path fill-rule="evenodd" clip-rule="evenodd" d="M137.295 122.01C134.207 149.812 110.631 171.433 82.0055 171.433C51.2809 171.433 26.3737 146.526 26.3737 115.801C26.3737 85.6736 50.3218 61.1397 80.2202 60.1971V33C35.718 34.1648 0 70.6056 0 115.389C0 160.907 36.8996 197.806 82.4176 197.806C125.707 197.806 161.201 164.432 164.573 122.01H137.295Z" fill="#7FA1F3"/>
<path fill-rule="evenodd" clip-rule="evenodd" d="M449.025 86.8804L423.936 98.4602C419.905 90.6934 414.076 84.0095 407 78.9602L421.831 56C433.301 63.8074 442.698 74.4329 449.025 86.8804Z" fill="#7FA1F3"/>
<path fill-rule="evenodd" clip-rule="evenodd" d="M457.84 124.405C457.84 169.916 420.939 206.81 375.42 206.81C329.901 206.81 293 169.916 293 124.405C293 78.894 329.901 42 375.42 42C390.805 42 405.206 46.2146 417.53 53.5525L402.718 76.4834C394.579 71.7263 385.108 69 375 69C344.624 69 320 93.6199 320 123.99C320 154.36 344.624 178.98 375 178.98C405.376 178.98 430 154.36 430 123.99C430 116.648 428.561 109.642 425.949 103.239L451.07 91.6445C455.425 101.685 457.84 112.763 457.84 124.405Z" fill="#77D6B0"/>
<path d="M387 45H419" stroke="#77D6B0" stroke-width="3" stroke-linecap="round"/>
<path d="M439.675 34L443.59 22.9H445.435L449.365 34H447.805L446.875 31.345H442.165L441.235 34H439.675ZM442.615 30.025H446.425L444.52 24.58L442.615 30.025ZM452.706 34L449.676 26.05H451.161L453.486 32.26L455.766 26.05H457.266L454.221 34H452.706ZM462.376 37.15C461.716 37.15 461.166 37.06 460.726 36.88C460.286 36.71 459.931 36.49 459.661 36.22C459.401 35.96 459.206 35.7 459.076 35.44C458.946 35.18 458.861 34.96 458.821 34.78C458.781 34.61 458.761 34.525 458.761 34.525H460.186C460.186 34.525 460.211 34.595 460.261 34.735C460.311 34.875 460.406 35.035 460.546 35.215C460.696 35.395 460.916 35.555 461.206 35.695C461.496 35.835 461.886 35.905 462.376 35.905C462.956 35.905 463.411 35.79 463.741 35.56C464.071 35.34 464.306 35.05 464.446 34.69C464.596 34.33 464.671 33.95 464.671 33.55V32.635H464.596C464.496 32.805 464.336 33 464.116 33.22C463.906 33.43 463.626 33.615 463.276 33.775C462.926 33.925 462.496 34 461.986 34C461.386 34 460.861 33.885 460.411 33.655C459.961 33.425 459.586 33.115 459.286 32.725C458.996 32.335 458.776 31.9 458.626 31.42C458.476 30.94 458.401 30.45 458.401 29.95C458.401 29.45 458.476 28.96 458.626 28.48C458.776 28 458.996 27.565 459.286 27.175C459.586 26.785 459.961 26.475 460.411 26.245C460.861 26.015 461.386 25.9 461.986 25.9C462.496 25.9 462.926 25.98 463.276 26.14C463.626 26.29 463.906 26.47 464.116 26.68C464.336 26.89 464.496 27.085 464.596 27.265H464.671V26.05H466.096V33.535C466.096 34.645 465.771 35.525 465.121 36.175C464.481 36.825 463.566 37.15 462.376 37.15ZM462.256 32.785C462.786 32.785 463.226 32.65 463.576 32.38C463.936 32.1 464.201 31.745 464.371 31.315C464.551 30.885 464.641 30.43 464.641 29.95C464.641 29.47 464.551 29.015 464.371 28.585C464.201 28.145 463.936 27.79 463.576 27.52C463.226 27.25 462.786 27.115 462.256 27.115C461.726 27.115 461.281 27.25 460.921 27.52C460.561 27.79 460.291 28.145 460.111 28.585C459.941 29.015 459.856 29.47 459.856 29.95C459.856 30.43 459.941 30.885 460.111 31.315C460.291 31.745 460.561 32.1 460.921 32.38C461.281 32.65 461.726 32.785 462.256 32.785ZM469.285 34.15C469.005 34.15 468.77 34.055 468.58 33.865C468.4 33.665 468.31 33.435 468.31 33.175C468.31 32.905 468.4 32.675 468.58 32.485C468.77 32.295 469.005 32.2 469.285 32.2C469.565 32.2 469.795 32.295 469.975 32.485C470.165 32.675 470.26 32.905 470.26 33.175C470.26 33.445 470.165 33.675 469.975 33.865C469.795 34.055 469.565 34.15 469.285 34.15ZM479.809 34.15C479.169 34.15 478.619 34.07 478.159 33.91C477.709 33.74 477.334 33.525 477.034 33.265C476.734 32.995 476.494 32.715 476.314 32.425C476.134 32.135 475.999 31.86 475.909 31.6C475.819 31.33 475.759 31.115 475.729 30.955C475.709 30.785 475.699 30.7 475.699 30.7H477.199C477.199 30.7 477.214 30.77 477.244 30.91C477.274 31.05 477.334 31.225 477.424 31.435C477.524 31.645 477.669 31.86 477.859 32.08C478.049 32.29 478.304 32.465 478.624 32.605C478.944 32.745 479.349 32.815 479.839 32.815C480.579 32.815 481.164 32.64 481.594 32.29C482.024 31.93 482.239 31.465 482.239 30.895C482.239 30.405 482.074 30.025 481.744 29.755C481.424 29.485 480.964 29.275 480.364 29.125L478.894 28.765C478.374 28.635 477.889 28.455 477.439 28.225C476.999 27.985 476.644 27.675 476.374 27.295C476.114 26.905 475.984 26.42 475.984 25.84C475.984 25.19 476.144 24.635 476.464 24.175C476.784 23.715 477.219 23.365 477.769 23.125C478.319 22.875 478.944 22.75 479.644 22.75C480.324 22.75 480.889 22.855 481.339 23.065C481.789 23.275 482.149 23.535 482.419 23.845C482.689 24.145 482.889 24.45 483.019 24.76C483.149 25.06 483.234 25.315 483.274 25.525C483.314 25.735 483.334 25.84 483.334 25.84H481.894C481.894 25.84 481.874 25.75 481.834 25.57C481.794 25.39 481.699 25.185 481.549 24.955C481.399 24.715 481.169 24.505 480.859 24.325C480.549 24.145 480.129 24.055 479.599 24.055C478.879 24.055 478.334 24.225 477.964 24.565C477.604 24.905 477.424 25.295 477.424 25.735C477.424 26.135 477.569 26.46 477.859 26.71C478.149 26.95 478.549 27.135 479.059 27.265L480.649 27.655C481.219 27.795 481.734 28 482.194 28.27C482.654 28.53 483.019 28.87 483.289 29.29C483.559 29.7 483.694 30.205 483.694 30.805C483.694 31.405 483.544 31.96 483.244 32.47C482.954 32.98 482.519 33.39 481.939 33.7C481.369 34 480.659 34.15 479.809 34.15ZM488.055 34.15C487.265 34.15 486.635 33.905 486.165 33.415C485.695 32.925 485.46 32.245 485.46 31.375V26.05H486.885V31.3C486.885 31.82 487.025 32.22 487.305 32.5C487.595 32.78 487.975 32.92 488.445 32.92C488.925 32.92 489.31 32.795 489.6 32.545C489.89 32.295 490.1 31.975 490.23 31.585C490.36 31.195 490.425 30.795 490.425 30.385V26.05H491.85V34H490.425V32.86H490.335C490.275 32.98 490.16 33.145 489.99 33.355C489.82 33.555 489.58 33.74 489.27 33.91C488.96 34.07 488.555 34.15 488.055 34.15ZM497.721 34.15C497.071 34.15 496.501 34.035 496.011 33.805C495.521 33.565 495.111 33.25 494.781 32.86C494.461 32.46 494.216 32.015 494.046 31.525C493.886 31.035 493.806 30.535 493.806 30.025C493.806 29.515 493.886 29.02 494.046 28.54C494.206 28.05 494.446 27.605 494.766 27.205C495.096 26.805 495.506 26.49 495.996 26.26C496.486 26.02 497.061 25.9 497.721 25.9C498.361 25.9 498.891 25.995 499.311 26.185C499.731 26.375 500.066 26.615 500.316 26.905C500.576 27.185 500.766 27.47 500.886 27.76C501.016 28.04 501.101 28.275 501.141 28.465C501.181 28.655 501.201 28.75 501.201 28.75H499.821C499.821 28.75 499.796 28.67 499.746 28.51C499.696 28.34 499.601 28.15 499.461 27.94C499.321 27.73 499.111 27.545 498.831 27.385C498.551 27.215 498.181 27.13 497.721 27.13C497.171 27.13 496.706 27.27 496.326 27.55C495.956 27.82 495.676 28.175 495.486 28.615C495.306 29.055 495.216 29.525 495.216 30.025C495.216 30.525 495.306 30.995 495.486 31.435C495.676 31.875 495.956 32.235 496.326 32.515C496.706 32.785 497.171 32.92 497.721 32.92C498.181 32.92 498.551 32.84 498.831 32.68C499.111 32.51 499.321 32.32 499.461 32.11C499.601 31.9 499.696 31.715 499.746 31.555C499.796 31.385 499.821 31.3 499.821 31.3H501.201C501.201 31.3 501.181 31.395 501.141 31.585C501.101 31.775 501.016 32.015 500.886 32.305C500.766 32.585 500.576 32.87 500.316 33.16C500.066 33.44 499.731 33.675 499.311 33.865C498.891 34.055 498.361 34.15 497.721 34.15ZM506.92 34.15C506.27 34.15 505.7 34.035 505.21 33.805C504.72 33.565 504.31 33.25 503.98 32.86C503.66 32.46 503.415 32.015 503.245 31.525C503.085 31.035 503.005 30.535 503.005 30.025C503.005 29.515 503.085 29.02 503.245 28.54C503.405 28.05 503.645 27.605 503.965 27.205C504.295 26.805 504.705 26.49 505.195 26.26C505.685 26.02 506.26 25.9 506.92 25.9C507.56 25.9 508.09 25.995 508.51 26.185C508.93 26.375 509.265 26.615 509.515 26.905C509.775 27.185 509.965 27.47 510.085 27.76C510.215 28.04 510.3 28.275 510.34 28.465C510.38 28.655 510.4 28.75 510.4 28.75H509.02C509.02 28.75 508.995 28.67 508.945 28.51C508.895 28.34 508.8 28.15 508.66 27.94C508.52 27.73 508.31 27.545 508.03 27.385C507.75 27.215 507.38 27.13 506.92 27.13C506.37 27.13 505.905 27.27 505.525 27.55C505.155 27.82 504.875 28.175 504.685 28.615C504.505 29.055 504.415 29.525 504.415 30.025C504.415 30.525 504.505 30.995 504.685 31.435C504.875 31.875 505.155 32.235 505.525 32.515C505.905 32.785 506.37 32.92 506.92 32.92C507.38 32.92 507.75 32.84 508.03 32.68C508.31 32.51 508.52 32.32 508.66 32.11C508.8 31.9 508.895 31.715 508.945 31.555C508.995 31.385 509.02 31.3 509.02 31.3H510.4C510.4 31.3 510.38 31.395 510.34 31.585C510.3 31.775 510.215 32.015 510.085 32.305C509.965 32.585 509.775 32.87 509.515 33.16C509.265 33.44 508.93 33.675 508.51 33.865C508.09 34.055 507.56 34.15 506.92 34.15ZM515.97 34.15C515.32 34.15 514.755 34.035 514.275 33.805C513.805 33.565 513.415 33.245 513.105 32.845C512.805 32.445 512.58 32.005 512.43 31.525C512.28 31.035 512.205 30.535 512.205 30.025C512.205 29.525 512.275 29.03 512.415 28.54C512.565 28.05 512.79 27.605 513.09 27.205C513.4 26.805 513.785 26.49 514.245 26.26C514.715 26.02 515.27 25.9 515.91 25.9C516.59 25.9 517.19 26.055 517.71 26.365C518.23 26.675 518.64 27.135 518.94 27.745C519.24 28.355 519.39 29.12 519.39 30.04V30.46H513.645C513.675 30.91 513.78 31.325 513.96 31.705C514.15 32.075 514.415 32.375 514.755 32.605C515.095 32.825 515.5 32.935 515.97 32.935C516.38 32.935 516.71 32.87 516.96 32.74C517.22 32.6 517.425 32.44 517.575 32.26C517.725 32.08 517.825 31.925 517.875 31.795C517.935 31.655 517.965 31.585 517.965 31.585H519.3C519.3 31.585 519.275 31.675 519.225 31.855C519.175 32.025 519.085 32.235 518.955 32.485C518.825 32.735 518.635 32.99 518.385 33.25C518.135 33.5 517.815 33.715 517.425 33.895C517.035 34.065 516.55 34.15 515.97 34.15ZM513.66 29.35H517.995C517.975 28.83 517.865 28.41 517.665 28.09C517.465 27.76 517.21 27.515 516.9 27.355C516.59 27.195 516.26 27.115 515.91 27.115C515.28 27.115 514.765 27.32 514.365 27.73C513.965 28.13 513.73 28.67 513.66 29.35ZM524.244 34.15C523.634 34.15 523.129 34.065 522.729 33.895C522.339 33.725 522.029 33.515 521.799 33.265C521.569 33.005 521.399 32.75 521.289 32.5C521.179 32.24 521.109 32.025 521.079 31.855C521.049 31.685 521.034 31.6 521.034 31.6H522.474C522.474 31.6 522.489 31.67 522.519 31.81C522.559 31.94 522.634 32.095 522.744 32.275C522.864 32.445 523.044 32.6 523.284 32.74C523.534 32.87 523.864 32.935 524.274 32.935C524.744 32.935 525.109 32.825 525.369 32.605C525.629 32.375 525.759 32.095 525.759 31.765C525.759 31.475 525.654 31.245 525.444 31.075C525.244 30.905 524.954 30.775 524.574 30.685L523.494 30.43C523.094 30.33 522.719 30.195 522.369 30.025C522.019 29.855 521.734 29.625 521.514 29.335C521.304 29.035 521.199 28.665 521.199 28.225C521.199 27.545 521.454 26.99 521.964 26.56C522.474 26.12 523.139 25.9 523.959 25.9C524.509 25.9 524.964 25.98 525.324 26.14C525.684 26.29 525.969 26.48 526.179 26.71C526.399 26.94 526.559 27.17 526.659 27.4C526.769 27.63 526.839 27.825 526.869 27.985C526.899 28.135 526.914 28.21 526.914 28.21H525.534C525.534 28.21 525.519 28.155 525.489 28.045C525.459 27.925 525.389 27.795 525.279 27.655C525.179 27.505 525.024 27.375 524.814 27.265C524.604 27.145 524.324 27.085 523.974 27.085C523.494 27.085 523.144 27.195 522.924 27.415C522.704 27.635 522.594 27.875 522.594 28.135C522.594 28.385 522.694 28.59 522.894 28.75C523.104 28.9 523.374 29.015 523.704 29.095L524.799 29.35C525.479 29.51 526.039 29.775 526.479 30.145C526.929 30.505 527.154 31.025 527.154 31.705C527.154 32.145 527.039 32.555 526.809 32.935C526.579 33.305 526.249 33.6 525.819 33.82C525.389 34.04 524.864 34.15 524.244 34.15ZM531.861 34.15C531.251 34.15 530.746 34.065 530.346 33.895C529.956 33.725 529.646 33.515 529.416 33.265C529.186 33.005 529.016 32.75 528.906 32.5C528.796 32.24 528.726 32.025 528.696 31.855C528.666 31.685 528.651 31.6 528.651 31.6H530.091C530.091 31.6 530.106 31.67 530.136 31.81C530.176 31.94 530.251 32.095 530.361 32.275C530.481 32.445 530.661 32.6 530.901 32.74C531.151 32.87 531.481 32.935 531.891 32.935C532.361 32.935 532.726 32.825 532.986 32.605C533.246 32.375 533.376 32.095 533.376 31.765C533.376 31.475 533.271 31.245 533.061 31.075C532.861 30.905 532.571 30.775 532.191 30.685L531.111 30.43C530.711 30.33 530.336 30.195 529.986 30.025C529.636 29.855 529.351 29.625 529.131 29.335C528.921 29.035 528.816 28.665 528.816 28.225C528.816 27.545 529.071 26.99 529.581 26.56C530.091 26.12 530.756 25.9 531.576 25.9C532.126 25.9 532.581 25.98 532.941 26.14C533.301 26.29 533.586 26.48 533.796 26.71C534.016 26.94 534.176 27.17 534.276 27.4C534.386 27.63 534.456 27.825 534.486 27.985C534.516 28.135 534.531 28.21 534.531 28.21H533.151C533.151 28.21 533.136 28.155 533.106 28.045C533.076 27.925 533.006 27.795 532.896 27.655C532.796 27.505 532.641 27.375 532.431 27.265C532.221 27.145 531.941 27.085 531.591 27.085C531.111 27.085 530.761 27.195 530.541 27.415C530.321 27.635 530.211 27.875 530.211 28.135C530.211 28.385 530.311 28.59 530.511 28.75C530.721 28.9 530.991 29.015 531.321 29.095L532.416 29.35C533.096 29.51 533.656 29.775 534.096 30.145C534.546 30.505 534.771 31.025 534.771 31.705C534.771 32.145 534.656 32.555 534.426 32.935C534.196 33.305 533.866 33.6 533.436 33.82C533.006 34.04 532.481 34.15 531.861 34.15ZM537.499 34V27.22H536.194V26.05H537.499V25.075C537.499 24.655 537.574 24.245 537.724 23.845C537.874 23.435 538.124 23.1 538.474 22.84C538.824 22.58 539.299 22.45 539.899 22.45C540.189 22.45 540.419 22.475 540.589 22.525C540.769 22.565 540.859 22.585 540.859 22.585V23.71C540.859 23.71 540.779 23.695 540.619 23.665C540.469 23.625 540.294 23.605 540.094 23.605C539.634 23.605 539.324 23.745 539.164 24.025C539.004 24.305 538.924 24.655 538.924 25.075V26.05H540.769V27.22H538.924V34H537.499ZM544.95 34.15C544.16 34.15 543.53 33.905 543.06 33.415C542.59 32.925 542.355 32.245 542.355 31.375V26.05H543.78V31.3C543.78 31.82 543.92 32.22 544.2 32.5C544.49 32.78 544.87 32.92 545.34 32.92C545.82 32.92 546.205 32.795 546.495 32.545C546.785 32.295 546.995 31.975 547.125 31.585C547.255 31.195 547.32 30.795 547.32 30.385V26.05H548.745V34H547.32V32.86H547.23C547.17 32.98 547.055 33.145 546.885 33.355C546.715 33.555 546.475 33.74 546.165 33.91C545.855 34.07 545.45 34.15 544.95 34.15ZM551.001 34L551.016 22.6H552.426V34H551.001ZM443.815 59.15C443.165 59.15 442.595 59.035 442.105 58.805C441.615 58.565 441.205 58.25 440.875 57.86C440.555 57.46 440.31 57.015 440.14 56.525C439.98 56.035 439.9 55.535 439.9 55.025C439.9 54.515 439.98 54.02 440.14 53.54C440.3 53.05 440.54 52.605 440.86 52.205C441.19 51.805 441.6 51.49 442.09 51.26C442.58 51.02 443.155 50.9 443.815 50.9C444.455 50.9 444.985 50.995 445.405 51.185C445.825 51.375 446.16 51.615 446.41 51.905C446.67 52.185 446.86 52.47 446.98 52.76C447.11 53.04 447.195 53.275 447.235 53.465C447.275 53.655 447.295 53.75 447.295 53.75H445.915C445.915 53.75 445.89 53.67 445.84 53.51C445.79 53.34 445.695 53.15 445.555 52.94C445.415 52.73 445.205 52.545 444.925 52.385C444.645 52.215 444.275 52.13 443.815 52.13C443.265 52.13 442.8 52.27 442.42 52.55C442.05 52.82 441.77 53.175 441.58 53.615C441.4 54.055 441.31 54.525 441.31 55.025C441.31 55.525 441.4 55.995 441.58 56.435C441.77 56.875 442.05 57.235 442.42 57.515C442.8 57.785 443.265 57.92 443.815 57.92C444.275 57.92 444.645 57.84 444.925 57.68C445.205 57.51 445.415 57.32 445.555 57.11C445.695 56.9 445.79 56.715 445.84 56.555C445.89 56.385 445.915 56.3 445.915 56.3H447.295C447.295 56.3 447.275 56.395 447.235 56.585C447.195 56.775 447.11 57.015 446.98 57.305C446.86 57.585 446.67 57.87 446.41 58.16C446.16 58.44 445.825 58.675 445.405 58.865C444.985 59.055 444.455 59.15 443.815 59.15ZM452.699 50.9C453.199 50.9 453.619 50.98 453.959 51.14C454.299 51.3 454.574 51.49 454.784 51.71C454.994 51.92 455.154 52.12 455.264 52.31H455.354V51.05H456.779V59H455.354V57.74H455.264C455.154 57.93 454.994 58.135 454.784 58.355C454.574 58.575 454.299 58.765 453.959 58.925C453.619 59.075 453.199 59.15 452.699 59.15C452.099 59.15 451.574 59.035 451.124 58.805C450.674 58.565 450.299 58.25 449.999 57.86C449.699 57.46 449.474 57.015 449.324 56.525C449.174 56.035 449.099 55.535 449.099 55.025C449.099 54.515 449.174 54.015 449.324 53.525C449.474 53.035 449.699 52.595 449.999 52.205C450.299 51.805 450.674 51.49 451.124 51.26C451.574 51.02 452.099 50.9 452.699 50.9ZM452.939 52.115C452.409 52.115 451.964 52.26 451.604 52.55C451.244 52.83 450.974 53.19 450.794 53.63C450.624 54.07 450.539 54.535 450.539 55.025C450.539 55.505 450.624 55.97 450.794 56.42C450.974 56.86 451.244 57.225 451.604 57.515C451.964 57.795 452.409 57.935 452.939 57.935C453.469 57.935 453.909 57.795 454.259 57.515C454.619 57.225 454.884 56.86 455.054 56.42C455.234 55.97 455.324 55.505 455.324 55.025C455.324 54.535 455.234 54.07 455.054 53.63C454.884 53.19 454.619 52.83 454.259 52.55C453.909 52.26 453.469 52.115 452.939 52.115ZM461.955 59.15C461.135 59.15 460.515 58.94 460.095 58.52C459.685 58.1 459.48 57.51 459.48 56.75V52.22H458.055V51.05H459.48V49.055H460.905V51.05H462.84V52.22H460.905V56.75C460.905 57.15 461.015 57.445 461.235 57.635C461.455 57.815 461.775 57.905 462.195 57.905C462.415 57.905 462.625 57.89 462.825 57.86C463.025 57.83 463.125 57.815 463.125 57.815V59.03C463.125 59.03 463.01 59.05 462.78 59.09C462.55 59.13 462.275 59.15 461.955 59.15ZM468.318 59.15C467.668 59.15 467.103 59.035 466.623 58.805C466.153 58.565 465.763 58.245 465.453 57.845C465.153 57.445 464.928 57.005 464.778 56.525C464.628 56.035 464.553 55.535 464.553 55.025C464.553 54.525 464.623 54.03 464.763 53.54C464.913 53.05 465.138 52.605 465.438 52.205C465.748 51.805 466.133 51.49 466.593 51.26C467.063 51.02 467.618 50.9 468.258 50.9C468.938 50.9 469.538 51.055 470.058 51.365C470.578 51.675 470.988 52.135 471.288 52.745C471.588 53.355 471.738 54.12 471.738 55.04V55.46H465.993C466.023 55.91 466.128 56.325 466.308 56.705C466.498 57.075 466.763 57.375 467.103 57.605C467.443 57.825 467.848 57.935 468.318 57.935C468.728 57.935 469.058 57.87 469.308 57.74C469.568 57.6 469.773 57.44 469.923 57.26C470.073 57.08 470.173 56.925 470.223 56.795C470.283 56.655 470.313 56.585 470.313 56.585H471.648C471.648 56.585 471.623 56.675 471.573 56.855C471.523 57.025 471.433 57.235 471.303 57.485C471.173 57.735 470.983 57.99 470.733 58.25C470.483 58.5 470.163 58.715 469.773 58.895C469.383 59.065 468.898 59.15 468.318 59.15ZM466.008 54.35H470.343C470.323 53.83 470.213 53.41 470.013 53.09C469.813 52.76 469.558 52.515 469.248 52.355C468.938 52.195 468.608 52.115 468.258 52.115C467.628 52.115 467.113 52.32 466.713 52.73C466.313 53.13 466.078 53.67 466.008 54.35ZM477.435 62.15C476.775 62.15 476.225 62.06 475.785 61.88C475.345 61.71 474.99 61.49 474.72 61.22C474.46 60.96 474.265 60.7 474.135 60.44C474.005 60.18 473.92 59.96 473.88 59.78C473.84 59.61 473.82 59.525 473.82 59.525H475.245C475.245 59.525 475.27 59.595 475.32 59.735C475.37 59.875 475.465 60.035 475.605 60.215C475.755 60.395 475.975 60.555 476.265 60.695C476.555 60.835 476.945 60.905 477.435 60.905C478.015 60.905 478.47 60.79 478.8 60.56C479.13 60.34 479.365 60.05 479.505 59.69C479.655 59.33 479.73 58.95 479.73 58.55V57.635H479.655C479.555 57.805 479.395 58 479.175 58.22C478.965 58.43 478.685 58.615 478.335 58.775C477.985 58.925 477.555 59 477.045 59C476.445 59 475.92 58.885 475.47 58.655C475.02 58.425 474.645 58.115 474.345 57.725C474.055 57.335 473.835 56.9 473.685 56.42C473.535 55.94 473.46 55.45 473.46 54.95C473.46 54.45 473.535 53.96 473.685 53.48C473.835 53 474.055 52.565 474.345 52.175C474.645 51.785 475.02 51.475 475.47 51.245C475.92 51.015 476.445 50.9 477.045 50.9C477.555 50.9 477.985 50.98 478.335 51.14C478.685 51.29 478.965 51.47 479.175 51.68C479.395 51.89 479.555 52.085 479.655 52.265H479.73V51.05H481.155V58.535C481.155 59.645 480.83 60.525 480.18 61.175C479.54 61.825 478.625 62.15 477.435 62.15ZM477.315 57.785C477.845 57.785 478.285 57.65 478.635 57.38C478.995 57.1 479.26 56.745 479.43 56.315C479.61 55.885 479.7 55.43 479.7 54.95C479.7 54.47 479.61 54.015 479.43 53.585C479.26 53.145 478.995 52.79 478.635 52.52C478.285 52.25 477.845 52.115 477.315 52.115C476.785 52.115 476.34 52.25 475.98 52.52C475.62 52.79 475.35 53.145 475.17 53.585C475 54.015 474.915 54.47 474.915 54.95C474.915 55.43 475 55.885 475.17 56.315C475.35 56.745 475.62 57.1 475.98 57.38C476.34 57.65 476.785 57.785 477.315 57.785ZM486.72 59.15C485.87 59.15 485.155 58.955 484.575 58.565C483.995 58.165 483.555 57.65 483.255 57.02C482.955 56.39 482.805 55.725 482.805 55.025C482.805 54.315 482.955 53.65 483.255 53.03C483.555 52.4 483.995 51.89 484.575 51.5C485.155 51.1 485.87 50.9 486.72 50.9C487.57 50.9 488.285 51.1 488.865 51.5C489.445 51.89 489.885 52.4 490.185 53.03C490.485 53.65 490.635 54.315 490.635 55.025C490.635 55.725 490.485 56.39 490.185 57.02C489.885 57.65 489.445 58.165 488.865 58.565C488.285 58.955 487.57 59.15 486.72 59.15ZM486.72 57.905C487.26 57.905 487.71 57.77 488.07 57.5C488.44 57.22 488.715 56.86 488.895 56.42C489.085 55.98 489.18 55.515 489.18 55.025C489.18 54.525 489.085 54.06 488.895 53.63C488.715 53.19 488.44 52.835 488.07 52.565C487.71 52.285 487.26 52.145 486.72 52.145C486.19 52.145 485.74 52.285 485.37 52.565C485 52.835 484.72 53.19 484.53 53.63C484.35 54.06 484.26 54.525 484.26 55.025C484.26 55.515 484.35 55.98 484.53 56.42C484.72 56.86 485 57.22 485.37 57.5C485.74 57.77 486.19 57.905 486.72 57.905ZM492.579 59V51.05H494.004V52.04H494.064C494.234 51.74 494.484 51.475 494.814 51.245C495.144 51.015 495.609 50.9 496.209 50.9C496.379 50.9 496.534 50.91 496.674 50.93C496.814 50.94 496.884 50.945 496.884 50.945V52.31C496.884 52.31 496.804 52.305 496.644 52.295C496.494 52.275 496.334 52.265 496.164 52.265C495.474 52.265 494.939 52.465 494.559 52.865C494.189 53.255 494.004 53.895 494.004 54.785V59H492.579ZM499.676 49.535C499.406 49.535 499.181 49.445 499.001 49.265C498.831 49.085 498.746 48.87 498.746 48.62C498.746 48.36 498.831 48.14 499.001 47.96C499.181 47.78 499.406 47.69 499.676 47.69C499.936 47.69 500.156 47.78 500.336 47.96C500.516 48.14 500.606 48.36 500.606 48.62C500.606 48.87 500.516 49.085 500.336 49.265C500.156 49.445 499.936 49.535 499.676 49.535ZM498.971 59V51.05H500.396V59H498.971ZM502.296 59V57.995L506.946 52.22H502.536V51.05H508.701V52.055L504.036 57.83H508.701V59H502.296ZM513.534 50.9C514.034 50.9 514.454 50.98 514.794 51.14C515.134 51.3 515.409 51.49 515.619 51.71C515.829 51.92 515.989 52.12 516.099 52.31H516.189V51.05H517.614V59H516.189V57.74H516.099C515.989 57.93 515.829 58.135 515.619 58.355C515.409 58.575 515.134 58.765 514.794 58.925C514.454 59.075 514.034 59.15 513.534 59.15C512.934 59.15 512.409 59.035 511.959 58.805C511.509 58.565 511.134 58.25 510.834 57.86C510.534 57.46 510.309 57.015 510.159 56.525C510.009 56.035 509.934 55.535 509.934 55.025C509.934 54.515 510.009 54.015 510.159 53.525C510.309 53.035 510.534 52.595 510.834 52.205C511.134 51.805 511.509 51.49 511.959 51.26C512.409 51.02 512.934 50.9 513.534 50.9ZM513.774 52.115C513.244 52.115 512.799 52.26 512.439 52.55C512.079 52.83 511.809 53.19 511.629 53.63C511.459 54.07 511.374 54.535 511.374 55.025C511.374 55.505 511.459 55.97 511.629 56.42C511.809 56.86 512.079 57.225 512.439 57.515C512.799 57.795 513.244 57.935 513.774 57.935C514.304 57.935 514.744 57.795 515.094 57.515C515.454 57.225 515.719 56.86 515.889 56.42C516.069 55.97 516.159 55.505 516.159 55.025C516.159 54.535 516.069 54.07 515.889 53.63C515.719 53.19 515.454 52.83 515.094 52.55C514.744 52.26 514.304 52.115 513.774 52.115ZM522.79 59.15C521.97 59.15 521.35 58.94 520.93 58.52C520.52 58.1 520.315 57.51 520.315 56.75V52.22H518.89V51.05H520.315V49.055H521.74V51.05H523.675V52.22H521.74V56.75C521.74 57.15 521.85 57.445 522.07 57.635C522.29 57.815 522.61 57.905 523.03 57.905C523.25 57.905 523.46 57.89 523.66 57.86C523.86 57.83 523.96 57.815 523.96 57.815V59.03C523.96 59.03 523.845 59.05 523.615 59.09C523.385 59.13 523.11 59.15 522.79 59.15ZM526.761 49.535C526.491 49.535 526.266 49.445 526.086 49.265C525.916 49.085 525.831 48.87 525.831 48.62C525.831 48.36 525.916 48.14 526.086 47.96C526.266 47.78 526.491 47.69 526.761 47.69C527.021 47.69 527.241 47.78 527.421 47.96C527.601 48.14 527.691 48.36 527.691 48.62C527.691 48.87 527.601 49.085 527.421 49.265C527.241 49.445 527.021 49.535 526.761 49.535ZM526.056 59V51.05H527.481V59H526.056ZM533.551 59.15C532.701 59.15 531.986 58.955 531.406 58.565C530.826 58.165 530.386 57.65 530.086 57.02C529.786 56.39 529.636 55.725 529.636 55.025C529.636 54.315 529.786 53.65 530.086 53.03C530.386 52.4 530.826 51.89 531.406 51.5C531.986 51.1 532.701 50.9 533.551 50.9C534.401 50.9 535.116 51.1 535.696 51.5C536.276 51.89 536.716 52.4 537.016 53.03C537.316 53.65 537.466 54.315 537.466 55.025C537.466 55.725 537.316 56.39 537.016 57.02C536.716 57.65 536.276 58.165 535.696 58.565C535.116 58.955 534.401 59.15 533.551 59.15ZM533.551 57.905C534.091 57.905 534.541 57.77 534.901 57.5C535.271 57.22 535.546 56.86 535.726 56.42C535.916 55.98 536.011 55.515 536.011 55.025C536.011 54.525 535.916 54.06 535.726 53.63C535.546 53.19 535.271 52.835 534.901 52.565C534.541 52.285 534.091 52.145 533.551 52.145C533.021 52.145 532.571 52.285 532.201 52.565C531.831 52.835 531.551 53.19 531.361 53.63C531.181 54.06 531.091 54.525 531.091 55.025C531.091 55.515 531.181 55.98 531.361 56.42C531.551 56.86 531.831 57.22 532.201 57.5C532.571 57.77 533.021 57.905 533.551 57.905ZM539.41 59V51.05H540.835V52.205H540.925C540.995 52.085 541.11 51.92 541.27 51.71C541.44 51.5 541.68 51.315 541.99 51.155C542.3 50.985 542.69 50.9 543.16 50.9C543.74 50.9 544.235 51.035 544.645 51.305C545.055 51.565 545.365 51.92 545.575 52.37C545.795 52.82 545.905 53.325 545.905 53.885V59H544.48V53.975C544.48 53.445 544.33 53.005 544.03 52.655C543.74 52.305 543.315 52.13 542.755 52.13C542.305 52.13 541.94 52.245 541.66 52.475C541.38 52.695 541.17 52.99 541.03 53.36C540.9 53.72 540.835 54.105 540.835 54.515V59H539.41ZM549.104 52.85C548.824 52.85 548.589 52.755 548.399 52.565C548.219 52.365 548.129 52.135 548.129 51.875C548.129 51.605 548.219 51.375 548.399 51.185C548.589 50.995 548.824 50.9 549.104 50.9C549.384 50.9 549.614 50.995 549.794 51.185C549.984 51.375 550.079 51.605 550.079 51.875C550.079 52.145 549.984 52.375 549.794 52.565C549.614 52.755 549.384 52.85 549.104 52.85ZM549.104 59.15C548.824 59.15 548.589 59.055 548.399 58.865C548.219 58.665 548.129 58.435 548.129 58.175C548.129 57.905 548.219 57.675 548.399 57.485C548.589 57.295 548.824 57.2 549.104 57.2C549.384 57.2 549.614 57.295 549.794 57.485C549.984 57.675 550.079 57.905 550.079 58.175C550.079 58.445 549.984 58.675 549.794 58.865C549.614 59.055 549.384 59.15 549.104 59.15ZM559.463 59.15C558.683 59.15 558.003 59.01 557.423 58.73C556.853 58.44 556.408 58.055 556.088 57.575C555.768 57.085 555.608 56.535 555.608 55.925C555.608 55.385 555.703 54.94 555.893 54.59C556.083 54.23 556.303 53.945 556.553 53.735C556.813 53.515 557.038 53.36 557.228 53.27C557.418 53.18 557.513 53.135 557.513 53.135V53.06C557.513 53.06 557.433 53.025 557.273 52.955C557.113 52.875 556.923 52.745 556.703 52.565C556.493 52.385 556.308 52.145 556.148 51.845C555.988 51.545 555.908 51.175 555.908 50.735C555.908 50.165 556.053 49.655 556.343 49.205C556.633 48.755 557.043 48.4 557.573 48.14C558.113 47.88 558.743 47.75 559.463 47.75C560.183 47.75 560.808 47.88 561.338 48.14C561.878 48.4 562.293 48.755 562.583 49.205C562.873 49.655 563.018 50.165 563.018 50.735C563.018 51.175 562.938 51.545 562.778 51.845C562.618 52.145 562.428 52.385 562.208 52.565C561.998 52.745 561.813 52.875 561.653 52.955C561.493 53.025 561.413 53.06 561.413 53.06V53.135C561.413 53.135 561.508 53.18 561.698 53.27C561.888 53.36 562.108 53.515 562.358 53.735C562.618 53.945 562.843 54.23 563.033 54.59C563.223 54.94 563.318 55.385 563.318 55.925C563.318 56.535 563.158 57.085 562.838 57.575C562.518 58.055 562.068 58.44 561.488 58.73C560.918 59.01 560.243 59.15 559.463 59.15ZM559.463 52.565C559.943 52.565 560.343 52.475 560.663 52.295C560.983 52.115 561.223 51.885 561.383 51.605C561.543 51.325 561.623 51.04 561.623 50.75C561.623 50.44 561.543 50.145 561.383 49.865C561.223 49.585 560.983 49.36 560.663 49.19C560.343 49.01 559.943 48.92 559.463 48.92C558.993 48.92 558.593 49.01 558.263 49.19C557.943 49.36 557.703 49.585 557.543 49.865C557.383 50.145 557.303 50.44 557.303 50.75C557.303 51.04 557.383 51.325 557.543 51.605C557.703 51.885 557.943 52.115 558.263 52.295C558.593 52.475 558.993 52.565 559.463 52.565ZM559.463 57.965C560.003 57.965 560.453 57.86 560.813 57.65C561.183 57.44 561.458 57.17 561.638 56.84C561.828 56.5 561.923 56.15 561.923 55.79C561.923 55.44 561.833 55.11 561.653 54.8C561.473 54.48 561.198 54.22 560.828 54.02C560.468 53.81 560.013 53.705 559.463 53.705C558.913 53.705 558.453 53.81 558.083 54.02C557.723 54.22 557.453 54.48 557.273 54.8C557.093 55.11 557.003 55.44 557.003 55.79C557.003 56.15 557.093 56.5 557.273 56.84C557.463 57.17 557.738 57.44 558.098 57.65C558.468 57.86 558.923 57.965 559.463 57.965ZM569.09 59.15C568.46 59.15 567.92 59.07 567.47 58.91C567.03 58.74 566.665 58.525 566.375 58.265C566.095 58.005 565.87 57.73 565.7 57.44C565.54 57.15 565.42 56.875 565.34 56.615C565.27 56.355 565.225 56.145 565.205 55.985C565.185 55.815 565.175 55.73 565.175 55.73H566.555C566.555 55.73 566.565 55.805 566.585 55.955C566.605 56.095 566.655 56.275 566.735 56.495C566.825 56.705 566.96 56.92 567.14 57.14C567.32 57.35 567.565 57.53 567.875 57.68C568.195 57.82 568.6 57.89 569.09 57.89C569.67 57.89 570.15 57.765 570.53 57.515C570.91 57.265 571.195 56.945 571.385 56.555C571.575 56.165 571.67 55.755 571.67 55.325C571.67 54.885 571.575 54.465 571.385 54.065C571.195 53.655 570.91 53.325 570.53 53.075C570.16 52.815 569.7 52.685 569.15 52.685C568.72 52.685 568.36 52.755 568.07 52.895C567.78 53.035 567.55 53.195 567.38 53.375C567.22 53.555 567.105 53.715 567.035 53.855C566.965 53.995 566.93 54.065 566.93 54.065H565.49L566.36 47.9H572.33V49.205H567.455L567.005 52.385H567.05C567.17 52.255 567.32 52.12 567.5 51.98C567.69 51.83 567.935 51.705 568.235 51.605C568.535 51.495 568.91 51.44 569.36 51.44C570.18 51.44 570.865 51.63 571.415 52.01C571.965 52.38 572.38 52.86 572.66 53.45C572.95 54.03 573.095 54.645 573.095 55.295C573.095 55.775 573.01 56.245 572.84 56.705C572.68 57.165 572.435 57.58 572.105 57.95C571.775 58.31 571.36 58.6 570.86 58.82C570.36 59.04 569.77 59.15 569.09 59.15ZM577.342 52.34C576.922 52.34 576.537 52.25 576.187 52.07C575.837 51.88 575.552 51.61 575.332 51.26C575.122 50.91 575.017 50.5 575.017 50.03C575.017 49.56 575.122 49.155 575.332 48.815C575.542 48.475 575.822 48.215 576.172 48.035C576.532 47.845 576.922 47.75 577.342 47.75C577.772 47.75 578.162 47.845 578.512 48.035C578.862 48.215 579.142 48.475 579.352 48.815C579.562 49.155 579.667 49.56 579.667 50.03C579.667 50.5 579.562 50.91 579.352 51.26C579.142 51.61 578.857 51.88 578.497 52.07C578.147 52.25 577.762 52.34 577.342 52.34ZM576.877 59L582.712 47.9H584.092L578.257 59H576.877ZM577.342 51.275C577.662 51.275 577.937 51.165 578.167 50.945C578.407 50.725 578.527 50.425 578.527 50.045C578.527 49.655 578.407 49.355 578.167 49.145C577.937 48.925 577.662 48.815 577.342 48.815C577.032 48.815 576.757 48.925 576.517 49.145C576.277 49.355 576.157 49.655 576.157 50.045C576.157 50.425 576.277 50.725 576.517 50.945C576.757 51.165 577.032 51.275 577.342 51.275ZM583.627 59.15C583.207 59.15 582.822 59.06 582.472 58.88C582.122 58.69 581.837 58.425 581.617 58.085C581.407 57.735 581.302 57.325 581.302 56.855C581.302 56.375 581.407 55.965 581.617 55.625C581.837 55.285 582.122 55.025 582.472 54.845C582.822 54.655 583.207 54.56 583.627 54.56C584.047 54.56 584.432 54.655 584.782 54.845C585.132 55.025 585.412 55.285 585.622 55.625C585.842 55.965 585.952 56.375 585.952 56.855C585.952 57.325 585.847 57.735 585.637 58.085C585.427 58.425 585.147 58.69 584.797 58.88C584.447 59.06 584.057 59.15 583.627 59.15ZM583.627 58.1C583.947 58.1 584.222 57.99 584.452 57.77C584.692 57.55 584.812 57.245 584.812 56.855C584.812 56.465 584.692 56.165 584.452 55.955C584.222 55.735 583.947 55.625 583.627 55.625C583.317 55.625 583.042 55.735 582.802 55.955C582.562 56.165 582.442 56.465 582.442 56.855C582.442 57.245 582.562 57.55 582.802 57.77C583.042 57.99 583.317 58.1 583.627 58.1Z" fill="#303030"/>
<path d="M334.789 120V108.9H336.724L339.994 115.5L343.249 108.9H345.184V120H343.744V111.06L340.684 117.15H339.289L336.229 111.03V120H334.789ZM351.042 120.15C350.392 120.15 349.827 120.035 349.347 119.805C348.877 119.565 348.487 119.245 348.177 118.845C347.877 118.445 347.652 118.005 347.502 117.525C347.352 117.035 347.277 116.535 347.277 116.025C347.277 115.525 347.347 115.03 347.487 114.54C347.637 114.05 347.862 113.605 348.162 113.205C348.472 112.805 348.857 112.49 349.317 112.26C349.787 112.02 350.342 111.9 350.982 111.9C351.662 111.9 352.262 112.055 352.782 112.365C353.302 112.675 353.712 113.135 354.012 113.745C354.312 114.355 354.462 115.12 354.462 116.04V116.46H348.717C348.747 116.91 348.852 117.325 349.032 117.705C349.222 118.075 349.487 118.375 349.827 118.605C350.167 118.825 350.572 118.935 351.042 118.935C351.452 118.935 351.782 118.87 352.032 118.74C352.292 118.6 352.497 118.44 352.647 118.26C352.797 118.08 352.897 117.925 352.947 117.795C353.007 117.655 353.037 117.585 353.037 117.585H354.372C354.372 117.585 354.347 117.675 354.297 117.855C354.247 118.025 354.157 118.235 354.027 118.485C353.897 118.735 353.707 118.99 353.457 119.25C353.207 119.5 352.887 119.715 352.497 119.895C352.107 120.065 351.622 120.15 351.042 120.15ZM348.732 115.35H353.067C353.047 114.83 352.937 114.41 352.737 114.09C352.537 113.76 352.282 113.515 351.972 113.355C351.662 113.195 351.332 113.115 350.982 113.115C350.352 113.115 349.837 113.32 349.437 113.73C349.037 114.13 348.802 114.67 348.732 115.35ZM360.098 120.15C359.448 120.15 358.878 120.035 358.388 119.805C357.898 119.565 357.488 119.25 357.158 118.86C356.838 118.46 356.593 118.015 356.423 117.525C356.263 117.035 356.183 116.535 356.183 116.025C356.183 115.515 356.263 115.02 356.423 114.54C356.583 114.05 356.823 113.605 357.143 113.205C357.473 112.805 357.883 112.49 358.373 112.26C358.863 112.02 359.438 111.9 360.098 111.9C360.738 111.9 361.268 111.995 361.688 112.185C362.108 112.375 362.443 112.615 362.693 112.905C362.953 113.185 363.143 113.47 363.263 113.76C363.393 114.04 363.478 114.275 363.518 114.465C363.558 114.655 363.578 114.75 363.578 114.75H362.198C362.198 114.75 362.173 114.67 362.123 114.51C362.073 114.34 361.978 114.15 361.838 113.94C361.698 113.73 361.488 113.545 361.208 113.385C360.928 113.215 360.558 113.13 360.098 113.13C359.548 113.13 359.083 113.27 358.703 113.55C358.333 113.82 358.053 114.175 357.863 114.615C357.683 115.055 357.593 115.525 357.593 116.025C357.593 116.525 357.683 116.995 357.863 117.435C358.053 117.875 358.333 118.235 358.703 118.515C359.083 118.785 359.548 118.92 360.098 118.92C360.558 118.92 360.928 118.84 361.208 118.68C361.488 118.51 361.698 118.32 361.838 118.11C361.978 117.9 362.073 117.715 362.123 117.555C362.173 117.385 362.198 117.3 362.198 117.3H363.578C363.578 117.3 363.558 117.395 363.518 117.585C363.478 117.775 363.393 118.015 363.263 118.305C363.143 118.585 362.953 118.87 362.693 119.16C362.443 119.44 362.108 119.675 361.688 119.865C361.268 120.055 360.738 120.15 360.098 120.15ZM365.682 120V108.6H367.107V113.205H367.197C367.267 113.085 367.382 112.92 367.542 112.71C367.712 112.5 367.952 112.315 368.262 112.155C368.572 111.985 368.962 111.9 369.432 111.9C370.012 111.9 370.507 112.035 370.917 112.305C371.327 112.565 371.637 112.92 371.847 113.37C372.067 113.82 372.177 114.325 372.177 114.885V120H370.752V114.975C370.752 114.445 370.602 114.005 370.302 113.655C370.012 113.305 369.587 113.13 369.027 113.13C368.577 113.13 368.212 113.245 367.932 113.475C367.652 113.695 367.442 113.99 367.302 114.36C367.172 114.72 367.107 115.105 367.107 115.515V120H365.682ZM377.728 111.9C378.228 111.9 378.648 111.98 378.988 112.14C379.328 112.3 379.603 112.49 379.813 112.71C380.023 112.92 380.183 113.12 380.293 113.31H380.383V112.05H381.808V120H380.383V118.74H380.293C380.183 118.93 380.023 119.135 379.813 119.355C379.603 119.575 379.328 119.765 378.988 119.925C378.648 120.075 378.228 120.15 377.728 120.15C377.128 120.15 376.603 120.035 376.153 119.805C375.703 119.565 375.328 119.25 375.028 118.86C374.728 118.46 374.503 118.015 374.353 117.525C374.203 117.035 374.128 116.535 374.128 116.025C374.128 115.515 374.203 115.015 374.353 114.525C374.503 114.035 374.728 113.595 375.028 113.205C375.328 112.805 375.703 112.49 376.153 112.26C376.603 112.02 377.128 111.9 377.728 111.9ZM377.968 113.115C377.438 113.115 376.993 113.26 376.633 113.55C376.273 113.83 376.003 114.19 375.823 114.63C375.653 115.07 375.568 115.535 375.568 116.025C375.568 116.505 375.653 116.97 375.823 117.42C376.003 117.86 376.273 118.225 376.633 118.515C376.993 118.795 377.438 118.935 377.968 118.935C378.498 118.935 378.938 118.795 379.288 118.515C379.648 118.225 379.913 117.86 380.083 117.42C380.263 116.97 380.353 116.505 380.353 116.025C380.353 115.535 380.263 115.07 380.083 114.63C379.913 114.19 379.648 113.83 379.288 113.55C378.938 113.26 378.498 113.115 377.968 113.115ZM383.902 120V112.05H385.327V113.205H385.417C385.487 113.085 385.602 112.92 385.762 112.71C385.932 112.5 386.172 112.315 386.482 112.155C386.792 111.985 387.182 111.9 387.652 111.9C388.232 111.9 388.727 112.035 389.137 112.305C389.547 112.565 389.857 112.92 390.067 113.37C390.287 113.82 390.397 114.325 390.397 114.885V120H388.972V114.975C388.972 114.445 388.822 114.005 388.522 113.655C388.232 113.305 387.807 113.13 387.247 113.13C386.797 113.13 386.432 113.245 386.152 113.475C385.872 113.695 385.662 113.99 385.522 114.36C385.392 114.72 385.327 115.105 385.327 115.515V120H383.902ZM393.43 110.535C393.16 110.535 392.935 110.445 392.755 110.265C392.585 110.085 392.5 109.87 392.5 109.62C392.5 109.36 392.585 109.14 392.755 108.96C392.935 108.78 393.16 108.69 393.43 108.69C393.69 108.69 393.91 108.78 394.09 108.96C394.27 109.14 394.36 109.36 394.36 109.62C394.36 109.87 394.27 110.085 394.09 110.265C393.91 110.445 393.69 110.535 393.43 110.535ZM392.725 120V112.05H394.15V120H392.725ZM399.365 120.15C398.755 120.15 398.25 120.065 397.85 119.895C397.46 119.725 397.15 119.515 396.92 119.265C396.69 119.005 396.52 118.75 396.41 118.5C396.3 118.24 396.23 118.025 396.2 117.855C396.17 117.685 396.155 117.6 396.155 117.6H397.595C397.595 117.6 397.61 117.67 397.64 117.81C397.68 117.94 397.755 118.095 397.865 118.275C397.985 118.445 398.165 118.6 398.405 118.74C398.655 118.87 398.985 118.935 399.395 118.935C399.865 118.935 400.23 118.825 400.49 118.605C400.75 118.375 400.88 118.095 400.88 117.765C400.88 117.475 400.775 117.245 400.565 117.075C400.365 116.905 400.075 116.775 399.695 116.685L398.615 116.43C398.215 116.33 397.84 116.195 397.49 116.025C397.14 115.855 396.855 115.625 396.635 115.335C396.425 115.035 396.32 114.665 396.32 114.225C396.32 113.545 396.575 112.99 397.085 112.56C397.595 112.12 398.26 111.9 399.08 111.9C399.63 111.9 400.085 111.98 400.445 112.14C400.805 112.29 401.09 112.48 401.3 112.71C401.52 112.94 401.68 113.17 401.78 113.4C401.89 113.63 401.96 113.825 401.99 113.985C402.02 114.135 402.035 114.21 402.035 114.21H400.655C400.655 114.21 400.64 114.155 400.61 114.045C400.58 113.925 400.51 113.795 400.4 113.655C400.3 113.505 400.145 113.375 399.935 113.265C399.725 113.145 399.445 113.085 399.095 113.085C398.615 113.085 398.265 113.195 398.045 113.415C397.825 113.635 397.715 113.875 397.715 114.135C397.715 114.385 397.815 114.59 398.015 114.75C398.225 114.9 398.495 115.015 398.825 115.095L399.92 115.35C400.6 115.51 401.16 115.775 401.6 116.145C402.05 116.505 402.275 117.025 402.275 117.705C402.275 118.145 402.16 118.555 401.93 118.935C401.7 119.305 401.37 119.6 400.94 119.82C400.51 120.04 399.985 120.15 399.365 120.15ZM404.072 120V112.05H405.497V113.205H405.557C405.637 113.055 405.762 112.88 405.932 112.68C406.102 112.47 406.332 112.29 406.622 112.14C406.922 111.98 407.297 111.9 407.747 111.9C408.337 111.9 408.832 112.045 409.232 112.335C409.642 112.615 409.947 112.995 410.147 113.475H410.162C410.382 113.035 410.692 112.665 411.092 112.365C411.502 112.055 412.032 111.9 412.682 111.9C413.542 111.9 414.202 112.195 414.662 112.785C415.132 113.365 415.367 114.115 415.367 115.035V120H413.942V115.11C413.942 114.52 413.802 114.045 413.522 113.685C413.242 113.315 412.837 113.13 412.307 113.13C411.847 113.13 411.477 113.255 411.197 113.505C410.927 113.755 410.732 114.065 410.612 114.435C410.492 114.805 410.432 115.175 410.432 115.545V120H409.007V115.11C409.007 114.52 408.867 114.045 408.587 113.685C408.317 113.315 407.912 113.13 407.372 113.13C406.912 113.13 406.542 113.255 406.262 113.505C405.992 113.755 405.797 114.07 405.677 114.45C405.557 114.82 405.497 115.185 405.497 115.545V120H404.072ZM350.65 145.15C349.8 145.15 349.085 144.955 348.505 144.565C347.925 144.165 347.485 143.65 347.185 143.02C346.885 142.39 346.735 141.725 346.735 141.025C346.735 140.315 346.885 139.65 347.185 139.03C347.485 138.4 347.925 137.89 348.505 137.5C349.085 137.1 349.8 136.9 350.65 136.9C351.5 136.9 352.215 137.1 352.795 137.5C353.375 137.89 353.815 138.4 354.115 139.03C354.415 139.65 354.565 140.315 354.565 141.025C354.565 141.725 354.415 142.39 354.115 143.02C353.815 143.65 353.375 144.165 352.795 144.565C352.215 144.955 351.5 145.15 350.65 145.15ZM350.65 143.905C351.19 143.905 351.64 143.77 352 143.5C352.37 143.22 352.645 142.86 352.825 142.42C353.015 141.98 353.11 141.515 353.11 141.025C353.11 140.525 353.015 140.06 352.825 139.63C352.645 139.19 352.37 138.835 352 138.565C351.64 138.285 351.19 138.145 350.65 138.145C350.12 138.145 349.67 138.285 349.3 138.565C348.93 138.835 348.65 139.19 348.46 139.63C348.28 140.06 348.19 140.525 348.19 141.025C348.19 141.515 348.28 141.98 348.46 142.42C348.65 142.86 348.93 143.22 349.3 143.5C349.67 143.77 350.12 143.905 350.65 143.905ZM359.104 145.15C358.314 145.15 357.684 144.905 357.214 144.415C356.744 143.925 356.509 143.245 356.509 142.375V137.05H357.934V142.3C357.934 142.82 358.074 143.22 358.354 143.5C358.644 143.78 359.024 143.92 359.494 143.92C359.974 143.92 360.359 143.795 360.649 143.545C360.939 143.295 361.149 142.975 361.279 142.585C361.409 142.195 361.474 141.795 361.474 141.385V137.05H362.899V145H361.474V143.86H361.384C361.324 143.98 361.209 144.145 361.039 144.355C360.869 144.555 360.629 144.74 360.319 144.91C360.009 145.07 359.604 145.15 359.104 145.15ZM368.38 145.15C367.56 145.15 366.94 144.94 366.52 144.52C366.11 144.1 365.905 143.51 365.905 142.75V138.22H364.48V137.05H365.905V135.055H367.33V137.05H369.265V138.22H367.33V142.75C367.33 143.15 367.44 143.445 367.66 143.635C367.88 143.815 368.2 143.905 368.62 143.905C368.84 143.905 369.05 143.89 369.25 143.86C369.45 143.83 369.55 143.815 369.55 143.815V145.03C369.55 145.03 369.435 145.05 369.205 145.09C368.975 145.13 368.7 145.15 368.38 145.15ZM374.331 145.15C373.721 145.15 373.216 145.065 372.816 144.895C372.426 144.725 372.116 144.515 371.886 144.265C371.656 144.005 371.486 143.75 371.376 143.5C371.266 143.24 371.196 143.025 371.166 142.855C371.136 142.685 371.121 142.6 371.121 142.6H372.561C372.561 142.6 372.576 142.67 372.606 142.81C372.646 142.94 372.721 143.095 372.831 143.275C372.951 143.445 373.131 143.6 373.371 143.74C373.621 143.87 373.951 143.935 374.361 143.935C374.831 143.935 375.196 143.825 375.456 143.605C375.716 143.375 375.846 143.095 375.846 142.765C375.846 142.475 375.741 142.245 375.531 142.075C375.331 141.905 375.041 141.775 374.661 141.685L373.581 141.43C373.181 141.33 372.806 141.195 372.456 141.025C372.106 140.855 371.821 140.625 371.601 140.335C371.391 140.035 371.286 139.665 371.286 139.225C371.286 138.545 371.541 137.99 372.051 137.56C372.561 137.12 373.226 136.9 374.046 136.9C374.596 136.9 375.051 136.98 375.411 137.14C375.771 137.29 376.056 137.48 376.266 137.71C376.486 137.94 376.646 138.17 376.746 138.4C376.856 138.63 376.926 138.825 376.956 138.985C376.986 139.135 377.001 139.21 377.001 139.21H375.621C375.621 139.21 375.606 139.155 375.576 139.045C375.546 138.925 375.476 138.795 375.366 138.655C375.266 138.505 375.111 138.375 374.901 138.265C374.691 138.145 374.411 138.085 374.061 138.085C373.581 138.085 373.231 138.195 373.011 138.415C372.791 138.635 372.681 138.875 372.681 139.135C372.681 139.385 372.781 139.59 372.981 139.75C373.191 139.9 373.461 140.015 373.791 140.095L374.886 140.35C375.566 140.51 376.126 140.775 376.566 141.145C377.016 141.505 377.241 142.025 377.241 142.705C377.241 143.145 377.126 143.555 376.896 143.935C376.666 144.305 376.336 144.6 375.906 144.82C375.476 145.04 374.951 145.15 374.331 145.15ZM379.968 135.535C379.698 135.535 379.473 135.445 379.293 135.265C379.123 135.085 379.038 134.87 379.038 134.62C379.038 134.36 379.123 134.14 379.293 133.96C379.473 133.78 379.698 133.69 379.968 133.69C380.228 133.69 380.448 133.78 380.628 133.96C380.808 134.14 380.898 134.36 380.898 134.62C380.898 134.87 380.808 135.085 380.628 135.265C380.448 135.445 380.228 135.535 379.968 135.535ZM379.263 145V137.05H380.688V145H379.263ZM386.443 145.15C385.843 145.15 385.318 145.035 384.868 144.805C384.418 144.565 384.043 144.25 383.743 143.86C383.443 143.46 383.218 143.015 383.068 142.525C382.918 142.035 382.843 141.535 382.843 141.025C382.843 140.515 382.918 140.015 383.068 139.525C383.218 139.035 383.443 138.595 383.743 138.205C384.043 137.805 384.418 137.49 384.868 137.26C385.318 137.02 385.843 136.9 386.443 136.9C386.943 136.9 387.363 136.98 387.703 137.14C388.043 137.3 388.318 137.49 388.528 137.71C388.738 137.92 388.898 138.12 389.008 138.31H389.098V133.6H390.523V145H389.098V143.74H389.008C388.898 143.93 388.738 144.135 388.528 144.355C388.318 144.575 388.043 144.765 387.703 144.925C387.363 145.075 386.943 145.15 386.443 145.15ZM386.683 143.935C387.213 143.935 387.653 143.795 388.003 143.515C388.363 143.225 388.628 142.86 388.798 142.42C388.978 141.97 389.068 141.505 389.068 141.025C389.068 140.535 388.978 140.07 388.798 139.63C388.628 139.19 388.363 138.83 388.003 138.55C387.653 138.26 387.213 138.115 386.683 138.115C386.153 138.115 385.708 138.26 385.348 138.55C384.988 138.83 384.718 139.19 384.538 139.63C384.368 140.07 384.283 140.535 384.283 141.025C384.283 141.505 384.368 141.97 384.538 142.42C384.718 142.86 384.988 143.225 385.348 143.515C385.708 143.795 386.153 143.935 386.683 143.935ZM396.394 145.15C395.744 145.15 395.179 145.035 394.699 144.805C394.229 144.565 393.839 144.245 393.529 143.845C393.229 143.445 393.004 143.005 392.854 142.525C392.704 142.035 392.629 141.535 392.629 141.025C392.629 140.525 392.699 140.03 392.839 139.54C392.989 139.05 393.214 138.605 393.514 138.205C393.824 137.805 394.209 137.49 394.669 137.26C395.139 137.02 395.694 136.9 396.334 136.9C397.014 136.9 397.614 137.055 398.134 137.365C398.654 137.675 399.064 138.135 399.364 138.745C399.664 139.355 399.814 140.12 399.814 141.04V141.46H394.069C394.099 141.91 394.204 142.325 394.384 142.705C394.574 143.075 394.839 143.375 395.179 143.605C395.519 143.825 395.924 143.935 396.394 143.935C396.804 143.935 397.134 143.87 397.384 143.74C397.644 143.6 397.849 143.44 397.999 143.26C398.149 143.08 398.249 142.925 398.299 142.795C398.359 142.655 398.389 142.585 398.389 142.585H399.724C399.724 142.585 399.699 142.675 399.649 142.855C399.599 143.025 399.509 143.235 399.379 143.485C399.249 143.735 399.059 143.99 398.809 144.25C398.559 144.5 398.239 144.715 397.849 144.895C397.459 145.065 396.974 145.15 396.394 145.15ZM394.084 140.35H398.419C398.399 139.83 398.289 139.41 398.089 139.09C397.889 138.76 397.634 138.515 397.324 138.355C397.014 138.195 396.684 138.115 396.334 138.115C395.704 138.115 395.189 138.32 394.789 138.73C394.389 139.13 394.154 139.67 394.084 140.35Z" fill="black"/>
</svg>
