<svg width="535" height="218" viewBox="0 0 535 218" fill="none" xmlns="http://www.w3.org/2000/svg">
<path d="M105.675 18L109.59 6.9H111.435L115.365 18H113.805L112.875 15.345H108.165L107.235 18H105.675ZM108.615 14.025H112.425L110.52 8.58L108.615 14.025ZM118.706 18L115.676 10.05H117.161L119.486 16.26L121.766 10.05H123.266L120.221 18H118.706ZM128.376 21.15C127.716 21.15 127.166 21.06 126.726 20.88C126.286 20.71 125.931 20.49 125.661 20.22C125.401 19.96 125.206 19.7 125.076 19.44C124.946 19.18 124.861 18.96 124.821 18.78C124.781 18.61 124.761 18.525 124.761 18.525H126.186C126.186 18.525 126.211 18.595 126.261 18.735C126.311 18.875 126.406 19.035 126.546 19.215C126.696 19.395 126.916 19.555 127.206 19.695C127.496 19.835 127.886 19.905 128.376 19.905C128.956 19.905 129.411 19.79 129.741 19.56C130.071 19.34 130.306 19.05 130.446 18.69C130.596 18.33 130.671 17.95 130.671 17.55V16.635H130.596C130.496 16.805 130.336 17 130.116 17.22C129.906 17.43 129.626 17.615 129.276 17.775C128.926 17.925 128.496 18 127.986 18C127.386 18 126.861 17.885 126.411 17.655C125.961 17.425 125.586 17.115 125.286 16.725C124.996 16.335 124.776 15.9 124.626 15.42C124.476 14.94 124.401 14.45 124.401 13.95C124.401 13.45 124.476 12.96 124.626 12.48C124.776 12 124.996 11.565 125.286 11.175C125.586 10.785 125.961 10.475 126.411 10.245C126.861 10.015 127.386 9.9 127.986 9.9C128.496 9.9 128.926 9.98 129.276 10.14C129.626 10.29 129.906 10.47 130.116 10.68C130.336 10.89 130.496 11.085 130.596 11.265H130.671V10.05H132.096V17.535C132.096 18.645 131.771 19.525 131.121 20.175C130.481 20.825 129.566 21.15 128.376 21.15ZM128.256 16.785C128.786 16.785 129.226 16.65 129.576 16.38C129.936 16.1 130.201 15.745 130.371 15.315C130.551 14.885 130.641 14.43 130.641 13.95C130.641 13.47 130.551 13.015 130.371 12.585C130.201 12.145 129.936 11.79 129.576 11.52C129.226 11.25 128.786 11.115 128.256 11.115C127.726 11.115 127.281 11.25 126.921 11.52C126.561 11.79 126.291 12.145 126.111 12.585C125.941 13.015 125.856 13.47 125.856 13.95C125.856 14.43 125.941 14.885 126.111 15.315C126.291 15.745 126.561 16.1 126.921 16.38C127.281 16.65 127.726 16.785 128.256 16.785ZM135.285 18.15C135.005 18.15 134.77 18.055 134.58 17.865C134.4 17.665 134.31 17.435 134.31 17.175C134.31 16.905 134.4 16.675 134.58 16.485C134.77 16.295 135.005 16.2 135.285 16.2C135.565 16.2 135.795 16.295 135.975 16.485C136.165 16.675 136.26 16.905 136.26 17.175C136.26 17.445 136.165 17.675 135.975 17.865C135.795 18.055 135.565 18.15 135.285 18.15ZM145.809 18.15C145.169 18.15 144.619 18.07 144.159 17.91C143.709 17.74 143.334 17.525 143.034 17.265C142.734 16.995 142.494 16.715 142.314 16.425C142.134 16.135 141.999 15.86 141.909 15.6C141.819 15.33 141.759 15.115 141.729 14.955C141.709 14.785 141.699 14.7 141.699 14.7H143.199C143.199 14.7 143.214 14.77 143.244 14.91C143.274 15.05 143.334 15.225 143.424 15.435C143.524 15.645 143.669 15.86 143.859 16.08C144.049 16.29 144.304 16.465 144.624 16.605C144.944 16.745 145.349 16.815 145.839 16.815C146.579 16.815 147.164 16.64 147.594 16.29C148.024 15.93 148.239 15.465 148.239 14.895C148.239 14.405 148.074 14.025 147.744 13.755C147.424 13.485 146.964 13.275 146.364 13.125L144.894 12.765C144.374 12.635 143.889 12.455 143.439 12.225C142.999 11.985 142.644 11.675 142.374 11.295C142.114 10.905 141.984 10.42 141.984 9.84C141.984 9.19 142.144 8.635 142.464 8.175C142.784 7.715 143.219 7.365 143.769 7.125C144.319 6.875 144.944 6.75 145.644 6.75C146.324 6.75 146.889 6.855 147.339 7.065C147.789 7.275 148.149 7.535 148.419 7.845C148.689 8.145 148.889 8.45 149.019 8.76C149.149 9.06 149.234 9.315 149.274 9.525C149.314 9.735 149.334 9.84 149.334 9.84H147.894C147.894 9.84 147.874 9.75 147.834 9.57C147.794 9.39 147.699 9.185 147.549 8.955C147.399 8.715 147.169 8.505 146.859 8.325C146.549 8.145 146.129 8.055 145.599 8.055C144.879 8.055 144.334 8.225 143.964 8.565C143.604 8.905 143.424 9.295 143.424 9.735C143.424 10.135 143.569 10.46 143.859 10.71C144.149 10.95 144.549 11.135 145.059 11.265L146.649 11.655C147.219 11.795 147.734 12 148.194 12.27C148.654 12.53 149.019 12.87 149.289 13.29C149.559 13.7 149.694 14.205 149.694 14.805C149.694 15.405 149.544 15.96 149.244 16.47C148.954 16.98 148.519 17.39 147.939 17.7C147.369 18 146.659 18.15 145.809 18.15ZM154.055 18.15C153.265 18.15 152.635 17.905 152.165 17.415C151.695 16.925 151.46 16.245 151.46 15.375V10.05H152.885V15.3C152.885 15.82 153.025 16.22 153.305 16.5C153.595 16.78 153.975 16.92 154.445 16.92C154.925 16.92 155.31 16.795 155.6 16.545C155.89 16.295 156.1 15.975 156.23 15.585C156.36 15.195 156.425 14.795 156.425 14.385V10.05H157.85V18H156.425V16.86H156.335C156.275 16.98 156.16 17.145 155.99 17.355C155.82 17.555 155.58 17.74 155.27 17.91C154.96 18.07 154.555 18.15 154.055 18.15ZM163.721 18.15C163.071 18.15 162.501 18.035 162.011 17.805C161.521 17.565 161.111 17.25 160.781 16.86C160.461 16.46 160.216 16.015 160.046 15.525C159.886 15.035 159.806 14.535 159.806 14.025C159.806 13.515 159.886 13.02 160.046 12.54C160.206 12.05 160.446 11.605 160.766 11.205C161.096 10.805 161.506 10.49 161.996 10.26C162.486 10.02 163.061 9.9 163.721 9.9C164.361 9.9 164.891 9.995 165.311 10.185C165.731 10.375 166.066 10.615 166.316 10.905C166.576 11.185 166.766 11.47 166.886 11.76C167.016 12.04 167.101 12.275 167.141 12.465C167.181 12.655 167.201 12.75 167.201 12.75H165.821C165.821 12.75 165.796 12.67 165.746 12.51C165.696 12.34 165.601 12.15 165.461 11.94C165.321 11.73 165.111 11.545 164.831 11.385C164.551 11.215 164.181 11.13 163.721 11.13C163.171 11.13 162.706 11.27 162.326 11.55C161.956 11.82 161.676 12.175 161.486 12.615C161.306 13.055 161.216 13.525 161.216 14.025C161.216 14.525 161.306 14.995 161.486 15.435C161.676 15.875 161.956 16.235 162.326 16.515C162.706 16.785 163.171 16.92 163.721 16.92C164.181 16.92 164.551 16.84 164.831 16.68C165.111 16.51 165.321 16.32 165.461 16.11C165.601 15.9 165.696 15.715 165.746 15.555C165.796 15.385 165.821 15.3 165.821 15.3H167.201C167.201 15.3 167.181 15.395 167.141 15.585C167.101 15.775 167.016 16.015 166.886 16.305C166.766 16.585 166.576 16.87 166.316 17.16C166.066 17.44 165.731 17.675 165.311 17.865C164.891 18.055 164.361 18.15 163.721 18.15ZM172.92 18.15C172.27 18.15 171.7 18.035 171.21 17.805C170.72 17.565 170.31 17.25 169.98 16.86C169.66 16.46 169.415 16.015 169.245 15.525C169.085 15.035 169.005 14.535 169.005 14.025C169.005 13.515 169.085 13.02 169.245 12.54C169.405 12.05 169.645 11.605 169.965 11.205C170.295 10.805 170.705 10.49 171.195 10.26C171.685 10.02 172.26 9.9 172.92 9.9C173.56 9.9 174.09 9.995 174.51 10.185C174.93 10.375 175.265 10.615 175.515 10.905C175.775 11.185 175.965 11.47 176.085 11.76C176.215 12.04 176.3 12.275 176.34 12.465C176.38 12.655 176.4 12.75 176.4 12.75H175.02C175.02 12.75 174.995 12.67 174.945 12.51C174.895 12.34 174.8 12.15 174.66 11.94C174.52 11.73 174.31 11.545 174.03 11.385C173.75 11.215 173.38 11.13 172.92 11.13C172.37 11.13 171.905 11.27 171.525 11.55C171.155 11.82 170.875 12.175 170.685 12.615C170.505 13.055 170.415 13.525 170.415 14.025C170.415 14.525 170.505 14.995 170.685 15.435C170.875 15.875 171.155 16.235 171.525 16.515C171.905 16.785 172.37 16.92 172.92 16.92C173.38 16.92 173.75 16.84 174.03 16.68C174.31 16.51 174.52 16.32 174.66 16.11C174.8 15.9 174.895 15.715 174.945 15.555C174.995 15.385 175.02 15.3 175.02 15.3H176.4C176.4 15.3 176.38 15.395 176.34 15.585C176.3 15.775 176.215 16.015 176.085 16.305C175.965 16.585 175.775 16.87 175.515 17.16C175.265 17.44 174.93 17.675 174.51 17.865C174.09 18.055 173.56 18.15 172.92 18.15ZM181.97 18.15C181.32 18.15 180.755 18.035 180.275 17.805C179.805 17.565 179.415 17.245 179.105 16.845C178.805 16.445 178.58 16.005 178.43 15.525C178.28 15.035 178.205 14.535 178.205 14.025C178.205 13.525 178.275 13.03 178.415 12.54C178.565 12.05 178.79 11.605 179.09 11.205C179.4 10.805 179.785 10.49 180.245 10.26C180.715 10.02 181.27 9.9 181.91 9.9C182.59 9.9 183.19 10.055 183.71 10.365C184.23 10.675 184.64 11.135 184.94 11.745C185.24 12.355 185.39 13.12 185.39 14.04V14.46H179.645C179.675 14.91 179.78 15.325 179.96 15.705C180.15 16.075 180.415 16.375 180.755 16.605C181.095 16.825 181.5 16.935 181.97 16.935C182.38 16.935 182.71 16.87 182.96 16.74C183.22 16.6 183.425 16.44 183.575 16.26C183.725 16.08 183.825 15.925 183.875 15.795C183.935 15.655 183.965 15.585 183.965 15.585H185.3C185.3 15.585 185.275 15.675 185.225 15.855C185.175 16.025 185.085 16.235 184.955 16.485C184.825 16.735 184.635 16.99 184.385 17.25C184.135 17.5 183.815 17.715 183.425 17.895C183.035 18.065 182.55 18.15 181.97 18.15ZM179.66 13.35H183.995C183.975 12.83 183.865 12.41 183.665 12.09C183.465 11.76 183.21 11.515 182.9 11.355C182.59 11.195 182.26 11.115 181.91 11.115C181.28 11.115 180.765 11.32 180.365 11.73C179.965 12.13 179.73 12.67 179.66 13.35ZM190.244 18.15C189.634 18.15 189.129 18.065 188.729 17.895C188.339 17.725 188.029 17.515 187.799 17.265C187.569 17.005 187.399 16.75 187.289 16.5C187.179 16.24 187.109 16.025 187.079 15.855C187.049 15.685 187.034 15.6 187.034 15.6H188.474C188.474 15.6 188.489 15.67 188.519 15.81C188.559 15.94 188.634 16.095 188.744 16.275C188.864 16.445 189.044 16.6 189.284 16.74C189.534 16.87 189.864 16.935 190.274 16.935C190.744 16.935 191.109 16.825 191.369 16.605C191.629 16.375 191.759 16.095 191.759 15.765C191.759 15.475 191.654 15.245 191.444 15.075C191.244 14.905 190.954 14.775 190.574 14.685L189.494 14.43C189.094 14.33 188.719 14.195 188.369 14.025C188.019 13.855 187.734 13.625 187.514 13.335C187.304 13.035 187.199 12.665 187.199 12.225C187.199 11.545 187.454 10.99 187.964 10.56C188.474 10.12 189.139 9.9 189.959 9.9C190.509 9.9 190.964 9.98 191.324 10.14C191.684 10.29 191.969 10.48 192.179 10.71C192.399 10.94 192.559 11.17 192.659 11.4C192.769 11.63 192.839 11.825 192.869 11.985C192.899 12.135 192.914 12.21 192.914 12.21H191.534C191.534 12.21 191.519 12.155 191.489 12.045C191.459 11.925 191.389 11.795 191.279 11.655C191.179 11.505 191.024 11.375 190.814 11.265C190.604 11.145 190.324 11.085 189.974 11.085C189.494 11.085 189.144 11.195 188.924 11.415C188.704 11.635 188.594 11.875 188.594 12.135C188.594 12.385 188.694 12.59 188.894 12.75C189.104 12.9 189.374 13.015 189.704 13.095L190.799 13.35C191.479 13.51 192.039 13.775 192.479 14.145C192.929 14.505 193.154 15.025 193.154 15.705C193.154 16.145 193.039 16.555 192.809 16.935C192.579 17.305 192.249 17.6 191.819 17.82C191.389 18.04 190.864 18.15 190.244 18.15ZM197.861 18.15C197.251 18.15 196.746 18.065 196.346 17.895C195.956 17.725 195.646 17.515 195.416 17.265C195.186 17.005 195.016 16.75 194.906 16.5C194.796 16.24 194.726 16.025 194.696 15.855C194.666 15.685 194.651 15.6 194.651 15.6H196.091C196.091 15.6 196.106 15.67 196.136 15.81C196.176 15.94 196.251 16.095 196.361 16.275C196.481 16.445 196.661 16.6 196.901 16.74C197.151 16.87 197.481 16.935 197.891 16.935C198.361 16.935 198.726 16.825 198.986 16.605C199.246 16.375 199.376 16.095 199.376 15.765C199.376 15.475 199.271 15.245 199.061 15.075C198.861 14.905 198.571 14.775 198.191 14.685L197.111 14.43C196.711 14.33 196.336 14.195 195.986 14.025C195.636 13.855 195.351 13.625 195.131 13.335C194.921 13.035 194.816 12.665 194.816 12.225C194.816 11.545 195.071 10.99 195.581 10.56C196.091 10.12 196.756 9.9 197.576 9.9C198.126 9.9 198.581 9.98 198.941 10.14C199.301 10.29 199.586 10.48 199.796 10.71C200.016 10.94 200.176 11.17 200.276 11.4C200.386 11.63 200.456 11.825 200.486 11.985C200.516 12.135 200.531 12.21 200.531 12.21H199.151C199.151 12.21 199.136 12.155 199.106 12.045C199.076 11.925 199.006 11.795 198.896 11.655C198.796 11.505 198.641 11.375 198.431 11.265C198.221 11.145 197.941 11.085 197.591 11.085C197.111 11.085 196.761 11.195 196.541 11.415C196.321 11.635 196.211 11.875 196.211 12.135C196.211 12.385 196.311 12.59 196.511 12.75C196.721 12.9 196.991 13.015 197.321 13.095L198.416 13.35C199.096 13.51 199.656 13.775 200.096 14.145C200.546 14.505 200.771 15.025 200.771 15.705C200.771 16.145 200.656 16.555 200.426 16.935C200.196 17.305 199.866 17.6 199.436 17.82C199.006 18.04 198.481 18.15 197.861 18.15ZM203.499 18V11.22H202.194V10.05H203.499V9.075C203.499 8.655 203.574 8.245 203.724 7.845C203.874 7.435 204.124 7.1 204.474 6.84C204.824 6.58 205.299 6.45 205.899 6.45C206.189 6.45 206.419 6.475 206.589 6.525C206.769 6.565 206.859 6.585 206.859 6.585V7.71C206.859 7.71 206.779 7.695 206.619 7.665C206.469 7.625 206.294 7.605 206.094 7.605C205.634 7.605 205.324 7.745 205.164 8.025C205.004 8.305 204.924 8.655 204.924 9.075V10.05H206.769V11.22H204.924V18H203.499ZM210.95 18.15C210.16 18.15 209.53 17.905 209.06 17.415C208.59 16.925 208.355 16.245 208.355 15.375V10.05H209.78V15.3C209.78 15.82 209.92 16.22 210.2 16.5C210.49 16.78 210.87 16.92 211.34 16.92C211.82 16.92 212.205 16.795 212.495 16.545C212.785 16.295 212.995 15.975 213.125 15.585C213.255 15.195 213.32 14.795 213.32 14.385V10.05H214.745V18H213.32V16.86H213.23C213.17 16.98 213.055 17.145 212.885 17.355C212.715 17.555 212.475 17.74 212.165 17.91C211.855 18.07 211.45 18.15 210.95 18.15ZM217.001 18L217.016 6.6H218.426V18H217.001ZM109.815 43.15C109.165 43.15 108.595 43.035 108.105 42.805C107.615 42.565 107.205 42.25 106.875 41.86C106.555 41.46 106.31 41.015 106.14 40.525C105.98 40.035 105.9 39.535 105.9 39.025C105.9 38.515 105.98 38.02 106.14 37.54C106.3 37.05 106.54 36.605 106.86 36.205C107.19 35.805 107.6 35.49 108.09 35.26C108.58 35.02 109.155 34.9 109.815 34.9C110.455 34.9 110.985 34.995 111.405 35.185C111.825 35.375 112.16 35.615 112.41 35.905C112.67 36.185 112.86 36.47 112.98 36.76C113.11 37.04 113.195 37.275 113.235 37.465C113.275 37.655 113.295 37.75 113.295 37.75H111.915C111.915 37.75 111.89 37.67 111.84 37.51C111.79 37.34 111.695 37.15 111.555 36.94C111.415 36.73 111.205 36.545 110.925 36.385C110.645 36.215 110.275 36.13 109.815 36.13C109.265 36.13 108.8 36.27 108.42 36.55C108.05 36.82 107.77 37.175 107.58 37.615C107.4 38.055 107.31 38.525 107.31 39.025C107.31 39.525 107.4 39.995 107.58 40.435C107.77 40.875 108.05 41.235 108.42 41.515C108.8 41.785 109.265 41.92 109.815 41.92C110.275 41.92 110.645 41.84 110.925 41.68C111.205 41.51 111.415 41.32 111.555 41.11C111.695 40.9 111.79 40.715 111.84 40.555C111.89 40.385 111.915 40.3 111.915 40.3H113.295C113.295 40.3 113.275 40.395 113.235 40.585C113.195 40.775 113.11 41.015 112.98 41.305C112.86 41.585 112.67 41.87 112.41 42.16C112.16 42.44 111.825 42.675 111.405 42.865C110.985 43.055 110.455 43.15 109.815 43.15ZM118.699 34.9C119.199 34.9 119.619 34.98 119.959 35.14C120.299 35.3 120.574 35.49 120.784 35.71C120.994 35.92 121.154 36.12 121.264 36.31H121.354V35.05H122.779V43H121.354V41.74H121.264C121.154 41.93 120.994 42.135 120.784 42.355C120.574 42.575 120.299 42.765 119.959 42.925C119.619 43.075 119.199 43.15 118.699 43.15C118.099 43.15 117.574 43.035 117.124 42.805C116.674 42.565 116.299 42.25 115.999 41.86C115.699 41.46 115.474 41.015 115.324 40.525C115.174 40.035 115.099 39.535 115.099 39.025C115.099 38.515 115.174 38.015 115.324 37.525C115.474 37.035 115.699 36.595 115.999 36.205C116.299 35.805 116.674 35.49 117.124 35.26C117.574 35.02 118.099 34.9 118.699 34.9ZM118.939 36.115C118.409 36.115 117.964 36.26 117.604 36.55C117.244 36.83 116.974 37.19 116.794 37.63C116.624 38.07 116.539 38.535 116.539 39.025C116.539 39.505 116.624 39.97 116.794 40.42C116.974 40.86 117.244 41.225 117.604 41.515C117.964 41.795 118.409 41.935 118.939 41.935C119.469 41.935 119.909 41.795 120.259 41.515C120.619 41.225 120.884 40.86 121.054 40.42C121.234 39.97 121.324 39.505 121.324 39.025C121.324 38.535 121.234 38.07 121.054 37.63C120.884 37.19 120.619 36.83 120.259 36.55C119.909 36.26 119.469 36.115 118.939 36.115ZM127.955 43.15C127.135 43.15 126.515 42.94 126.095 42.52C125.685 42.1 125.48 41.51 125.48 40.75V36.22H124.055V35.05H125.48V33.055H126.905V35.05H128.84V36.22H126.905V40.75C126.905 41.15 127.015 41.445 127.235 41.635C127.455 41.815 127.775 41.905 128.195 41.905C128.415 41.905 128.625 41.89 128.825 41.86C129.025 41.83 129.125 41.815 129.125 41.815V43.03C129.125 43.03 129.01 43.05 128.78 43.09C128.55 43.13 128.275 43.15 127.955 43.15ZM134.318 43.15C133.668 43.15 133.103 43.035 132.623 42.805C132.153 42.565 131.763 42.245 131.453 41.845C131.153 41.445 130.928 41.005 130.778 40.525C130.628 40.035 130.553 39.535 130.553 39.025C130.553 38.525 130.623 38.03 130.763 37.54C130.913 37.05 131.138 36.605 131.438 36.205C131.748 35.805 132.133 35.49 132.593 35.26C133.063 35.02 133.618 34.9 134.258 34.9C134.938 34.9 135.538 35.055 136.058 35.365C136.578 35.675 136.988 36.135 137.288 36.745C137.588 37.355 137.738 38.12 137.738 39.04V39.46H131.993C132.023 39.91 132.128 40.325 132.308 40.705C132.498 41.075 132.763 41.375 133.103 41.605C133.443 41.825 133.848 41.935 134.318 41.935C134.728 41.935 135.058 41.87 135.308 41.74C135.568 41.6 135.773 41.44 135.923 41.26C136.073 41.08 136.173 40.925 136.223 40.795C136.283 40.655 136.313 40.585 136.313 40.585H137.648C137.648 40.585 137.623 40.675 137.573 40.855C137.523 41.025 137.433 41.235 137.303 41.485C137.173 41.735 136.983 41.99 136.733 42.25C136.483 42.5 136.163 42.715 135.773 42.895C135.383 43.065 134.898 43.15 134.318 43.15ZM132.008 38.35H136.343C136.323 37.83 136.213 37.41 136.013 37.09C135.813 36.76 135.558 36.515 135.248 36.355C134.938 36.195 134.608 36.115 134.258 36.115C133.628 36.115 133.113 36.32 132.713 36.73C132.313 37.13 132.078 37.67 132.008 38.35ZM143.435 46.15C142.775 46.15 142.225 46.06 141.785 45.88C141.345 45.71 140.99 45.49 140.72 45.22C140.46 44.96 140.265 44.7 140.135 44.44C140.005 44.18 139.92 43.96 139.88 43.78C139.84 43.61 139.82 43.525 139.82 43.525H141.245C141.245 43.525 141.27 43.595 141.32 43.735C141.37 43.875 141.465 44.035 141.605 44.215C141.755 44.395 141.975 44.555 142.265 44.695C142.555 44.835 142.945 44.905 143.435 44.905C144.015 44.905 144.47 44.79 144.8 44.56C145.13 44.34 145.365 44.05 145.505 43.69C145.655 43.33 145.73 42.95 145.73 42.55V41.635H145.655C145.555 41.805 145.395 42 145.175 42.22C144.965 42.43 144.685 42.615 144.335 42.775C143.985 42.925 143.555 43 143.045 43C142.445 43 141.92 42.885 141.47 42.655C141.02 42.425 140.645 42.115 140.345 41.725C140.055 41.335 139.835 40.9 139.685 40.42C139.535 39.94 139.46 39.45 139.46 38.95C139.46 38.45 139.535 37.96 139.685 37.48C139.835 37 140.055 36.565 140.345 36.175C140.645 35.785 141.02 35.475 141.47 35.245C141.92 35.015 142.445 34.9 143.045 34.9C143.555 34.9 143.985 34.98 144.335 35.14C144.685 35.29 144.965 35.47 145.175 35.68C145.395 35.89 145.555 36.085 145.655 36.265H145.73V35.05H147.155V42.535C147.155 43.645 146.83 44.525 146.18 45.175C145.54 45.825 144.625 46.15 143.435 46.15ZM143.315 41.785C143.845 41.785 144.285 41.65 144.635 41.38C144.995 41.1 145.26 40.745 145.43 40.315C145.61 39.885 145.7 39.43 145.7 38.95C145.7 38.47 145.61 38.015 145.43 37.585C145.26 37.145 144.995 36.79 144.635 36.52C144.285 36.25 143.845 36.115 143.315 36.115C142.785 36.115 142.34 36.25 141.98 36.52C141.62 36.79 141.35 37.145 141.17 37.585C141 38.015 140.915 38.47 140.915 38.95C140.915 39.43 141 39.885 141.17 40.315C141.35 40.745 141.62 41.1 141.98 41.38C142.34 41.65 142.785 41.785 143.315 41.785ZM152.72 43.15C151.87 43.15 151.155 42.955 150.575 42.565C149.995 42.165 149.555 41.65 149.255 41.02C148.955 40.39 148.805 39.725 148.805 39.025C148.805 38.315 148.955 37.65 149.255 37.03C149.555 36.4 149.995 35.89 150.575 35.5C151.155 35.1 151.87 34.9 152.72 34.9C153.57 34.9 154.285 35.1 154.865 35.5C155.445 35.89 155.885 36.4 156.185 37.03C156.485 37.65 156.635 38.315 156.635 39.025C156.635 39.725 156.485 40.39 156.185 41.02C155.885 41.65 155.445 42.165 154.865 42.565C154.285 42.955 153.57 43.15 152.72 43.15ZM152.72 41.905C153.26 41.905 153.71 41.77 154.07 41.5C154.44 41.22 154.715 40.86 154.895 40.42C155.085 39.98 155.18 39.515 155.18 39.025C155.18 38.525 155.085 38.06 154.895 37.63C154.715 37.19 154.44 36.835 154.07 36.565C153.71 36.285 153.26 36.145 152.72 36.145C152.19 36.145 151.74 36.285 151.37 36.565C151 36.835 150.72 37.19 150.53 37.63C150.35 38.06 150.26 38.525 150.26 39.025C150.26 39.515 150.35 39.98 150.53 40.42C150.72 40.86 151 41.22 151.37 41.5C151.74 41.77 152.19 41.905 152.72 41.905ZM158.579 43V35.05H160.004V36.04H160.064C160.234 35.74 160.484 35.475 160.814 35.245C161.144 35.015 161.609 34.9 162.209 34.9C162.379 34.9 162.534 34.91 162.674 34.93C162.814 34.94 162.884 34.945 162.884 34.945V36.31C162.884 36.31 162.804 36.305 162.644 36.295C162.494 36.275 162.334 36.265 162.164 36.265C161.474 36.265 160.939 36.465 160.559 36.865C160.189 37.255 160.004 37.895 160.004 38.785V43H158.579ZM165.676 33.535C165.406 33.535 165.181 33.445 165.001 33.265C164.831 33.085 164.746 32.87 164.746 32.62C164.746 32.36 164.831 32.14 165.001 31.96C165.181 31.78 165.406 31.69 165.676 31.69C165.936 31.69 166.156 31.78 166.336 31.96C166.516 32.14 166.606 32.36 166.606 32.62C166.606 32.87 166.516 33.085 166.336 33.265C166.156 33.445 165.936 33.535 165.676 33.535ZM164.971 43V35.05H166.396V43H164.971ZM168.296 43V41.995L172.946 36.22H168.536V35.05H174.701V36.055L170.036 41.83H174.701V43H168.296ZM179.534 34.9C180.034 34.9 180.454 34.98 180.794 35.14C181.134 35.3 181.409 35.49 181.619 35.71C181.829 35.92 181.989 36.12 182.099 36.31H182.189V35.05H183.614V43H182.189V41.74H182.099C181.989 41.93 181.829 42.135 181.619 42.355C181.409 42.575 181.134 42.765 180.794 42.925C180.454 43.075 180.034 43.15 179.534 43.15C178.934 43.15 178.409 43.035 177.959 42.805C177.509 42.565 177.134 42.25 176.834 41.86C176.534 41.46 176.309 41.015 176.159 40.525C176.009 40.035 175.934 39.535 175.934 39.025C175.934 38.515 176.009 38.015 176.159 37.525C176.309 37.035 176.534 36.595 176.834 36.205C177.134 35.805 177.509 35.49 177.959 35.26C178.409 35.02 178.934 34.9 179.534 34.9ZM179.774 36.115C179.244 36.115 178.799 36.26 178.439 36.55C178.079 36.83 177.809 37.19 177.629 37.63C177.459 38.07 177.374 38.535 177.374 39.025C177.374 39.505 177.459 39.97 177.629 40.42C177.809 40.86 178.079 41.225 178.439 41.515C178.799 41.795 179.244 41.935 179.774 41.935C180.304 41.935 180.744 41.795 181.094 41.515C181.454 41.225 181.719 40.86 181.889 40.42C182.069 39.97 182.159 39.505 182.159 39.025C182.159 38.535 182.069 38.07 181.889 37.63C181.719 37.19 181.454 36.83 181.094 36.55C180.744 36.26 180.304 36.115 179.774 36.115ZM188.79 43.15C187.97 43.15 187.35 42.94 186.93 42.52C186.52 42.1 186.315 41.51 186.315 40.75V36.22H184.89V35.05H186.315V33.055H187.74V35.05H189.675V36.22H187.74V40.75C187.74 41.15 187.85 41.445 188.07 41.635C188.29 41.815 188.61 41.905 189.03 41.905C189.25 41.905 189.46 41.89 189.66 41.86C189.86 41.83 189.96 41.815 189.96 41.815V43.03C189.96 43.03 189.845 43.05 189.615 43.09C189.385 43.13 189.11 43.15 188.79 43.15ZM192.761 33.535C192.491 33.535 192.266 33.445 192.086 33.265C191.916 33.085 191.831 32.87 191.831 32.62C191.831 32.36 191.916 32.14 192.086 31.96C192.266 31.78 192.491 31.69 192.761 31.69C193.021 31.69 193.241 31.78 193.421 31.96C193.601 32.14 193.691 32.36 193.691 32.62C193.691 32.87 193.601 33.085 193.421 33.265C193.241 33.445 193.021 33.535 192.761 33.535ZM192.056 43V35.05H193.481V43H192.056ZM199.551 43.15C198.701 43.15 197.986 42.955 197.406 42.565C196.826 42.165 196.386 41.65 196.086 41.02C195.786 40.39 195.636 39.725 195.636 39.025C195.636 38.315 195.786 37.65 196.086 37.03C196.386 36.4 196.826 35.89 197.406 35.5C197.986 35.1 198.701 34.9 199.551 34.9C200.401 34.9 201.116 35.1 201.696 35.5C202.276 35.89 202.716 36.4 203.016 37.03C203.316 37.65 203.466 38.315 203.466 39.025C203.466 39.725 203.316 40.39 203.016 41.02C202.716 41.65 202.276 42.165 201.696 42.565C201.116 42.955 200.401 43.15 199.551 43.15ZM199.551 41.905C200.091 41.905 200.541 41.77 200.901 41.5C201.271 41.22 201.546 40.86 201.726 40.42C201.916 39.98 202.011 39.515 202.011 39.025C202.011 38.525 201.916 38.06 201.726 37.63C201.546 37.19 201.271 36.835 200.901 36.565C200.541 36.285 200.091 36.145 199.551 36.145C199.021 36.145 198.571 36.285 198.201 36.565C197.831 36.835 197.551 37.19 197.361 37.63C197.181 38.06 197.091 38.525 197.091 39.025C197.091 39.515 197.181 39.98 197.361 40.42C197.551 40.86 197.831 41.22 198.201 41.5C198.571 41.77 199.021 41.905 199.551 41.905ZM205.41 43V35.05H206.835V36.205H206.925C206.995 36.085 207.11 35.92 207.27 35.71C207.44 35.5 207.68 35.315 207.99 35.155C208.3 34.985 208.69 34.9 209.16 34.9C209.74 34.9 210.235 35.035 210.645 35.305C211.055 35.565 211.365 35.92 211.575 36.37C211.795 36.82 211.905 37.325 211.905 37.885V43H210.48V37.975C210.48 37.445 210.33 37.005 210.03 36.655C209.74 36.305 209.315 36.13 208.755 36.13C208.305 36.13 207.94 36.245 207.66 36.475C207.38 36.695 207.17 36.99 207.03 37.36C206.9 37.72 206.835 38.105 206.835 38.515V43H205.41ZM215.104 36.85C214.824 36.85 214.589 36.755 214.399 36.565C214.219 36.365 214.129 36.135 214.129 35.875C214.129 35.605 214.219 35.375 214.399 35.185C214.589 34.995 214.824 34.9 215.104 34.9C215.384 34.9 215.614 34.995 215.794 35.185C215.984 35.375 216.079 35.605 216.079 35.875C216.079 36.145 215.984 36.375 215.794 36.565C215.614 36.755 215.384 36.85 215.104 36.85ZM215.104 43.15C214.824 43.15 214.589 43.055 214.399 42.865C214.219 42.665 214.129 42.435 214.129 42.175C214.129 41.905 214.219 41.675 214.399 41.485C214.589 41.295 214.824 41.2 215.104 41.2C215.384 41.2 215.614 41.295 215.794 41.485C215.984 41.675 216.079 41.905 216.079 42.175C216.079 42.445 215.984 42.675 215.794 42.865C215.614 43.055 215.384 43.15 215.104 43.15ZM225.988 43.15C225.278 43.15 224.658 43.015 224.128 42.745C223.608 42.475 223.178 42.105 222.838 41.635C222.498 41.155 222.243 40.61 222.073 40C221.913 39.39 221.833 38.75 221.833 38.08C221.833 37.53 221.893 36.96 222.013 36.37C222.133 35.78 222.318 35.21 222.568 34.66C222.828 34.11 223.168 33.62 223.588 33.19C224.018 32.75 224.533 32.4 225.133 32.14C225.743 31.88 226.453 31.75 227.263 31.75C227.583 31.75 227.873 31.77 228.133 31.81C228.403 31.84 228.618 31.875 228.778 31.915C228.938 31.955 229.018 31.975 229.018 31.975V33.325C229.018 33.325 228.928 33.305 228.748 33.265C228.568 33.225 228.338 33.19 228.058 33.16C227.788 33.12 227.513 33.1 227.233 33.1C226.623 33.1 226.098 33.195 225.658 33.385C225.228 33.565 224.863 33.81 224.563 34.12C224.273 34.42 224.038 34.75 223.858 35.11C223.688 35.46 223.563 35.81 223.483 36.16C223.403 36.5 223.358 36.795 223.348 37.045C223.418 36.925 223.558 36.76 223.768 36.55C223.978 36.34 224.273 36.15 224.653 35.98C225.033 35.81 225.518 35.725 226.108 35.725C226.928 35.725 227.608 35.905 228.148 36.265C228.688 36.615 229.093 37.07 229.363 37.63C229.643 38.19 229.783 38.78 229.783 39.4C229.783 40.02 229.643 40.62 229.363 41.2C229.083 41.77 228.663 42.24 228.103 42.61C227.543 42.97 226.838 43.15 225.988 43.15ZM225.958 41.89C226.358 41.89 226.738 41.8 227.098 41.62C227.468 41.44 227.768 41.17 227.998 40.81C228.238 40.44 228.358 39.985 228.358 39.445C228.358 38.895 228.238 38.44 227.998 38.08C227.768 37.71 227.468 37.435 227.098 37.255C226.738 37.075 226.358 36.985 225.958 36.985C225.558 36.985 225.173 37.075 224.803 37.255C224.443 37.435 224.143 37.71 223.903 38.08C223.673 38.44 223.558 38.895 223.558 39.445C223.558 39.985 223.673 40.44 223.903 40.81C224.143 41.17 224.443 41.44 224.803 41.62C225.173 41.8 225.558 41.89 225.958 41.89ZM235.973 43.135C235.283 43.135 234.673 42.985 234.143 42.685C233.613 42.375 233.168 41.96 232.808 41.44C232.458 40.91 232.188 40.3 231.998 39.61C231.818 38.92 231.728 38.195 231.728 37.435C231.728 36.665 231.818 35.94 231.998 35.26C232.188 34.57 232.458 33.96 232.808 33.43C233.168 32.9 233.613 32.485 234.143 32.185C234.673 31.885 235.283 31.735 235.973 31.735C236.663 31.735 237.273 31.885 237.803 32.185C238.333 32.485 238.773 32.9 239.123 33.43C239.483 33.96 239.753 34.57 239.933 35.26C240.123 35.94 240.218 36.665 240.218 37.435C240.218 38.195 240.123 38.92 239.933 39.61C239.753 40.3 239.483 40.91 239.123 41.44C238.773 41.96 238.333 42.375 237.803 42.685C237.273 42.985 236.663 43.135 235.973 43.135ZM235.973 41.785C236.763 41.785 237.413 41.42 237.923 40.69C238.443 39.95 238.703 38.865 238.703 37.435C238.703 36.005 238.443 34.925 237.923 34.195C237.413 33.465 236.763 33.1 235.973 33.1C235.183 33.1 234.528 33.465 234.008 34.195C233.498 34.925 233.243 36.005 233.243 37.435C233.243 38.855 233.498 39.935 234.008 40.675C234.528 41.415 235.183 41.785 235.973 41.785ZM244.265 36.34C243.845 36.34 243.46 36.25 243.11 36.07C242.76 35.88 242.475 35.61 242.255 35.26C242.045 34.91 241.94 34.5 241.94 34.03C241.94 33.56 242.045 33.155 242.255 32.815C242.465 32.475 242.745 32.215 243.095 32.035C243.455 31.845 243.845 31.75 244.265 31.75C244.695 31.75 245.085 31.845 245.435 32.035C245.785 32.215 246.065 32.475 246.275 32.815C246.485 33.155 246.59 33.56 246.59 34.03C246.59 34.5 246.485 34.91 246.275 35.26C246.065 35.61 245.78 35.88 245.42 36.07C245.07 36.25 244.685 36.34 244.265 36.34ZM243.8 43L249.635 31.9H251.015L245.18 43H243.8ZM244.265 35.275C244.585 35.275 244.86 35.165 245.09 34.945C245.33 34.725 245.45 34.425 245.45 34.045C245.45 33.655 245.33 33.355 245.09 33.145C244.86 32.925 244.585 32.815 244.265 32.815C243.955 32.815 243.68 32.925 243.44 33.145C243.2 33.355 243.08 33.655 243.08 34.045C243.08 34.425 243.2 34.725 243.44 34.945C243.68 35.165 243.955 35.275 244.265 35.275ZM250.55 43.15C250.13 43.15 249.745 43.06 249.395 42.88C249.045 42.69 248.76 42.425 248.54 42.085C248.33 41.735 248.225 41.325 248.225 40.855C248.225 40.375 248.33 39.965 248.54 39.625C248.76 39.285 249.045 39.025 249.395 38.845C249.745 38.655 250.13 38.56 250.55 38.56C250.97 38.56 251.355 38.655 251.705 38.845C252.055 39.025 252.335 39.285 252.545 39.625C252.765 39.965 252.875 40.375 252.875 40.855C252.875 41.325 252.77 41.735 252.56 42.085C252.35 42.425 252.07 42.69 251.72 42.88C251.37 43.06 250.98 43.15 250.55 43.15ZM250.55 42.1C250.87 42.1 251.145 41.99 251.375 41.77C251.615 41.55 251.735 41.245 251.735 40.855C251.735 40.465 251.615 40.165 251.375 39.955C251.145 39.735 250.87 39.625 250.55 39.625C250.24 39.625 249.965 39.735 249.725 39.955C249.485 40.165 249.365 40.465 249.365 40.855C249.365 41.245 249.485 41.55 249.725 41.77C249.965 41.99 250.24 42.1 250.55 42.1Z" fill="#303030"/>
<path d="M61 57L82 37" stroke="#E3933C" stroke-width="3" stroke-linecap="round"/>
<path d="M53.4944 125V113.9H55.4294L58.6994 120.5L61.9544 113.9H63.8894V125H62.4494V116.06L59.3894 122.15H57.9944L54.9344 116.03V125H53.4944ZM69.8975 125.15C69.0475 125.15 68.3325 124.955 67.7525 124.565C67.1725 124.165 66.7325 123.65 66.4325 123.02C66.1325 122.39 65.9825 121.725 65.9825 121.025C65.9825 120.315 66.1325 119.65 66.4325 119.03C66.7325 118.4 67.1725 117.89 67.7525 117.5C68.3325 117.1 69.0475 116.9 69.8975 116.9C70.7475 116.9 71.4625 117.1 72.0425 117.5C72.6225 117.89 73.0625 118.4 73.3625 119.03C73.6625 119.65 73.8125 120.315 73.8125 121.025C73.8125 121.725 73.6625 122.39 73.3625 123.02C73.0625 123.65 72.6225 124.165 72.0425 124.565C71.4625 124.955 70.7475 125.15 69.8975 125.15ZM69.8975 123.905C70.4375 123.905 70.8875 123.77 71.2475 123.5C71.6175 123.22 71.8925 122.86 72.0725 122.42C72.2625 121.98 72.3575 121.515 72.3575 121.025C72.3575 120.525 72.2625 120.06 72.0725 119.63C71.8925 119.19 71.6175 118.835 71.2475 118.565C70.8875 118.285 70.4375 118.145 69.8975 118.145C69.3675 118.145 68.9175 118.285 68.5475 118.565C68.1775 118.835 67.8975 119.19 67.7075 119.63C67.5275 120.06 67.4375 120.525 67.4375 121.025C67.4375 121.515 67.5275 121.98 67.7075 122.42C67.8975 122.86 68.1775 123.22 68.5475 123.5C68.9175 123.77 69.3675 123.905 69.8975 123.905ZM77.9686 125L74.9386 117.05H76.4236L78.7486 123.26L81.0286 117.05H82.5286L79.4836 125H77.9686ZM85.0362 115.535C84.7662 115.535 84.5412 115.445 84.3612 115.265C84.1912 115.085 84.1062 114.87 84.1062 114.62C84.1062 114.36 84.1912 114.14 84.3612 113.96C84.5412 113.78 84.7662 113.69 85.0362 113.69C85.2962 113.69 85.5162 113.78 85.6962 113.96C85.8762 114.14 85.9662 114.36 85.9662 114.62C85.9662 114.87 85.8762 115.085 85.6962 115.265C85.5162 115.445 85.2962 115.535 85.0362 115.535ZM84.3312 125V117.05H85.7562V125H84.3312ZM88.0612 125V117.05H89.4862V118.205H89.5762C89.6462 118.085 89.7612 117.92 89.9212 117.71C90.0912 117.5 90.3312 117.315 90.6412 117.155C90.9512 116.985 91.3412 116.9 91.8112 116.9C92.3912 116.9 92.8862 117.035 93.2962 117.305C93.7062 117.565 94.0162 117.92 94.2262 118.37C94.4462 118.82 94.5562 119.325 94.5562 119.885V125H93.1312V119.975C93.1312 119.445 92.9812 119.005 92.6812 118.655C92.3912 118.305 91.9662 118.13 91.4062 118.13C90.9562 118.13 90.5912 118.245 90.3112 118.475C90.0312 118.695 89.8212 118.99 89.6812 119.36C89.5512 119.72 89.4862 120.105 89.4862 120.515V125H88.0612ZM100.485 128.15C99.8249 128.15 99.2749 128.06 98.8349 127.88C98.3949 127.71 98.0399 127.49 97.7699 127.22C97.5099 126.96 97.3149 126.7 97.1849 126.44C97.0549 126.18 96.9699 125.96 96.9299 125.78C96.8899 125.61 96.8699 125.525 96.8699 125.525H98.2949C98.2949 125.525 98.3199 125.595 98.3699 125.735C98.4199 125.875 98.5149 126.035 98.6549 126.215C98.8049 126.395 99.0249 126.555 99.3149 126.695C99.6049 126.835 99.9949 126.905 100.485 126.905C101.065 126.905 101.52 126.79 101.85 126.56C102.18 126.34 102.415 126.05 102.555 125.69C102.705 125.33 102.78 124.95 102.78 124.55V123.635H102.705C102.605 123.805 102.445 124 102.225 124.22C102.015 124.43 101.735 124.615 101.385 124.775C101.035 124.925 100.605 125 100.095 125C99.4949 125 98.9699 124.885 98.5199 124.655C98.0699 124.425 97.6949 124.115 97.3949 123.725C97.1049 123.335 96.8849 122.9 96.7349 122.42C96.5849 121.94 96.5099 121.45 96.5099 120.95C96.5099 120.45 96.5849 119.96 96.7349 119.48C96.8849 119 97.1049 118.565 97.3949 118.175C97.6949 117.785 98.0699 117.475 98.5199 117.245C98.9699 117.015 99.4949 116.9 100.095 116.9C100.605 116.9 101.035 116.98 101.385 117.14C101.735 117.29 102.015 117.47 102.225 117.68C102.445 117.89 102.605 118.085 102.705 118.265H102.78V117.05H104.205V124.535C104.205 125.645 103.88 126.525 103.23 127.175C102.59 127.825 101.675 128.15 100.485 128.15ZM100.365 123.785C100.895 123.785 101.335 123.65 101.685 123.38C102.045 123.1 102.31 122.745 102.48 122.315C102.66 121.885 102.75 121.43 102.75 120.95C102.75 120.47 102.66 120.015 102.48 119.585C102.31 119.145 102.045 118.79 101.685 118.52C101.335 118.25 100.895 118.115 100.365 118.115C99.8349 118.115 99.3899 118.25 99.0299 118.52C98.6699 118.79 98.3999 119.145 98.2199 119.585C98.0499 120.015 97.9649 120.47 97.9649 120.95C97.9649 121.43 98.0499 121.885 98.2199 122.315C98.3999 122.745 98.6699 123.1 99.0299 123.38C99.3899 123.65 99.8349 123.785 100.365 123.785ZM66.3558 150V138.9H70.6308C71.3408 138.9 71.9458 139.03 72.4458 139.29C72.9558 139.54 73.3458 139.88 73.6158 140.31C73.8858 140.73 74.0208 141.19 74.0208 141.69C74.0208 142.24 73.9208 142.685 73.7208 143.025C73.5208 143.365 73.2958 143.625 73.0458 143.805C72.7958 143.975 72.5958 144.09 72.4458 144.15V144.24C72.6858 144.31 72.9608 144.445 73.2708 144.645C73.5908 144.835 73.8658 145.11 74.0958 145.47C74.3258 145.83 74.4408 146.3 74.4408 146.88C74.4408 147.39 74.3158 147.885 74.0658 148.365C73.8158 148.845 73.4208 149.24 72.8808 149.55C72.3408 149.85 71.6258 150 70.7358 150H66.3558ZM70.5708 140.175H67.8258V143.715H70.5708C71.0508 143.715 71.4358 143.63 71.7258 143.46C72.0258 143.29 72.2408 143.07 72.3708 142.8C72.5108 142.52 72.5808 142.235 72.5808 141.945C72.5808 141.645 72.5108 141.36 72.3708 141.09C72.2408 140.82 72.0258 140.6 71.7258 140.43C71.4358 140.26 71.0508 140.175 70.5708 140.175ZM70.6908 144.9H67.8258V148.725H70.6908C71.2408 148.725 71.6808 148.635 72.0108 148.455C72.3408 148.265 72.5808 148.025 72.7308 147.735C72.8908 147.435 72.9708 147.125 72.9708 146.805C72.9708 146.485 72.8908 146.18 72.7308 145.89C72.5808 145.6 72.3408 145.365 72.0108 145.185C71.6808 144.995 71.2408 144.9 70.6908 144.9ZM77.2432 140.535C76.9732 140.535 76.7482 140.445 76.5682 140.265C76.3982 140.085 76.3132 139.87 76.3132 139.62C76.3132 139.36 76.3982 139.14 76.5682 138.96C76.7482 138.78 76.9732 138.69 77.2432 138.69C77.5032 138.69 77.7232 138.78 77.9032 138.96C78.0832 139.14 78.1732 139.36 78.1732 139.62C78.1732 139.87 78.0832 140.085 77.9032 140.265C77.7232 140.445 77.5032 140.535 77.2432 140.535ZM76.5382 150V142.05H77.9632V150H76.5382ZM80.4183 150V138.6H81.8433V145.23L85.0083 142.05H86.8683L83.2083 145.665L86.9433 150H85.1283L81.8433 146.175V150H80.4183ZM91.5297 150.15C90.8797 150.15 90.3147 150.035 89.8347 149.805C89.3647 149.565 88.9747 149.245 88.6647 148.845C88.3647 148.445 88.1397 148.005 87.9897 147.525C87.8397 147.035 87.7647 146.535 87.7647 146.025C87.7647 145.525 87.8347 145.03 87.9747 144.54C88.1247 144.05 88.3497 143.605 88.6497 143.205C88.9597 142.805 89.3447 142.49 89.8047 142.26C90.2747 142.02 90.8297 141.9 91.4697 141.9C92.1497 141.9 92.7497 142.055 93.2697 142.365C93.7897 142.675 94.1997 143.135 94.4997 143.745C94.7997 144.355 94.9497 145.12 94.9497 146.04V146.46H89.2047C89.2347 146.91 89.3397 147.325 89.5197 147.705C89.7097 148.075 89.9747 148.375 90.3147 148.605C90.6547 148.825 91.0597 148.935 91.5297 148.935C91.9397 148.935 92.2697 148.87 92.5197 148.74C92.7797 148.6 92.9847 148.44 93.1347 148.26C93.2847 148.08 93.3847 147.925 93.4347 147.795C93.4947 147.655 93.5247 147.585 93.5247 147.585H94.8597C94.8597 147.585 94.8347 147.675 94.7847 147.855C94.7347 148.025 94.6447 148.235 94.5147 148.485C94.3847 148.735 94.1947 148.99 93.9447 149.25C93.6947 149.5 93.3747 149.715 92.9847 149.895C92.5947 150.065 92.1097 150.15 91.5297 150.15ZM89.2197 145.35H93.5547C93.5347 144.83 93.4247 144.41 93.2247 144.09C93.0247 143.76 92.7697 143.515 92.4597 143.355C92.1497 143.195 91.8197 143.115 91.4697 143.115C90.8397 143.115 90.3247 143.32 89.9247 143.73C89.5247 144.13 89.2897 144.67 89.2197 145.35Z" fill="#383838"/>
<path fill-rule="evenodd" clip-rule="evenodd" d="M137.295 137.01C134.207 164.812 110.631 186.433 82.0055 186.433C51.2809 186.433 26.3737 161.526 26.3737 130.801C26.3737 100.674 50.3218 76.1397 80.2202 75.1971V48C35.718 49.1648 0 85.6056 0 130.389C0 175.907 36.8996 212.806 82.4176 212.806C125.707 212.806 161.201 179.432 164.573 137.01H137.295ZM137.625 132.01H164.82C164.83 131.471 164.835 130.93 164.835 130.389C164.835 85.8088 129.441 49.4957 85.2202 48.018V75.2604C114.449 76.9256 137.637 101.155 137.637 130.801C137.637 131.205 137.633 131.608 137.625 132.01Z" fill="#F0B26E"/>
<path fill-rule="evenodd" clip-rule="evenodd" d="M137.295 137.01C134.207 164.812 110.631 186.433 82.0055 186.433C51.2809 186.433 26.3737 161.526 26.3737 130.801C26.3737 100.674 50.3218 76.1397 80.2202 75.1971V48C35.718 49.1648 0 85.6056 0 130.389C0 175.907 36.8996 212.806 82.4176 212.806C125.707 212.806 161.201 179.432 164.573 137.01H137.295Z" fill="#E3933C"/>
<path fill-rule="evenodd" clip-rule="evenodd" d="M391.025 97.8804L365.936 109.46C361.905 101.693 356.076 95.0096 349 89.9603L363.831 67C375.301 74.8074 384.698 85.4329 391.025 97.8804Z" fill="#F0B26E"/>
<path fill-rule="evenodd" clip-rule="evenodd" d="M399.84 135.405C399.84 180.916 362.939 217.81 317.42 217.81C271.901 217.81 235 180.916 235 135.405C235 89.894 271.901 53 317.42 53C332.805 53 347.206 57.2148 359.53 64.5526L344.718 87.4833C336.579 82.7262 327.108 80 317 80C286.624 80 262 104.62 262 134.99C262 165.36 286.624 189.98 317 189.98C347.376 189.98 372 165.36 372 134.99C372 127.648 370.561 120.642 367.949 114.238L393.07 102.644C397.425 112.685 399.84 123.763 399.84 135.405Z" fill="#E3933C"/>
<path d="M329 56H361" stroke="#E3933C" stroke-width="3" stroke-linecap="round"/>
<path d="M381.675 45L385.59 33.9H387.435L391.365 45H389.805L388.875 42.345H384.165L383.235 45H381.675ZM384.615 41.025H388.425L386.52 35.58L384.615 41.025ZM394.706 45L391.676 37.05H393.161L395.486 43.26L397.766 37.05H399.266L396.221 45H394.706ZM404.376 48.15C403.716 48.15 403.166 48.06 402.726 47.88C402.286 47.71 401.931 47.49 401.661 47.22C401.401 46.96 401.206 46.7 401.076 46.44C400.946 46.18 400.861 45.96 400.821 45.78C400.781 45.61 400.761 45.525 400.761 45.525H402.186C402.186 45.525 402.211 45.595 402.261 45.735C402.311 45.875 402.406 46.035 402.546 46.215C402.696 46.395 402.916 46.555 403.206 46.695C403.496 46.835 403.886 46.905 404.376 46.905C404.956 46.905 405.411 46.79 405.741 46.56C406.071 46.34 406.306 46.05 406.446 45.69C406.596 45.33 406.671 44.95 406.671 44.55V43.635H406.596C406.496 43.805 406.336 44 406.116 44.22C405.906 44.43 405.626 44.615 405.276 44.775C404.926 44.925 404.496 45 403.986 45C403.386 45 402.861 44.885 402.411 44.655C401.961 44.425 401.586 44.115 401.286 43.725C400.996 43.335 400.776 42.9 400.626 42.42C400.476 41.94 400.401 41.45 400.401 40.95C400.401 40.45 400.476 39.96 400.626 39.48C400.776 39 400.996 38.565 401.286 38.175C401.586 37.785 401.961 37.475 402.411 37.245C402.861 37.015 403.386 36.9 403.986 36.9C404.496 36.9 404.926 36.98 405.276 37.14C405.626 37.29 405.906 37.47 406.116 37.68C406.336 37.89 406.496 38.085 406.596 38.265H406.671V37.05H408.096V44.535C408.096 45.645 407.771 46.525 407.121 47.175C406.481 47.825 405.566 48.15 404.376 48.15ZM404.256 43.785C404.786 43.785 405.226 43.65 405.576 43.38C405.936 43.1 406.201 42.745 406.371 42.315C406.551 41.885 406.641 41.43 406.641 40.95C406.641 40.47 406.551 40.015 406.371 39.585C406.201 39.145 405.936 38.79 405.576 38.52C405.226 38.25 404.786 38.115 404.256 38.115C403.726 38.115 403.281 38.25 402.921 38.52C402.561 38.79 402.291 39.145 402.111 39.585C401.941 40.015 401.856 40.47 401.856 40.95C401.856 41.43 401.941 41.885 402.111 42.315C402.291 42.745 402.561 43.1 402.921 43.38C403.281 43.65 403.726 43.785 404.256 43.785ZM411.285 45.15C411.005 45.15 410.77 45.055 410.58 44.865C410.4 44.665 410.31 44.435 410.31 44.175C410.31 43.905 410.4 43.675 410.58 43.485C410.77 43.295 411.005 43.2 411.285 43.2C411.565 43.2 411.795 43.295 411.975 43.485C412.165 43.675 412.26 43.905 412.26 44.175C412.26 44.445 412.165 44.675 411.975 44.865C411.795 45.055 411.565 45.15 411.285 45.15ZM421.809 45.15C421.169 45.15 420.619 45.07 420.159 44.91C419.709 44.74 419.334 44.525 419.034 44.265C418.734 43.995 418.494 43.715 418.314 43.425C418.134 43.135 417.999 42.86 417.909 42.6C417.819 42.33 417.759 42.115 417.729 41.955C417.709 41.785 417.699 41.7 417.699 41.7H419.199C419.199 41.7 419.214 41.77 419.244 41.91C419.274 42.05 419.334 42.225 419.424 42.435C419.524 42.645 419.669 42.86 419.859 43.08C420.049 43.29 420.304 43.465 420.624 43.605C420.944 43.745 421.349 43.815 421.839 43.815C422.579 43.815 423.164 43.64 423.594 43.29C424.024 42.93 424.239 42.465 424.239 41.895C424.239 41.405 424.074 41.025 423.744 40.755C423.424 40.485 422.964 40.275 422.364 40.125L420.894 39.765C420.374 39.635 419.889 39.455 419.439 39.225C418.999 38.985 418.644 38.675 418.374 38.295C418.114 37.905 417.984 37.42 417.984 36.84C417.984 36.19 418.144 35.635 418.464 35.175C418.784 34.715 419.219 34.365 419.769 34.125C420.319 33.875 420.944 33.75 421.644 33.75C422.324 33.75 422.889 33.855 423.339 34.065C423.789 34.275 424.149 34.535 424.419 34.845C424.689 35.145 424.889 35.45 425.019 35.76C425.149 36.06 425.234 36.315 425.274 36.525C425.314 36.735 425.334 36.84 425.334 36.84H423.894C423.894 36.84 423.874 36.75 423.834 36.57C423.794 36.39 423.699 36.185 423.549 35.955C423.399 35.715 423.169 35.505 422.859 35.325C422.549 35.145 422.129 35.055 421.599 35.055C420.879 35.055 420.334 35.225 419.964 35.565C419.604 35.905 419.424 36.295 419.424 36.735C419.424 37.135 419.569 37.46 419.859 37.71C420.149 37.95 420.549 38.135 421.059 38.265L422.649 38.655C423.219 38.795 423.734 39 424.194 39.27C424.654 39.53 425.019 39.87 425.289 40.29C425.559 40.7 425.694 41.205 425.694 41.805C425.694 42.405 425.544 42.96 425.244 43.47C424.954 43.98 424.519 44.39 423.939 44.7C423.369 45 422.659 45.15 421.809 45.15ZM430.055 45.15C429.265 45.15 428.635 44.905 428.165 44.415C427.695 43.925 427.46 43.245 427.46 42.375V37.05H428.885V42.3C428.885 42.82 429.025 43.22 429.305 43.5C429.595 43.78 429.975 43.92 430.445 43.92C430.925 43.92 431.31 43.795 431.6 43.545C431.89 43.295 432.1 42.975 432.23 42.585C432.36 42.195 432.425 41.795 432.425 41.385V37.05H433.85V45H432.425V43.86H432.335C432.275 43.98 432.16 44.145 431.99 44.355C431.82 44.555 431.58 44.74 431.27 44.91C430.96 45.07 430.555 45.15 430.055 45.15ZM439.721 45.15C439.071 45.15 438.501 45.035 438.011 44.805C437.521 44.565 437.111 44.25 436.781 43.86C436.461 43.46 436.216 43.015 436.046 42.525C435.886 42.035 435.806 41.535 435.806 41.025C435.806 40.515 435.886 40.02 436.046 39.54C436.206 39.05 436.446 38.605 436.766 38.205C437.096 37.805 437.506 37.49 437.996 37.26C438.486 37.02 439.061 36.9 439.721 36.9C440.361 36.9 440.891 36.995 441.311 37.185C441.731 37.375 442.066 37.615 442.316 37.905C442.576 38.185 442.766 38.47 442.886 38.76C443.016 39.04 443.101 39.275 443.141 39.465C443.181 39.655 443.201 39.75 443.201 39.75H441.821C441.821 39.75 441.796 39.67 441.746 39.51C441.696 39.34 441.601 39.15 441.461 38.94C441.321 38.73 441.111 38.545 440.831 38.385C440.551 38.215 440.181 38.13 439.721 38.13C439.171 38.13 438.706 38.27 438.326 38.55C437.956 38.82 437.676 39.175 437.486 39.615C437.306 40.055 437.216 40.525 437.216 41.025C437.216 41.525 437.306 41.995 437.486 42.435C437.676 42.875 437.956 43.235 438.326 43.515C438.706 43.785 439.171 43.92 439.721 43.92C440.181 43.92 440.551 43.84 440.831 43.68C441.111 43.51 441.321 43.32 441.461 43.11C441.601 42.9 441.696 42.715 441.746 42.555C441.796 42.385 441.821 42.3 441.821 42.3H443.201C443.201 42.3 443.181 42.395 443.141 42.585C443.101 42.775 443.016 43.015 442.886 43.305C442.766 43.585 442.576 43.87 442.316 44.16C442.066 44.44 441.731 44.675 441.311 44.865C440.891 45.055 440.361 45.15 439.721 45.15ZM448.92 45.15C448.27 45.15 447.7 45.035 447.21 44.805C446.72 44.565 446.31 44.25 445.98 43.86C445.66 43.46 445.415 43.015 445.245 42.525C445.085 42.035 445.005 41.535 445.005 41.025C445.005 40.515 445.085 40.02 445.245 39.54C445.405 39.05 445.645 38.605 445.965 38.205C446.295 37.805 446.705 37.49 447.195 37.26C447.685 37.02 448.26 36.9 448.92 36.9C449.56 36.9 450.09 36.995 450.51 37.185C450.93 37.375 451.265 37.615 451.515 37.905C451.775 38.185 451.965 38.47 452.085 38.76C452.215 39.04 452.3 39.275 452.34 39.465C452.38 39.655 452.4 39.75 452.4 39.75H451.02C451.02 39.75 450.995 39.67 450.945 39.51C450.895 39.34 450.8 39.15 450.66 38.94C450.52 38.73 450.31 38.545 450.03 38.385C449.75 38.215 449.38 38.13 448.92 38.13C448.37 38.13 447.905 38.27 447.525 38.55C447.155 38.82 446.875 39.175 446.685 39.615C446.505 40.055 446.415 40.525 446.415 41.025C446.415 41.525 446.505 41.995 446.685 42.435C446.875 42.875 447.155 43.235 447.525 43.515C447.905 43.785 448.37 43.92 448.92 43.92C449.38 43.92 449.75 43.84 450.03 43.68C450.31 43.51 450.52 43.32 450.66 43.11C450.8 42.9 450.895 42.715 450.945 42.555C450.995 42.385 451.02 42.3 451.02 42.3H452.4C452.4 42.3 452.38 42.395 452.34 42.585C452.3 42.775 452.215 43.015 452.085 43.305C451.965 43.585 451.775 43.87 451.515 44.16C451.265 44.44 450.93 44.675 450.51 44.865C450.09 45.055 449.56 45.15 448.92 45.15ZM457.97 45.15C457.32 45.15 456.755 45.035 456.275 44.805C455.805 44.565 455.415 44.245 455.105 43.845C454.805 43.445 454.58 43.005 454.43 42.525C454.28 42.035 454.205 41.535 454.205 41.025C454.205 40.525 454.275 40.03 454.415 39.54C454.565 39.05 454.79 38.605 455.09 38.205C455.4 37.805 455.785 37.49 456.245 37.26C456.715 37.02 457.27 36.9 457.91 36.9C458.59 36.9 459.19 37.055 459.71 37.365C460.23 37.675 460.64 38.135 460.94 38.745C461.24 39.355 461.39 40.12 461.39 41.04V41.46H455.645C455.675 41.91 455.78 42.325 455.96 42.705C456.15 43.075 456.415 43.375 456.755 43.605C457.095 43.825 457.5 43.935 457.97 43.935C458.38 43.935 458.71 43.87 458.96 43.74C459.22 43.6 459.425 43.44 459.575 43.26C459.725 43.08 459.825 42.925 459.875 42.795C459.935 42.655 459.965 42.585 459.965 42.585H461.3C461.3 42.585 461.275 42.675 461.225 42.855C461.175 43.025 461.085 43.235 460.955 43.485C460.825 43.735 460.635 43.99 460.385 44.25C460.135 44.5 459.815 44.715 459.425 44.895C459.035 45.065 458.55 45.15 457.97 45.15ZM455.66 40.35H459.995C459.975 39.83 459.865 39.41 459.665 39.09C459.465 38.76 459.21 38.515 458.9 38.355C458.59 38.195 458.26 38.115 457.91 38.115C457.28 38.115 456.765 38.32 456.365 38.73C455.965 39.13 455.73 39.67 455.66 40.35ZM466.244 45.15C465.634 45.15 465.129 45.065 464.729 44.895C464.339 44.725 464.029 44.515 463.799 44.265C463.569 44.005 463.399 43.75 463.289 43.5C463.179 43.24 463.109 43.025 463.079 42.855C463.049 42.685 463.034 42.6 463.034 42.6H464.474C464.474 42.6 464.489 42.67 464.519 42.81C464.559 42.94 464.634 43.095 464.744 43.275C464.864 43.445 465.044 43.6 465.284 43.74C465.534 43.87 465.864 43.935 466.274 43.935C466.744 43.935 467.109 43.825 467.369 43.605C467.629 43.375 467.759 43.095 467.759 42.765C467.759 42.475 467.654 42.245 467.444 42.075C467.244 41.905 466.954 41.775 466.574 41.685L465.494 41.43C465.094 41.33 464.719 41.195 464.369 41.025C464.019 40.855 463.734 40.625 463.514 40.335C463.304 40.035 463.199 39.665 463.199 39.225C463.199 38.545 463.454 37.99 463.964 37.56C464.474 37.12 465.139 36.9 465.959 36.9C466.509 36.9 466.964 36.98 467.324 37.14C467.684 37.29 467.969 37.48 468.179 37.71C468.399 37.94 468.559 38.17 468.659 38.4C468.769 38.63 468.839 38.825 468.869 38.985C468.899 39.135 468.914 39.21 468.914 39.21H467.534C467.534 39.21 467.519 39.155 467.489 39.045C467.459 38.925 467.389 38.795 467.279 38.655C467.179 38.505 467.024 38.375 466.814 38.265C466.604 38.145 466.324 38.085 465.974 38.085C465.494 38.085 465.144 38.195 464.924 38.415C464.704 38.635 464.594 38.875 464.594 39.135C464.594 39.385 464.694 39.59 464.894 39.75C465.104 39.9 465.374 40.015 465.704 40.095L466.799 40.35C467.479 40.51 468.039 40.775 468.479 41.145C468.929 41.505 469.154 42.025 469.154 42.705C469.154 43.145 469.039 43.555 468.809 43.935C468.579 44.305 468.249 44.6 467.819 44.82C467.389 45.04 466.864 45.15 466.244 45.15ZM473.861 45.15C473.251 45.15 472.746 45.065 472.346 44.895C471.956 44.725 471.646 44.515 471.416 44.265C471.186 44.005 471.016 43.75 470.906 43.5C470.796 43.24 470.726 43.025 470.696 42.855C470.666 42.685 470.651 42.6 470.651 42.6H472.091C472.091 42.6 472.106 42.67 472.136 42.81C472.176 42.94 472.251 43.095 472.361 43.275C472.481 43.445 472.661 43.6 472.901 43.74C473.151 43.87 473.481 43.935 473.891 43.935C474.361 43.935 474.726 43.825 474.986 43.605C475.246 43.375 475.376 43.095 475.376 42.765C475.376 42.475 475.271 42.245 475.061 42.075C474.861 41.905 474.571 41.775 474.191 41.685L473.111 41.43C472.711 41.33 472.336 41.195 471.986 41.025C471.636 40.855 471.351 40.625 471.131 40.335C470.921 40.035 470.816 39.665 470.816 39.225C470.816 38.545 471.071 37.99 471.581 37.56C472.091 37.12 472.756 36.9 473.576 36.9C474.126 36.9 474.581 36.98 474.941 37.14C475.301 37.29 475.586 37.48 475.796 37.71C476.016 37.94 476.176 38.17 476.276 38.4C476.386 38.63 476.456 38.825 476.486 38.985C476.516 39.135 476.531 39.21 476.531 39.21H475.151C475.151 39.21 475.136 39.155 475.106 39.045C475.076 38.925 475.006 38.795 474.896 38.655C474.796 38.505 474.641 38.375 474.431 38.265C474.221 38.145 473.941 38.085 473.591 38.085C473.111 38.085 472.761 38.195 472.541 38.415C472.321 38.635 472.211 38.875 472.211 39.135C472.211 39.385 472.311 39.59 472.511 39.75C472.721 39.9 472.991 40.015 473.321 40.095L474.416 40.35C475.096 40.51 475.656 40.775 476.096 41.145C476.546 41.505 476.771 42.025 476.771 42.705C476.771 43.145 476.656 43.555 476.426 43.935C476.196 44.305 475.866 44.6 475.436 44.82C475.006 45.04 474.481 45.15 473.861 45.15ZM479.499 45V38.22H478.194V37.05H479.499V36.075C479.499 35.655 479.574 35.245 479.724 34.845C479.874 34.435 480.124 34.1 480.474 33.84C480.824 33.58 481.299 33.45 481.899 33.45C482.189 33.45 482.419 33.475 482.589 33.525C482.769 33.565 482.859 33.585 482.859 33.585V34.71C482.859 34.71 482.779 34.695 482.619 34.665C482.469 34.625 482.294 34.605 482.094 34.605C481.634 34.605 481.324 34.745 481.164 35.025C481.004 35.305 480.924 35.655 480.924 36.075V37.05H482.769V38.22H480.924V45H479.499ZM486.95 45.15C486.16 45.15 485.53 44.905 485.06 44.415C484.59 43.925 484.355 43.245 484.355 42.375V37.05H485.78V42.3C485.78 42.82 485.92 43.22 486.2 43.5C486.49 43.78 486.87 43.92 487.34 43.92C487.82 43.92 488.205 43.795 488.495 43.545C488.785 43.295 488.995 42.975 489.125 42.585C489.255 42.195 489.32 41.795 489.32 41.385V37.05H490.745V45H489.32V43.86H489.23C489.17 43.98 489.055 44.145 488.885 44.355C488.715 44.555 488.475 44.74 488.165 44.91C487.855 45.07 487.45 45.15 486.95 45.15ZM493.001 45L493.016 33.6H494.426V45H493.001ZM385.815 70.15C385.165 70.15 384.595 70.035 384.105 69.805C383.615 69.565 383.205 69.25 382.875 68.86C382.555 68.46 382.31 68.015 382.14 67.525C381.98 67.035 381.9 66.535 381.9 66.025C381.9 65.515 381.98 65.02 382.14 64.54C382.3 64.05 382.54 63.605 382.86 63.205C383.19 62.805 383.6 62.49 384.09 62.26C384.58 62.02 385.155 61.9 385.815 61.9C386.455 61.9 386.985 61.995 387.405 62.185C387.825 62.375 388.16 62.615 388.41 62.905C388.67 63.185 388.86 63.47 388.98 63.76C389.11 64.04 389.195 64.275 389.235 64.465C389.275 64.655 389.295 64.75 389.295 64.75H387.915C387.915 64.75 387.89 64.67 387.84 64.51C387.79 64.34 387.695 64.15 387.555 63.94C387.415 63.73 387.205 63.545 386.925 63.385C386.645 63.215 386.275 63.13 385.815 63.13C385.265 63.13 384.8 63.27 384.42 63.55C384.05 63.82 383.77 64.175 383.58 64.615C383.4 65.055 383.31 65.525 383.31 66.025C383.31 66.525 383.4 66.995 383.58 67.435C383.77 67.875 384.05 68.235 384.42 68.515C384.8 68.785 385.265 68.92 385.815 68.92C386.275 68.92 386.645 68.84 386.925 68.68C387.205 68.51 387.415 68.32 387.555 68.11C387.695 67.9 387.79 67.715 387.84 67.555C387.89 67.385 387.915 67.3 387.915 67.3H389.295C389.295 67.3 389.275 67.395 389.235 67.585C389.195 67.775 389.11 68.015 388.98 68.305C388.86 68.585 388.67 68.87 388.41 69.16C388.16 69.44 387.825 69.675 387.405 69.865C386.985 70.055 386.455 70.15 385.815 70.15ZM394.699 61.9C395.199 61.9 395.619 61.98 395.959 62.14C396.299 62.3 396.574 62.49 396.784 62.71C396.994 62.92 397.154 63.12 397.264 63.31H397.354V62.05H398.779V70H397.354V68.74H397.264C397.154 68.93 396.994 69.135 396.784 69.355C396.574 69.575 396.299 69.765 395.959 69.925C395.619 70.075 395.199 70.15 394.699 70.15C394.099 70.15 393.574 70.035 393.124 69.805C392.674 69.565 392.299 69.25 391.999 68.86C391.699 68.46 391.474 68.015 391.324 67.525C391.174 67.035 391.099 66.535 391.099 66.025C391.099 65.515 391.174 65.015 391.324 64.525C391.474 64.035 391.699 63.595 391.999 63.205C392.299 62.805 392.674 62.49 393.124 62.26C393.574 62.02 394.099 61.9 394.699 61.9ZM394.939 63.115C394.409 63.115 393.964 63.26 393.604 63.55C393.244 63.83 392.974 64.19 392.794 64.63C392.624 65.07 392.539 65.535 392.539 66.025C392.539 66.505 392.624 66.97 392.794 67.42C392.974 67.86 393.244 68.225 393.604 68.515C393.964 68.795 394.409 68.935 394.939 68.935C395.469 68.935 395.909 68.795 396.259 68.515C396.619 68.225 396.884 67.86 397.054 67.42C397.234 66.97 397.324 66.505 397.324 66.025C397.324 65.535 397.234 65.07 397.054 64.63C396.884 64.19 396.619 63.83 396.259 63.55C395.909 63.26 395.469 63.115 394.939 63.115ZM403.955 70.15C403.135 70.15 402.515 69.94 402.095 69.52C401.685 69.1 401.48 68.51 401.48 67.75V63.22H400.055V62.05H401.48V60.055H402.905V62.05H404.84V63.22H402.905V67.75C402.905 68.15 403.015 68.445 403.235 68.635C403.455 68.815 403.775 68.905 404.195 68.905C404.415 68.905 404.625 68.89 404.825 68.86C405.025 68.83 405.125 68.815 405.125 68.815V70.03C405.125 70.03 405.01 70.05 404.78 70.09C404.55 70.13 404.275 70.15 403.955 70.15ZM410.318 70.15C409.668 70.15 409.103 70.035 408.623 69.805C408.153 69.565 407.763 69.245 407.453 68.845C407.153 68.445 406.928 68.005 406.778 67.525C406.628 67.035 406.553 66.535 406.553 66.025C406.553 65.525 406.623 65.03 406.763 64.54C406.913 64.05 407.138 63.605 407.438 63.205C407.748 62.805 408.133 62.49 408.593 62.26C409.063 62.02 409.618 61.9 410.258 61.9C410.938 61.9 411.538 62.055 412.058 62.365C412.578 62.675 412.988 63.135 413.288 63.745C413.588 64.355 413.738 65.12 413.738 66.04V66.46H407.993C408.023 66.91 408.128 67.325 408.308 67.705C408.498 68.075 408.763 68.375 409.103 68.605C409.443 68.825 409.848 68.935 410.318 68.935C410.728 68.935 411.058 68.87 411.308 68.74C411.568 68.6 411.773 68.44 411.923 68.26C412.073 68.08 412.173 67.925 412.223 67.795C412.283 67.655 412.313 67.585 412.313 67.585H413.648C413.648 67.585 413.623 67.675 413.573 67.855C413.523 68.025 413.433 68.235 413.303 68.485C413.173 68.735 412.983 68.99 412.733 69.25C412.483 69.5 412.163 69.715 411.773 69.895C411.383 70.065 410.898 70.15 410.318 70.15ZM408.008 65.35H412.343C412.323 64.83 412.213 64.41 412.013 64.09C411.813 63.76 411.558 63.515 411.248 63.355C410.938 63.195 410.608 63.115 410.258 63.115C409.628 63.115 409.113 63.32 408.713 63.73C408.313 64.13 408.078 64.67 408.008 65.35ZM419.435 73.15C418.775 73.15 418.225 73.06 417.785 72.88C417.345 72.71 416.99 72.49 416.72 72.22C416.46 71.96 416.265 71.7 416.135 71.44C416.005 71.18 415.92 70.96 415.88 70.78C415.84 70.61 415.82 70.525 415.82 70.525H417.245C417.245 70.525 417.27 70.595 417.32 70.735C417.37 70.875 417.465 71.035 417.605 71.215C417.755 71.395 417.975 71.555 418.265 71.695C418.555 71.835 418.945 71.905 419.435 71.905C420.015 71.905 420.47 71.79 420.8 71.56C421.13 71.34 421.365 71.05 421.505 70.69C421.655 70.33 421.73 69.95 421.73 69.55V68.635H421.655C421.555 68.805 421.395 69 421.175 69.22C420.965 69.43 420.685 69.615 420.335 69.775C419.985 69.925 419.555 70 419.045 70C418.445 70 417.92 69.885 417.47 69.655C417.02 69.425 416.645 69.115 416.345 68.725C416.055 68.335 415.835 67.9 415.685 67.42C415.535 66.94 415.46 66.45 415.46 65.95C415.46 65.45 415.535 64.96 415.685 64.48C415.835 64 416.055 63.565 416.345 63.175C416.645 62.785 417.02 62.475 417.47 62.245C417.92 62.015 418.445 61.9 419.045 61.9C419.555 61.9 419.985 61.98 420.335 62.14C420.685 62.29 420.965 62.47 421.175 62.68C421.395 62.89 421.555 63.085 421.655 63.265H421.73V62.05H423.155V69.535C423.155 70.645 422.83 71.525 422.18 72.175C421.54 72.825 420.625 73.15 419.435 73.15ZM419.315 68.785C419.845 68.785 420.285 68.65 420.635 68.38C420.995 68.1 421.26 67.745 421.43 67.315C421.61 66.885 421.7 66.43 421.7 65.95C421.7 65.47 421.61 65.015 421.43 64.585C421.26 64.145 420.995 63.79 420.635 63.52C420.285 63.25 419.845 63.115 419.315 63.115C418.785 63.115 418.34 63.25 417.98 63.52C417.62 63.79 417.35 64.145 417.17 64.585C417 65.015 416.915 65.47 416.915 65.95C416.915 66.43 417 66.885 417.17 67.315C417.35 67.745 417.62 68.1 417.98 68.38C418.34 68.65 418.785 68.785 419.315 68.785ZM428.72 70.15C427.87 70.15 427.155 69.955 426.575 69.565C425.995 69.165 425.555 68.65 425.255 68.02C424.955 67.39 424.805 66.725 424.805 66.025C424.805 65.315 424.955 64.65 425.255 64.03C425.555 63.4 425.995 62.89 426.575 62.5C427.155 62.1 427.87 61.9 428.72 61.9C429.57 61.9 430.285 62.1 430.865 62.5C431.445 62.89 431.885 63.4 432.185 64.03C432.485 64.65 432.635 65.315 432.635 66.025C432.635 66.725 432.485 67.39 432.185 68.02C431.885 68.65 431.445 69.165 430.865 69.565C430.285 69.955 429.57 70.15 428.72 70.15ZM428.72 68.905C429.26 68.905 429.71 68.77 430.07 68.5C430.44 68.22 430.715 67.86 430.895 67.42C431.085 66.98 431.18 66.515 431.18 66.025C431.18 65.525 431.085 65.06 430.895 64.63C430.715 64.19 430.44 63.835 430.07 63.565C429.71 63.285 429.26 63.145 428.72 63.145C428.19 63.145 427.74 63.285 427.37 63.565C427 63.835 426.72 64.19 426.53 64.63C426.35 65.06 426.26 65.525 426.26 66.025C426.26 66.515 426.35 66.98 426.53 67.42C426.72 67.86 427 68.22 427.37 68.5C427.74 68.77 428.19 68.905 428.72 68.905ZM434.579 70V62.05H436.004V63.04H436.064C436.234 62.74 436.484 62.475 436.814 62.245C437.144 62.015 437.609 61.9 438.209 61.9C438.379 61.9 438.534 61.91 438.674 61.93C438.814 61.94 438.884 61.945 438.884 61.945V63.31C438.884 63.31 438.804 63.305 438.644 63.295C438.494 63.275 438.334 63.265 438.164 63.265C437.474 63.265 436.939 63.465 436.559 63.865C436.189 64.255 436.004 64.895 436.004 65.785V70H434.579ZM441.676 60.535C441.406 60.535 441.181 60.445 441.001 60.265C440.831 60.085 440.746 59.87 440.746 59.62C440.746 59.36 440.831 59.14 441.001 58.96C441.181 58.78 441.406 58.69 441.676 58.69C441.936 58.69 442.156 58.78 442.336 58.96C442.516 59.14 442.606 59.36 442.606 59.62C442.606 59.87 442.516 60.085 442.336 60.265C442.156 60.445 441.936 60.535 441.676 60.535ZM440.971 70V62.05H442.396V70H440.971ZM444.296 70V68.995L448.946 63.22H444.536V62.05H450.701V63.055L446.036 68.83H450.701V70H444.296ZM455.534 61.9C456.034 61.9 456.454 61.98 456.794 62.14C457.134 62.3 457.409 62.49 457.619 62.71C457.829 62.92 457.989 63.12 458.099 63.31H458.189V62.05H459.614V70H458.189V68.74H458.099C457.989 68.93 457.829 69.135 457.619 69.355C457.409 69.575 457.134 69.765 456.794 69.925C456.454 70.075 456.034 70.15 455.534 70.15C454.934 70.15 454.409 70.035 453.959 69.805C453.509 69.565 453.134 69.25 452.834 68.86C452.534 68.46 452.309 68.015 452.159 67.525C452.009 67.035 451.934 66.535 451.934 66.025C451.934 65.515 452.009 65.015 452.159 64.525C452.309 64.035 452.534 63.595 452.834 63.205C453.134 62.805 453.509 62.49 453.959 62.26C454.409 62.02 454.934 61.9 455.534 61.9ZM455.774 63.115C455.244 63.115 454.799 63.26 454.439 63.55C454.079 63.83 453.809 64.19 453.629 64.63C453.459 65.07 453.374 65.535 453.374 66.025C453.374 66.505 453.459 66.97 453.629 67.42C453.809 67.86 454.079 68.225 454.439 68.515C454.799 68.795 455.244 68.935 455.774 68.935C456.304 68.935 456.744 68.795 457.094 68.515C457.454 68.225 457.719 67.86 457.889 67.42C458.069 66.97 458.159 66.505 458.159 66.025C458.159 65.535 458.069 65.07 457.889 64.63C457.719 64.19 457.454 63.83 457.094 63.55C456.744 63.26 456.304 63.115 455.774 63.115ZM464.79 70.15C463.97 70.15 463.35 69.94 462.93 69.52C462.52 69.1 462.315 68.51 462.315 67.75V63.22H460.89V62.05H462.315V60.055H463.74V62.05H465.675V63.22H463.74V67.75C463.74 68.15 463.85 68.445 464.07 68.635C464.29 68.815 464.61 68.905 465.03 68.905C465.25 68.905 465.46 68.89 465.66 68.86C465.86 68.83 465.96 68.815 465.96 68.815V70.03C465.96 70.03 465.845 70.05 465.615 70.09C465.385 70.13 465.11 70.15 464.79 70.15ZM468.761 60.535C468.491 60.535 468.266 60.445 468.086 60.265C467.916 60.085 467.831 59.87 467.831 59.62C467.831 59.36 467.916 59.14 468.086 58.96C468.266 58.78 468.491 58.69 468.761 58.69C469.021 58.69 469.241 58.78 469.421 58.96C469.601 59.14 469.691 59.36 469.691 59.62C469.691 59.87 469.601 60.085 469.421 60.265C469.241 60.445 469.021 60.535 468.761 60.535ZM468.056 70V62.05H469.481V70H468.056ZM475.551 70.15C474.701 70.15 473.986 69.955 473.406 69.565C472.826 69.165 472.386 68.65 472.086 68.02C471.786 67.39 471.636 66.725 471.636 66.025C471.636 65.315 471.786 64.65 472.086 64.03C472.386 63.4 472.826 62.89 473.406 62.5C473.986 62.1 474.701 61.9 475.551 61.9C476.401 61.9 477.116 62.1 477.696 62.5C478.276 62.89 478.716 63.4 479.016 64.03C479.316 64.65 479.466 65.315 479.466 66.025C479.466 66.725 479.316 67.39 479.016 68.02C478.716 68.65 478.276 69.165 477.696 69.565C477.116 69.955 476.401 70.15 475.551 70.15ZM475.551 68.905C476.091 68.905 476.541 68.77 476.901 68.5C477.271 68.22 477.546 67.86 477.726 67.42C477.916 66.98 478.011 66.515 478.011 66.025C478.011 65.525 477.916 65.06 477.726 64.63C477.546 64.19 477.271 63.835 476.901 63.565C476.541 63.285 476.091 63.145 475.551 63.145C475.021 63.145 474.571 63.285 474.201 63.565C473.831 63.835 473.551 64.19 473.361 64.63C473.181 65.06 473.091 65.525 473.091 66.025C473.091 66.515 473.181 66.98 473.361 67.42C473.551 67.86 473.831 68.22 474.201 68.5C474.571 68.77 475.021 68.905 475.551 68.905ZM481.41 70V62.05H482.835V63.205H482.925C482.995 63.085 483.11 62.92 483.27 62.71C483.44 62.5 483.68 62.315 483.99 62.155C484.3 61.985 484.69 61.9 485.16 61.9C485.74 61.9 486.235 62.035 486.645 62.305C487.055 62.565 487.365 62.92 487.575 63.37C487.795 63.82 487.905 64.325 487.905 64.885V70H486.48V64.975C486.48 64.445 486.33 64.005 486.03 63.655C485.74 63.305 485.315 63.13 484.755 63.13C484.305 63.13 483.94 63.245 483.66 63.475C483.38 63.695 483.17 63.99 483.03 64.36C482.9 64.72 482.835 65.105 482.835 65.515V70H481.41ZM491.104 63.85C490.824 63.85 490.589 63.755 490.399 63.565C490.219 63.365 490.129 63.135 490.129 62.875C490.129 62.605 490.219 62.375 490.399 62.185C490.589 61.995 490.824 61.9 491.104 61.9C491.384 61.9 491.614 61.995 491.794 62.185C491.984 62.375 492.079 62.605 492.079 62.875C492.079 63.145 491.984 63.375 491.794 63.565C491.614 63.755 491.384 63.85 491.104 63.85ZM491.104 70.15C490.824 70.15 490.589 70.055 490.399 69.865C490.219 69.665 490.129 69.435 490.129 69.175C490.129 68.905 490.219 68.675 490.399 68.485C490.589 68.295 490.824 68.2 491.104 68.2C491.384 68.2 491.614 68.295 491.794 68.485C491.984 68.675 492.079 68.905 492.079 69.175C492.079 69.445 491.984 69.675 491.794 69.865C491.614 70.055 491.384 70.15 491.104 70.15ZM501.463 70.15C500.683 70.15 500.003 70.01 499.423 69.73C498.853 69.44 498.408 69.055 498.088 68.575C497.768 68.085 497.608 67.535 497.608 66.925C497.608 66.385 497.703 65.94 497.893 65.59C498.083 65.23 498.303 64.945 498.553 64.735C498.813 64.515 499.038 64.36 499.228 64.27C499.418 64.18 499.513 64.135 499.513 64.135V64.06C499.513 64.06 499.433 64.025 499.273 63.955C499.113 63.875 498.923 63.745 498.703 63.565C498.493 63.385 498.308 63.145 498.148 62.845C497.988 62.545 497.908 62.175 497.908 61.735C497.908 61.165 498.053 60.655 498.343 60.205C498.633 59.755 499.043 59.4 499.573 59.14C500.113 58.88 500.743 58.75 501.463 58.75C502.183 58.75 502.808 58.88 503.338 59.14C503.878 59.4 504.293 59.755 504.583 60.205C504.873 60.655 505.018 61.165 505.018 61.735C505.018 62.175 504.938 62.545 504.778 62.845C504.618 63.145 504.428 63.385 504.208 63.565C503.998 63.745 503.813 63.875 503.653 63.955C503.493 64.025 503.413 64.06 503.413 64.06V64.135C503.413 64.135 503.508 64.18 503.698 64.27C503.888 64.36 504.108 64.515 504.358 64.735C504.618 64.945 504.843 65.23 505.033 65.59C505.223 65.94 505.318 66.385 505.318 66.925C505.318 67.535 505.158 68.085 504.838 68.575C504.518 69.055 504.068 69.44 503.488 69.73C502.918 70.01 502.243 70.15 501.463 70.15ZM501.463 63.565C501.943 63.565 502.343 63.475 502.663 63.295C502.983 63.115 503.223 62.885 503.383 62.605C503.543 62.325 503.623 62.04 503.623 61.75C503.623 61.44 503.543 61.145 503.383 60.865C503.223 60.585 502.983 60.36 502.663 60.19C502.343 60.01 501.943 59.92 501.463 59.92C500.993 59.92 500.593 60.01 500.263 60.19C499.943 60.36 499.703 60.585 499.543 60.865C499.383 61.145 499.303 61.44 499.303 61.75C499.303 62.04 499.383 62.325 499.543 62.605C499.703 62.885 499.943 63.115 500.263 63.295C500.593 63.475 500.993 63.565 501.463 63.565ZM501.463 68.965C502.003 68.965 502.453 68.86 502.813 68.65C503.183 68.44 503.458 68.17 503.638 67.84C503.828 67.5 503.923 67.15 503.923 66.79C503.923 66.44 503.833 66.11 503.653 65.8C503.473 65.48 503.198 65.22 502.828 65.02C502.468 64.81 502.013 64.705 501.463 64.705C500.913 64.705 500.453 64.81 500.083 65.02C499.723 65.22 499.453 65.48 499.273 65.8C499.093 66.11 499.003 66.44 499.003 66.79C499.003 67.15 499.093 67.5 499.273 67.84C499.463 68.17 499.738 68.44 500.098 68.65C500.468 68.86 500.923 68.965 501.463 68.965ZM511.09 70.15C510.46 70.15 509.92 70.07 509.47 69.91C509.03 69.74 508.665 69.525 508.375 69.265C508.095 69.005 507.87 68.73 507.7 68.44C507.54 68.15 507.42 67.875 507.34 67.615C507.27 67.355 507.225 67.145 507.205 66.985C507.185 66.815 507.175 66.73 507.175 66.73H508.555C508.555 66.73 508.565 66.805 508.585 66.955C508.605 67.095 508.655 67.275 508.735 67.495C508.825 67.705 508.96 67.92 509.14 68.14C509.32 68.35 509.565 68.53 509.875 68.68C510.195 68.82 510.6 68.89 511.09 68.89C511.67 68.89 512.15 68.765 512.53 68.515C512.91 68.265 513.195 67.945 513.385 67.555C513.575 67.165 513.67 66.755 513.67 66.325C513.67 65.885 513.575 65.465 513.385 65.065C513.195 64.655 512.91 64.325 512.53 64.075C512.16 63.815 511.7 63.685 511.15 63.685C510.72 63.685 510.36 63.755 510.07 63.895C509.78 64.035 509.55 64.195 509.38 64.375C509.22 64.555 509.105 64.715 509.035 64.855C508.965 64.995 508.93 65.065 508.93 65.065H507.49L508.36 58.9H514.33V60.205H509.455L509.005 63.385H509.05C509.17 63.255 509.32 63.12 509.5 62.98C509.69 62.83 509.935 62.705 510.235 62.605C510.535 62.495 510.91 62.44 511.36 62.44C512.18 62.44 512.865 62.63 513.415 63.01C513.965 63.38 514.38 63.86 514.66 64.45C514.95 65.03 515.095 65.645 515.095 66.295C515.095 66.775 515.01 67.245 514.84 67.705C514.68 68.165 514.435 68.58 514.105 68.95C513.775 69.31 513.36 69.6 512.86 69.82C512.36 70.04 511.77 70.15 511.09 70.15ZM519.342 63.34C518.922 63.34 518.537 63.25 518.187 63.07C517.837 62.88 517.552 62.61 517.332 62.26C517.122 61.91 517.017 61.5 517.017 61.03C517.017 60.56 517.122 60.155 517.332 59.815C517.542 59.475 517.822 59.215 518.172 59.035C518.532 58.845 518.922 58.75 519.342 58.75C519.772 58.75 520.162 58.845 520.512 59.035C520.862 59.215 521.142 59.475 521.352 59.815C521.562 60.155 521.667 60.56 521.667 61.03C521.667 61.5 521.562 61.91 521.352 62.26C521.142 62.61 520.857 62.88 520.497 63.07C520.147 63.25 519.762 63.34 519.342 63.34ZM518.877 70L524.712 58.9H526.092L520.257 70H518.877ZM519.342 62.275C519.662 62.275 519.937 62.165 520.167 61.945C520.407 61.725 520.527 61.425 520.527 61.045C520.527 60.655 520.407 60.355 520.167 60.145C519.937 59.925 519.662 59.815 519.342 59.815C519.032 59.815 518.757 59.925 518.517 60.145C518.277 60.355 518.157 60.655 518.157 61.045C518.157 61.425 518.277 61.725 518.517 61.945C518.757 62.165 519.032 62.275 519.342 62.275ZM525.627 70.15C525.207 70.15 524.822 70.06 524.472 69.88C524.122 69.69 523.837 69.425 523.617 69.085C523.407 68.735 523.302 68.325 523.302 67.855C523.302 67.375 523.407 66.965 523.617 66.625C523.837 66.285 524.122 66.025 524.472 65.845C524.822 65.655 525.207 65.56 525.627 65.56C526.047 65.56 526.432 65.655 526.782 65.845C527.132 66.025 527.412 66.285 527.622 66.625C527.842 66.965 527.952 67.375 527.952 67.855C527.952 68.325 527.847 68.735 527.637 69.085C527.427 69.425 527.147 69.69 526.797 69.88C526.447 70.06 526.057 70.15 525.627 70.15ZM525.627 69.1C525.947 69.1 526.222 68.99 526.452 68.77C526.692 68.55 526.812 68.245 526.812 67.855C526.812 67.465 526.692 67.165 526.452 66.955C526.222 66.735 525.947 66.625 525.627 66.625C525.317 66.625 525.042 66.735 524.802 66.955C524.562 67.165 524.442 67.465 524.442 67.855C524.442 68.245 524.562 68.55 524.802 68.77C525.042 68.99 525.317 69.1 525.627 69.1Z" fill="#303030"/>
<path d="M298.538 129L295.583 117.9H297.098L299.393 126.84L301.808 117.9H303.248L305.663 126.81L307.943 117.9H309.458L306.503 129H304.823L302.528 120.465L300.218 129H298.538ZM311.257 129V117.6H312.682V122.205H312.772C312.842 122.085 312.957 121.92 313.117 121.71C313.287 121.5 313.527 121.315 313.837 121.155C314.147 120.985 314.537 120.9 315.007 120.9C315.587 120.9 316.082 121.035 316.492 121.305C316.902 121.565 317.212 121.92 317.422 122.37C317.642 122.82 317.752 123.325 317.752 123.885V129H316.327V123.975C316.327 123.445 316.177 123.005 315.877 122.655C315.587 122.305 315.162 122.13 314.602 122.13C314.152 122.13 313.787 122.245 313.507 122.475C313.227 122.695 313.017 122.99 312.877 123.36C312.747 123.72 312.682 124.105 312.682 124.515V129H311.257ZM320.782 119.535C320.512 119.535 320.287 119.445 320.107 119.265C319.937 119.085 319.852 118.87 319.852 118.62C319.852 118.36 319.937 118.14 320.107 117.96C320.287 117.78 320.512 117.69 320.782 117.69C321.042 117.69 321.262 117.78 321.442 117.96C321.622 118.14 321.712 118.36 321.712 118.62C321.712 118.87 321.622 119.085 321.442 119.265C321.262 119.445 321.042 119.535 320.782 119.535ZM320.077 129V121.05H321.502V129H320.077ZM323.957 129L323.972 117.6H325.382V129H323.957ZM331.245 129.15C330.595 129.15 330.03 129.035 329.55 128.805C329.08 128.565 328.69 128.245 328.38 127.845C328.08 127.445 327.855 127.005 327.705 126.525C327.555 126.035 327.48 125.535 327.48 125.025C327.48 124.525 327.55 124.03 327.69 123.54C327.84 123.05 328.065 122.605 328.365 122.205C328.675 121.805 329.06 121.49 329.52 121.26C329.99 121.02 330.545 120.9 331.185 120.9C331.865 120.9 332.465 121.055 332.985 121.365C333.505 121.675 333.915 122.135 334.215 122.745C334.515 123.355 334.665 124.12 334.665 125.04V125.46H328.92C328.95 125.91 329.055 126.325 329.235 126.705C329.425 127.075 329.69 127.375 330.03 127.605C330.37 127.825 330.775 127.935 331.245 127.935C331.655 127.935 331.985 127.87 332.235 127.74C332.495 127.6 332.7 127.44 332.85 127.26C333 127.08 333.1 126.925 333.15 126.795C333.21 126.655 333.24 126.585 333.24 126.585H334.575C334.575 126.585 334.55 126.675 334.5 126.855C334.45 127.025 334.36 127.235 334.23 127.485C334.1 127.735 333.91 127.99 333.66 128.25C333.41 128.5 333.09 128.715 332.7 128.895C332.31 129.065 331.825 129.15 331.245 129.15ZM328.935 124.35H333.27C333.25 123.83 333.14 123.41 332.94 123.09C332.74 122.76 332.485 122.515 332.175 122.355C331.865 122.195 331.535 122.115 331.185 122.115C330.555 122.115 330.04 122.32 329.64 122.73C329.24 123.13 329.005 123.67 328.935 124.35ZM283.014 154.15C282.374 154.15 281.824 154.07 281.364 153.91C280.914 153.74 280.539 153.525 280.239 153.265C279.939 152.995 279.699 152.715 279.519 152.425C279.339 152.135 279.204 151.86 279.114 151.6C279.024 151.33 278.964 151.115 278.934 150.955C278.914 150.785 278.904 150.7 278.904 150.7H280.404C280.404 150.7 280.419 150.77 280.449 150.91C280.479 151.05 280.539 151.225 280.629 151.435C280.729 151.645 280.874 151.86 281.064 152.08C281.254 152.29 281.509 152.465 281.829 152.605C282.149 152.745 282.554 152.815 283.044 152.815C283.784 152.815 284.369 152.64 284.799 152.29C285.229 151.93 285.444 151.465 285.444 150.895C285.444 150.405 285.279 150.025 284.949 149.755C284.629 149.485 284.169 149.275 283.569 149.125L282.099 148.765C281.579 148.635 281.094 148.455 280.644 148.225C280.204 147.985 279.849 147.675 279.579 147.295C279.319 146.905 279.189 146.42 279.189 145.84C279.189 145.19 279.349 144.635 279.669 144.175C279.989 143.715 280.424 143.365 280.974 143.125C281.524 142.875 282.149 142.75 282.849 142.75C283.529 142.75 284.094 142.855 284.544 143.065C284.994 143.275 285.354 143.535 285.624 143.845C285.894 144.145 286.094 144.45 286.224 144.76C286.354 145.06 286.439 145.315 286.479 145.525C286.519 145.735 286.539 145.84 286.539 145.84H285.099C285.099 145.84 285.079 145.75 285.039 145.57C284.999 145.39 284.904 145.185 284.754 144.955C284.604 144.715 284.374 144.505 284.064 144.325C283.754 144.145 283.334 144.055 282.804 144.055C282.084 144.055 281.539 144.225 281.169 144.565C280.809 144.905 280.629 145.295 280.629 145.735C280.629 146.135 280.774 146.46 281.064 146.71C281.354 146.95 281.754 147.135 282.264 147.265L283.854 147.655C284.424 147.795 284.939 148 285.399 148.27C285.859 148.53 286.224 148.87 286.494 149.29C286.764 149.7 286.899 150.205 286.899 150.805C286.899 151.405 286.749 151.96 286.449 152.47C286.159 152.98 285.724 153.39 285.144 153.7C284.574 154 283.864 154.15 283.014 154.15ZM292.04 154.15C291.22 154.15 290.6 153.94 290.18 153.52C289.77 153.1 289.565 152.51 289.565 151.75V147.22H288.14V146.05H289.565V144.055H290.99V146.05H292.925V147.22H290.99V151.75C290.99 152.15 291.1 152.445 291.32 152.635C291.54 152.815 291.86 152.905 292.28 152.905C292.5 152.905 292.71 152.89 292.91 152.86C293.11 152.83 293.21 152.815 293.21 152.815V154.03C293.21 154.03 293.095 154.05 292.865 154.09C292.635 154.13 292.36 154.15 292.04 154.15ZM298.238 145.9C298.738 145.9 299.158 145.98 299.498 146.14C299.838 146.3 300.113 146.49 300.323 146.71C300.533 146.92 300.693 147.12 300.803 147.31H300.893V146.05H302.318V154H300.893V152.74H300.803C300.693 152.93 300.533 153.135 300.323 153.355C300.113 153.575 299.838 153.765 299.498 153.925C299.158 154.075 298.738 154.15 298.238 154.15C297.638 154.15 297.113 154.035 296.663 153.805C296.213 153.565 295.838 153.25 295.538 152.86C295.238 152.46 295.013 152.015 294.863 151.525C294.713 151.035 294.638 150.535 294.638 150.025C294.638 149.515 294.713 149.015 294.863 148.525C295.013 148.035 295.238 147.595 295.538 147.205C295.838 146.805 296.213 146.49 296.663 146.26C297.113 146.02 297.638 145.9 298.238 145.9ZM298.478 147.115C297.948 147.115 297.503 147.26 297.143 147.55C296.783 147.83 296.513 148.19 296.333 148.63C296.163 149.07 296.078 149.535 296.078 150.025C296.078 150.505 296.163 150.97 296.333 151.42C296.513 151.86 296.783 152.225 297.143 152.515C297.503 152.795 297.948 152.935 298.478 152.935C299.008 152.935 299.448 152.795 299.798 152.515C300.158 152.225 300.423 151.86 300.593 151.42C300.773 150.97 300.863 150.505 300.863 150.025C300.863 149.535 300.773 149.07 300.593 148.63C300.423 148.19 300.158 147.83 299.798 147.55C299.448 147.26 299.008 147.115 298.478 147.115ZM307.494 154.15C306.674 154.15 306.054 153.94 305.634 153.52C305.224 153.1 305.019 152.51 305.019 151.75V147.22H303.594V146.05H305.019V144.055H306.444V146.05H308.379V147.22H306.444V151.75C306.444 152.15 306.554 152.445 306.774 152.635C306.994 152.815 307.314 152.905 307.734 152.905C307.954 152.905 308.164 152.89 308.364 152.86C308.564 152.83 308.664 152.815 308.664 152.815V154.03C308.664 154.03 308.549 154.05 308.319 154.09C308.089 154.13 307.814 154.15 307.494 154.15ZM311.465 144.535C311.195 144.535 310.97 144.445 310.79 144.265C310.62 144.085 310.535 143.87 310.535 143.62C310.535 143.36 310.62 143.14 310.79 142.96C310.97 142.78 311.195 142.69 311.465 142.69C311.725 142.69 311.945 142.78 312.125 142.96C312.305 143.14 312.395 143.36 312.395 143.62C312.395 143.87 312.305 144.085 312.125 144.265C311.945 144.445 311.725 144.535 311.465 144.535ZM310.76 154V146.05H312.185V154H310.76ZM318.255 154.15C317.405 154.15 316.69 153.955 316.11 153.565C315.53 153.165 315.09 152.65 314.79 152.02C314.49 151.39 314.34 150.725 314.34 150.025C314.34 149.315 314.49 148.65 314.79 148.03C315.09 147.4 315.53 146.89 316.11 146.5C316.69 146.1 317.405 145.9 318.255 145.9C319.105 145.9 319.82 146.1 320.4 146.5C320.98 146.89 321.42 147.4 321.72 148.03C322.02 148.65 322.17 149.315 322.17 150.025C322.17 150.725 322.02 151.39 321.72 152.02C321.42 152.65 320.98 153.165 320.4 153.565C319.82 153.955 319.105 154.15 318.255 154.15ZM318.255 152.905C318.795 152.905 319.245 152.77 319.605 152.5C319.975 152.22 320.25 151.86 320.43 151.42C320.62 150.98 320.715 150.515 320.715 150.025C320.715 149.525 320.62 149.06 320.43 148.63C320.25 148.19 319.975 147.835 319.605 147.565C319.245 147.285 318.795 147.145 318.255 147.145C317.725 147.145 317.275 147.285 316.905 147.565C316.535 147.835 316.255 148.19 316.065 148.63C315.885 149.06 315.795 149.525 315.795 150.025C315.795 150.515 315.885 150.98 316.065 151.42C316.255 151.86 316.535 152.22 316.905 152.5C317.275 152.77 317.725 152.905 318.255 152.905ZM324.114 154V146.05H325.539V147.205H325.629C325.699 147.085 325.814 146.92 325.974 146.71C326.144 146.5 326.384 146.315 326.694 146.155C327.004 145.985 327.394 145.9 327.864 145.9C328.444 145.9 328.939 146.035 329.349 146.305C329.759 146.565 330.069 146.92 330.279 147.37C330.499 147.82 330.609 148.325 330.609 148.885V154H329.184V148.975C329.184 148.445 329.034 148.005 328.734 147.655C328.444 147.305 328.019 147.13 327.459 147.13C327.009 147.13 326.644 147.245 326.364 147.475C326.084 147.695 325.874 147.99 325.734 148.36C325.604 148.72 325.539 149.105 325.539 149.515V154H324.114ZM336.163 145.9C336.663 145.9 337.083 145.98 337.423 146.14C337.763 146.3 338.038 146.49 338.248 146.71C338.458 146.92 338.618 147.12 338.728 147.31H338.818V146.05H340.243V154H338.818V152.74H338.728C338.618 152.93 338.458 153.135 338.248 153.355C338.038 153.575 337.763 153.765 337.423 153.925C337.083 154.075 336.663 154.15 336.163 154.15C335.563 154.15 335.038 154.035 334.588 153.805C334.138 153.565 333.763 153.25 333.463 152.86C333.163 152.46 332.938 152.015 332.788 151.525C332.638 151.035 332.563 150.535 332.563 150.025C332.563 149.515 332.638 149.015 332.788 148.525C332.938 148.035 333.163 147.595 333.463 147.205C333.763 146.805 334.138 146.49 334.588 146.26C335.038 146.02 335.563 145.9 336.163 145.9ZM336.403 147.115C335.873 147.115 335.428 147.26 335.068 147.55C334.708 147.83 334.438 148.19 334.258 148.63C334.088 149.07 334.003 149.535 334.003 150.025C334.003 150.505 334.088 150.97 334.258 151.42C334.438 151.86 334.708 152.225 335.068 152.515C335.428 152.795 335.873 152.935 336.403 152.935C336.933 152.935 337.373 152.795 337.723 152.515C338.083 152.225 338.348 151.86 338.518 151.42C338.698 150.97 338.788 150.505 338.788 150.025C338.788 149.535 338.698 149.07 338.518 148.63C338.348 148.19 338.083 147.83 337.723 147.55C337.373 147.26 336.933 147.115 336.403 147.115ZM342.337 154V146.05H343.762V147.04H343.822C343.992 146.74 344.242 146.475 344.572 146.245C344.902 146.015 345.367 145.9 345.967 145.9C346.137 145.9 346.292 145.91 346.432 145.93C346.572 145.94 346.642 145.945 346.642 145.945V147.31C346.642 147.31 346.562 147.305 346.402 147.295C346.252 147.275 346.092 147.265 345.922 147.265C345.232 147.265 344.697 147.465 344.317 147.865C343.947 148.255 343.762 148.895 343.762 149.785V154H342.337ZM348.511 156.925C348.281 156.925 348.086 156.915 347.926 156.895C347.766 156.875 347.686 156.865 347.686 156.865V155.65C347.686 155.65 347.766 155.655 347.926 155.665C348.096 155.685 348.276 155.695 348.466 155.695C349.056 155.695 349.536 155.57 349.906 155.32C350.286 155.08 350.606 154.68 350.866 154.12L347.791 146.05H349.276L351.571 152.26L353.881 146.05H355.381L352.306 154.015C351.916 155.015 351.411 155.75 350.791 156.22C350.181 156.69 349.421 156.925 348.511 156.925Z" fill="#383838"/>
</svg>
