<svg width="304" height="165" viewBox="0 0 304 165" fill="none" xmlns="http://www.w3.org/2000/svg">
<path d="M170.402 40L145.207 51.4971" stroke="#8DBBE7" stroke-width="3" stroke-linecap="round"/>
<path d="M57.9066 89V79.19H54.4416V77.9H62.8416V79.19H59.3766V89H57.9066ZM66.8398 89.15C66.1898 89.15 65.6248 89.035 65.1448 88.805C64.6748 88.565 64.2848 88.245 63.9748 87.845C63.6748 87.445 63.4498 87.005 63.2998 86.525C63.1498 86.035 63.0748 85.535 63.0748 85.025C63.0748 84.525 63.1448 84.03 63.2848 83.54C63.4348 83.05 63.6598 82.605 63.9598 82.205C64.2698 81.805 64.6548 81.49 65.1148 81.26C65.5848 81.02 66.1398 80.9 66.7798 80.9C67.4598 80.9 68.0598 81.055 68.5798 81.365C69.0998 81.675 69.5098 82.135 69.8098 82.745C70.1098 83.355 70.2598 84.12 70.2598 85.04V85.46H64.5148C64.5448 85.91 64.6498 86.325 64.8298 86.705C65.0198 87.075 65.2848 87.375 65.6248 87.605C65.9648 87.825 66.3698 87.935 66.8398 87.935C67.2498 87.935 67.5798 87.87 67.8298 87.74C68.0898 87.6 68.2948 87.44 68.4448 87.26C68.5948 87.08 68.6948 86.925 68.7448 86.795C68.8048 86.655 68.8348 86.585 68.8348 86.585H70.1698C70.1698 86.585 70.1448 86.675 70.0948 86.855C70.0448 87.025 69.9548 87.235 69.8248 87.485C69.6948 87.735 69.5048 87.99 69.2548 88.25C69.0048 88.5 68.6848 88.715 68.2948 88.895C67.9048 89.065 67.4198 89.15 66.8398 89.15ZM64.5298 84.35H68.8648C68.8448 83.83 68.7348 83.41 68.5348 83.09C68.3348 82.76 68.0798 82.515 67.7698 82.355C67.4598 82.195 67.1298 82.115 66.7798 82.115C66.1498 82.115 65.6348 82.32 65.2348 82.73C64.8348 83.13 64.5998 83.67 64.5298 84.35ZM75.1143 89.15C74.5043 89.15 73.9993 89.065 73.5993 88.895C73.2093 88.725 72.8993 88.515 72.6693 88.265C72.4393 88.005 72.2693 87.75 72.1593 87.5C72.0493 87.24 71.9793 87.025 71.9493 86.855C71.9193 86.685 71.9043 86.6 71.9043 86.6H73.3443C73.3443 86.6 73.3593 86.67 73.3893 86.81C73.4293 86.94 73.5043 87.095 73.6143 87.275C73.7343 87.445 73.9143 87.6 74.1543 87.74C74.4043 87.87 74.7343 87.935 75.1443 87.935C75.6143 87.935 75.9793 87.825 76.2393 87.605C76.4993 87.375 76.6293 87.095 76.6293 86.765C76.6293 86.475 76.5243 86.245 76.3143 86.075C76.1143 85.905 75.8243 85.775 75.4443 85.685L74.3643 85.43C73.9643 85.33 73.5893 85.195 73.2393 85.025C72.8893 84.855 72.6043 84.625 72.3843 84.335C72.1743 84.035 72.0693 83.665 72.0693 83.225C72.0693 82.545 72.3243 81.99 72.8343 81.56C73.3443 81.12 74.0093 80.9 74.8293 80.9C75.3793 80.9 75.8343 80.98 76.1943 81.14C76.5543 81.29 76.8393 81.48 77.0493 81.71C77.2693 81.94 77.4293 82.17 77.5293 82.4C77.6393 82.63 77.7093 82.825 77.7393 82.985C77.7693 83.135 77.7843 83.21 77.7843 83.21H76.4043C76.4043 83.21 76.3893 83.155 76.3593 83.045C76.3293 82.925 76.2593 82.795 76.1493 82.655C76.0493 82.505 75.8943 82.375 75.6843 82.265C75.4743 82.145 75.1943 82.085 74.8443 82.085C74.3643 82.085 74.0143 82.195 73.7943 82.415C73.5743 82.635 73.4643 82.875 73.4643 83.135C73.4643 83.385 73.5643 83.59 73.7643 83.75C73.9743 83.9 74.2443 84.015 74.5743 84.095L75.6693 84.35C76.3493 84.51 76.9093 84.775 77.3493 85.145C77.7993 85.505 78.0243 86.025 78.0243 86.705C78.0243 87.145 77.9093 87.555 77.6793 87.935C77.4493 88.305 77.1193 88.6 76.6893 88.82C76.2593 89.04 75.7343 89.15 75.1143 89.15ZM83.05 89.15C82.23 89.15 81.61 88.94 81.19 88.52C80.78 88.1 80.575 87.51 80.575 86.75V82.22H79.15V81.05H80.575V79.055H82V81.05H83.935V82.22H82V86.75C82 87.15 82.11 87.445 82.33 87.635C82.55 87.815 82.87 87.905 83.29 87.905C83.51 87.905 83.72 87.89 83.92 87.86C84.12 87.83 84.22 87.815 84.22 87.815V89.03C84.22 89.03 84.105 89.05 83.875 89.09C83.645 89.13 83.37 89.15 83.05 89.15ZM87.021 79.535C86.751 79.535 86.526 79.445 86.346 79.265C86.176 79.085 86.091 78.87 86.091 78.62C86.091 78.36 86.176 78.14 86.346 77.96C86.526 77.78 86.751 77.69 87.021 77.69C87.281 77.69 87.501 77.78 87.681 77.96C87.861 78.14 87.951 78.36 87.951 78.62C87.951 78.87 87.861 79.085 87.681 79.265C87.501 79.445 87.281 79.535 87.021 79.535ZM86.316 89V81.05H87.741V89H86.316ZM90.0461 89V81.05H91.4711V82.205H91.5611C91.6311 82.085 91.7461 81.92 91.9061 81.71C92.0761 81.5 92.3161 81.315 92.6261 81.155C92.9361 80.985 93.3261 80.9 93.7961 80.9C94.3761 80.9 94.8711 81.035 95.2811 81.305C95.6911 81.565 96.0011 81.92 96.2111 82.37C96.4311 82.82 96.5411 83.325 96.5411 83.885V89H95.1161V83.975C95.1161 83.445 94.9661 83.005 94.6661 82.655C94.3761 82.305 93.9511 82.13 93.3911 82.13C92.9411 82.13 92.5761 82.245 92.2961 82.475C92.0161 82.695 91.8061 82.99 91.6661 83.36C91.5361 83.72 91.4711 84.105 91.4711 84.515V89H90.0461ZM102.47 92.15C101.81 92.15 101.26 92.06 100.82 91.88C100.38 91.71 100.025 91.49 99.7547 91.22C99.4947 90.96 99.2997 90.7 99.1697 90.44C99.0397 90.18 98.9547 89.96 98.9147 89.78C98.8747 89.61 98.8547 89.525 98.8547 89.525H100.28C100.28 89.525 100.305 89.595 100.355 89.735C100.405 89.875 100.5 90.035 100.64 90.215C100.79 90.395 101.01 90.555 101.3 90.695C101.59 90.835 101.98 90.905 102.47 90.905C103.05 90.905 103.505 90.79 103.835 90.56C104.165 90.34 104.4 90.05 104.54 89.69C104.69 89.33 104.765 88.95 104.765 88.55V87.635H104.69C104.59 87.805 104.43 88 104.21 88.22C104 88.43 103.72 88.615 103.37 88.775C103.02 88.925 102.59 89 102.08 89C101.48 89 100.955 88.885 100.505 88.655C100.055 88.425 99.6797 88.115 99.3797 87.725C99.0897 87.335 98.8697 86.9 98.7197 86.42C98.5697 85.94 98.4947 85.45 98.4947 84.95C98.4947 84.45 98.5697 83.96 98.7197 83.48C98.8697 83 99.0897 82.565 99.3797 82.175C99.6797 81.785 100.055 81.475 100.505 81.245C100.955 81.015 101.48 80.9 102.08 80.9C102.59 80.9 103.02 80.98 103.37 81.14C103.72 81.29 104 81.47 104.21 81.68C104.43 81.89 104.59 82.085 104.69 82.265H104.765V81.05H106.19V88.535C106.19 89.645 105.865 90.525 105.215 91.175C104.575 91.825 103.66 92.15 102.47 92.15ZM102.35 87.785C102.88 87.785 103.32 87.65 103.67 87.38C104.03 87.1 104.295 86.745 104.465 86.315C104.645 85.885 104.735 85.43 104.735 84.95C104.735 84.47 104.645 84.015 104.465 83.585C104.295 83.145 104.03 82.79 103.67 82.52C103.32 82.25 102.88 82.115 102.35 82.115C101.82 82.115 101.375 82.25 101.015 82.52C100.655 82.79 100.385 83.145 100.205 83.585C100.035 84.015 99.9497 84.47 99.9497 84.95C99.9497 85.43 100.035 85.885 100.205 86.315C100.385 86.745 100.655 87.1 101.015 87.38C101.375 87.65 101.82 87.785 102.35 87.785Z" fill="#252429"/>
<path d="M187.43 36.15C186.56 36.15 185.81 35.985 185.18 35.655C184.55 35.315 184.06 34.84 183.71 34.23C183.37 33.61 183.2 32.88 183.2 32.04V24.9H184.67V32.04C184.67 32.81 184.895 33.455 185.345 33.975C185.805 34.495 186.5 34.755 187.43 34.755C188.37 34.755 189.065 34.495 189.515 33.975C189.975 33.455 190.205 32.81 190.205 32.04V24.9H191.675V32.04C191.675 32.88 191.5 33.61 191.15 34.23C190.81 34.84 190.325 35.315 189.695 35.655C189.065 35.985 188.31 36.15 187.43 36.15ZM193.919 36V28.05H195.344V29.205H195.434C195.504 29.085 195.619 28.92 195.779 28.71C195.949 28.5 196.189 28.315 196.499 28.155C196.809 27.985 197.199 27.9 197.669 27.9C198.249 27.9 198.744 28.035 199.154 28.305C199.564 28.565 199.874 28.92 200.084 29.37C200.304 29.82 200.414 30.325 200.414 30.885V36H198.989V30.975C198.989 30.445 198.839 30.005 198.539 29.655C198.249 29.305 197.824 29.13 197.264 29.13C196.814 29.13 196.449 29.245 196.169 29.475C195.889 29.695 195.679 29.99 195.539 30.36C195.409 30.72 195.344 31.105 195.344 31.515V36H193.919ZM205.428 36.15C204.818 36.15 204.313 36.065 203.913 35.895C203.523 35.725 203.213 35.515 202.983 35.265C202.753 35.005 202.583 34.75 202.473 34.5C202.363 34.24 202.293 34.025 202.263 33.855C202.233 33.685 202.218 33.6 202.218 33.6H203.658C203.658 33.6 203.673 33.67 203.703 33.81C203.743 33.94 203.818 34.095 203.928 34.275C204.048 34.445 204.228 34.6 204.468 34.74C204.718 34.87 205.048 34.935 205.458 34.935C205.928 34.935 206.293 34.825 206.553 34.605C206.813 34.375 206.943 34.095 206.943 33.765C206.943 33.475 206.838 33.245 206.628 33.075C206.428 32.905 206.138 32.775 205.758 32.685L204.678 32.43C204.278 32.33 203.903 32.195 203.553 32.025C203.203 31.855 202.918 31.625 202.698 31.335C202.488 31.035 202.383 30.665 202.383 30.225C202.383 29.545 202.638 28.99 203.148 28.56C203.658 28.12 204.323 27.9 205.143 27.9C205.693 27.9 206.148 27.98 206.508 28.14C206.868 28.29 207.153 28.48 207.363 28.71C207.583 28.94 207.743 29.17 207.843 29.4C207.953 29.63 208.023 29.825 208.053 29.985C208.083 30.135 208.098 30.21 208.098 30.21H206.718C206.718 30.21 206.703 30.155 206.673 30.045C206.643 29.925 206.573 29.795 206.463 29.655C206.363 29.505 206.208 29.375 205.998 29.265C205.788 29.145 205.508 29.085 205.158 29.085C204.678 29.085 204.328 29.195 204.108 29.415C203.888 29.635 203.778 29.875 203.778 30.135C203.778 30.385 203.878 30.59 204.078 30.75C204.288 30.9 204.558 31.015 204.888 31.095L205.983 31.35C206.663 31.51 207.223 31.775 207.663 32.145C208.113 32.505 208.338 33.025 208.338 33.705C208.338 34.145 208.223 34.555 207.993 34.935C207.763 35.305 207.433 35.6 207.003 35.82C206.573 36.04 206.048 36.15 205.428 36.15ZM212.73 36.15C211.94 36.15 211.31 35.905 210.84 35.415C210.37 34.925 210.135 34.245 210.135 33.375V28.05H211.56V33.3C211.56 33.82 211.7 34.22 211.98 34.5C212.27 34.78 212.65 34.92 213.12 34.92C213.6 34.92 213.985 34.795 214.275 34.545C214.565 34.295 214.775 33.975 214.905 33.585C215.035 33.195 215.1 32.795 215.1 32.385V28.05H216.525V36H215.1V34.86H215.01C214.95 34.98 214.835 35.145 214.665 35.355C214.495 35.555 214.255 35.74 213.945 35.91C213.635 36.07 213.23 36.15 212.73 36.15ZM222.396 36.15C221.746 36.15 221.176 36.035 220.686 35.805C220.196 35.565 219.786 35.25 219.456 34.86C219.136 34.46 218.891 34.015 218.721 33.525C218.561 33.035 218.481 32.535 218.481 32.025C218.481 31.515 218.561 31.02 218.721 30.54C218.881 30.05 219.121 29.605 219.441 29.205C219.771 28.805 220.181 28.49 220.671 28.26C221.161 28.02 221.736 27.9 222.396 27.9C223.036 27.9 223.566 27.995 223.986 28.185C224.406 28.375 224.741 28.615 224.991 28.905C225.251 29.185 225.441 29.47 225.561 29.76C225.691 30.04 225.776 30.275 225.816 30.465C225.856 30.655 225.876 30.75 225.876 30.75H224.496C224.496 30.75 224.471 30.67 224.421 30.51C224.371 30.34 224.276 30.15 224.136 29.94C223.996 29.73 223.786 29.545 223.506 29.385C223.226 29.215 222.856 29.13 222.396 29.13C221.846 29.13 221.381 29.27 221.001 29.55C220.631 29.82 220.351 30.175 220.161 30.615C219.981 31.055 219.891 31.525 219.891 32.025C219.891 32.525 219.981 32.995 220.161 33.435C220.351 33.875 220.631 34.235 221.001 34.515C221.381 34.785 221.846 34.92 222.396 34.92C222.856 34.92 223.226 34.84 223.506 34.68C223.786 34.51 223.996 34.32 224.136 34.11C224.276 33.9 224.371 33.715 224.421 33.555C224.471 33.385 224.496 33.3 224.496 33.3H225.876C225.876 33.3 225.856 33.395 225.816 33.585C225.776 33.775 225.691 34.015 225.561 34.305C225.441 34.585 225.251 34.87 224.991 35.16C224.741 35.44 224.406 35.675 223.986 35.865C223.566 36.055 223.036 36.15 222.396 36.15ZM231.595 36.15C230.945 36.15 230.375 36.035 229.885 35.805C229.395 35.565 228.985 35.25 228.655 34.86C228.335 34.46 228.09 34.015 227.92 33.525C227.76 33.035 227.68 32.535 227.68 32.025C227.68 31.515 227.76 31.02 227.92 30.54C228.08 30.05 228.32 29.605 228.64 29.205C228.97 28.805 229.38 28.49 229.87 28.26C230.36 28.02 230.935 27.9 231.595 27.9C232.235 27.9 232.765 27.995 233.185 28.185C233.605 28.375 233.94 28.615 234.19 28.905C234.45 29.185 234.64 29.47 234.76 29.76C234.89 30.04 234.975 30.275 235.015 30.465C235.055 30.655 235.075 30.75 235.075 30.75H233.695C233.695 30.75 233.67 30.67 233.62 30.51C233.57 30.34 233.475 30.15 233.335 29.94C233.195 29.73 232.985 29.545 232.705 29.385C232.425 29.215 232.055 29.13 231.595 29.13C231.045 29.13 230.58 29.27 230.2 29.55C229.83 29.82 229.55 30.175 229.36 30.615C229.18 31.055 229.09 31.525 229.09 32.025C229.09 32.525 229.18 32.995 229.36 33.435C229.55 33.875 229.83 34.235 230.2 34.515C230.58 34.785 231.045 34.92 231.595 34.92C232.055 34.92 232.425 34.84 232.705 34.68C232.985 34.51 233.195 34.32 233.335 34.11C233.475 33.9 233.57 33.715 233.62 33.555C233.67 33.385 233.695 33.3 233.695 33.3H235.075C235.075 33.3 235.055 33.395 235.015 33.585C234.975 33.775 234.89 34.015 234.76 34.305C234.64 34.585 234.45 34.87 234.19 35.16C233.94 35.44 233.605 35.675 233.185 35.865C232.765 36.055 232.235 36.15 231.595 36.15ZM240.644 36.15C239.994 36.15 239.429 36.035 238.949 35.805C238.479 35.565 238.089 35.245 237.779 34.845C237.479 34.445 237.254 34.005 237.104 33.525C236.954 33.035 236.879 32.535 236.879 32.025C236.879 31.525 236.949 31.03 237.089 30.54C237.239 30.05 237.464 29.605 237.764 29.205C238.074 28.805 238.459 28.49 238.919 28.26C239.389 28.02 239.944 27.9 240.584 27.9C241.264 27.9 241.864 28.055 242.384 28.365C242.904 28.675 243.314 29.135 243.614 29.745C243.914 30.355 244.064 31.12 244.064 32.04V32.46H238.319C238.349 32.91 238.454 33.325 238.634 33.705C238.824 34.075 239.089 34.375 239.429 34.605C239.769 34.825 240.174 34.935 240.644 34.935C241.054 34.935 241.384 34.87 241.634 34.74C241.894 34.6 242.099 34.44 242.249 34.26C242.399 34.08 242.499 33.925 242.549 33.795C242.609 33.655 242.639 33.585 242.639 33.585H243.974C243.974 33.585 243.949 33.675 243.899 33.855C243.849 34.025 243.759 34.235 243.629 34.485C243.499 34.735 243.309 34.99 243.059 35.25C242.809 35.5 242.489 35.715 242.099 35.895C241.709 36.065 241.224 36.15 240.644 36.15ZM238.334 31.35H242.669C242.649 30.83 242.539 30.41 242.339 30.09C242.139 29.76 241.884 29.515 241.574 29.355C241.264 29.195 240.934 29.115 240.584 29.115C239.954 29.115 239.439 29.32 239.039 29.73C238.639 30.13 238.404 30.67 238.334 31.35ZM248.919 36.15C248.309 36.15 247.804 36.065 247.404 35.895C247.014 35.725 246.704 35.515 246.474 35.265C246.244 35.005 246.074 34.75 245.964 34.5C245.854 34.24 245.784 34.025 245.754 33.855C245.724 33.685 245.709 33.6 245.709 33.6H247.149C247.149 33.6 247.164 33.67 247.194 33.81C247.234 33.94 247.309 34.095 247.419 34.275C247.539 34.445 247.719 34.6 247.959 34.74C248.209 34.87 248.539 34.935 248.949 34.935C249.419 34.935 249.784 34.825 250.044 34.605C250.304 34.375 250.434 34.095 250.434 33.765C250.434 33.475 250.329 33.245 250.119 33.075C249.919 32.905 249.629 32.775 249.249 32.685L248.169 32.43C247.769 32.33 247.394 32.195 247.044 32.025C246.694 31.855 246.409 31.625 246.189 31.335C245.979 31.035 245.874 30.665 245.874 30.225C245.874 29.545 246.129 28.99 246.639 28.56C247.149 28.12 247.814 27.9 248.634 27.9C249.184 27.9 249.639 27.98 249.999 28.14C250.359 28.29 250.644 28.48 250.854 28.71C251.074 28.94 251.234 29.17 251.334 29.4C251.444 29.63 251.514 29.825 251.544 29.985C251.574 30.135 251.589 30.21 251.589 30.21H250.209C250.209 30.21 250.194 30.155 250.164 30.045C250.134 29.925 250.064 29.795 249.954 29.655C249.854 29.505 249.699 29.375 249.489 29.265C249.279 29.145 248.999 29.085 248.649 29.085C248.169 29.085 247.819 29.195 247.599 29.415C247.379 29.635 247.269 29.875 247.269 30.135C247.269 30.385 247.369 30.59 247.569 30.75C247.779 30.9 248.049 31.015 248.379 31.095L249.474 31.35C250.154 31.51 250.714 31.775 251.154 32.145C251.604 32.505 251.829 33.025 251.829 33.705C251.829 34.145 251.714 34.555 251.484 34.935C251.254 35.305 250.924 35.6 250.494 35.82C250.064 36.04 249.539 36.15 248.919 36.15ZM256.536 36.15C255.926 36.15 255.421 36.065 255.021 35.895C254.631 35.725 254.321 35.515 254.091 35.265C253.861 35.005 253.691 34.75 253.581 34.5C253.471 34.24 253.401 34.025 253.371 33.855C253.341 33.685 253.326 33.6 253.326 33.6H254.766C254.766 33.6 254.781 33.67 254.811 33.81C254.851 33.94 254.926 34.095 255.036 34.275C255.156 34.445 255.336 34.6 255.576 34.74C255.826 34.87 256.156 34.935 256.566 34.935C257.036 34.935 257.401 34.825 257.661 34.605C257.921 34.375 258.051 34.095 258.051 33.765C258.051 33.475 257.946 33.245 257.736 33.075C257.536 32.905 257.246 32.775 256.866 32.685L255.786 32.43C255.386 32.33 255.011 32.195 254.661 32.025C254.311 31.855 254.026 31.625 253.806 31.335C253.596 31.035 253.491 30.665 253.491 30.225C253.491 29.545 253.746 28.99 254.256 28.56C254.766 28.12 255.431 27.9 256.251 27.9C256.801 27.9 257.256 27.98 257.616 28.14C257.976 28.29 258.261 28.48 258.471 28.71C258.691 28.94 258.851 29.17 258.951 29.4C259.061 29.63 259.131 29.825 259.161 29.985C259.191 30.135 259.206 30.21 259.206 30.21H257.826C257.826 30.21 257.811 30.155 257.781 30.045C257.751 29.925 257.681 29.795 257.571 29.655C257.471 29.505 257.316 29.375 257.106 29.265C256.896 29.145 256.616 29.085 256.266 29.085C255.786 29.085 255.436 29.195 255.216 29.415C254.996 29.635 254.886 29.875 254.886 30.135C254.886 30.385 254.986 30.59 255.186 30.75C255.396 30.9 255.666 31.015 255.996 31.095L257.091 31.35C257.771 31.51 258.331 31.775 258.771 32.145C259.221 32.505 259.446 33.025 259.446 33.705C259.446 34.145 259.331 34.555 259.101 34.935C258.871 35.305 258.541 35.6 258.111 35.82C257.681 36.04 257.156 36.15 256.536 36.15ZM262.173 36V29.22H260.868V28.05H262.173V27.075C262.173 26.655 262.248 26.245 262.398 25.845C262.548 25.435 262.798 25.1 263.148 24.84C263.498 24.58 263.973 24.45 264.573 24.45C264.863 24.45 265.093 24.475 265.263 24.525C265.443 24.565 265.533 24.585 265.533 24.585V25.71C265.533 25.71 265.453 25.695 265.293 25.665C265.143 25.625 264.968 25.605 264.768 25.605C264.308 25.605 263.998 25.745 263.838 26.025C263.678 26.305 263.598 26.655 263.598 27.075V28.05H265.443V29.22H263.598V36H262.173ZM269.624 36.15C268.834 36.15 268.204 35.905 267.734 35.415C267.264 34.925 267.029 34.245 267.029 33.375V28.05H268.454V33.3C268.454 33.82 268.594 34.22 268.874 34.5C269.164 34.78 269.544 34.92 270.014 34.92C270.494 34.92 270.879 34.795 271.169 34.545C271.459 34.295 271.669 33.975 271.799 33.585C271.929 33.195 271.994 32.795 271.994 32.385V28.05H273.419V36H271.994V34.86H271.904C271.844 34.98 271.729 35.145 271.559 35.355C271.389 35.555 271.149 35.74 270.839 35.91C270.529 36.07 270.124 36.15 269.624 36.15ZM275.676 36L275.691 24.6H277.101V36H275.676ZM186.425 61.15C185.605 61.15 184.985 60.94 184.565 60.52C184.155 60.1 183.95 59.51 183.95 58.75V54.22H182.525V53.05H183.95V51.055H185.375V53.05H187.31V54.22H185.375V58.75C185.375 59.15 185.485 59.445 185.705 59.635C185.925 59.815 186.245 59.905 186.665 59.905C186.885 59.905 187.095 59.89 187.295 59.86C187.495 59.83 187.595 59.815 187.595 59.815V61.03C187.595 61.03 187.48 61.05 187.25 61.09C187.02 61.13 186.745 61.15 186.425 61.15ZM189.466 61V53.05H190.891V54.04H190.951C191.121 53.74 191.371 53.475 191.701 53.245C192.031 53.015 192.496 52.9 193.096 52.9C193.266 52.9 193.421 52.91 193.561 52.93C193.701 52.94 193.771 52.945 193.771 52.945V54.31C193.771 54.31 193.691 54.305 193.531 54.295C193.381 54.275 193.221 54.265 193.051 54.265C192.361 54.265 191.826 54.465 191.446 54.865C191.076 55.255 190.891 55.895 190.891 56.785V61H189.466ZM196.563 51.535C196.293 51.535 196.068 51.445 195.888 51.265C195.718 51.085 195.633 50.87 195.633 50.62C195.633 50.36 195.718 50.14 195.888 49.96C196.068 49.78 196.293 49.69 196.563 49.69C196.823 49.69 197.043 49.78 197.223 49.96C197.403 50.14 197.493 50.36 197.493 50.62C197.493 50.87 197.403 51.085 197.223 51.265C197.043 51.445 196.823 51.535 196.563 51.535ZM195.858 61V53.05H197.283V61H195.858ZM203.038 52.9C203.538 52.9 203.958 52.98 204.298 53.14C204.638 53.3 204.913 53.49 205.123 53.71C205.333 53.92 205.493 54.12 205.603 54.31H205.693V53.05H207.118V61H205.693V59.74H205.603C205.493 59.93 205.333 60.135 205.123 60.355C204.913 60.575 204.638 60.765 204.298 60.925C203.958 61.075 203.538 61.15 203.038 61.15C202.438 61.15 201.913 61.035 201.463 60.805C201.013 60.565 200.638 60.25 200.338 59.86C200.038 59.46 199.813 59.015 199.663 58.525C199.513 58.035 199.438 57.535 199.438 57.025C199.438 56.515 199.513 56.015 199.663 55.525C199.813 55.035 200.038 54.595 200.338 54.205C200.638 53.805 201.013 53.49 201.463 53.26C201.913 53.02 202.438 52.9 203.038 52.9ZM203.278 54.115C202.748 54.115 202.303 54.26 201.943 54.55C201.583 54.83 201.313 55.19 201.133 55.63C200.963 56.07 200.878 56.535 200.878 57.025C200.878 57.505 200.963 57.97 201.133 58.42C201.313 58.86 201.583 59.225 201.943 59.515C202.303 59.795 202.748 59.935 203.278 59.935C203.808 59.935 204.248 59.795 204.598 59.515C204.958 59.225 205.223 58.86 205.393 58.42C205.573 57.97 205.663 57.505 205.663 57.025C205.663 56.535 205.573 56.07 205.393 55.63C205.223 55.19 204.958 54.83 204.598 54.55C204.248 54.26 203.808 54.115 203.278 54.115ZM209.362 61L209.377 49.6H210.787V61H209.362ZM215.945 61.15C215.335 61.15 214.83 61.065 214.43 60.895C214.04 60.725 213.73 60.515 213.5 60.265C213.27 60.005 213.1 59.75 212.99 59.5C212.88 59.24 212.81 59.025 212.78 58.855C212.75 58.685 212.735 58.6 212.735 58.6H214.175C214.175 58.6 214.19 58.67 214.22 58.81C214.26 58.94 214.335 59.095 214.445 59.275C214.565 59.445 214.745 59.6 214.985 59.74C215.235 59.87 215.565 59.935 215.975 59.935C216.445 59.935 216.81 59.825 217.07 59.605C217.33 59.375 217.46 59.095 217.46 58.765C217.46 58.475 217.355 58.245 217.145 58.075C216.945 57.905 216.655 57.775 216.275 57.685L215.195 57.43C214.795 57.33 214.42 57.195 214.07 57.025C213.72 56.855 213.435 56.625 213.215 56.335C213.005 56.035 212.9 55.665 212.9 55.225C212.9 54.545 213.155 53.99 213.665 53.56C214.175 53.12 214.84 52.9 215.66 52.9C216.21 52.9 216.665 52.98 217.025 53.14C217.385 53.29 217.67 53.48 217.88 53.71C218.1 53.94 218.26 54.17 218.36 54.4C218.47 54.63 218.54 54.825 218.57 54.985C218.6 55.135 218.615 55.21 218.615 55.21H217.235C217.235 55.21 217.22 55.155 217.19 55.045C217.16 54.925 217.09 54.795 216.98 54.655C216.88 54.505 216.725 54.375 216.515 54.265C216.305 54.145 216.025 54.085 215.675 54.085C215.195 54.085 214.845 54.195 214.625 54.415C214.405 54.635 214.295 54.875 214.295 55.135C214.295 55.385 214.395 55.59 214.595 55.75C214.805 55.9 215.075 56.015 215.405 56.095L216.5 56.35C217.18 56.51 217.74 56.775 218.18 57.145C218.63 57.505 218.855 58.025 218.855 58.705C218.855 59.145 218.74 59.555 218.51 59.935C218.28 60.305 217.95 60.6 217.52 60.82C217.09 61.04 216.565 61.15 215.945 61.15ZM221.748 54.85C221.468 54.85 221.233 54.755 221.043 54.565C220.863 54.365 220.773 54.135 220.773 53.875C220.773 53.605 220.863 53.375 221.043 53.185C221.233 52.995 221.468 52.9 221.748 52.9C222.028 52.9 222.258 52.995 222.438 53.185C222.628 53.375 222.723 53.605 222.723 53.875C222.723 54.145 222.628 54.375 222.438 54.565C222.258 54.755 222.028 54.85 221.748 54.85ZM221.748 61.15C221.468 61.15 221.233 61.055 221.043 60.865C220.863 60.665 220.773 60.435 220.773 60.175C220.773 59.905 220.863 59.675 221.043 59.485C221.233 59.295 221.468 59.2 221.748 59.2C222.028 59.2 222.258 59.295 222.438 59.485C222.628 59.675 222.723 59.905 222.723 60.175C222.723 60.445 222.628 60.675 222.438 60.865C222.258 61.055 222.028 61.15 221.748 61.15ZM232.107 61.15C231.327 61.15 230.647 61.01 230.067 60.73C229.497 60.44 229.052 60.055 228.732 59.575C228.412 59.085 228.252 58.535 228.252 57.925C228.252 57.385 228.347 56.94 228.537 56.59C228.727 56.23 228.947 55.945 229.197 55.735C229.457 55.515 229.682 55.36 229.872 55.27C230.062 55.18 230.157 55.135 230.157 55.135V55.06C230.157 55.06 230.077 55.025 229.917 54.955C229.757 54.875 229.567 54.745 229.347 54.565C229.137 54.385 228.952 54.145 228.792 53.845C228.632 53.545 228.552 53.175 228.552 52.735C228.552 52.165 228.697 51.655 228.987 51.205C229.277 50.755 229.687 50.4 230.217 50.14C230.757 49.88 231.387 49.75 232.107 49.75C232.827 49.75 233.452 49.88 233.982 50.14C234.522 50.4 234.937 50.755 235.227 51.205C235.517 51.655 235.662 52.165 235.662 52.735C235.662 53.175 235.582 53.545 235.422 53.845C235.262 54.145 235.072 54.385 234.852 54.565C234.642 54.745 234.457 54.875 234.297 54.955C234.137 55.025 234.057 55.06 234.057 55.06V55.135C234.057 55.135 234.152 55.18 234.342 55.27C234.532 55.36 234.752 55.515 235.002 55.735C235.262 55.945 235.487 56.23 235.677 56.59C235.867 56.94 235.962 57.385 235.962 57.925C235.962 58.535 235.802 59.085 235.482 59.575C235.162 60.055 234.712 60.44 234.132 60.73C233.562 61.01 232.887 61.15 232.107 61.15ZM232.107 54.565C232.587 54.565 232.987 54.475 233.307 54.295C233.627 54.115 233.867 53.885 234.027 53.605C234.187 53.325 234.267 53.04 234.267 52.75C234.267 52.44 234.187 52.145 234.027 51.865C233.867 51.585 233.627 51.36 233.307 51.19C232.987 51.01 232.587 50.92 232.107 50.92C231.637 50.92 231.237 51.01 230.907 51.19C230.587 51.36 230.347 51.585 230.187 51.865C230.027 52.145 229.947 52.44 229.947 52.75C229.947 53.04 230.027 53.325 230.187 53.605C230.347 53.885 230.587 54.115 230.907 54.295C231.237 54.475 231.637 54.565 232.107 54.565ZM232.107 59.965C232.647 59.965 233.097 59.86 233.457 59.65C233.827 59.44 234.102 59.17 234.282 58.84C234.472 58.5 234.567 58.15 234.567 57.79C234.567 57.44 234.477 57.11 234.297 56.8C234.117 56.48 233.842 56.22 233.472 56.02C233.112 55.81 232.657 55.705 232.107 55.705C231.557 55.705 231.097 55.81 230.727 56.02C230.367 56.22 230.097 56.48 229.917 56.8C229.737 57.11 229.647 57.44 229.647 57.79C229.647 58.15 229.737 58.5 229.917 58.84C230.107 59.17 230.382 59.44 230.742 59.65C231.112 59.86 231.567 59.965 232.107 59.965ZM240.083 54.34C239.663 54.34 239.278 54.25 238.928 54.07C238.578 53.88 238.293 53.61 238.073 53.26C237.863 52.91 237.758 52.5 237.758 52.03C237.758 51.56 237.863 51.155 238.073 50.815C238.283 50.475 238.563 50.215 238.913 50.035C239.273 49.845 239.663 49.75 240.083 49.75C240.513 49.75 240.903 49.845 241.253 50.035C241.603 50.215 241.883 50.475 242.093 50.815C242.303 51.155 242.408 51.56 242.408 52.03C242.408 52.5 242.303 52.91 242.093 53.26C241.883 53.61 241.598 53.88 241.238 54.07C240.888 54.25 240.503 54.34 240.083 54.34ZM239.618 61L245.453 49.9H246.833L240.998 61H239.618ZM240.083 53.275C240.403 53.275 240.678 53.165 240.908 52.945C241.148 52.725 241.268 52.425 241.268 52.045C241.268 51.655 241.148 51.355 240.908 51.145C240.678 50.925 240.403 50.815 240.083 50.815C239.773 50.815 239.498 50.925 239.258 51.145C239.018 51.355 238.898 51.655 238.898 52.045C238.898 52.425 239.018 52.725 239.258 52.945C239.498 53.165 239.773 53.275 240.083 53.275ZM246.368 61.15C245.948 61.15 245.563 61.06 245.213 60.88C244.863 60.69 244.578 60.425 244.358 60.085C244.148 59.735 244.043 59.325 244.043 58.855C244.043 58.375 244.148 57.965 244.358 57.625C244.578 57.285 244.863 57.025 245.213 56.845C245.563 56.655 245.948 56.56 246.368 56.56C246.788 56.56 247.173 56.655 247.523 56.845C247.873 57.025 248.153 57.285 248.363 57.625C248.583 57.965 248.693 58.375 248.693 58.855C248.693 59.325 248.588 59.735 248.378 60.085C248.168 60.425 247.888 60.69 247.538 60.88C247.188 61.06 246.798 61.15 246.368 61.15ZM246.368 60.1C246.688 60.1 246.963 59.99 247.193 59.77C247.433 59.55 247.553 59.245 247.553 58.855C247.553 58.465 247.433 58.165 247.193 57.955C246.963 57.735 246.688 57.625 246.368 57.625C246.058 57.625 245.783 57.735 245.543 57.955C245.303 58.165 245.183 58.465 245.183 58.855C245.183 59.245 245.303 59.55 245.543 59.77C245.783 59.99 246.058 60.1 246.368 60.1Z" fill="#252429"/>
<path d="M192.92 129.15C192.28 129.15 191.73 129.07 191.27 128.91C190.82 128.74 190.445 128.525 190.145 128.265C189.845 127.995 189.605 127.715 189.425 127.425C189.245 127.135 189.11 126.86 189.02 126.6C188.93 126.33 188.87 126.115 188.84 125.955C188.82 125.785 188.81 125.7 188.81 125.7H190.31C190.31 125.7 190.325 125.77 190.355 125.91C190.385 126.05 190.445 126.225 190.535 126.435C190.635 126.645 190.78 126.86 190.97 127.08C191.16 127.29 191.415 127.465 191.735 127.605C192.055 127.745 192.46 127.815 192.95 127.815C193.69 127.815 194.275 127.64 194.705 127.29C195.135 126.93 195.35 126.465 195.35 125.895C195.35 125.405 195.185 125.025 194.855 124.755C194.535 124.485 194.075 124.275 193.475 124.125L192.005 123.765C191.485 123.635 191 123.455 190.55 123.225C190.11 122.985 189.755 122.675 189.485 122.295C189.225 121.905 189.095 121.42 189.095 120.84C189.095 120.19 189.255 119.635 189.575 119.175C189.895 118.715 190.33 118.365 190.88 118.125C191.43 117.875 192.055 117.75 192.755 117.75C193.435 117.75 194 117.855 194.45 118.065C194.9 118.275 195.26 118.535 195.53 118.845C195.8 119.145 196 119.45 196.13 119.76C196.26 120.06 196.345 120.315 196.385 120.525C196.425 120.735 196.445 120.84 196.445 120.84H195.005C195.005 120.84 194.985 120.75 194.945 120.57C194.905 120.39 194.81 120.185 194.66 119.955C194.51 119.715 194.28 119.505 193.97 119.325C193.66 119.145 193.24 119.055 192.71 119.055C191.99 119.055 191.445 119.225 191.075 119.565C190.715 119.905 190.535 120.295 190.535 120.735C190.535 121.135 190.68 121.46 190.97 121.71C191.26 121.95 191.66 122.135 192.17 122.265L193.76 122.655C194.33 122.795 194.845 123 195.305 123.27C195.765 123.53 196.13 123.87 196.4 124.29C196.67 124.7 196.805 125.205 196.805 125.805C196.805 126.405 196.655 126.96 196.355 127.47C196.065 127.98 195.63 128.39 195.05 128.7C194.48 129 193.77 129.15 192.92 129.15ZM201.166 129.15C200.376 129.15 199.746 128.905 199.276 128.415C198.806 127.925 198.571 127.245 198.571 126.375V121.05H199.996V126.3C199.996 126.82 200.136 127.22 200.416 127.5C200.706 127.78 201.086 127.92 201.556 127.92C202.036 127.92 202.421 127.795 202.711 127.545C203.001 127.295 203.211 126.975 203.341 126.585C203.471 126.195 203.536 125.795 203.536 125.385V121.05H204.961V129H203.536V127.86H203.446C203.386 127.98 203.271 128.145 203.101 128.355C202.931 128.555 202.691 128.74 202.381 128.91C202.071 129.07 201.666 129.15 201.166 129.15ZM210.833 129.15C210.183 129.15 209.613 129.035 209.123 128.805C208.633 128.565 208.223 128.25 207.893 127.86C207.573 127.46 207.328 127.015 207.158 126.525C206.998 126.035 206.918 125.535 206.918 125.025C206.918 124.515 206.998 124.02 207.158 123.54C207.318 123.05 207.558 122.605 207.878 122.205C208.208 121.805 208.618 121.49 209.108 121.26C209.598 121.02 210.173 120.9 210.833 120.9C211.473 120.9 212.003 120.995 212.423 121.185C212.843 121.375 213.178 121.615 213.428 121.905C213.688 122.185 213.878 122.47 213.998 122.76C214.128 123.04 214.213 123.275 214.253 123.465C214.293 123.655 214.313 123.75 214.313 123.75H212.933C212.933 123.75 212.908 123.67 212.858 123.51C212.808 123.34 212.713 123.15 212.573 122.94C212.433 122.73 212.223 122.545 211.943 122.385C211.663 122.215 211.293 122.13 210.833 122.13C210.283 122.13 209.818 122.27 209.438 122.55C209.068 122.82 208.788 123.175 208.598 123.615C208.418 124.055 208.328 124.525 208.328 125.025C208.328 125.525 208.418 125.995 208.598 126.435C208.788 126.875 209.068 127.235 209.438 127.515C209.818 127.785 210.283 127.92 210.833 127.92C211.293 127.92 211.663 127.84 211.943 127.68C212.223 127.51 212.433 127.32 212.573 127.11C212.713 126.9 212.808 126.715 212.858 126.555C212.908 126.385 212.933 126.3 212.933 126.3H214.313C214.313 126.3 214.293 126.395 214.253 126.585C214.213 126.775 214.128 127.015 213.998 127.305C213.878 127.585 213.688 127.87 213.428 128.16C213.178 128.44 212.843 128.675 212.423 128.865C212.003 129.055 211.473 129.15 210.833 129.15ZM220.032 129.15C219.382 129.15 218.812 129.035 218.322 128.805C217.832 128.565 217.422 128.25 217.092 127.86C216.772 127.46 216.527 127.015 216.357 126.525C216.197 126.035 216.117 125.535 216.117 125.025C216.117 124.515 216.197 124.02 216.357 123.54C216.517 123.05 216.757 122.605 217.077 122.205C217.407 121.805 217.817 121.49 218.307 121.26C218.797 121.02 219.372 120.9 220.032 120.9C220.672 120.9 221.202 120.995 221.622 121.185C222.042 121.375 222.377 121.615 222.627 121.905C222.887 122.185 223.077 122.47 223.197 122.76C223.327 123.04 223.412 123.275 223.452 123.465C223.492 123.655 223.512 123.75 223.512 123.75H222.132C222.132 123.75 222.107 123.67 222.057 123.51C222.007 123.34 221.912 123.15 221.772 122.94C221.632 122.73 221.422 122.545 221.142 122.385C220.862 122.215 220.492 122.13 220.032 122.13C219.482 122.13 219.017 122.27 218.637 122.55C218.267 122.82 217.987 123.175 217.797 123.615C217.617 124.055 217.527 124.525 217.527 125.025C217.527 125.525 217.617 125.995 217.797 126.435C217.987 126.875 218.267 127.235 218.637 127.515C219.017 127.785 219.482 127.92 220.032 127.92C220.492 127.92 220.862 127.84 221.142 127.68C221.422 127.51 221.632 127.32 221.772 127.11C221.912 126.9 222.007 126.715 222.057 126.555C222.107 126.385 222.132 126.3 222.132 126.3H223.512C223.512 126.3 223.492 126.395 223.452 126.585C223.412 126.775 223.327 127.015 223.197 127.305C223.077 127.585 222.887 127.87 222.627 128.16C222.377 128.44 222.042 128.675 221.622 128.865C221.202 129.055 220.672 129.15 220.032 129.15ZM229.081 129.15C228.431 129.15 227.866 129.035 227.386 128.805C226.916 128.565 226.526 128.245 226.216 127.845C225.916 127.445 225.691 127.005 225.541 126.525C225.391 126.035 225.316 125.535 225.316 125.025C225.316 124.525 225.386 124.03 225.526 123.54C225.676 123.05 225.901 122.605 226.201 122.205C226.511 121.805 226.896 121.49 227.356 121.26C227.826 121.02 228.381 120.9 229.021 120.9C229.701 120.9 230.301 121.055 230.821 121.365C231.341 121.675 231.751 122.135 232.051 122.745C232.351 123.355 232.501 124.12 232.501 125.04V125.46H226.756C226.786 125.91 226.891 126.325 227.071 126.705C227.261 127.075 227.526 127.375 227.866 127.605C228.206 127.825 228.611 127.935 229.081 127.935C229.491 127.935 229.821 127.87 230.071 127.74C230.331 127.6 230.536 127.44 230.686 127.26C230.836 127.08 230.936 126.925 230.986 126.795C231.046 126.655 231.076 126.585 231.076 126.585H232.411C232.411 126.585 232.386 126.675 232.336 126.855C232.286 127.025 232.196 127.235 232.066 127.485C231.936 127.735 231.746 127.99 231.496 128.25C231.246 128.5 230.926 128.715 230.536 128.895C230.146 129.065 229.661 129.15 229.081 129.15ZM226.771 124.35H231.106C231.086 123.83 230.976 123.41 230.776 123.09C230.576 122.76 230.321 122.515 230.011 122.355C229.701 122.195 229.371 122.115 229.021 122.115C228.391 122.115 227.876 122.32 227.476 122.73C227.076 123.13 226.841 123.67 226.771 124.35ZM237.356 129.15C236.746 129.15 236.241 129.065 235.841 128.895C235.451 128.725 235.141 128.515 234.911 128.265C234.681 128.005 234.511 127.75 234.401 127.5C234.291 127.24 234.221 127.025 234.191 126.855C234.161 126.685 234.146 126.6 234.146 126.6H235.586C235.586 126.6 235.601 126.67 235.631 126.81C235.671 126.94 235.746 127.095 235.856 127.275C235.976 127.445 236.156 127.6 236.396 127.74C236.646 127.87 236.976 127.935 237.386 127.935C237.856 127.935 238.221 127.825 238.481 127.605C238.741 127.375 238.871 127.095 238.871 126.765C238.871 126.475 238.766 126.245 238.556 126.075C238.356 125.905 238.066 125.775 237.686 125.685L236.606 125.43C236.206 125.33 235.831 125.195 235.481 125.025C235.131 124.855 234.846 124.625 234.626 124.335C234.416 124.035 234.311 123.665 234.311 123.225C234.311 122.545 234.566 121.99 235.076 121.56C235.586 121.12 236.251 120.9 237.071 120.9C237.621 120.9 238.076 120.98 238.436 121.14C238.796 121.29 239.081 121.48 239.291 121.71C239.511 121.94 239.671 122.17 239.771 122.4C239.881 122.63 239.951 122.825 239.981 122.985C240.011 123.135 240.026 123.21 240.026 123.21H238.646C238.646 123.21 238.631 123.155 238.601 123.045C238.571 122.925 238.501 122.795 238.391 122.655C238.291 122.505 238.136 122.375 237.926 122.265C237.716 122.145 237.436 122.085 237.086 122.085C236.606 122.085 236.256 122.195 236.036 122.415C235.816 122.635 235.706 122.875 235.706 123.135C235.706 123.385 235.806 123.59 236.006 123.75C236.216 123.9 236.486 124.015 236.816 124.095L237.911 124.35C238.591 124.51 239.151 124.775 239.591 125.145C240.041 125.505 240.266 126.025 240.266 126.705C240.266 127.145 240.151 127.555 239.921 127.935C239.691 128.305 239.361 128.6 238.931 128.82C238.501 129.04 237.976 129.15 237.356 129.15ZM244.973 129.15C244.363 129.15 243.858 129.065 243.458 128.895C243.068 128.725 242.758 128.515 242.528 128.265C242.298 128.005 242.128 127.75 242.018 127.5C241.908 127.24 241.838 127.025 241.808 126.855C241.778 126.685 241.763 126.6 241.763 126.6H243.203C243.203 126.6 243.218 126.67 243.248 126.81C243.288 126.94 243.363 127.095 243.473 127.275C243.593 127.445 243.773 127.6 244.013 127.74C244.263 127.87 244.593 127.935 245.003 127.935C245.473 127.935 245.838 127.825 246.098 127.605C246.358 127.375 246.488 127.095 246.488 126.765C246.488 126.475 246.383 126.245 246.173 126.075C245.973 125.905 245.683 125.775 245.303 125.685L244.223 125.43C243.823 125.33 243.448 125.195 243.098 125.025C242.748 124.855 242.463 124.625 242.243 124.335C242.033 124.035 241.928 123.665 241.928 123.225C241.928 122.545 242.183 121.99 242.693 121.56C243.203 121.12 243.868 120.9 244.688 120.9C245.238 120.9 245.693 120.98 246.053 121.14C246.413 121.29 246.698 121.48 246.908 121.71C247.128 121.94 247.288 122.17 247.388 122.4C247.498 122.63 247.568 122.825 247.598 122.985C247.628 123.135 247.643 123.21 247.643 123.21H246.263C246.263 123.21 246.248 123.155 246.218 123.045C246.188 122.925 246.118 122.795 246.008 122.655C245.908 122.505 245.753 122.375 245.543 122.265C245.333 122.145 245.053 122.085 244.703 122.085C244.223 122.085 243.873 122.195 243.653 122.415C243.433 122.635 243.323 122.875 243.323 123.135C243.323 123.385 243.423 123.59 243.623 123.75C243.833 123.9 244.103 124.015 244.433 124.095L245.528 124.35C246.208 124.51 246.768 124.775 247.208 125.145C247.658 125.505 247.883 126.025 247.883 126.705C247.883 127.145 247.768 127.555 247.538 127.935C247.308 128.305 246.978 128.6 246.548 128.82C246.118 129.04 245.593 129.15 244.973 129.15ZM250.61 129V122.22H249.305V121.05H250.61V120.075C250.61 119.655 250.685 119.245 250.835 118.845C250.985 118.435 251.235 118.1 251.585 117.84C251.935 117.58 252.41 117.45 253.01 117.45C253.3 117.45 253.53 117.475 253.7 117.525C253.88 117.565 253.97 117.585 253.97 117.585V118.71C253.97 118.71 253.89 118.695 253.73 118.665C253.58 118.625 253.405 118.605 253.205 118.605C252.745 118.605 252.435 118.745 252.275 119.025C252.115 119.305 252.035 119.655 252.035 120.075V121.05H253.88V122.22H252.035V129H250.61ZM258.061 129.15C257.271 129.15 256.641 128.905 256.171 128.415C255.701 127.925 255.466 127.245 255.466 126.375V121.05H256.891V126.3C256.891 126.82 257.031 127.22 257.311 127.5C257.601 127.78 257.981 127.92 258.451 127.92C258.931 127.92 259.316 127.795 259.606 127.545C259.896 127.295 260.106 126.975 260.236 126.585C260.366 126.195 260.431 125.795 260.431 125.385V121.05H261.856V129H260.431V127.86H260.341C260.281 127.98 260.166 128.145 259.996 128.355C259.826 128.555 259.586 128.74 259.276 128.91C258.966 129.07 258.561 129.15 258.061 129.15ZM264.112 129L264.127 117.6H265.537V129H264.112ZM192.425 154.15C191.605 154.15 190.985 153.94 190.565 153.52C190.155 153.1 189.95 152.51 189.95 151.75V147.22H188.525V146.05H189.95V144.055H191.375V146.05H193.31V147.22H191.375V151.75C191.375 152.15 191.485 152.445 191.705 152.635C191.925 152.815 192.245 152.905 192.665 152.905C192.885 152.905 193.095 152.89 193.295 152.86C193.495 152.83 193.595 152.815 193.595 152.815V154.03C193.595 154.03 193.48 154.05 193.25 154.09C193.02 154.13 192.745 154.15 192.425 154.15ZM195.466 154V146.05H196.891V147.04H196.951C197.121 146.74 197.371 146.475 197.701 146.245C198.031 146.015 198.496 145.9 199.096 145.9C199.266 145.9 199.421 145.91 199.561 145.93C199.701 145.94 199.771 145.945 199.771 145.945V147.31C199.771 147.31 199.691 147.305 199.531 147.295C199.381 147.275 199.221 147.265 199.051 147.265C198.361 147.265 197.826 147.465 197.446 147.865C197.076 148.255 196.891 148.895 196.891 149.785V154H195.466ZM202.563 144.535C202.293 144.535 202.068 144.445 201.888 144.265C201.718 144.085 201.633 143.87 201.633 143.62C201.633 143.36 201.718 143.14 201.888 142.96C202.068 142.78 202.293 142.69 202.563 142.69C202.823 142.69 203.043 142.78 203.223 142.96C203.403 143.14 203.493 143.36 203.493 143.62C203.493 143.87 203.403 144.085 203.223 144.265C203.043 144.445 202.823 144.535 202.563 144.535ZM201.858 154V146.05H203.283V154H201.858ZM209.038 145.9C209.538 145.9 209.958 145.98 210.298 146.14C210.638 146.3 210.913 146.49 211.123 146.71C211.333 146.92 211.493 147.12 211.603 147.31H211.693V146.05H213.118V154H211.693V152.74H211.603C211.493 152.93 211.333 153.135 211.123 153.355C210.913 153.575 210.638 153.765 210.298 153.925C209.958 154.075 209.538 154.15 209.038 154.15C208.438 154.15 207.913 154.035 207.463 153.805C207.013 153.565 206.638 153.25 206.338 152.86C206.038 152.46 205.813 152.015 205.663 151.525C205.513 151.035 205.438 150.535 205.438 150.025C205.438 149.515 205.513 149.015 205.663 148.525C205.813 148.035 206.038 147.595 206.338 147.205C206.638 146.805 207.013 146.49 207.463 146.26C207.913 146.02 208.438 145.9 209.038 145.9ZM209.278 147.115C208.748 147.115 208.303 147.26 207.943 147.55C207.583 147.83 207.313 148.19 207.133 148.63C206.963 149.07 206.878 149.535 206.878 150.025C206.878 150.505 206.963 150.97 207.133 151.42C207.313 151.86 207.583 152.225 207.943 152.515C208.303 152.795 208.748 152.935 209.278 152.935C209.808 152.935 210.248 152.795 210.598 152.515C210.958 152.225 211.223 151.86 211.393 151.42C211.573 150.97 211.663 150.505 211.663 150.025C211.663 149.535 211.573 149.07 211.393 148.63C211.223 148.19 210.958 147.83 210.598 147.55C210.248 147.26 209.808 147.115 209.278 147.115ZM215.362 154L215.377 142.6H216.787V154H215.362ZM221.945 154.15C221.335 154.15 220.83 154.065 220.43 153.895C220.04 153.725 219.73 153.515 219.5 153.265C219.27 153.005 219.1 152.75 218.99 152.5C218.88 152.24 218.81 152.025 218.78 151.855C218.75 151.685 218.735 151.6 218.735 151.6H220.175C220.175 151.6 220.19 151.67 220.22 151.81C220.26 151.94 220.335 152.095 220.445 152.275C220.565 152.445 220.745 152.6 220.985 152.74C221.235 152.87 221.565 152.935 221.975 152.935C222.445 152.935 222.81 152.825 223.07 152.605C223.33 152.375 223.46 152.095 223.46 151.765C223.46 151.475 223.355 151.245 223.145 151.075C222.945 150.905 222.655 150.775 222.275 150.685L221.195 150.43C220.795 150.33 220.42 150.195 220.07 150.025C219.72 149.855 219.435 149.625 219.215 149.335C219.005 149.035 218.9 148.665 218.9 148.225C218.9 147.545 219.155 146.99 219.665 146.56C220.175 146.12 220.84 145.9 221.66 145.9C222.21 145.9 222.665 145.98 223.025 146.14C223.385 146.29 223.67 146.48 223.88 146.71C224.1 146.94 224.26 147.17 224.36 147.4C224.47 147.63 224.54 147.825 224.57 147.985C224.6 148.135 224.615 148.21 224.615 148.21H223.235C223.235 148.21 223.22 148.155 223.19 148.045C223.16 147.925 223.09 147.795 222.98 147.655C222.88 147.505 222.725 147.375 222.515 147.265C222.305 147.145 222.025 147.085 221.675 147.085C221.195 147.085 220.845 147.195 220.625 147.415C220.405 147.635 220.295 147.875 220.295 148.135C220.295 148.385 220.395 148.59 220.595 148.75C220.805 148.9 221.075 149.015 221.405 149.095L222.5 149.35C223.18 149.51 223.74 149.775 224.18 150.145C224.63 150.505 224.855 151.025 224.855 151.705C224.855 152.145 224.74 152.555 224.51 152.935C224.28 153.305 223.95 153.6 223.52 153.82C223.09 154.04 222.565 154.15 221.945 154.15ZM227.748 147.85C227.468 147.85 227.233 147.755 227.043 147.565C226.863 147.365 226.773 147.135 226.773 146.875C226.773 146.605 226.863 146.375 227.043 146.185C227.233 145.995 227.468 145.9 227.748 145.9C228.028 145.9 228.258 145.995 228.438 146.185C228.628 146.375 228.723 146.605 228.723 146.875C228.723 147.145 228.628 147.375 228.438 147.565C228.258 147.755 228.028 147.85 227.748 147.85ZM227.748 154.15C227.468 154.15 227.233 154.055 227.043 153.865C226.863 153.665 226.773 153.435 226.773 153.175C226.773 152.905 226.863 152.675 227.043 152.485C227.233 152.295 227.468 152.2 227.748 152.2C228.028 152.2 228.258 152.295 228.438 152.485C228.628 152.675 228.723 152.905 228.723 153.175C228.723 153.445 228.628 153.675 228.438 153.865C228.258 154.055 228.028 154.15 227.748 154.15ZM238.272 142.75C238.982 142.75 239.597 142.885 240.117 143.155C240.647 143.425 241.082 143.8 241.422 144.28C241.762 144.75 242.012 145.29 242.172 145.9C242.342 146.5 242.427 147.14 242.427 147.82C242.427 148.37 242.367 148.94 242.247 149.53C242.127 150.12 241.937 150.69 241.677 151.24C241.427 151.79 241.087 152.285 240.657 152.725C240.237 153.155 239.722 153.5 239.112 153.76C238.512 154.02 237.807 154.15 236.997 154.15C236.687 154.15 236.397 154.13 236.127 154.09C235.857 154.05 235.642 154.015 235.482 153.985C235.322 153.945 235.242 153.925 235.242 153.925V152.575C235.242 152.575 235.332 152.595 235.512 152.635C235.692 152.665 235.917 152.7 236.187 152.74C236.467 152.78 236.747 152.8 237.027 152.8C237.637 152.8 238.157 152.71 238.587 152.53C239.027 152.34 239.392 152.095 239.682 151.795C239.982 151.485 240.217 151.155 240.387 150.805C240.567 150.445 240.697 150.095 240.777 149.755C240.857 149.405 240.902 149.105 240.912 148.855C240.842 148.975 240.702 149.14 240.492 149.35C240.282 149.56 239.987 149.75 239.607 149.92C239.227 150.09 238.742 150.175 238.152 150.175C237.342 150.175 236.662 150 236.112 149.65C235.572 149.29 235.162 148.83 234.882 148.27C234.612 147.7 234.477 147.11 234.477 146.5C234.477 145.87 234.617 145.27 234.897 144.7C235.177 144.13 235.597 143.665 236.157 143.305C236.727 142.935 237.432 142.75 238.272 142.75ZM238.302 144.01C237.902 144.01 237.517 144.1 237.147 144.28C236.787 144.46 236.487 144.73 236.247 145.09C236.017 145.45 235.902 145.905 235.902 146.455C235.902 147.005 236.017 147.465 236.247 147.835C236.487 148.195 236.787 148.465 237.147 148.645C237.517 148.825 237.902 148.915 238.302 148.915C238.702 148.915 239.082 148.825 239.442 148.645C239.812 148.465 240.112 148.195 240.342 147.835C240.582 147.465 240.702 147.005 240.702 146.455C240.702 145.905 240.582 145.45 240.342 145.09C240.112 144.73 239.812 144.46 239.442 144.28C239.082 144.1 238.702 144.01 238.302 144.01ZM244.762 154V152.965L247.192 150.715C247.872 150.085 248.467 149.535 248.977 149.065C249.497 148.585 249.902 148.12 250.192 147.67C250.482 147.22 250.627 146.725 250.627 146.185C250.627 145.735 250.517 145.355 250.297 145.045C250.087 144.735 249.812 144.5 249.472 144.34C249.142 144.17 248.797 144.085 248.437 144.085C247.967 144.085 247.582 144.165 247.282 144.325C246.982 144.485 246.752 144.685 246.592 144.925C246.432 145.155 246.317 145.39 246.247 145.63C246.177 145.86 246.137 146.055 246.127 146.215C246.117 146.375 246.112 146.455 246.112 146.455H244.702C244.702 146.455 244.707 146.365 244.717 146.185C244.727 146.005 244.762 145.775 244.822 145.495C244.892 145.215 245.002 144.92 245.152 144.61C245.302 144.29 245.512 143.99 245.782 143.71C246.062 143.43 246.417 143.2 246.847 143.02C247.287 142.84 247.822 142.75 248.452 142.75C249.092 142.75 249.687 142.885 250.237 143.155C250.797 143.415 251.247 143.8 251.587 144.31C251.927 144.81 252.097 145.425 252.097 146.155C252.097 146.825 251.927 147.435 251.587 147.985C251.257 148.525 250.817 149.055 250.267 149.575C249.717 150.095 249.117 150.655 248.467 151.255L246.937 152.665H252.337V154H244.762ZM256.542 147.34C256.122 147.34 255.737 147.25 255.387 147.07C255.037 146.88 254.752 146.61 254.532 146.26C254.322 145.91 254.217 145.5 254.217 145.03C254.217 144.56 254.322 144.155 254.532 143.815C254.742 143.475 255.022 143.215 255.372 143.035C255.732 142.845 256.122 142.75 256.542 142.75C256.972 142.75 257.362 142.845 257.712 143.035C258.062 143.215 258.342 143.475 258.552 143.815C258.762 144.155 258.867 144.56 258.867 145.03C258.867 145.5 258.762 145.91 258.552 146.26C258.342 146.61 258.057 146.88 257.697 147.07C257.347 147.25 256.962 147.34 256.542 147.34ZM256.077 154L261.912 142.9H263.292L257.457 154H256.077ZM256.542 146.275C256.862 146.275 257.137 146.165 257.367 145.945C257.607 145.725 257.727 145.425 257.727 145.045C257.727 144.655 257.607 144.355 257.367 144.145C257.137 143.925 256.862 143.815 256.542 143.815C256.232 143.815 255.957 143.925 255.717 144.145C255.477 144.355 255.357 144.655 255.357 145.045C255.357 145.425 255.477 145.725 255.717 145.945C255.957 146.165 256.232 146.275 256.542 146.275ZM262.827 154.15C262.407 154.15 262.022 154.06 261.672 153.88C261.322 153.69 261.037 153.425 260.817 153.085C260.607 152.735 260.502 152.325 260.502 151.855C260.502 151.375 260.607 150.965 260.817 150.625C261.037 150.285 261.322 150.025 261.672 149.845C262.022 149.655 262.407 149.56 262.827 149.56C263.247 149.56 263.632 149.655 263.982 149.845C264.332 150.025 264.612 150.285 264.822 150.625C265.042 150.965 265.152 151.375 265.152 151.855C265.152 152.325 265.047 152.735 264.837 153.085C264.627 153.425 264.347 153.69 263.997 153.88C263.647 154.06 263.257 154.15 262.827 154.15ZM262.827 153.1C263.147 153.1 263.422 152.99 263.652 152.77C263.892 152.55 264.012 152.245 264.012 151.855C264.012 151.465 263.892 151.165 263.652 150.955C263.422 150.735 263.147 150.625 262.827 150.625C262.517 150.625 262.242 150.735 262.002 150.955C261.762 151.165 261.642 151.465 261.642 151.855C261.642 152.245 261.762 152.55 262.002 152.77C262.242 152.99 262.517 153.1 262.827 153.1Z" fill="#252429"/>
<path d="M166 137L138 122" stroke="#73A4D2" stroke-width="3" stroke-linecap="round"/>
<path fill-rule="evenodd" clip-rule="evenodd" d="M82.285 164.81C127.73 164.81 164.57 127.916 164.57 82.405C164.57 73.1479 163.046 64.2473 160.235 55.9412L134.424 65.3721C136.097 70.6418 137 76.2554 137 82.0802C137 112.5 112.376 137.16 82 137.16C51.6243 137.16 27 112.5 27 82.0802C27 51.6602 51.6243 27 82 27C101.17 27 118.049 36.8213 127.893 51.7135L151.388 37.6498C136.726 14.9913 111.254 0 82.285 0C36.8403 0 0 36.894 0 82.405C0 127.916 36.8403 164.81 82.285 164.81ZM158.474 51.2208C158.479 51.2325 158.484 51.2443 158.488 51.256L158.283 51.3312L158.474 51.2208Z" fill="#73A4D2"/>
<path fill-rule="evenodd" clip-rule="evenodd" d="M153.517 42C155.208 44.9977 156.718 48.112 158.03 51.328L158.015 51.2927L157.824 51.4031L132.236 60.7526C131.562 59.1542 130.816 57.5944 130 56.0772L153.517 42Z" fill="#8DBBE7"/>
</svg>
